<?xml version="1.0" encoding="utf-8"?>
<!-- Generator: Adobe Illustrator 24.2.3, SVG Export Plug-In . SVG Version: 6.00 Build 0)  -->
<svg version="1.1" id="Capa_1" xmlns="http://www.w3.org/2000/svg" xmlns:xlink="http://www.w3.org/1999/xlink" x="0px" y="0px"
	 viewBox="0 0 137 40" style="enable-background:new 0 0 137 40;" xml:space="preserve">
<style type="text/css">
	.st0{fill:#8C7857;}
	.st1{fill:#FFFFFF;}
</style>
<g>
	<g>
		<path class="st0" d="M12.63,17.35v-4.98c0-1.03-0.57-1.77-1.28-1.77v-0.41h2.98v0.41c-0.71,0-1.28,0.73-1.28,1.77v13.87h-0.41
			L1.8,12.21l-0.16-0.21c-0.02,0.11-0.02,0.23-0.02,0.34v11.7c0,1.03,0.57,1.77,1.28,1.77v0.41h-2.98v-0.41
			c0.71,0,1.28-0.73,1.28-1.77v-11.7c0-0.64-0.21-1.15-0.55-1.47c-0.23-0.18-0.46-0.3-0.73-0.3v-0.41h5.02
			c1.93,0,3.23,1.31,4.75,3.33L12.63,17.35z"/>
		<path class="st0" d="M20.84,24.07c0,1.08,0.6,1.77,1.54,1.77c0.94,0,1.54-0.69,1.54-1.77v-7.64c0-1.03-0.53-1.77-1.24-1.77V14.3
			h2.18c2.34,0,4.29,1.31,4.29,3.33v8.14c0,0.21,0.11,0.28,0.21,0.28c0.28,0,0.28-0.73,0.69-0.73c0.21,0,0.34,0.14,0.34,0.34
			c0,0.11-0.05,0.23-0.14,0.32c-0.37,0.37-1.08,0.62-2.04,0.62c-1.54,0-2.91-0.57-3.67-1.54c-0.76,0.83-2.09,1.54-3.94,1.54
			c-3.03,0-4.98-1.31-4.98-3.33v-6.83c0-1.03-0.53-1.77-1.24-1.77V14.3h2.18c2.34,0,4.29,1.31,4.29,3.33V24.07z"/>
		<path class="st0" d="M43.28,24.64c-1.51,1.38-3.19,1.95-5.48,1.95c-4.01,0-6.93-2.66-6.93-6.33c0-3.67,3.12-6.33,7.38-6.33
			c2.98,0,5.39,1.19,5.39,3.49c0,3.1-5.64,3.92-7.04,4.04c0.6,2.78,2.16,4.29,3.67,4.29c1.95,0,2.25-1.81,2.87-1.81
			c0.21,0,0.34,0.14,0.34,0.34C43.48,24.44,43.37,24.55,43.28,24.64L43.28,24.64z M36.53,21.07c1.65-0.87,3.07-3.07,3.07-5.05
			c0-1.06-0.5-1.72-1.35-1.72c-1.7,0-1.9,3.14-1.9,4.59C36.35,19.67,36.42,20.4,36.53,21.07z"/>
		<path class="st0" d="M53.55,23.38c-0.02-0.23-0.05-0.46-0.05-0.69c0-1.88,0.37-3.99,1.03-5.99c0.89-2.68,2.61-4.84,3.97-4.84
			c0.69,0,1.12,0.41,1.1,0.96c-0.02,0.64-0.34,0.94-1.31,1.7c-3.17,2.5-4.43,5.21-4.43,8.53c0,1.33,0.67,2.8,1.58,2.8v0.37h-2.59
			c-3.03,0-4.31-1.4-4.98-3.33l-2.27-6.56c-0.34-1.01-1.03-1.67-1.72-1.67V14.3h7.75v0.37c-0.69,0-0.87,0.73-0.53,1.72L53.55,23.38z
			"/>
		<path class="st0" d="M61.33,17.01c-0.5,0-0.92-0.41-0.92-0.92c0-1.19,2.41-2.16,5-2.16c4.11,0,6.17,1.19,6.17,3.55v8.28
			c0,0.21,0.11,0.28,0.21,0.28c0.28,0,0.28-0.73,0.69-0.73c0.21,0,0.34,0.14,0.34,0.34c0,0.11-0.05,0.23-0.14,0.32
			c-0.37,0.37-1.08,0.62-2.04,0.62c-1.54,0-2.91-0.57-3.67-1.54c-0.76,0.83-2.09,1.54-3.94,1.54c-3.03,0-4.98-1.31-4.98-3.78
			c0-4.93,8.3-3.55,8.3-6.74c0-1.08-0.6-1.77-1.54-1.77C62.68,14.3,63.14,17.01,61.33,17.01z M64.82,25.84
			c0.94,0,1.54-0.69,1.54-1.77v-6.86c-0.76,1.9-2.94,4.04-2.94,6.72C63.42,25.15,63.97,25.84,64.82,25.84z"/>
		<path class="st0" d="M98.28,24.34c-0.92,0.89-3.51,2.25-6.67,2.25c-5.09,0-8.62-3.53-8.62-8.39s3.53-8.39,8.85-8.39
			c3.35,0,6.1,1.38,6.1,3.03c0,0.64-0.5,1.15-1.15,1.15c-2.48,0-2.5-3.76-4.95-3.76c-2.52,0-3.07,3.37-3.07,6.6
			c0,5.53,2.2,8.83,5.46,8.83c2.82,0,2.98-2.29,3.9-2.29c0.25,0,0.46,0.21,0.46,0.46C98.58,24,98.47,24.16,98.28,24.34z"/>
		<path class="st0" d="M100.14,16.43c0-1.03-0.53-1.77-1.24-1.77V14.3h2.18c2.34,0,4.29,1.31,4.29,3.33v6.47
			c0,1.03,0.53,1.77,1.24,1.77v0.37h-7.71v-0.37c0.71,0,1.24-0.73,1.24-1.77V16.43z M102.07,9.8c1.51,0,2.73,0.87,2.73,1.95
			c0,1.08-1.21,1.95-2.73,1.95s-2.73-0.87-2.73-1.95C99.34,10.68,100.56,9.8,102.07,9.8z"/>
		<path class="st0" d="M113.98,14.3v0.37c-0.71,0-1.24,0.73-1.24,1.77v7.96c0,0.8,0.34,1.33,0.87,1.33c1.22,0,1.61-1.79,2.22-1.79
			c0.21,0,0.34,0.14,0.34,0.34c0,0.16-0.12,0.28-0.21,0.37c-1.42,1.38-2.57,1.95-4.17,1.95c-2.34,0-4.29-1.31-4.29-3.33v-6.83
			c0-1.03-0.53-1.77-1.24-1.77V14.3c2.45,0,4.56-0.32,6.1-2.52h0.37v2.52H113.98z"/>
		<path class="st0" d="M119.69,17.01c-0.5,0-0.92-0.41-0.92-0.92c0-1.19,2.41-2.16,5-2.16c4.1,0,6.17,1.19,6.17,3.55v8.28
			c0,0.21,0.11,0.28,0.21,0.28c0.28,0,0.28-0.73,0.69-0.73c0.21,0,0.34,0.14,0.34,0.34c0,0.11-0.05,0.23-0.14,0.32
			c-0.37,0.37-1.08,0.62-2.04,0.62c-1.54,0-2.91-0.57-3.67-1.54c-0.76,0.83-2.09,1.54-3.95,1.54c-3.03,0-4.98-1.31-4.98-3.78
			c0-4.93,8.3-3.55,8.3-6.74c0-1.08-0.6-1.77-1.54-1.77C121.04,14.3,121.5,17.01,119.69,17.01z M123.17,25.84
			c0.94,0,1.54-0.69,1.54-1.77v-6.86c-0.76,1.9-2.94,4.04-2.94,6.72C121.78,25.15,122.33,25.84,123.17,25.84z"/>
	</g>
</g>
<g>
	<path class="st1" d="M74.4,24.74c0,0.09-0.01,0.22-0.03,0.38c-0.02,0.17-0.04,0.27-0.05,0.3c-0.05,0.2-0.14,0.42-0.27,0.66
		c-0.13,0.24-0.29,0.47-0.46,0.69c-0.17,0.21-0.33,0.4-0.51,0.57c-0.17,0.17-0.32,0.29-0.44,0.37c-0.12,0.09-0.28,0.18-0.47,0.26
		c-0.19,0.09-0.41,0.17-0.67,0.25c-0.51,0.16-0.95,0.24-1.33,0.24c-0.33,0-0.62-0.06-0.89-0.17c-0.27-0.11-0.41-0.32-0.41-0.63
		c0-0.19,0.05-0.33,0.15-0.42c0.1-0.09,0.28-0.13,0.53-0.13c0.28,0,0.53,0.05,0.74,0.14c0.21,0.09,0.4,0.14,0.55,0.14
		c0.08,0,0.25-0.03,0.51-0.09c0.25-0.06,0.45-0.14,0.6-0.24c0.16-0.11,0.33-0.25,0.5-0.42c0.17-0.17,0.33-0.36,0.48-0.56
		c0.14-0.2,0.26-0.4,0.35-0.61c0.09-0.21,0.13-0.4,0.13-0.58c0-0.26-0.1-0.5-0.31-0.7c-0.21-0.21-0.46-0.37-0.74-0.49
		c-0.29-0.12-0.53-0.17-0.73-0.17c-0.31,0-0.55,0.02-0.71,0.07c-0.17,0.04-0.33,0.1-0.48,0.17c-0.15,0.07-0.28,0.11-0.39,0.11
		c-0.12,0-0.25-0.04-0.38-0.12c-0.13-0.08-0.2-0.18-0.2-0.31c0-0.11,0.02-0.2,0.05-0.28c0.03-0.08,0.08-0.15,0.13-0.2
		c0.05-0.06,0.12-0.1,0.19-0.13c0.07-0.03,0.14-0.06,0.22-0.07c0.08-0.02,0.16-0.04,0.25-0.05s0.18-0.02,0.29-0.03
		c0.2-0.01,0.32-0.03,0.37-0.06c0.27-0.16,0.54-0.34,0.83-0.55c0.15-0.11,0.28-0.22,0.41-0.33s0.25-0.23,0.36-0.35
		c0.22-0.24,0.34-0.43,0.34-0.58c0-0.21-0.08-0.36-0.26-0.46c-0.17-0.1-0.45-0.16-0.84-0.16c-0.13,0-0.27,0.01-0.41,0.02
		c-0.15,0.01-0.3,0.03-0.45,0.06c-0.16,0.02-0.31,0.06-0.47,0.09s-0.31,0.08-0.46,0.13s-0.3,0.1-0.44,0.16
		c-0.14,0.06-0.27,0.12-0.39,0.19c-0.12,0.07-0.23,0.14-0.32,0.22c-0.09,0.08-0.17,0.16-0.23,0.25c-0.03,0.05-0.05,0.13-0.07,0.24
		s-0.03,0.29-0.04,0.53c0,0.12-0.01,0.25-0.01,0.39c0,0.14-0.01,0.3-0.02,0.47c-0.01,0.17-0.01,0.32-0.02,0.45s-0.01,0.23-0.02,0.32
		c-0.01,0.07-0.02,0.16-0.03,0.27c-0.01,0.11-0.03,0.23-0.05,0.38c-0.04,0.28-0.07,0.52-0.09,0.73s-0.03,0.4-0.03,0.58
		c0,0.06,0,0.14,0.01,0.22c0,0.09,0.01,0.19,0.02,0.3s0.01,0.21,0.02,0.3c0,0.09,0.01,0.16,0.01,0.21c0,0.34-0.04,0.58-0.13,0.74
		c-0.09,0.16-0.24,0.24-0.45,0.24c-0.46,0-0.69-0.39-0.69-1.18c0-0.09,0.05-0.4,0.14-0.93c0.09-0.53,0.15-0.86,0.16-0.99
		c0.02-0.18,0.04-0.35,0.05-0.51c0.01-0.16,0.03-0.31,0.04-0.45c0.02-0.14,0.03-0.31,0.05-0.5c0.02-0.19,0.04-0.42,0.07-0.67
		c0.02-0.16,0.03-0.28,0.04-0.38c0.01-0.1,0.01-0.16,0.01-0.2c0-0.09-0.01-0.2-0.04-0.31c-0.02-0.06-0.03-0.12-0.03-0.16
		c-0.01-0.04-0.01-0.08-0.01-0.11c0-0.29,0.05-0.53,0.16-0.74c0.14-0.27,0.25-0.41,0.33-0.41c0.14-0.02,0.26-0.04,0.38-0.07
		c0.12-0.03,0.23-0.06,0.34-0.1c0.5-0.17,0.9-0.3,1.19-0.4c0.29-0.1,0.48-0.16,0.57-0.19c0.18-0.06,0.36-0.1,0.56-0.12
		c0.1-0.02,0.22-0.03,0.36-0.03c0.14-0.01,0.3-0.01,0.49-0.01h0.33c0.08,0,0.19,0.02,0.32,0.06c0.13,0.04,0.27,0.1,0.41,0.17
		c0.14,0.07,0.26,0.15,0.38,0.23c0.12,0.09,0.2,0.18,0.24,0.26c0.05,0.08,0.1,0.21,0.14,0.37c0.02,0.08,0.03,0.16,0.05,0.23
		s0.02,0.13,0.02,0.18c0,0.31-0.13,0.63-0.4,0.96c-0.27,0.33-0.66,0.7-1.18,1.12c0.29,0.06,0.56,0.15,0.83,0.28
		c0.26,0.13,0.5,0.28,0.7,0.46c0.2,0.18,0.37,0.37,0.49,0.58S74.4,24.53,74.4,24.74z"/>
	<path class="st1" d="M83.86,22.98c0,0.07-0.01,0.13-0.04,0.2c-0.03,0.07-0.07,0.13-0.11,0.2c-0.05,0.06-0.1,0.12-0.15,0.18
		c-0.06,0.06-0.11,0.1-0.17,0.14c-0.14,0.09-0.33,0.17-0.58,0.24c-0.25,0.07-0.56,0.1-0.93,0.1c-0.29,0-0.59-0.04-0.89-0.11
		c-0.3-0.08-0.58-0.2-0.86-0.37c0.09,0.14,0.15,0.26,0.17,0.39s0.04,0.27,0.04,0.44c0,0.31-0.08,0.63-0.23,0.98
		c-0.15,0.35-0.35,0.67-0.59,0.97c-0.24,0.3-0.49,0.55-0.76,0.74c-0.15,0.11-0.32,0.21-0.5,0.29c-0.18,0.08-0.37,0.15-0.57,0.2
		c-0.2,0.05-0.4,0.09-0.62,0.12c-0.21,0.02-0.43,0.04-0.64,0.04c-0.15,0-0.3-0.05-0.44-0.14c-0.14-0.1-0.27-0.22-0.38-0.35
		c-0.11-0.14-0.2-0.29-0.27-0.45c-0.07-0.16-0.1-0.3-0.1-0.43c0-0.31,0.04-0.62,0.13-0.9c0.08-0.29,0.2-0.57,0.34-0.84
		c0.14-0.27,0.3-0.53,0.49-0.79c0.19-0.26,0.38-0.51,0.59-0.77c0.12-0.14,0.25-0.28,0.4-0.42c0.15-0.14,0.31-0.26,0.47-0.37
		c0.16-0.11,0.33-0.2,0.49-0.26c0.17-0.07,0.33-0.1,0.48-0.1c0.12,0,0.23,0.02,0.32,0.05c0.09,0.04,0.17,0.08,0.25,0.15
		c0.08,0.06,0.16,0.14,0.24,0.24s0.18,0.21,0.29,0.33c0.04,0.03,0.13,0.09,0.29,0.15c0.16,0.07,0.34,0.13,0.56,0.2
		c0.21,0.06,0.44,0.12,0.68,0.17c0.24,0.05,0.45,0.07,0.64,0.07s0.37-0.01,0.53-0.02c0.16-0.01,0.32-0.04,0.47-0.07
		c0.15-0.03,0.3-0.07,0.46-0.13c0.15-0.05,0.31-0.12,0.49-0.2C83.85,22.89,83.86,22.94,83.86,22.98z M79.52,24.37
		c0-0.11,0-0.23-0.02-0.37c-0.02-0.14-0.05-0.27-0.1-0.39c-0.05-0.12-0.11-0.22-0.19-0.3s-0.18-0.11-0.29-0.09
		c-0.18-0.07-0.33-0.14-0.44-0.22c-0.12-0.08-0.21-0.12-0.27-0.12c-0.05,0-0.1,0.01-0.15,0.04C78,22.96,77.94,23,77.88,23.05
		c-0.06,0.05-0.12,0.11-0.18,0.18c-0.06,0.07-0.12,0.14-0.18,0.21c-0.12,0.15-0.22,0.29-0.32,0.41s-0.19,0.25-0.28,0.37
		c-0.09,0.12-0.17,0.25-0.25,0.38s-0.16,0.28-0.24,0.45c-0.04,0.07-0.07,0.15-0.09,0.25s-0.05,0.2-0.07,0.3
		c-0.02,0.1-0.03,0.21-0.04,0.31c-0.01,0.1-0.01,0.2-0.01,0.28c0,0.05,0.02,0.11,0.05,0.18c0.03,0.07,0.08,0.14,0.14,0.21
		c0.06,0.07,0.12,0.13,0.19,0.17c0.07,0.05,0.14,0.07,0.21,0.07c0.2,0,0.37-0.01,0.5-0.03c0.14-0.02,0.27-0.05,0.39-0.09
		c0.12-0.04,0.24-0.11,0.36-0.18c0.12-0.08,0.26-0.18,0.42-0.3c0.08-0.06,0.15-0.13,0.23-0.2c0.08-0.08,0.15-0.16,0.22-0.25
		c0.07-0.09,0.14-0.18,0.21-0.27c0.07-0.09,0.13-0.18,0.19-0.27c0.04-0.06,0.07-0.13,0.1-0.21c0.03-0.09,0.05-0.17,0.06-0.26
		c0.01-0.08,0.03-0.16,0.03-0.23S79.52,24.4,79.52,24.37z"/>
	<path class="st1" d="M90.24,22.72c0,0.22-0.14,0.43-0.43,0.62c-0.12,0.08-0.27,0.16-0.43,0.23c-0.16,0.07-0.33,0.14-0.5,0.19
		c-0.17,0.06-0.34,0.11-0.51,0.15c-0.17,0.04-0.33,0.07-0.46,0.08c-0.07,0.01-0.29,0.02-0.67,0.03c-0.39,0.02-0.59,0.04-0.62,0.06
		c-0.07,0.07-0.12,0.18-0.14,0.33c-0.01,0.04-0.01,0.08-0.02,0.12c-0.01,0.04-0.01,0.09-0.01,0.16c0,0.07-0.01,0.15-0.01,0.25
		s0,0.22,0,0.38c0,0.09-0.01,0.19-0.03,0.3s-0.04,0.22-0.07,0.32s-0.07,0.21-0.12,0.31c-0.05,0.1-0.1,0.19-0.16,0.26
		c-0.09,0.12-0.2,0.24-0.33,0.36c-0.13,0.12-0.28,0.24-0.44,0.35c-0.16,0.11-0.33,0.22-0.5,0.32c-0.18,0.1-0.36,0.19-0.54,0.26
		c-0.18,0.07-0.36,0.13-0.53,0.17c-0.17,0.04-0.33,0.06-0.48,0.06c-0.26,0-0.47-0.04-0.64-0.13c-0.17-0.09-0.31-0.21-0.4-0.36
		c-0.1-0.15-0.17-0.33-0.21-0.53c-0.04-0.2-0.06-0.42-0.06-0.64c0-0.23,0.03-0.46,0.08-0.68c0.05-0.22,0.13-0.43,0.21-0.65
		s0.18-0.42,0.29-0.63s0.21-0.42,0.32-0.63c0.1-0.17,0.19-0.33,0.28-0.48c0.08-0.15,0.17-0.29,0.25-0.42
		c0.08-0.13,0.17-0.25,0.26-0.35c0.09-0.1,0.2-0.19,0.33-0.27c0.13-0.08,0.28-0.13,0.45-0.17c0.17-0.04,0.37-0.06,0.61-0.06
		c0.1,0,0.2,0.01,0.28,0.04c0.08,0.03,0.15,0.07,0.22,0.12c0.07,0.05,0.13,0.11,0.19,0.18c0.06,0.07,0.13,0.15,0.19,0.23
		c0.08,0.1,0.14,0.18,0.2,0.24c0.06,0.07,0.1,0.12,0.14,0.15c0.07,0.07,0.17,0.11,0.28,0.14c0.12,0.03,0.28,0.04,0.49,0.04
		c0.28,0,0.51-0.01,0.69-0.02c0.17-0.01,0.33-0.03,0.48-0.05c0.16-0.03,0.31-0.06,0.45-0.09c0.13-0.03,0.27-0.06,0.4-0.1
		c0.13-0.03,0.27-0.07,0.41-0.11c0.14-0.04,0.29-0.09,0.45-0.14c0.08-0.02,0.17-0.04,0.27-0.04C90.21,22.64,90.24,22.66,90.24,22.72
		z M85.62,24.19c0-0.16-0.01-0.27-0.03-0.35c-0.02-0.08-0.05-0.14-0.09-0.18c-0.04-0.05-0.08-0.09-0.13-0.14
		c-0.05-0.05-0.1-0.12-0.16-0.22c-0.06-0.11-0.11-0.19-0.15-0.24c-0.04-0.05-0.12-0.08-0.23-0.08c-0.27,0-0.53,0.14-0.78,0.41
		c-0.12,0.14-0.24,0.29-0.35,0.46c-0.11,0.17-0.22,0.36-0.31,0.57c-0.08,0.16-0.15,0.34-0.23,0.53c-0.07,0.19-0.14,0.39-0.2,0.58
		c-0.06,0.2-0.11,0.39-0.14,0.58c-0.04,0.19-0.06,0.37-0.06,0.54c0,0.07,0.02,0.14,0.05,0.2c0.03,0.07,0.08,0.12,0.14,0.17
		c0.06,0.05,0.14,0.09,0.22,0.12c0.09,0.03,0.19,0.05,0.31,0.05c0.08,0,0.19-0.03,0.32-0.08c0.13-0.05,0.26-0.11,0.4-0.19
		s0.26-0.15,0.38-0.24s0.21-0.16,0.28-0.22c0.19-0.2,0.33-0.38,0.44-0.54c0.1-0.16,0.18-0.33,0.23-0.5
		c0.05-0.17,0.08-0.35,0.09-0.55C85.61,24.7,85.62,24.47,85.62,24.19z"/>
	<path class="st1" d="M96.84,27.13c0,0.08-0.05,0.16-0.14,0.24c-0.09,0.08-0.2,0.14-0.33,0.2c-0.13,0.05-0.26,0.1-0.39,0.13
		c-0.13,0.03-0.24,0.05-0.33,0.05c-0.35,0-0.67-0.04-0.97-0.11c-0.3-0.07-0.61-0.17-0.92-0.3c-0.26-0.1-0.5-0.22-0.73-0.36
		s-0.46-0.28-0.69-0.42c-0.23-0.15-0.46-0.3-0.7-0.45c-0.24-0.15-0.49-0.3-0.75-0.45c-0.01,0.01-0.03,0.03-0.06,0.05
		c-0.03,0.03-0.06,0.06-0.1,0.1c-0.04,0.03-0.08,0.07-0.12,0.11c-0.04,0.04-0.07,0.07-0.1,0.09c-0.1,0.09-0.18,0.17-0.24,0.23
		c-0.06,0.07-0.1,0.13-0.14,0.19c-0.04,0.06-0.07,0.12-0.09,0.18c-0.02,0.06-0.05,0.12-0.08,0.19c0.02,0.07,0.01,0.16-0.01,0.26
		s-0.03,0.2-0.03,0.28c0,0.25-0.05,0.44-0.16,0.57c-0.11,0.13-0.27,0.19-0.5,0.19c-0.14,0-0.23-0.03-0.26-0.1
		c-0.04-0.07-0.06-0.18-0.06-0.33c0-0.05,0.01-0.15,0.03-0.3c0.02-0.15,0.04-0.34,0.07-0.56c0.03-0.22,0.06-0.47,0.1-0.74
		c0.04-0.27,0.08-0.55,0.12-0.84c0.04-0.29,0.08-0.57,0.12-0.85c0.04-0.28,0.08-0.54,0.11-0.78c0.04-0.24,0.07-0.44,0.09-0.62
		c0.03-0.17,0.04-0.3,0.06-0.38c0.01-0.07,0.02-0.17,0.03-0.31s0.02-0.3,0.04-0.47c0.01-0.17,0.03-0.36,0.04-0.55
		s0.03-0.37,0.04-0.54c0.01-0.17,0.02-0.32,0.03-0.45c0.01-0.13,0.02-0.22,0.02-0.28l0.05-0.57c0-0.07,0.03-0.13,0.08-0.19
		c0.05-0.06,0.11-0.11,0.18-0.15c0.07-0.04,0.15-0.08,0.23-0.1c0.08-0.03,0.16-0.04,0.23-0.04c0.07,0,0.12,0.01,0.17,0.04
		c0.05,0.03,0.09,0.06,0.13,0.1c0.03,0.04,0.06,0.08,0.07,0.13c0.02,0.05,0.02,0.09,0.02,0.12c0,0.05-0.01,0.15-0.03,0.3
		c-0.02,0.14-0.05,0.32-0.08,0.52c-0.04,0.2-0.07,0.42-0.12,0.66c-0.04,0.24-0.09,0.48-0.13,0.73c-0.04,0.25-0.09,0.49-0.13,0.72
		c-0.04,0.23-0.08,0.45-0.12,0.63c-0.04,0.19-0.06,0.34-0.09,0.47c-0.02,0.12-0.04,0.2-0.04,0.23c-0.06,0.47-0.11,0.87-0.15,1.2
		c-0.04,0.33-0.08,0.59-0.11,0.78c0.04-0.04,0.11-0.12,0.21-0.24s0.22-0.25,0.36-0.4c0.14-0.15,0.28-0.31,0.43-0.47
		c0.15-0.17,0.29-0.32,0.42-0.47s0.25-0.28,0.35-0.39s0.16-0.18,0.19-0.22c0.16-0.21,0.32-0.41,0.49-0.62
		c0.17-0.21,0.34-0.4,0.5-0.57c0.17-0.17,0.34-0.31,0.5-0.42c0.17-0.11,0.33-0.16,0.49-0.16c0.25,0,0.37,0.07,0.37,0.2
		c0,0.06-0.02,0.14-0.06,0.22c-0.04,0.09-0.09,0.18-0.15,0.26c-0.06,0.09-0.12,0.18-0.18,0.26c-0.06,0.08-0.12,0.15-0.17,0.21
		c-0.06,0.07-0.14,0.15-0.24,0.25s-0.2,0.2-0.31,0.3s-0.23,0.22-0.35,0.33s-0.24,0.22-0.35,0.33s-0.21,0.2-0.3,0.29
		c-0.09,0.09-0.16,0.16-0.22,0.21c-0.05,0.05-0.09,0.09-0.13,0.13c-0.04,0.04-0.08,0.08-0.13,0.12c-0.04,0.04-0.08,0.08-0.12,0.13
		c-0.04,0.05-0.08,0.11-0.13,0.17c0.38,0.23,0.75,0.45,1.14,0.67c0.38,0.21,0.76,0.41,1.14,0.58c0.38,0.17,0.75,0.32,1.12,0.45
		c0.37,0.13,0.73,0.22,1.08,0.27c0.14,0.02,0.26,0.03,0.37,0.03s0.2,0,0.27,0s0.13,0.01,0.16,0.02
		C96.82,27.04,96.84,27.08,96.84,27.13z"/>
	<path class="st1" d="M107.81,26.04c0,0.06-0.01,0.13-0.04,0.21c-0.03,0.08-0.07,0.16-0.12,0.24c-0.07,0.12-0.16,0.24-0.28,0.37
		s-0.24,0.24-0.38,0.34c-0.14,0.1-0.3,0.19-0.46,0.25c-0.17,0.07-0.34,0.1-0.52,0.1c-0.23,0-0.43-0.05-0.6-0.16
		c-0.17-0.1-0.31-0.25-0.44-0.43c-0.12-0.18-0.22-0.39-0.3-0.63c-0.08-0.24-0.14-0.49-0.19-0.76c-0.17,0.25-0.37,0.49-0.61,0.74
		c-0.23,0.24-0.48,0.46-0.73,0.66s-0.5,0.35-0.74,0.48c-0.24,0.12-0.46,0.18-0.64,0.18c-0.12,0-0.24-0.03-0.36-0.09
		c-0.11-0.06-0.21-0.15-0.3-0.25c-0.09-0.1-0.16-0.22-0.21-0.36c-0.05-0.14-0.08-0.28-0.08-0.43s0.01-0.31,0.04-0.48
		c0.02-0.17,0.07-0.35,0.13-0.54c0.06-0.19,0.14-0.4,0.23-0.62c0.1-0.22,0.21-0.47,0.35-0.74c0.16-0.3,0.34-0.59,0.55-0.86
		c0.21-0.27,0.43-0.5,0.65-0.71c0.22-0.2,0.43-0.36,0.63-0.48s0.36-0.18,0.48-0.18c0.04,0,0.08,0.01,0.12,0.02
		c0.04,0.02,0.09,0.03,0.14,0.05s0.09,0.03,0.14,0.05c0.04,0.01,0.08,0.02,0.11,0.02s0.06-0.01,0.09-0.02
		c0.03-0.01,0.06-0.03,0.09-0.05s0.06-0.03,0.09-0.05c0.03-0.02,0.06-0.02,0.09-0.02c0.05,0,0.1,0.02,0.15,0.05
		c0.05,0.03,0.11,0.07,0.16,0.12c0.05,0.05,0.09,0.1,0.13,0.17c0.04,0.06,0.07,0.12,0.08,0.18c0.02,0.07,0.04,0.12,0.06,0.15
		c0.03,0.03,0.05,0.06,0.08,0.09c0.02,0.03,0.05,0.06,0.06,0.1c0.02,0.04,0.03,0.09,0.03,0.17c0,0.04-0.01,0.12-0.04,0.24
		s-0.06,0.27-0.09,0.43c-0.03,0.17-0.06,0.34-0.09,0.51c-0.03,0.18-0.04,0.34-0.04,0.49c0,0.41,0.02,0.75,0.07,1.02
		c0.05,0.26,0.11,0.47,0.19,0.62c0.08,0.15,0.18,0.26,0.29,0.32c0.11,0.06,0.23,0.09,0.35,0.09c0.29,0,0.54-0.05,0.72-0.15
		c0.19-0.1,0.36-0.25,0.5-0.45c0.04-0.05,0.08-0.1,0.11-0.15c0.03-0.04,0.06-0.06,0.09-0.06c0.05,0,0.1,0.02,0.15,0.06
		C107.79,25.95,107.81,26,107.81,26.04z M104.57,23.46c0-0.29-0.04-0.5-0.13-0.63c-0.09-0.13-0.19-0.19-0.3-0.19
		c-0.1,0-0.19,0.02-0.29,0.05c-0.1,0.04-0.19,0.08-0.28,0.14c-0.09,0.06-0.17,0.12-0.24,0.19c-0.07,0.07-0.13,0.14-0.18,0.2
		c-0.09,0.12-0.19,0.26-0.29,0.42c-0.1,0.16-0.21,0.33-0.31,0.5c-0.1,0.17-0.2,0.35-0.29,0.53c-0.09,0.18-0.17,0.36-0.25,0.53
		c-0.07,0.17-0.13,0.34-0.17,0.49c-0.04,0.16-0.06,0.3-0.06,0.42c0,0.18,0.03,0.33,0.1,0.44c0.07,0.11,0.2,0.17,0.39,0.17
		c0.07,0,0.16-0.04,0.29-0.13c0.13-0.08,0.26-0.19,0.41-0.32s0.29-0.27,0.43-0.42c0.14-0.15,0.25-0.29,0.34-0.43
		c0.1-0.14,0.19-0.3,0.29-0.47c0.1-0.17,0.19-0.34,0.27-0.52c0.08-0.18,0.15-0.35,0.2-0.53C104.54,23.76,104.57,23.6,104.57,23.46z"
		/>
	<path class="st1" d="M118.77,25.27c0,0.04-0.02,0.08-0.06,0.15c-0.04,0.07-0.1,0.14-0.17,0.22c-0.08,0.08-0.17,0.17-0.27,0.27
		c-0.1,0.1-0.22,0.19-0.35,0.28c-0.32,0.23-0.67,0.47-1.05,0.71c-0.38,0.24-0.76,0.48-1.14,0.71c-0.31,0.19-0.6,0.36-0.87,0.51
		c-0.27,0.15-0.52,0.28-0.73,0.39c-0.13,0.07-0.25,0.12-0.35,0.17c-0.1,0.05-0.19,0.08-0.27,0.12c-0.08,0.03-0.16,0.05-0.23,0.07
		c-0.07,0.01-0.14,0.02-0.21,0.02c-0.03,0-0.08-0.01-0.13-0.03c-0.05-0.02-0.1-0.05-0.14-0.09c-0.04-0.04-0.08-0.08-0.11-0.13
		c-0.03-0.05-0.05-0.09-0.05-0.15c0-0.25,0.1-0.45,0.29-0.59c0.05-0.04,0.09-0.07,0.13-0.09c0.04-0.03,0.09-0.05,0.15-0.08
		c0.05-0.03,0.12-0.05,0.19-0.07c0.08-0.02,0.17-0.05,0.28-0.07c0.21-0.04,0.41-0.1,0.6-0.16c0.19-0.07,0.34-0.14,0.43-0.21
		c0.1-0.07,0.16-0.17,0.2-0.28c0.04-0.11,0.05-0.23,0.05-0.36c0-0.13-0.13-0.39-0.4-0.78c-0.13-0.2-0.25-0.37-0.35-0.52
		s-0.19-0.29-0.26-0.42c-0.07-0.14-0.13-0.28-0.17-0.44c-0.04-0.16-0.06-0.31-0.06-0.46c0-0.27,0.05-0.54,0.15-0.82
		c0.05-0.16,0.12-0.32,0.22-0.48c0.1-0.16,0.21-0.3,0.33-0.43s0.24-0.23,0.36-0.31c0.12-0.08,0.23-0.12,0.32-0.12h0.02
		c0.34,0,0.51,0.2,0.51,0.6c0,0.16-0.06,0.31-0.17,0.45c-0.11,0.14-0.27,0.3-0.46,0.46c-0.1,0.08-0.19,0.15-0.27,0.21
		c-0.08,0.06-0.14,0.11-0.19,0.16c0,0.1,0.02,0.22,0.05,0.35c0.03,0.13,0.08,0.27,0.14,0.4c0.07,0.13,0.15,0.27,0.26,0.41
		s0.21,0.28,0.31,0.42c0.06,0.09,0.13,0.18,0.19,0.28c0.07,0.1,0.13,0.21,0.19,0.33c0.06,0.11,0.11,0.23,0.14,0.35
		c0.04,0.12,0.06,0.23,0.07,0.34c0,0.01,0.01,0.02,0.02,0.03c0.01,0.01,0.03,0.02,0.05,0.02c0.03,0,0.09-0.02,0.18-0.07
		c0.09-0.05,0.2-0.11,0.33-0.19c0.13-0.08,0.27-0.16,0.42-0.26c0.15-0.09,0.3-0.19,0.45-0.29c0.15-0.09,0.29-0.18,0.42-0.27
		s0.25-0.16,0.34-0.21c0.12-0.08,0.22-0.15,0.28-0.21c0.06-0.06,0.12-0.09,0.18-0.09c0.07,0,0.11,0.02,0.14,0.07
		C118.76,25.14,118.77,25.2,118.77,25.27z"/>
	<path class="st1" d="M125.38,23.84c0,0.06-0.04,0.16-0.13,0.31c-0.2,0.29-0.43,0.58-0.68,0.87c-0.25,0.29-0.51,0.57-0.8,0.83
		c-0.28,0.26-0.57,0.5-0.88,0.73c-0.3,0.23-0.61,0.42-0.92,0.59c-0.31,0.17-0.62,0.29-0.93,0.38s-0.61,0.13-0.89,0.13
		c-0.62,0-1.1-0.18-1.44-0.54c-0.34-0.36-0.51-0.9-0.51-1.63c0-0.61,0.09-1.2,0.28-1.77s0.51-1.13,0.96-1.66
		c0.09-0.09,0.18-0.18,0.29-0.27c0.11-0.08,0.22-0.16,0.34-0.23c0.12-0.07,0.24-0.12,0.37-0.16c0.13-0.04,0.25-0.06,0.38-0.07
		c0.03,0,0.07,0,0.13,0.01c0.05,0.01,0.11,0.02,0.17,0.04c0.06,0.02,0.12,0.04,0.18,0.07c0.06,0.03,0.1,0.07,0.14,0.11
		c0.11,0.13,0.19,0.25,0.26,0.38c0.06,0.13,0.1,0.28,0.11,0.44c0.01,0.18-0.01,0.35-0.06,0.53c-0.05,0.17-0.13,0.35-0.24,0.53
		c-0.11,0.18-0.26,0.37-0.45,0.56c-0.19,0.19-0.41,0.4-0.67,0.62c-0.17,0.14-0.35,0.29-0.55,0.46c-0.2,0.17-0.45,0.35-0.73,0.53
		c0,0.38,0.11,0.66,0.34,0.86c0.23,0.2,0.54,0.29,0.93,0.29c0.22,0,0.44-0.03,0.67-0.09c0.22-0.06,0.45-0.13,0.66-0.23
		c0.22-0.09,0.43-0.2,0.63-0.33c0.2-0.12,0.39-0.25,0.57-0.37c0.33-0.24,0.63-0.48,0.89-0.72c0.27-0.24,0.53-0.49,0.8-0.75
		l0.31-0.31c0.19-0.17,0.33-0.25,0.41-0.25C125.36,23.73,125.38,23.76,125.38,23.84z M120.94,22.68c0-0.06-0.01-0.11-0.03-0.17
		c-0.01-0.06-0.03-0.11-0.06-0.15c-0.03-0.04-0.06-0.08-0.09-0.1c-0.04-0.02-0.08-0.04-0.12-0.04c-0.21,0.01-0.41,0.14-0.62,0.37
		s-0.4,0.55-0.58,0.94c-0.04,0.08-0.08,0.18-0.11,0.29c-0.03,0.11-0.06,0.21-0.09,0.33c-0.03,0.11-0.05,0.22-0.08,0.33
		s-0.04,0.21-0.05,0.29c0.2-0.15,0.39-0.29,0.56-0.42c0.17-0.13,0.33-0.26,0.48-0.39c0.09-0.08,0.19-0.18,0.29-0.28
		c0.1-0.1,0.18-0.2,0.26-0.31c0.08-0.11,0.14-0.22,0.19-0.34C120.92,22.92,120.95,22.8,120.94,22.68z"/>
	<path class="st1" d="M133.12,23.89c0,0.05-0.01,0.1-0.02,0.17c-0.01,0.06-0.03,0.13-0.05,0.19c-0.02,0.07-0.04,0.13-0.07,0.19
		c-0.03,0.06-0.05,0.11-0.08,0.14c-0.02,0.03-0.06,0.07-0.1,0.13c-0.04,0.05-0.09,0.11-0.15,0.17c-0.05,0.06-0.11,0.13-0.18,0.19
		c-0.06,0.07-0.13,0.13-0.2,0.19c-0.24,0.22-0.47,0.43-0.71,0.64c-0.23,0.21-0.47,0.39-0.71,0.55c-0.24,0.16-0.5,0.29-0.76,0.38
		s-0.55,0.14-0.86,0.14c-0.14,0-0.29-0.03-0.43-0.08c-0.15-0.05-0.28-0.13-0.41-0.22c-0.13-0.1-0.24-0.21-0.33-0.35
		s-0.16-0.29-0.2-0.45c-0.11,0.12-0.23,0.24-0.35,0.36c-0.12,0.13-0.25,0.25-0.39,0.38s-0.27,0.25-0.42,0.37
		c-0.14,0.12-0.29,0.23-0.44,0.33c-0.08,0.05-0.19,0.11-0.3,0.17c-0.12,0.06-0.24,0.12-0.37,0.17c-0.13,0.05-0.26,0.09-0.39,0.13
		c-0.13,0.03-0.25,0.05-0.35,0.05c-0.16,0-0.29-0.05-0.41-0.15s-0.21-0.22-0.29-0.36c-0.08-0.14-0.13-0.3-0.17-0.46
		c-0.04-0.16-0.06-0.31-0.06-0.44c0-0.26,0.04-0.52,0.11-0.78c0.07-0.27,0.17-0.53,0.29-0.78c0.12-0.25,0.25-0.5,0.39-0.72
		c0.15-0.23,0.29-0.43,0.43-0.61c0.15-0.19,0.32-0.37,0.52-0.55c0.2-0.18,0.41-0.35,0.63-0.49s0.43-0.26,0.64-0.35
		c0.21-0.09,0.4-0.13,0.56-0.13c0.08,0,0.17,0,0.26,0s0.18,0,0.27,0.01c0.09,0.01,0.18,0.03,0.26,0.05s0.16,0.05,0.23,0.1
		c0.04,0.02,0.08,0.07,0.12,0.13s0.09,0.14,0.13,0.22s0.07,0.16,0.1,0.24c0.03,0.08,0.04,0.14,0.04,0.19c0,0.13-0.03,0.3-0.09,0.51
		c-0.06,0.27-0.12,0.51-0.17,0.73c-0.05,0.22-0.08,0.44-0.08,0.68c0,0.13,0.02,0.27,0.06,0.4s0.1,0.26,0.18,0.38
		c0.08,0.11,0.18,0.2,0.29,0.28c0.11,0.07,0.24,0.11,0.39,0.11c0.24,0,0.48-0.05,0.73-0.15c0.25-0.1,0.5-0.23,0.75-0.41
		c0.25-0.17,0.51-0.37,0.76-0.6s0.5-0.47,0.74-0.72c0.02-0.02,0.05-0.06,0.1-0.12c0.05-0.06,0.1-0.11,0.15-0.17
		c0.05-0.06,0.1-0.11,0.15-0.15c0.05-0.04,0.09-0.07,0.11-0.07C133.08,23.65,133.12,23.73,133.12,23.89z M127.95,23.41
		c0-0.07,0-0.15-0.01-0.24s-0.03-0.18-0.08-0.24c-0.04-0.06-0.09-0.09-0.16-0.09c-0.06,0-0.12,0-0.19,0c-0.14,0-0.27,0.02-0.39,0.06
		c-0.13,0.04-0.25,0.1-0.37,0.18s-0.24,0.16-0.35,0.26c-0.11,0.1-0.22,0.2-0.32,0.31c-0.09,0.09-0.18,0.2-0.28,0.33
		c-0.1,0.13-0.2,0.28-0.29,0.43c-0.09,0.16-0.19,0.32-0.28,0.49c-0.09,0.17-0.17,0.34-0.23,0.51c-0.07,0.17-0.12,0.33-0.16,0.49
		c-0.04,0.16-0.06,0.3-0.06,0.43c0,0.04,0,0.09,0.01,0.15c0.01,0.06,0.02,0.13,0.05,0.19c0.02,0.06,0.05,0.11,0.09,0.15
		c0.04,0.04,0.08,0.06,0.14,0.06c0.18,0,0.4-0.06,0.67-0.17c0.36-0.15,0.69-0.37,0.99-0.64c0.3-0.27,0.55-0.58,0.76-0.93
		C127.8,24.61,127.95,24.03,127.95,23.41z"/>
	<path class="st1" d="M137.5,22.51c0,0.11-0.02,0.2-0.07,0.26c-0.04,0.06-0.1,0.11-0.16,0.14c-0.06,0.03-0.13,0.05-0.21,0.06
		c-0.07,0.01-0.14,0.01-0.2,0.02c-0.33,0.02-0.66,0.05-1,0.08s-0.65,0.06-0.93,0.09c-0.28,0.03-0.51,0.06-0.69,0.08
		c-0.18,0.03-0.27,0.05-0.28,0.06c-0.03,0.11-0.06,0.25-0.1,0.42c-0.04,0.17-0.09,0.35-0.13,0.54c-0.05,0.19-0.09,0.39-0.14,0.59
		c-0.05,0.2-0.09,0.4-0.13,0.58c-0.04,0.18-0.07,0.35-0.09,0.5c-0.02,0.15-0.04,0.27-0.04,0.36c0,0.08,0.01,0.18,0.02,0.3
		s0.04,0.23,0.08,0.33c0.04,0.11,0.11,0.2,0.19,0.27s0.2,0.11,0.35,0.11c0.08,0,0.18-0.03,0.3-0.08c0.12-0.05,0.25-0.12,0.39-0.21
		c0.14-0.09,0.28-0.2,0.44-0.32s0.3-0.26,0.45-0.41c0.07-0.07,0.15-0.14,0.24-0.21s0.18-0.1,0.28-0.1c0.14,0,0.21,0.07,0.21,0.2
		c0,0.07-0.01,0.14-0.04,0.2c-0.03,0.06-0.06,0.13-0.1,0.19c-0.04,0.06-0.09,0.13-0.14,0.19c-0.05,0.06-0.11,0.13-0.17,0.2
		c-0.04,0.05-0.1,0.12-0.17,0.19c-0.08,0.08-0.17,0.17-0.27,0.26s-0.22,0.19-0.35,0.28c-0.13,0.1-0.27,0.18-0.41,0.26
		s-0.3,0.14-0.45,0.19c-0.16,0.05-0.31,0.07-0.47,0.07c-0.23,0-0.42-0.03-0.57-0.1c-0.15-0.07-0.28-0.15-0.38-0.26
		s-0.17-0.23-0.22-0.37c-0.05-0.14-0.09-0.28-0.11-0.42s-0.04-0.28-0.04-0.41c0-0.13,0-0.25,0-0.35c0-0.12,0.01-0.26,0.04-0.43
		c0.03-0.17,0.06-0.34,0.09-0.53c0.04-0.19,0.08-0.37,0.12-0.57c0.04-0.19,0.08-0.37,0.12-0.55c0.04-0.17,0.06-0.33,0.09-0.48
		c0.03-0.15,0.04-0.26,0.04-0.35c0-0.05-0.02-0.08-0.07-0.08c-0.05-0.01-0.11,0-0.2,0.01c-0.08,0.01-0.17,0.02-0.28,0.03
		s-0.21,0.01-0.32-0.01c-0.07-0.01-0.14-0.03-0.2-0.05c-0.06-0.02-0.12-0.06-0.17-0.1c-0.05-0.04-0.09-0.09-0.12-0.16
		s-0.04-0.14-0.04-0.24c0-0.12,0.03-0.2,0.1-0.25c0.06-0.05,0.14-0.07,0.23-0.07h1.36c0.02-0.01,0.05-0.05,0.09-0.12
		c0.04-0.07,0.08-0.15,0.12-0.26c0.04-0.11,0.09-0.23,0.14-0.36s0.1-0.27,0.15-0.42c0.05-0.15,0.1-0.29,0.15-0.44
		c0.05-0.15,0.09-0.28,0.14-0.41c0.07-0.21,0.14-0.36,0.23-0.45c0.09-0.09,0.2-0.13,0.34-0.13c0.09,0,0.16,0.02,0.22,0.05
		c0.06,0.03,0.11,0.07,0.14,0.12c0.03,0.05,0.06,0.1,0.08,0.15s0.02,0.1,0.02,0.15c0,0.02-0.01,0.06-0.04,0.14
		c-0.03,0.08-0.06,0.17-0.1,0.28s-0.08,0.24-0.13,0.38c-0.05,0.14-0.1,0.28-0.15,0.42c-0.05,0.14-0.1,0.28-0.15,0.41
		c-0.05,0.13-0.09,0.25-0.12,0.34c0.36-0.02,0.67-0.05,0.92-0.07c0.25-0.02,0.46-0.04,0.64-0.06c0.18-0.02,0.33-0.03,0.46-0.04
		s0.25-0.02,0.36-0.02c0.17,0,0.31,0.01,0.41,0.02s0.18,0.04,0.24,0.07c0.06,0.03,0.09,0.07,0.11,0.11
		C137.49,22.4,137.5,22.46,137.5,22.51z"/>
</g>
</svg>
