<?xml version="1.0" encoding="utf-8"?>
<!-- Generator: Adobe Illustrator 24.2.3, SVG Export Plug-In . SVG Version: 6.00 Build 0)  -->
<svg version="1.1" id="Capa_1" xmlns="http://www.w3.org/2000/svg" xmlns:xlink="http://www.w3.org/1999/xlink" x="0px" y="0px"
	 viewBox="0 0 137 40" style="enable-background:new 0 0 137 40;" xml:space="preserve">
<style type="text/css">
	.st0{fill:#8C7857;}
	.st1{fill:#FFFFFF;}
</style>
<g>
	<g>
		<path class="st0" d="M18.09,12.74l4.36,12.32c0.43,1.24,1.26,2.13,2.21,2.13v0.48H14.7v-0.48c0.81,0,1.24-0.86,0.83-2.04L14,20.68
			H6.73l-1.64,4.55c-0.4,1.13,0,1.96,0.81,1.96v0.48H2.38v-0.48c0.81,0,1.78-0.78,2.21-1.96l5.49-15.17
			c-0.4-0.48-0.94-0.73-1.56-0.73V8.84h3.74C14.94,8.84,17.17,10.13,18.09,12.74z M13.81,20.19l-3.09-8.96
			c-0.08-0.27-0.19-0.51-0.32-0.7l-3.47,9.66H13.81z"/>
		<path class="st0" d="M35.44,13.25c2.29,0,3.9,1.34,3.9,2.99c0,0.59-0.48,1.08-1.08,1.08c-2.13,0-1.61-3.36-4.12-3.36
			c-1.1,0-1.8,0.81-1.8,2.07v9.15c0,1.21,0.62,2.07,1.45,2.07v0.43h-9.04v-0.43c0.83,0,1.45-0.86,1.45-2.07v-8.99
			c0-1.21-0.62-2.07-1.45-2.07v-0.43h2.56c1.69,0,3.23,0.59,4.14,1.59C32.21,14.22,33.37,13.25,35.44,13.25z"/>
		<path class="st0" d="M55.73,8.41c1.78,0,2.77,1.02,2.77,2.29s-1.43,2.29-3.2,2.29c-1.16,0-2.93-0.51-4.55-0.21
			c-2.04,0.38-3.47,1.56-3.47,3.42v9.33c0,0.94,0.4,1.56,1.02,1.56c1.43,0,1.88-2.1,2.61-2.1c0.24,0,0.4,0.16,0.4,0.4
			c0,0.19-0.13,0.32-0.24,0.43c-1.67,1.61-3.01,2.29-4.9,2.29c-2.74,0-5.03-1.53-5.03-3.9v-8.02c0-1.21-0.62-2.07-1.45-2.07v-0.43
			c2.88,0,5.35-0.38,7.16-2.96h0.43v2.96C49.41,13.68,51.48,8.41,55.73,8.41L55.73,8.41z M53.04,25.17v-8.99
			c0-1.21-0.62-2.07-1.45-2.07v-0.43h2.56c2.74,0,5.03,1.53,5.03,3.9v7.59c0,1.21,0.62,2.07,1.45,2.07v0.43h-9.04v-0.43
			C52.42,27.24,53.04,26.38,53.04,25.17z"/>
		<path class="st0" d="M75.32,23.34c0,2.88-3.01,4.76-7.69,4.76c-2.69,0-4.65-0.86-6.43-2.29c-0.11-0.11-0.24-0.24-0.24-0.43
			c0-0.24,0.16-0.4,0.4-0.4c0.56,0,1.08,1.16,2.15,1.75c1.02,0.56,2.04,0.83,3.33,0.83c1.67,0,2.8-0.7,2.8-1.99
			c0-3.33-8.31-3.39-8.31-8.18c0-2.64,2.53-4.14,6.4-4.14c2.66,0,3.87,0.7,7.32,0.7c3.2,0,5.54-1.05,5.54-2.85
			c0-1.32-1.16-2.26-2.77-2.26c-3.36,0-3.39,3.52-5.03,3.52c-0.46,0-0.81-0.35-0.81-0.81c0-1.75,2.88-3.15,5.84-3.15
			c2.13,0,5.35,0.89,5.35,4.17v1.1h1.45v0.43c-0.83,0-1.45,0.86-1.45,2.07v9.33c0,0.94,0.4,1.56,1.02,1.56c1.43,0,1.88-2.1,2.61-2.1
			c0.24,0,0.4,0.16,0.4,0.4c0,0.19-0.13,0.32-0.24,0.43c-1.67,1.61-3.01,2.29-4.9,2.29c-2.74,0-5.03-1.53-5.03-3.9v-7.24
			c0-1.21-0.48-1.8-1.72-2.04c-3.77-0.73-5.51-1.21-7.05-1.21c-0.86,0-1.43,0.32-1.43,1.26C66.85,18.07,75.32,17.75,75.32,23.34z"/>
		<path class="st0" d="M91.33,16.86c-0.59,0-1.08-0.48-1.08-1.08c0-1.4,2.83-2.53,5.87-2.53c4.81,0,7.24,1.4,7.24,4.17v9.71
			c0,0.24,0.13,0.32,0.24,0.32c0.32,0,0.32-0.86,0.81-0.86c0.24,0,0.4,0.16,0.4,0.4c0,0.13-0.05,0.27-0.16,0.38
			c-0.43,0.43-1.26,0.73-2.39,0.73c-1.8,0-3.42-0.67-4.3-1.8c-0.89,0.97-2.45,1.8-4.63,1.8c-3.55,0-5.84-1.53-5.84-4.44
			c0-5.78,9.74-4.17,9.74-7.91c0-1.26-0.7-2.07-1.8-2.07C92.92,13.68,93.46,16.86,91.33,16.86z M95.42,27.21
			c1.1,0,1.8-0.81,1.8-2.07V17.1c-0.89,2.23-3.44,4.73-3.44,7.88C93.78,26.41,94.43,27.21,95.42,27.21z"/>
		<path class="st0" d="M118.21,15.78c0,0.59-0.48,1.08-1.08,1.08c-2.13,0-1.86-3.17-4.36-3.17c-0.86,0-1.43,0.35-1.43,1.29
			c0,3.09,8.47,2.77,8.47,8.37c0,2.88-3.01,4.76-7.69,4.76c-2.69,0-4.65-0.86-6.43-2.29c-0.11-0.11-0.24-0.24-0.24-0.43
			c0-0.24,0.16-0.4,0.4-0.4c0.57,0,1.08,1.16,2.15,1.75c1.02,0.56,2.04,0.83,3.34,0.83c1.67,0,2.8-0.7,2.8-1.99
			c0-3.34-8.31-3.39-8.31-8.18c0-2.64,2.53-4.14,6.94-4.14C115.82,13.25,118.21,14.38,118.21,15.78z"/>
	</g>
</g>
<g>
	<path class="st1" d="M92.11,27.86c0,0.14-0.05,0.31-0.14,0.5c-0.02,0.05-0.06,0.1-0.12,0.16c-0.06,0.06-0.12,0.11-0.18,0.17
		s-0.12,0.1-0.18,0.15c-0.06,0.04-0.1,0.08-0.13,0.1c-0.15,0.12-0.34,0.26-0.58,0.41c-0.24,0.15-0.5,0.31-0.79,0.48
		c-0.29,0.17-0.59,0.34-0.92,0.52c-0.32,0.17-0.64,0.35-0.97,0.51c-0.32,0.17-0.64,0.33-0.94,0.48c-0.3,0.15-0.58,0.28-0.83,0.4
		c-0.18,0.08-0.35,0.17-0.52,0.28c-0.16,0.1-0.32,0.2-0.48,0.29c-0.16,0.09-0.31,0.16-0.47,0.22c-0.16,0.06-0.33,0.09-0.5,0.09
		c-0.1,0-0.21-0.01-0.3-0.04c-0.1-0.02-0.19-0.06-0.26-0.12s-0.14-0.12-0.19-0.21s-0.07-0.18-0.07-0.3c0-0.06,0.02-0.12,0.06-0.18
		c0.04-0.05,0.1-0.1,0.17-0.15c0.07-0.04,0.14-0.08,0.22-0.12c0.08-0.04,0.16-0.07,0.24-0.09c0.08-0.03,0.18-0.07,0.29-0.1
		c0.11-0.03,0.22-0.07,0.34-0.1c0.11-0.03,0.22-0.07,0.33-0.11s0.2-0.07,0.28-0.11c0.14-0.08,0.28-0.17,0.41-0.29
		s0.25-0.25,0.35-0.39c0.11-0.14,0.21-0.29,0.31-0.44c0.1-0.15,0.18-0.3,0.27-0.44c0.05-0.09,0.11-0.2,0.16-0.32
		c0.05-0.12,0.09-0.24,0.13-0.35c0.04-0.12,0.07-0.23,0.09-0.34c0.02-0.11,0.03-0.2,0.03-0.27c0-0.31-0.07-0.56-0.21-0.75
		c-0.14-0.19-0.31-0.28-0.51-0.28c-0.13,0-0.27,0.04-0.44,0.13s-0.33,0.19-0.5,0.3c-0.17,0.12-0.32,0.24-0.46,0.37
		c-0.14,0.13-0.26,0.24-0.34,0.33c-0.21,0.22-0.41,0.46-0.59,0.73c-0.18,0.26-0.36,0.53-0.52,0.8c-0.16,0.27-0.32,0.55-0.46,0.83
		c-0.15,0.28-0.28,0.54-0.4,0.8c-0.05,0.21-0.11,0.45-0.16,0.71c-0.05,0.26-0.09,0.54-0.12,0.85c-0.05,0.61-0.09,1.16-0.11,1.64
		c-0.02,0.48-0.08,0.92-0.15,1.32c-0.03,0.15-0.09,0.27-0.2,0.39s-0.24,0.17-0.41,0.17c-0.05,0-0.11-0.01-0.18-0.04
		c-0.07-0.02-0.13-0.06-0.19-0.11c-0.06-0.05-0.11-0.1-0.16-0.15s-0.07-0.12-0.07-0.19c0-0.15,0.01-0.33,0.03-0.55
		c0.02-0.22,0.04-0.44,0.07-0.67s0.05-0.42,0.08-0.61c0.03-0.18,0.04-0.31,0.05-0.38c0.06-0.47,0.12-0.97,0.17-1.52
		c0.05-0.54,0.09-1.13,0.12-1.77c0-0.14,0.01-0.32,0.02-0.54s0.01-0.45,0.02-0.68c0.01-0.23,0.01-0.44,0.02-0.64
		c0.01-0.2,0.01-0.34,0.02-0.42c0.06-0.87,0.29-1.3,0.68-1.3c0.08,0,0.15,0.02,0.22,0.06c0.07,0.04,0.13,0.09,0.19,0.15
		c0.05,0.06,0.1,0.13,0.13,0.21c0.03,0.08,0.05,0.15,0.05,0.23c0,0.16-0.02,0.33-0.05,0.51c-0.03,0.18-0.07,0.37-0.11,0.57
		c-0.04,0.19-0.08,0.38-0.11,0.57c-0.03,0.19-0.05,0.36-0.05,0.51c0,0.13,0.01,0.2,0.04,0.2c0.32-0.57,0.63-1.08,0.93-1.51
		c0.3-0.43,0.61-0.79,0.91-1.08c0.2-0.18,0.39-0.35,0.58-0.5s0.38-0.28,0.58-0.4c0.19-0.11,0.39-0.2,0.6-0.26
		c0.21-0.06,0.43-0.09,0.66-0.1c0.16,0,0.32,0.03,0.49,0.12c0.17,0.08,0.32,0.21,0.46,0.37c0.14,0.16,0.25,0.36,0.34,0.6
		c0.09,0.23,0.13,0.5,0.13,0.79c0,0.23-0.03,0.46-0.11,0.68c-0.08,0.23-0.17,0.45-0.3,0.67c-0.13,0.22-0.27,0.43-0.43,0.64
		c-0.16,0.2-0.33,0.39-0.51,0.57c0.37-0.14,0.75-0.31,1.15-0.52c0.39-0.21,0.79-0.42,1.18-0.66s0.78-0.48,1.16-0.74
		c0.38-0.25,0.74-0.5,1.09-0.74c0.1-0.07,0.19-0.13,0.25-0.18c0.06-0.05,0.13-0.07,0.21-0.07c0.06,0,0.1,0.03,0.11,0.09
		C92.1,27.73,92.11,27.79,92.11,27.86z"/>
	<path class="st1" d="M100.9,28.45c0,0.05-0.01,0.12-0.02,0.19c-0.01,0.07-0.03,0.15-0.06,0.23c-0.03,0.08-0.05,0.15-0.08,0.22
		s-0.06,0.13-0.09,0.17c-0.03,0.04-0.07,0.08-0.12,0.15c-0.05,0.06-0.11,0.13-0.17,0.2c-0.06,0.07-0.13,0.15-0.21,0.23
		c-0.08,0.08-0.15,0.16-0.24,0.23c-0.28,0.26-0.56,0.51-0.83,0.75c-0.27,0.24-0.55,0.46-0.83,0.64c-0.29,0.19-0.58,0.33-0.9,0.45
		c-0.31,0.11-0.65,0.17-1.01,0.16c-0.17,0-0.34-0.03-0.51-0.09c-0.17-0.06-0.33-0.15-0.48-0.26c-0.15-0.11-0.28-0.25-0.39-0.41
		s-0.19-0.33-0.23-0.52c-0.13,0.14-0.27,0.28-0.42,0.43s-0.3,0.3-0.45,0.45c-0.16,0.15-0.32,0.29-0.49,0.44
		c-0.17,0.14-0.34,0.27-0.52,0.39c-0.1,0.06-0.22,0.13-0.36,0.2c-0.14,0.07-0.28,0.14-0.44,0.2s-0.3,0.11-0.46,0.15
		c-0.15,0.04-0.29,0.06-0.41,0.06c-0.19,0-0.35-0.06-0.48-0.17s-0.25-0.26-0.33-0.43s-0.15-0.35-0.2-0.54
		c-0.04-0.19-0.07-0.36-0.07-0.51c0-0.3,0.04-0.61,0.13-0.92s0.2-0.62,0.34-0.92c0.14-0.3,0.29-0.58,0.46-0.85
		c0.17-0.27,0.34-0.51,0.5-0.72c0.17-0.22,0.38-0.43,0.61-0.65c0.24-0.22,0.48-0.41,0.74-0.58c0.25-0.17,0.5-0.31,0.75-0.41
		c0.25-0.1,0.46-0.16,0.65-0.16c0.1,0,0.2,0,0.3,0c0.11,0,0.21,0.01,0.32,0.02c0.1,0.01,0.21,0.03,0.31,0.05
		c0.1,0.03,0.19,0.06,0.27,0.11c0.04,0.03,0.09,0.08,0.14,0.16s0.11,0.16,0.15,0.26s0.09,0.19,0.12,0.29
		c0.03,0.1,0.05,0.17,0.05,0.22c0,0.15-0.03,0.35-0.1,0.6c-0.07,0.31-0.14,0.6-0.2,0.86s-0.09,0.52-0.09,0.79
		c0,0.15,0.03,0.31,0.08,0.47s0.12,0.31,0.21,0.44c0.09,0.13,0.21,0.24,0.34,0.32c0.13,0.08,0.29,0.13,0.45,0.13
		c0.28,0,0.56-0.06,0.85-0.17c0.29-0.12,0.58-0.27,0.88-0.48s0.59-0.44,0.89-0.7c0.3-0.27,0.59-0.55,0.87-0.85
		c0.02-0.03,0.06-0.07,0.12-0.14c0.06-0.07,0.12-0.13,0.18-0.2c0.06-0.07,0.12-0.13,0.18-0.18c0.06-0.05,0.1-0.08,0.13-0.08
		C100.86,28.17,100.9,28.26,100.9,28.45z M94.84,27.89c0-0.08,0-0.17-0.01-0.29c-0.01-0.11-0.04-0.21-0.09-0.28
		c-0.05-0.07-0.11-0.11-0.18-0.11c-0.07,0-0.14,0-0.22,0c-0.16,0-0.31,0.02-0.46,0.08c-0.15,0.05-0.29,0.12-0.43,0.21
		c-0.14,0.09-0.28,0.19-0.41,0.31c-0.13,0.12-0.26,0.24-0.38,0.37c-0.1,0.1-0.21,0.23-0.33,0.39c-0.12,0.15-0.23,0.32-0.34,0.51
		s-0.22,0.38-0.32,0.58s-0.2,0.4-0.27,0.6s-0.14,0.39-0.18,0.57c-0.05,0.18-0.07,0.35-0.07,0.5c0,0.05,0.01,0.11,0.02,0.18
		c0.01,0.08,0.03,0.15,0.05,0.22c0.03,0.07,0.06,0.13,0.1,0.18s0.1,0.08,0.16,0.08c0.21,0,0.47-0.07,0.78-0.2
		c0.43-0.18,0.81-0.43,1.16-0.75c0.35-0.32,0.64-0.68,0.89-1.09C94.66,29.3,94.84,28.61,94.84,27.89z"/>
	<path class="st1" d="M107.02,28.17c0,0.07-0.02,0.15-0.06,0.24c-0.04,0.09-0.09,0.18-0.16,0.28s-0.15,0.19-0.23,0.29
		c-0.09,0.1-0.17,0.19-0.26,0.29c-0.07,0.08-0.14,0.16-0.22,0.24c-0.08,0.08-0.16,0.17-0.26,0.27s-0.21,0.21-0.34,0.34
		c-0.13,0.13-0.29,0.28-0.46,0.45c-0.16,0.15-0.33,0.32-0.53,0.49c-0.19,0.17-0.39,0.34-0.59,0.5c-0.2,0.16-0.39,0.32-0.58,0.47
		c-0.19,0.15-0.35,0.28-0.48,0.39c-0.33,0.27-0.64,0.52-0.93,0.76c-0.3,0.24-0.59,0.45-0.87,0.64c-0.57,0.38-1.02,0.57-1.35,0.57
		c-0.11,0-0.25-0.03-0.4-0.09c-0.15-0.06-0.23-0.14-0.23-0.25c0-0.3,0.11-0.53,0.33-0.7c0.22-0.16,0.56-0.33,1.02-0.52
		c0.45-0.18,0.79-0.36,1.02-0.53c0.23-0.17,0.34-0.41,0.34-0.71c0-0.15-0.16-0.45-0.47-0.91c-0.16-0.23-0.29-0.44-0.41-0.64
		c-0.12-0.19-0.22-0.37-0.31-0.52c-0.17-0.32-0.26-0.65-0.26-1c0-0.3,0.06-0.62,0.17-0.96c0.05-0.19,0.14-0.38,0.26-0.58
		s0.25-0.37,0.39-0.52s0.28-0.27,0.43-0.36c0.14-0.09,0.27-0.13,0.38-0.13c0.4,0,0.6,0.24,0.6,0.71c0,0.18-0.07,0.36-0.2,0.53
		c-0.06,0.08-0.14,0.17-0.23,0.25c-0.09,0.09-0.2,0.18-0.31,0.28c-0.11,0.1-0.21,0.18-0.29,0.25c-0.08,0.07-0.14,0.13-0.19,0.18
		c0,0.24,0.07,0.51,0.22,0.83c0.08,0.15,0.17,0.32,0.27,0.5c0.1,0.18,0.22,0.38,0.35,0.59s0.24,0.4,0.33,0.56
		c0.09,0.17,0.16,0.29,0.2,0.36c0,0.02,0.03,0.03,0.08,0.03c0.06,0,0.17-0.05,0.33-0.14c0.16-0.09,0.34-0.22,0.56-0.38
		c0.22-0.16,0.45-0.34,0.71-0.54c0.25-0.21,0.51-0.43,0.76-0.66c0.26-0.24,0.48-0.44,0.65-0.62c0.17-0.18,0.34-0.34,0.49-0.5
		c0.15-0.15,0.27-0.27,0.34-0.36s0.12-0.13,0.13-0.13c0.04,0,0.07,0.01,0.1,0.04c0.03,0.03,0.06,0.06,0.08,0.11s0.04,0.09,0.06,0.14
		C107.01,28.08,107.02,28.12,107.02,28.17z"/>
	<path class="st1" d="M106.92,26.78c0.06-0.09,0.14-0.19,0.23-0.29s0.19-0.19,0.29-0.27c0.1-0.08,0.2-0.14,0.29-0.19
		s0.17-0.08,0.24-0.08c0.07,0,0.13,0.01,0.19,0.04c0.06,0.03,0.12,0.06,0.16,0.11c0.05,0.04,0.09,0.1,0.12,0.15
		c0.03,0.06,0.04,0.11,0.04,0.17c0,0.11-0.03,0.23-0.09,0.33c-0.06,0.11-0.14,0.22-0.23,0.32c-0.09,0.1-0.19,0.21-0.3,0.3
		s-0.21,0.19-0.31,0.28s-0.17,0.18-0.24,0.26c-0.06,0.08-0.09,0.15-0.1,0.22c0.07,0.15,0.16,0.29,0.28,0.43s0.25,0.27,0.41,0.41
		c0.15,0.13,0.32,0.26,0.49,0.4c0.17,0.13,0.36,0.27,0.54,0.4c0.1,0.08,0.19,0.16,0.27,0.24s0.14,0.15,0.19,0.21s0.1,0.12,0.13,0.16
		s0.06,0.06,0.08,0.06c0.03,0,0.08-0.02,0.15-0.06c0.07-0.04,0.14-0.09,0.22-0.16c0.08-0.07,0.18-0.14,0.28-0.24
		c0.1-0.09,0.21-0.19,0.32-0.29c0.26-0.25,0.53-0.51,0.8-0.8c0.27-0.29,0.52-0.56,0.75-0.81c0.23-0.25,0.43-0.46,0.61-0.63
		s0.3-0.25,0.38-0.25c0.05,0,0.09,0.01,0.12,0.03s0.05,0.05,0.06,0.08c0.01,0.03,0.02,0.07,0.02,0.11s0,0.08,0,0.12
		c0,0.05-0.04,0.14-0.11,0.26c-0.07,0.12-0.16,0.27-0.28,0.43c-0.11,0.16-0.24,0.34-0.39,0.53s-0.29,0.38-0.44,0.56
		c-0.15,0.18-0.3,0.36-0.44,0.51s-0.27,0.29-0.38,0.4c-0.12,0.12-0.23,0.23-0.34,0.32s-0.21,0.2-0.32,0.31
		c-0.11,0.11-0.23,0.22-0.37,0.35c-0.13,0.13-0.29,0.29-0.48,0.47c-0.15,0.15-0.29,0.29-0.42,0.44c-0.13,0.15-0.26,0.3-0.39,0.45
		c-0.13,0.15-0.26,0.3-0.4,0.44s-0.28,0.29-0.43,0.43c-0.25,0.23-0.5,0.42-0.73,0.57s-0.46,0.23-0.68,0.23
		c-0.19,0-0.35-0.04-0.48-0.11c-0.13-0.07-0.19-0.17-0.19-0.31c0-0.14,0.05-0.26,0.16-0.38s0.23-0.23,0.39-0.34
		c0.15-0.11,0.32-0.21,0.5-0.31c0.18-0.1,0.35-0.19,0.51-0.29c0.33-0.2,0.57-0.41,0.73-0.65c0.16-0.24,0.24-0.48,0.24-0.72
		c0-0.17-0.1-0.37-0.3-0.59c-0.2-0.22-0.54-0.48-1.01-0.78c-0.15-0.1-0.29-0.2-0.41-0.32c-0.12-0.12-0.23-0.23-0.31-0.35
		s-0.15-0.23-0.2-0.34c-0.05-0.11-0.07-0.21-0.07-0.29c0-0.17,0.01-0.32,0.03-0.45c0.02-0.13,0.05-0.26,0.1-0.39
		c0.05-0.13,0.11-0.26,0.19-0.4C106.7,27.12,106.8,26.96,106.92,26.78z"/>
	<path class="st1" d="M119.4,28.66c0,0.1-0.04,0.22-0.13,0.39c-0.09,0.16-0.21,0.35-0.36,0.55c-0.15,0.21-0.33,0.43-0.53,0.67
		c-0.2,0.24-0.41,0.47-0.64,0.71c-0.25,0.27-0.52,0.54-0.81,0.79s-0.59,0.5-0.91,0.73c-0.64,0.47-1.2,0.71-1.7,0.71
		c-0.55,0-0.98-0.18-1.28-0.55c-0.3-0.37-0.51-0.82-0.62-1.35c-0.11-0.52-0.16-1.06-0.16-1.61c0-0.23,0.03-0.59,0.08-1.08
		c0.03-0.25,0.05-0.46,0.08-0.63c0.03-0.18,0.06-0.32,0.09-0.43c0.06-0.21,0.2-0.4,0.4-0.56c0.21-0.17,0.43-0.25,0.65-0.25
		c0.12,0,0.18,0.12,0.18,0.35c0,0.16-0.01,0.33-0.04,0.53s-0.06,0.39-0.09,0.58c-0.06,0.36-0.1,0.68-0.13,0.96s-0.04,0.53-0.04,0.74
		c0,0.46,0.06,0.92,0.19,1.39c0.13,0.48,0.36,0.72,0.69,0.72c0.34,0,0.73-0.12,1.17-0.37c0.22-0.13,0.45-0.27,0.67-0.42
		c0.22-0.15,0.45-0.33,0.67-0.52c0.23-0.19,0.45-0.38,0.65-0.58c0.21-0.19,0.41-0.39,0.61-0.6c0.2-0.2,0.38-0.4,0.54-0.57
		c0.16-0.18,0.3-0.34,0.42-0.49c0-0.01,0.01-0.02,0.02-0.04c0.01-0.02,0.02-0.04,0.04-0.06c0.01-0.02,0.03-0.04,0.04-0.05
		s0.03-0.02,0.04-0.01c0.06,0,0.11,0.05,0.14,0.15C119.38,28.52,119.4,28.6,119.4,28.66z M114.94,23.12c0,0.29-0.08,0.55-0.23,0.76
		c-0.15,0.21-0.37,0.31-0.66,0.31c-0.18,0-0.38-0.03-0.61-0.08c-0.22-0.05-0.33-0.14-0.33-0.27c0-0.22,0.07-0.43,0.21-0.64
		s0.31-0.37,0.5-0.49c0.15-0.09,0.26-0.14,0.31-0.14c0.26,0,0.46,0.04,0.6,0.11S114.94,22.89,114.94,23.12z"/>
	<path class="st1" d="M127.86,27.08c0,0.08-0.03,0.16-0.08,0.25c-0.05,0.09-0.13,0.18-0.21,0.28c-0.09,0.09-0.18,0.18-0.29,0.27
		c-0.11,0.09-0.22,0.17-0.33,0.25c-0.11,0.08-0.21,0.14-0.31,0.2c-0.1,0.06-0.18,0.1-0.24,0.13c-0.12,0.05-0.27,0.09-0.47,0.13
		c-0.19,0.04-0.39,0.07-0.6,0.1s-0.41,0.05-0.61,0.06c-0.2,0.02-0.37,0.02-0.5,0.02c-0.05,0-0.13-0.01-0.22-0.03
		c-0.1-0.02-0.19-0.04-0.29-0.07c-0.1-0.03-0.19-0.06-0.28-0.09s-0.15-0.07-0.19-0.11c0.04,0.17,0.08,0.35,0.11,0.52
		c0.03,0.17,0.05,0.36,0.05,0.54c0,0.08-0.01,0.18-0.03,0.3s-0.05,0.24-0.08,0.36c-0.03,0.12-0.07,0.24-0.11,0.35
		c-0.04,0.11-0.08,0.2-0.13,0.28c-0.12,0.2-0.24,0.38-0.36,0.54c-0.13,0.16-0.27,0.31-0.42,0.45s-0.33,0.27-0.53,0.39
		s-0.42,0.24-0.67,0.35c-0.27,0.12-0.55,0.2-0.82,0.25c-0.28,0.05-0.56,0.07-0.86,0.07c-0.19,0-0.35-0.05-0.5-0.16
		c-0.15-0.11-0.27-0.25-0.37-0.44c-0.1-0.18-0.18-0.4-0.23-0.64c-0.05-0.24-0.08-0.49-0.08-0.76c0-0.07,0.01-0.15,0.02-0.25
		c0.01-0.1,0.03-0.2,0.05-0.31c0.02-0.1,0.04-0.2,0.07-0.3c0.02-0.09,0.04-0.18,0.07-0.25c0.06-0.19,0.15-0.41,0.27-0.65
		c0.12-0.25,0.26-0.5,0.42-0.75c0.16-0.26,0.34-0.51,0.53-0.76c0.2-0.25,0.4-0.47,0.61-0.66c0.21-0.2,0.44-0.35,0.67-0.47
		s0.46-0.18,0.7-0.18c0.08,0,0.14,0.01,0.19,0.03c0.05,0.02,0.09,0.05,0.12,0.09c0.03,0.04,0.06,0.08,0.09,0.12s0.06,0.08,0.1,0.12
		c0.01,0.02,0.03,0.03,0.06,0.03c0.04,0,0.08-0.01,0.14-0.03c0.05-0.02,0.12-0.03,0.18-0.03c0.09,0,0.19,0.06,0.32,0.17
		c0.13,0.11,0.26,0.23,0.4,0.37c0.14,0.13,0.28,0.26,0.42,0.37c0.14,0.11,0.26,0.17,0.37,0.17c0.12,0,0.25,0,0.39-0.01
		c0.14,0,0.28-0.01,0.43-0.02c0.15-0.01,0.29-0.03,0.43-0.04c0.14-0.02,0.27-0.04,0.39-0.06c0.03-0.01,0.11-0.03,0.22-0.06
		c0.12-0.03,0.26-0.07,0.41-0.11c0.16-0.04,0.32-0.09,0.5-0.14s0.34-0.1,0.49-0.14c0.15-0.04,0.27-0.08,0.37-0.11
		c0.1-0.03,0.15-0.04,0.16-0.04c0.03,0,0.05,0.01,0.08,0.02C127.85,27.02,127.86,27.04,127.86,27.08z M122.54,28.17
		c-0.03-0.09-0.08-0.18-0.16-0.27c-0.08-0.09-0.17-0.16-0.27-0.23c-0.1-0.07-0.21-0.12-0.32-0.17c-0.11-0.04-0.22-0.06-0.32-0.06
		c-0.08,0-0.16,0.01-0.24,0.04s-0.15,0.06-0.23,0.11s-0.15,0.09-0.21,0.14c-0.07,0.05-0.13,0.1-0.19,0.15
		c-0.18,0.15-0.35,0.36-0.51,0.63s-0.3,0.56-0.42,0.87c-0.12,0.31-0.22,0.62-0.29,0.93c-0.07,0.31-0.11,0.58-0.11,0.8
		c0,0.1,0.02,0.2,0.05,0.29c0.03,0.09,0.08,0.17,0.15,0.25c0.06,0.07,0.14,0.13,0.22,0.17s0.18,0.06,0.29,0.06
		c0.27,0,0.52-0.05,0.76-0.15c0.23-0.1,0.44-0.23,0.63-0.4c0.19-0.17,0.36-0.37,0.5-0.61s0.27-0.49,0.37-0.77
		c0.1-0.27,0.18-0.56,0.23-0.87C122.51,28.79,122.54,28.48,122.54,28.17z"/>
	<path class="st1" d="M136,31.07c0,0.16-0.05,0.33-0.16,0.52c-0.11,0.19-0.27,0.37-0.48,0.54c-0.21,0.17-0.47,0.3-0.79,0.42
		s-0.67,0.17-1.08,0.17c-0.41,0-0.77-0.07-1.08-0.21c-0.31-0.14-0.58-0.37-0.79-0.67c-0.22-0.3-0.38-0.69-0.49-1.16
		s-0.17-1.03-0.17-1.68c-0.07,0.04-0.18,0.14-0.32,0.28c-0.14,0.14-0.3,0.3-0.47,0.49s-0.36,0.39-0.54,0.61s-0.37,0.43-0.54,0.63
		c-0.17,0.2-0.32,0.39-0.46,0.56s-0.23,0.31-0.3,0.4c-0.11,0.17-0.21,0.32-0.27,0.43c-0.07,0.12-0.13,0.21-0.19,0.28
		c-0.06,0.07-0.12,0.12-0.19,0.15c-0.07,0.03-0.15,0.04-0.25,0.04c-0.1,0-0.18-0.01-0.27-0.04c-0.08-0.03-0.15-0.07-0.21-0.12
		c-0.06-0.05-0.1-0.1-0.14-0.16c-0.03-0.06-0.05-0.12-0.05-0.18c0-0.08,0-0.18,0.01-0.28s0.02-0.22,0.04-0.33
		c0.02-0.11,0.03-0.22,0.05-0.33c0.02-0.11,0.03-0.21,0.05-0.29c0.05-0.24,0.1-0.52,0.15-0.85c0.05-0.32,0.1-0.71,0.13-1.18
		c0.02-0.29,0.04-0.57,0.06-0.84c0.02-0.26,0.03-0.54,0.03-0.82c0-0.14,0.02-0.27,0.05-0.4c0.03-0.13,0.08-0.24,0.15-0.34
		s0.15-0.18,0.25-0.24c0.1-0.06,0.21-0.09,0.35-0.09c0.1,0,0.18,0.01,0.25,0.04c0.06,0.03,0.11,0.06,0.15,0.11
		c0.04,0.05,0.06,0.1,0.07,0.15c0.01,0.06,0.02,0.12,0.02,0.17c0,0.07,0,0.13-0.01,0.2c-0.01,0.07-0.01,0.12-0.01,0.17
		c0,0.01-0.01,0.06-0.02,0.15c-0.01,0.09-0.03,0.2-0.06,0.34c-0.03,0.14-0.05,0.29-0.09,0.46s-0.07,0.34-0.11,0.5
		c-0.08,0.35-0.13,0.63-0.17,0.84c-0.03,0.21-0.06,0.39-0.08,0.54s-0.03,0.29-0.03,0.43s-0.02,0.29-0.04,0.48
		c0.1-0.14,0.24-0.31,0.42-0.51c0.18-0.2,0.37-0.41,0.57-0.63c0.2-0.21,0.38-0.42,0.56-0.63s0.32-0.37,0.43-0.51
		c0.14-0.18,0.28-0.35,0.42-0.5c0.14-0.15,0.29-0.28,0.44-0.39c0.15-0.11,0.31-0.19,0.48-0.26s0.35-0.09,0.54-0.09
		c0.13,0,0.22,0.03,0.25,0.1s0.05,0.14,0.05,0.23c0,0.04,0,0.07,0,0.11c0,0.04,0,0.08,0,0.11s-0.01,0.1-0.02,0.19
		s-0.03,0.19-0.04,0.3s-0.03,0.21-0.04,0.3c-0.01,0.1-0.02,0.16-0.02,0.2c0,0.39,0.03,0.76,0.09,1.09c0.06,0.33,0.15,0.61,0.29,0.85
		c0.13,0.24,0.31,0.42,0.52,0.55c0.22,0.13,0.49,0.2,0.8,0.2c0.2,0,0.38-0.01,0.54-0.04c0.16-0.02,0.31-0.07,0.45-0.13
		c0.14-0.06,0.29-0.13,0.44-0.22s0.31-0.2,0.5-0.34c0.05-0.04,0.09-0.07,0.14-0.1c0.04-0.02,0.07-0.04,0.11-0.07
		c0.04-0.02,0.07-0.03,0.09-0.03L136,31.07z"/>
</g>
</svg>
