<?xml version="1.0" encoding="utf-8"?>
<!-- Generator: Adobe Illustrator 24.2.3, SVG Export Plug-In . SVG Version: 6.00 Build 0)  -->
<svg version="1.1" id="Capa_1" xmlns="http://www.w3.org/2000/svg" xmlns:xlink="http://www.w3.org/1999/xlink" x="0px" y="0px"
	 viewBox="0 0 50 50" style="enable-background:new 0 0 50 50;" xml:space="preserve">
<style type="text/css">
	.st0{fill:#8C7857;}
</style>
<g>
	<path class="st0" d="M49.14,34.63c-0.39,1.07-1.21,1.47-2.3,1.62c-2.47,0.35-4.89,0.2-7.27-0.53c-0.07-0.02-0.15-0.04-0.23-0.05
		c-0.03,0-0.06,0.02-0.12,0.04c0.23,0.6,0.46,1.19,0.69,1.78c0.31,0.78,0.2,1.49-0.4,2.08c-0.59,0.58-1.29,0.66-2.05,0.35
		c-0.44-0.18-0.88-0.34-1.32-0.51c-0.17-0.07-0.35-0.14-0.58-0.23c0.14,0.66,0.28,1.26,0.38,1.87c0.33,1.89,0.3,3.79-0.07,5.67
		c-0.32,1.67-1.83,2.27-3.25,1.3c-1.99-1.36-3.59-3.09-4.82-5.16c-0.07-0.12-0.15-0.24-0.26-0.42c-0.3,0.69-0.57,1.33-0.87,1.96
		c-0.51,1.08-1.59,1.47-2.58,0.95c-0.47-0.25-0.73-0.67-0.93-1.14c-0.91-2.1-1.82-4.2-2.77-6.38c-1.22,2.94-2.42,5.84-3.62,8.73
		c0.04,0.03,0.07,0.07,0.11,0.1c0.72-0.66,1.47-1.29,2.13-2c0.59-0.63,1.07-1.35,1.59-2.04c0.21-0.28,0.44-0.51,0.82-0.44
		c0.51,0.1,0.73,0.64,0.43,1.11c-0.97,1.52-2.15,2.86-3.56,3.99c-0.31,0.24-0.63,0.47-0.95,0.7c-1.43,1.05-3,0.41-3.31-1.34
		c-0.41-2.34-0.36-4.66,0.25-6.96c0.04-0.14,0.06-0.27,0.11-0.49c-0.26,0.09-0.47,0.16-0.68,0.24c-0.51,0.19-1.02,0.42-1.54,0.58
		c-1.33,0.39-2.6-0.82-2.24-2.15c0.2-0.74,0.51-1.44,0.79-2.21c-0.74,0.17-1.45,0.35-2.16,0.5c-2.06,0.42-4.13,0.36-6.18-0.05
		c-1.41-0.28-1.99-1.84-1.18-3.07c1.03-1.55,2.28-2.89,3.79-3.97c0.75-0.54,1.54-1.01,2.38-1.56c-0.58-0.25-1.15-0.5-1.71-0.74
		c-0.73-0.32-1.22-0.82-1.26-1.66c-0.05-0.83,0.36-1.45,1.21-1.84c0.59-0.27,1.2-0.53,1.82-0.8c-0.79-0.51-1.56-0.95-2.28-1.47
		c-1.55-1.1-2.85-2.46-3.91-4.04c-0.87-1.29-0.27-2.8,1.27-3.11c2.57-0.53,5.12-0.39,7.65,0.33c0.18,0.05,0.35,0.1,0.61,0.18
		c-0.26-0.68-0.51-1.28-0.73-1.89c-0.28-0.75-0.17-1.44,0.4-2c0.56-0.57,1.25-0.68,2-0.41c0.4,0.14,0.79,0.31,1.18,0.46
		c0.24,0.1,0.49,0.19,0.76,0.29c-0.16-0.89-0.33-1.72-0.45-2.57c-0.24-1.71-0.16-3.42,0.2-5.11c0.32-1.49,1.82-2.08,3.1-1.22
		c2,1.34,3.62,3.05,4.85,5.12c0.1,0.16,0.2,0.32,0.33,0.53c0.3-0.69,0.57-1.34,0.87-1.97c0.61-1.26,2.06-1.57,2.99-0.62
		c0.22,0.23,0.38,0.54,0.51,0.83c0.9,2.07,1.78,4.15,2.67,6.23c0.01,0.03,0.04,0.04,0.12,0.11c1.21-2.92,2.41-5.81,3.66-8.83
		c-1.29,0.9-2.29,1.9-3.16,3.04c-0.23,0.3-0.43,0.62-0.67,0.91c-0.28,0.35-0.68,0.42-1,0.2c-0.34-0.24-0.4-0.63-0.13-1.04
		c1.22-1.83,2.73-3.36,4.56-4.58c1.2-0.8,2.7-0.18,3.01,1.24c0.51,2.37,0.43,4.74-0.14,7.1c-0.04,0.18-0.09,0.36-0.16,0.64
		c0.66-0.26,1.24-0.49,1.83-0.72c0.53-0.21,1.05-0.29,1.6-0.05c0.81,0.36,1.29,1.23,1.04,2.08c-0.21,0.72-0.5,1.42-0.77,2.17
		c0.54-0.13,1.04-0.27,1.55-0.39c2.17-0.51,4.36-0.51,6.55-0.13c0.94,0.16,1.49,0.72,1.8,1.58c0,0.25,0,0.5,0,0.75
		c-0.14,0.28-0.25,0.57-0.42,0.83c-1.06,1.58-2.35,2.94-3.9,4.04c-0.72,0.51-1.49,0.96-2.28,1.46c0.61,0.27,1.2,0.52,1.78,0.78
		c0.79,0.35,1.27,0.92,1.25,1.81c-0.02,0.86-0.51,1.38-1.26,1.71c-0.56,0.25-1.13,0.49-1.77,0.77c0.19,0.11,0.3,0.17,0.4,0.24
		c0.99,0.68,2.05,1.29,2.97,2.06c1.34,1.12,2.54,2.39,3.24,4.03C49.14,34.12,49.14,34.38,49.14,34.63z M22.25,20.23
		c-0.55-1.32-1.07-2.63-1.64-3.92c-0.53-1.2-1.43-2.06-2.65-2.55c-1.96-0.79-3.94-1.57-5.91-2.33c-0.17-0.07-0.48-0.06-0.58,0.05
		c-0.11,0.11-0.11,0.41-0.04,0.59c0.31,0.86,0.66,1.7,0.99,2.54c0.21,0.54,0.43,1.08,0.62,1.63c0.14,0.41-0.06,0.79-0.44,0.9
		c-0.39,0.11-0.68-0.02-0.85-0.39c-0.03-0.06-0.06-0.11-0.07-0.17c-0.08-0.4-0.36-0.57-0.72-0.7c-1.86-0.63-3.78-0.94-5.74-0.89
		C4.6,15,3.99,15.07,3.38,15.11c0,0.04,0,0.09-0.01,0.13c3.08,1.27,6.15,2.55,9.23,3.82c0.03-0.28,0-0.51,0.08-0.7
		c0.21-0.48,0.88-0.45,1.24,0.01c0.43,0.54,0.8,1.15,1.33,1.57c1.46,1.15,3.31,1.52,4.96,2.34c0.16-0.24,0.28-0.44,0.42-0.64
		c-1.76-1.76-3.49-3.49-5.23-5.23c-0.12-0.12-0.25-0.24-0.35-0.38c-0.23-0.32-0.24-0.65,0.05-0.94c0.29-0.28,0.62-0.27,0.94-0.03
		c0.12,0.09,0.23,0.21,0.34,0.32c1.63,1.63,3.27,3.27,4.9,4.9c0.12,0.12,0.24,0.23,0.37,0.35C21.87,20.49,22.05,20.37,22.25,20.23z
		 M37.83,29.57c3.17,1.31,6.27,2.6,9.49,3.93c-1.47-2.08-3.67-3.87-6.08-5.01c-0.29-0.14-0.53-0.17-0.83-0.02
		c-0.54,0.26-1,0.13-1.18-0.28c-0.18-0.41,0.03-0.76,0.63-1.02c1.28-0.56,2.57-1.11,3.84-1.68c0.18-0.08,0.42-0.3,0.42-0.46
		c0-0.16-0.23-0.39-0.41-0.47c-1.89-0.84-3.79-1.66-5.7-2.48c-0.84-0.36-1.74-0.62-2.62-0.36c-1.72,0.52-3.39,1.17-5.05,1.75
		c0.05,0.84,0.05,0.84,0.73,0.84c2.28,0,4.56,0,6.84,0c0.76,0,1.11,0.23,1.09,0.73c-0.02,0.48-0.34,0.69-1.09,0.69
		c-2.3,0-4.59,0-6.89,0c-0.66,0-0.68,0.03-0.65,0.76c1.05,0.43,2.11,0.85,3.16,1.31c1.2,0.53,2.42,0.76,3.71,0.43
		c0.39-0.1,0.77-0.1,0.97,0.33C38.43,28.95,38.26,29.27,37.83,29.57z M29.77,22.26c1.28-0.53,2.53-1.05,3.77-1.57
		c1.33-0.56,2.24-1.54,2.77-2.87c0.75-1.89,1.51-3.79,2.24-5.69c0.08-0.2,0.07-0.52-0.05-0.67c-0.08-0.11-0.44-0.09-0.63-0.01
		c-1.9,0.73-3.8,1.49-5.69,2.24c-1.04,0.41-1.96,1.03-2.46,2.02c-0.74,1.46-1.35,2.99-2.02,4.5c0.26,0.17,0.45,0.29,0.71,0.47
		c0.12-0.15,0.21-0.3,0.33-0.43c1.63-1.64,3.26-3.27,4.9-4.9c0.12-0.12,0.24-0.25,0.39-0.34c0.3-0.19,0.61-0.16,0.86,0.09
		c0.25,0.25,0.28,0.56,0.1,0.86c-0.09,0.14-0.22,0.27-0.34,0.39c-1.64,1.65-3.29,3.29-4.94,4.93c-0.12,0.12-0.29,0.18-0.44,0.27
		c0.03,0.04,0.07,0.09,0.1,0.13C29.5,21.86,29.62,22.04,29.77,22.26z M29.32,28.42c0.16,0.13,0.31,0.22,0.43,0.34
		c1.65,1.64,3.29,3.28,4.93,4.93c0.47,0.47,0.55,0.88,0.22,1.22c-0.32,0.33-0.74,0.25-1.22-0.22c-0.08-0.08-0.16-0.16-0.23-0.23
		c-1.58-1.58-3.15-3.16-4.73-4.73c-0.12-0.12-0.24-0.23-0.38-0.36c-0.22,0.15-0.41,0.28-0.6,0.41c0.54,1.29,1.05,2.53,1.57,3.77
		c0.56,1.33,1.54,2.24,2.87,2.76c1.89,0.75,3.79,1.51,5.69,2.24c0.19,0.07,0.55,0.1,0.63-0.01c0.12-0.15,0.12-0.47,0.05-0.67
		c-0.73-1.9-1.49-3.8-2.24-5.69c-0.4-1.02-1.01-1.94-1.99-2.43c-1.47-0.75-3.02-1.37-4.53-2.04C29.62,27.97,29.5,28.15,29.32,28.42z
		 M20.22,27.75c-1.21,0.5-2.41,1-3.61,1.5c-1.41,0.58-2.39,1.58-2.95,3c-0.73,1.87-1.48,3.73-2.21,5.6c-0.08,0.2-0.1,0.55,0.01,0.67
		c0.11,0.12,0.47,0.11,0.67,0.03c1.89-0.73,3.77-1.48,5.65-2.22c1.41-0.55,2.39-1.52,2.97-2.92c0.45-1.1,0.91-2.2,1.37-3.3
		c0.05-0.11,0.08-0.23,0.12-0.35c-0.21-0.14-0.39-0.26-0.68-0.45c-0.09,0.14-0.17,0.3-0.29,0.43c-1.63,1.64-3.26,3.27-4.9,4.9
		c-0.14,0.14-0.3,0.28-0.47,0.38c-0.29,0.18-0.63,0.16-0.79-0.13c-0.13-0.22-0.14-0.55-0.1-0.81c0.02-0.15,0.22-0.29,0.35-0.43
		c1.64-1.65,3.29-3.29,4.93-4.93c0.12-0.12,0.23-0.24,0.35-0.37C20.49,28.14,20.36,27.96,20.22,27.75z M24.29,15.53
		c0-1.15,0-2.29,0-3.44c0-0.17,0.01-0.35,0.03-0.52c0.06-0.39,0.33-0.57,0.7-0.57c0.35,0.01,0.6,0.2,0.65,0.56
		c0.03,0.19,0.03,0.38,0.03,0.56c0,2.34,0.01,4.68,0,7.02c0,0.28,0.07,0.42,0.37,0.48c0.29,0.05,0.41-0.03,0.52-0.3
		c0.45-1.12,0.92-2.23,1.38-3.35c0.53-1.3,0.56-2.61,0.01-3.9c-0.82-1.95-1.67-3.89-2.53-5.83c-0.07-0.17-0.3-0.38-0.45-0.38
		c-0.15,0-0.38,0.21-0.45,0.38c-0.86,1.94-1.71,3.88-2.53,5.83c-0.51,1.22-0.54,2.48-0.05,3.72c0.47,1.18,0.97,2.35,1.44,3.53
		c0.11,0.27,0.23,0.35,0.52,0.3c0.3-0.05,0.37-0.2,0.37-0.48C24.28,17.95,24.29,16.74,24.29,15.53z M19.64,23.55
		c-1.3-0.53-2.57-1.07-3.85-1.57c-1.24-0.49-2.5-0.46-3.72,0.05c-1.95,0.82-3.89,1.67-5.83,2.53c-0.17,0.07-0.37,0.3-0.37,0.46
		c0,0.15,0.21,0.37,0.38,0.45c1.92,0.85,3.85,1.69,5.78,2.51c1.31,0.56,2.63,0.54,3.94,0c1.1-0.45,2.2-0.92,3.31-1.36
		c0.27-0.11,0.4-0.22,0.34-0.54c-0.06-0.35-0.26-0.36-0.53-0.36c-2.34,0.01-4.68,0-7.02,0c-0.74,0-1.07-0.21-1.08-0.69
		c-0.01-0.49,0.33-0.72,1.1-0.72c2.28,0,4.56,0,6.84,0C19.6,24.3,19.6,24.3,19.64,23.55z M23.54,30.37
		c-0.52,1.26-1.06,2.53-1.56,3.81c-0.5,1.27-0.48,2.55,0.06,3.81c0.82,1.92,1.65,3.83,2.5,5.74c0.08,0.18,0.3,0.39,0.48,0.41
		c0.13,0.02,0.36-0.22,0.44-0.39c0.85-1.92,1.69-3.85,2.51-5.78c0.55-1.31,0.53-2.63,0-3.94c-0.45-1.1-0.92-2.2-1.36-3.31
		c-0.11-0.27-0.22-0.39-0.54-0.33c-0.35,0.06-0.36,0.27-0.36,0.54c0,2.29,0,4.59,0,6.88c0,0.87-0.19,1.21-0.7,1.22
		c-0.51,0.01-0.72-0.34-0.72-1.2c0-2.25,0-4.49,0-6.74C24.29,30.4,24.29,30.4,23.54,30.37z M29.07,25.01c0-2.25-1.83-4.07-4.07-4.07
		c-2.25,0-4.07,1.83-4.07,4.07c0,2.25,1.83,4.07,4.07,4.07C27.25,29.08,29.07,27.25,29.07,25.01z M47.19,16.54
		c-3.11,1.29-6.23,2.58-9.42,3.9c0.53,0.22,0.98,0.4,1.42,0.59c1.66,0.71,1.67,0.73,3.23-0.18C44.3,19.75,45.92,18.36,47.19,16.54z
		 M46.63,15.24c-0.01-0.03-0.01-0.06-0.02-0.1c-0.05-0.01-0.11-0.03-0.16-0.03c-2.34-0.3-4.63-0.06-6.89,0.6
		c-0.74,0.22-1.25,0.55-1.42,1.34c-0.04,0.21-0.15,0.41-0.23,0.62c-0.18,0.45-0.37,0.91-0.59,1.44
		C40.49,17.78,43.56,16.51,46.63,15.24z M2.72,16.5c0.08,0.14,0.1,0.2,0.13,0.24c1.67,2.13,3.78,3.7,6.22,4.85
		c0.1,0.05,0.25,0.06,0.35,0.02c0.91-0.37,1.81-0.76,2.79-1.18C9.03,19.12,5.92,17.83,2.72,16.5z M2.83,33.43
		c3.08-1.28,6.16-2.55,9.33-3.87c-0.98-0.42-1.86-0.8-2.74-1.16c-0.12-0.05-0.31-0.02-0.43,0.05c-0.81,0.44-1.64,0.86-2.42,1.37
		C5.11,30.77,3.81,31.93,2.83,33.43z M3.24,34.79c0.22,0.05,0.3,0.08,0.38,0.09c2.64,0.3,5.19-0.08,7.68-0.98
		c0.1-0.03,0.22-0.1,0.25-0.18c0.37-0.9,0.73-1.82,1.14-2.83C9.52,32.19,6.44,33.46,3.24,34.79z M37.3,30.88
		c0.38,0.96,0.7,1.79,1.06,2.61c0.08,0.19,0.28,0.38,0.46,0.45c1.89,0.69,3.85,1.03,5.86,1.04c0.65,0,1.29-0.08,1.94-0.12
		c0-0.04,0.01-0.08,0.01-0.12C43.55,33.46,40.48,32.19,37.3,30.88z M16.81,3.45c1.2,2.89,2.4,5.78,3.62,8.75
		c0.42-0.98,0.8-1.88,1.18-2.79c0.04-0.09,0.02-0.22-0.02-0.31C20.51,6.8,18.95,4.89,16.81,3.45z M29.56,37.82
		c-0.42,0.97-0.8,1.86-1.16,2.76c-0.05,0.12-0.01,0.31,0.06,0.43c0.41,0.74,0.8,1.5,1.28,2.19c0.92,1.34,2.06,2.48,3.45,3.38
		C31.99,43.69,30.79,40.8,29.56,37.82z M34.49,46.02c0.49-2.52,0.25-4.95-0.61-7.33c-0.03-0.09-0.1-0.21-0.19-0.25
		c-0.9-0.37-1.81-0.73-2.81-1.13C32.11,40.29,33.3,43.16,34.49,46.02z M15.51,4c-0.48,2.45-0.27,4.84,0.55,7.16
		c0.07,0.2,0.28,0.4,0.48,0.49c0.61,0.28,1.25,0.5,1.88,0.76c0.2,0.08,0.4,0.18,0.7,0.31C17.88,9.72,16.69,6.86,15.51,4z M34.49,4
		c-1.19,2.87-2.38,5.74-3.6,8.69c0.99-0.39,1.87-0.74,2.75-1.1c0.11-0.05,0.21-0.18,0.25-0.3C34.75,8.92,34.97,6.5,34.49,4z
		 M15.5,46.02c1.19-2.88,2.38-5.75,3.6-8.7c-0.98,0.39-1.85,0.73-2.72,1.09c-0.11,0.05-0.23,0.17-0.27,0.28
		C15.25,41.07,15.02,43.5,15.5,46.02z"/>
	<path class="st0" d="M25.01,27.67c-1.48,0-2.66-1.17-2.67-2.65c0-1.48,1.17-2.66,2.65-2.67c1.48,0,2.66,1.17,2.67,2.65
		C27.66,26.48,26.48,27.66,25.01,27.67z M25.01,26.25c0.69-0.01,1.24-0.58,1.23-1.27c-0.01-0.67-0.57-1.21-1.24-1.22
		c-0.69,0-1.25,0.56-1.25,1.25C23.76,25.7,24.32,26.26,25.01,26.25z"/>
</g>
</svg>
