<?xml version="1.0" encoding="utf-8"?>
<!-- Generator: Adobe Illustrator 24.2.3, SVG Export Plug-In . SVG Version: 6.00 Build 0)  -->
<svg version="1.1" id="Capa_1" xmlns="http://www.w3.org/2000/svg" xmlns:xlink="http://www.w3.org/1999/xlink" x="0px" y="0px"
	 viewBox="0 0 400 300" style="enable-background:new 0 0 400 300;" xml:space="preserve">
<style type="text/css">
	.st0{fill:#8C7857;}
	.st1{fill:#FFFFFF;}
</style>
<g>
	<g>
		<path class="st0" d="M71.02,59.82l14.71,42.39c1.42-2.51,2.61-5.56,3.81-9.26l10.24-32.8c1.42-4.69,0.54-8.5-2.83-8.5V49.9h13.62
			v1.74c-3.27,0-7.3,3.49-8.83,8.28l-14.49,46.64c-4.03,12.86-13.08,23.54-19.5,23.54c-3.27,0-5.34-1.96-5.23-4.58
			c0.11-3.05,1.63-5.01,6.21-8.06c5.12-3.38,9.92-5.67,14.06-10.9H79.3c-14.38,0-20.48-6.65-23.65-15.8L44.87,59.6
			c-1.63-4.79-4.9-7.95-8.17-7.95V49.9h36.83v1.74C70.26,51.65,69.39,55.13,71.02,59.82L71.02,59.82z"/>
		<path class="st0" d="M107.09,78.23c0-17.43,14.27-30.07,32.91-30.07c18.63,0,32.91,12.64,32.91,30.07s-14.27,30.07-32.91,30.07
			C121.37,108.31,107.09,95.67,107.09,78.23z M140,106.56c5.88,0,6.97-12.75,6.97-28.33c0-15.58-1.09-28.33-6.97-28.33
			s-6.97,12.75-6.97,28.33C133.03,93.81,134.12,106.56,140,106.56z"/>
		<path class="st0" d="M205.82,65.7v30.62c0,5.12,2.83,8.39,7.3,8.39c4.47,0,7.3-3.27,7.3-8.39V60.03c0-4.9-2.51-8.39-5.88-8.39
			V49.9h10.35c11.11,0,20.38,6.21,20.38,15.8v38.68c0,0.98,0.54,1.31,0.98,1.31c1.31,0,1.31-3.49,3.27-3.49
			c0.98,0,1.63,0.65,1.63,1.63c0,0.54-0.22,1.09-0.65,1.53c-1.74,1.74-5.12,2.94-9.7,2.94c-7.3,0-13.84-2.72-17.43-7.3
			c-3.6,3.92-9.92,7.3-18.74,7.3c-14.38,0-23.65-6.21-23.65-15.8V60.03c0-4.9-2.51-8.39-5.88-8.39V49.9h10.35
			C196.56,49.9,205.82,56.11,205.82,65.7L205.82,65.7z"/>
		<path class="st0" d="M296.8,48.16c9.26,0,15.8,5.45,15.8,12.09c0,2.4-1.96,4.36-4.36,4.36c-8.61,0-6.54-13.62-16.67-13.62
			c-4.47,0-7.3,3.27-7.3,8.39v37.05c0,4.9,2.51,8.39,5.88,8.39v1.74h-36.61v-1.74c3.38,0,5.88-3.49,5.88-8.39V60.03
			c0-4.9-2.51-8.39-5.88-8.39V49.9h10.35c6.86,0,13.08,2.4,16.78,6.43C283.73,52.08,288.41,48.16,296.8,48.16z"/>
		<path class="st0" d="M111.23,197.54c0,17.43-12.64,30.07-28.44,30.07c-6.65,0-10.79-2.62-13.62-5.67v3.92H38.44v-1.74
			c3.38,0,5.88-3.49,5.88-8.39v-56.01c0-4.9-2.51-8.39-5.88-8.39v-1.74h30.73v23.54c2.83-3.05,6.97-5.67,13.62-5.67
			C98.59,167.47,111.23,180.11,111.23,197.54z M76.69,224.67c5.45,0,8.61-11.77,8.61-27.13c0-15.36-3.16-27.13-8.61-27.13
			c-3.92,0-7.52,6.54-7.52,14.6v25.06C69.17,218.13,72.77,224.67,76.69,224.67z"/>
		<path class="st0" d="M114.83,197.54c0-17.43,14.27-30.07,32.91-30.07c18.63,0,32.91,12.64,32.91,30.07
			c0,17.43-14.27,30.07-32.91,30.07C129.1,227.61,114.83,214.97,114.83,197.54z M147.74,225.87c5.88,0,6.97-12.75,6.97-28.33
			c0-15.58-1.09-28.33-6.97-28.33s-6.97,12.75-6.97,28.33C140.76,213.12,141.85,225.87,147.74,225.87z"/>
		<path class="st0" d="M252.12,225c1.31,0,1.31-3.49,3.27-3.49c0.98,0,1.63,0.65,1.63,1.63c0,0.54-0.22,1.09-0.65,1.53
			c-1.74,1.74-5.12,2.94-9.7,2.94c-7.96,0-14.93-3.16-18.31-8.5c-2.72,4.25-7.08,8.5-15.69,8.5c-15.8,0-28.44-12.64-28.44-30.07
			c0-17.43,12.64-30.07,28.44-30.07c6.65,0,10.79,2.62,13.62,5.67v-13.4c0-4.9-2.51-8.39-5.88-8.39v-1.74h30.73v74.1
			C251.14,224.67,251.69,225,252.12,225z M218.78,224.67c3.92,0,7.52-6.54,7.52-14.6v-25.06c0-8.06-3.6-14.6-7.52-14.6
			c-5.45,0-8.61,11.77-8.61,27.13S213.33,224.67,218.78,224.67z"/>
		<path class="st0" d="M306.28,221.51c1.42-2.51,2.62-5.56,3.81-9.26l10.24-32.8c1.42-4.69,0.54-8.5-2.83-8.5v-1.74h13.62v1.74
			c-3.27,0-7.3,3.49-8.83,8.28l-14.49,46.64c-4.03,12.86-13.08,23.54-19.5,23.54c-3.27,0-5.34-1.96-5.23-4.58
			c0.11-3.05,1.63-5.01,6.21-8.06c5.12-3.38,9.92-5.67,14.06-10.9h-3.49c-14.38,0-20.49-6.65-23.64-15.8l-10.79-31.16
			c-1.63-4.79-4.9-7.95-8.17-7.95v-1.74h36.83v1.74c-3.27,0-4.14,3.49-2.51,8.17L306.28,221.51z"/>
	</g>
</g>
<g>
	<path class="st1" d="M204.61,218.94c0,0.8-0.12,1.68-0.36,2.64s-0.59,1.95-1.04,2.97c-0.46,1.01-1.01,2.02-1.68,3.03
		c-0.66,1.01-1.41,1.95-2.25,2.82c-1.34,1.4-2.57,2.55-3.69,3.44c-1.12,0.9-2.23,1.6-3.33,2.12c-1.1,0.52-2.23,0.88-3.38,1.08
		c-1.15,0.2-2.43,0.3-3.81,0.3c-0.7,0-1.37-0.13-2.02-0.4c-0.64-0.26-1.25-0.62-1.81-1.07c-0.56-0.45-1.07-0.97-1.52-1.58
		c-0.45-0.6-0.84-1.23-1.17-1.9c-0.33-0.66-0.58-1.34-0.76-2.04s-0.27-1.38-0.27-2.03c0-1.18,0.17-2.47,0.52-3.87
		c0.34-1.4,0.84-2.81,1.48-4.22c0.64-1.41,1.43-2.78,2.35-4.1c0.92-1.32,1.95-2.49,3.09-3.5c1.14-1.01,2.39-1.83,3.73-2.44
		s2.77-0.92,4.26-0.92c0.27,0,0.6,0,0.99,0.01c0.39,0.01,0.82,0.03,1.29,0.06c0.47,0.04,0.96,0.09,1.47,0.16
		c0.52,0.07,1.02,0.17,1.52,0.29c0.5,0.13,0.98,0.29,1.44,0.48c0.46,0.19,0.87,0.42,1.22,0.69c0.86,0.65,1.54,1.27,2.03,1.87
		c0.49,0.6,0.86,1.21,1.11,1.83c0.25,0.63,0.41,1.29,0.47,1.98C204.57,217.36,204.61,218.12,204.61,218.94z M193.29,211.74
		c-0.91,0-1.76,0.17-2.55,0.52c-0.79,0.34-1.54,0.8-2.24,1.36c-0.7,0.56-1.36,1.2-1.98,1.92c-0.62,0.71-1.21,1.44-1.78,2.17
		c-0.5,0.65-0.99,1.38-1.45,2.2c-0.46,0.82-0.87,1.68-1.22,2.58c-0.36,0.9-0.64,1.84-0.86,2.8c-0.21,0.96-0.32,1.93-0.32,2.88
		c0,0.91,0.15,1.74,0.46,2.48c0.31,0.74,0.71,1.38,1.21,1.91c0.5,0.53,1.07,0.94,1.71,1.23c0.64,0.29,1.31,0.44,2,0.44
		c1.02,0,2.01-0.14,2.98-0.41c0.96-0.28,1.89-0.66,2.77-1.14c0.88-0.48,1.72-1.05,2.51-1.69c0.79-0.64,1.51-1.34,2.18-2.09
		c0.67-0.75,1.26-1.53,1.79-2.34c0.52-0.81,0.97-1.61,1.34-2.41c0.17-0.38,0.33-0.82,0.47-1.33c0.14-0.5,0.26-1.03,0.35-1.58
		s0.17-1.11,0.22-1.68c0.06-0.57,0.09-1.1,0.1-1.6c0.01-0.5,0-0.95-0.03-1.34c-0.03-0.39-0.08-0.7-0.16-0.92
		c-0.14-0.38-0.39-0.8-0.77-1.26c-0.38-0.46-0.88-0.89-1.51-1.28c-0.63-0.39-1.37-0.72-2.24-0.99
		C195.4,211.87,194.41,211.74,193.29,211.74z"/>
	<path class="st1" d="M241.17,219.55c0,0.12-0.04,0.26-0.11,0.42c-0.45,0.9-0.98,1.82-1.58,2.78s-1.25,1.9-1.95,2.82
		s-1.43,1.79-2.2,2.61c-0.77,0.82-1.54,1.54-2.3,2.16s-1.52,1.11-2.27,1.47c-0.74,0.36-1.44,0.54-2.09,0.54
		c-1.42,0-2.54-0.54-3.34-1.62c-0.8-1.08-1.23-2.68-1.28-4.79l-0.24-0.09c-0.12,0.12-0.32,0.37-0.6,0.75s-0.61,0.82-1,1.32
		c-0.39,0.5-0.82,1.02-1.29,1.56c-0.47,0.54-0.96,1.03-1.46,1.47c-0.31,0.26-0.68,0.57-1.11,0.93c-0.44,0.36-0.93,0.71-1.47,1.05
		c-0.55,0.34-1.15,0.63-1.8,0.88c-0.65,0.25-1.34,0.4-2.06,0.43c-0.87,0-1.56-0.17-2.06-0.5c-0.5-0.33-0.88-0.76-1.14-1.27
		s-0.42-1.09-0.49-1.71s-0.1-1.23-0.1-1.82c0-0.07,0.01-0.26,0.04-0.55s0.06-0.67,0.11-1.11c0.05-0.45,0.11-0.95,0.19-1.5
		c0.08-0.55,0.18-1.11,0.29-1.69c0.12-0.57,0.25-1.14,0.41-1.69s0.33-1.07,0.54-1.54c0.11-0.26,0.21-0.5,0.3-0.72
		c0.09-0.22,0.19-0.41,0.29-0.56c0.1-0.15,0.22-0.28,0.36-0.37c0.13-0.09,0.3-0.14,0.5-0.16c0.25,0,0.45,0.05,0.62,0.15
		c0.17,0.1,0.3,0.22,0.4,0.38c0.1,0.15,0.17,0.32,0.21,0.51c0.04,0.18,0.06,0.37,0.06,0.55c0,0.18-0.08,0.55-0.25,1.09
		c-0.17,0.54-0.35,1.2-0.54,1.97c-0.2,0.77-0.38,1.64-0.54,2.59c-0.17,0.95-0.25,1.94-0.25,2.96c0,0.2,0.02,0.43,0.06,0.69
		c0.04,0.26,0.11,0.52,0.22,0.75s0.26,0.44,0.45,0.61c0.19,0.17,0.44,0.25,0.75,0.25c0.42-0.02,0.85-0.11,1.29-0.27
		c0.44-0.15,0.88-0.35,1.32-0.59s0.86-0.51,1.26-0.81c0.41-0.3,0.77-0.61,1.11-0.93c0.36-0.33,0.73-0.72,1.13-1.15
		c0.4-0.44,0.79-0.89,1.17-1.36s0.74-0.94,1.07-1.41s0.61-0.9,0.83-1.29c0.11-0.21,0.27-0.52,0.47-0.92
		c0.2-0.41,0.41-0.83,0.61-1.29c0.2-0.45,0.39-0.88,0.55-1.29c0.17-0.4,0.27-0.71,0.32-0.92c0.05-0.18,0.09-0.36,0.12-0.52
		c0.03-0.16,0.06-0.32,0.1-0.47c0.04-0.15,0.08-0.32,0.13-0.49c0.05-0.17,0.11-0.37,0.18-0.59c0.04-0.09,0.11-0.18,0.21-0.29
		c0.1-0.1,0.23-0.2,0.38-0.29s0.3-0.16,0.46-0.21c0.16-0.06,0.31-0.08,0.46-0.08c0.34,0,0.6,0.1,0.78,0.31
		c0.18,0.21,0.28,0.47,0.3,0.77c0,0.01-0.03,0.15-0.08,0.42c-0.05,0.27-0.13,0.63-0.21,1.07s-0.17,0.95-0.27,1.51
		c-0.09,0.56-0.18,1.14-0.27,1.74s-0.16,1.18-0.21,1.75c-0.05,0.57-0.08,1.08-0.08,1.54c0,1.3,0.22,2.31,0.65,3.01
		c0.44,0.71,1.01,1.06,1.72,1.06c0.61,0,1.25-0.18,1.92-0.54c0.67-0.36,1.34-0.84,2.03-1.43c0.68-0.59,1.35-1.25,2.01-1.98
		c0.66-0.73,1.29-1.46,1.89-2.19c0.6-0.73,1.16-1.43,1.68-2.09s0.96-1.22,1.34-1.68c0.38-0.41,0.68-0.61,0.9-0.61
		c0.13,0,0.25,0.05,0.33,0.15C241.13,219.3,241.17,219.41,241.17,219.55z"/>
	<path class="st1" d="M254.3,220.58c0,0.36-0.1,0.65-0.29,0.89s-0.44,0.36-0.72,0.36c-0.44,0-0.78-0.07-1.02-0.22
		s-0.45-0.31-0.64-0.48s-0.37-0.33-0.56-0.48s-0.46-0.22-0.8-0.22c-0.31,0-0.64,0.1-0.99,0.29c-0.36,0.2-0.72,0.45-1.09,0.76
		c-0.37,0.31-0.73,0.67-1.1,1.06c-0.36,0.39-0.71,0.79-1.04,1.2c-0.23,0.28-0.49,0.62-0.76,1s-0.55,0.79-0.82,1.22
		c-0.27,0.42-0.52,0.85-0.75,1.27s-0.42,0.82-0.57,1.19c-0.11,0.28-0.23,0.59-0.37,0.91c-0.14,0.33-0.27,0.66-0.4,1.01
		c-0.13,0.35-0.25,0.71-0.35,1.08s-0.19,0.73-0.25,1.09c-0.07,0.52-0.14,1-0.21,1.44c-0.07,0.44-0.15,0.83-0.24,1.16
		c-0.09,0.33-0.21,0.59-0.36,0.77c-0.15,0.18-0.34,0.28-0.57,0.28c-0.43,0-0.78-0.07-1.06-0.2c-0.28-0.13-0.49-0.32-0.65-0.54
		c-0.16-0.23-0.27-0.49-0.34-0.78s-0.11-0.6-0.14-0.92c-0.04-0.52-0.08-1.01-0.12-1.47s-0.09-0.94-0.13-1.42
		c-0.04-0.48-0.08-0.99-0.1-1.53c-0.03-0.54-0.04-1.15-0.04-1.84c0-0.65,0.02-1.37,0.07-2.16s0.11-1.54,0.18-2.27
		c0.07-0.72,0.14-1.37,0.22-1.93c0.08-0.56,0.15-0.93,0.21-1.11c0.11-0.31,0.25-0.6,0.42-0.89c0.17-0.29,0.36-0.55,0.56-0.77
		c0.2-0.23,0.41-0.41,0.64-0.54c0.22-0.14,0.42-0.2,0.61-0.2c0.16,0,0.32,0.02,0.49,0.06s0.31,0.12,0.44,0.23s0.23,0.26,0.31,0.44
		c0.08,0.18,0.12,0.41,0.12,0.68c0,0.1-0.06,0.34-0.17,0.73c-0.12,0.39-0.25,0.83-0.4,1.33c-0.15,0.5-0.29,1.03-0.43,1.58
		c-0.14,0.55-0.24,1.04-0.29,1.46c0,0.09-0.01,0.25-0.02,0.5c-0.01,0.25-0.03,0.53-0.04,0.86c-0.01,0.33-0.02,0.67-0.04,1.04
		c-0.01,0.37-0.02,0.72-0.02,1.05c0,0.23,0,0.44,0.01,0.63c0.01,0.18,0.02,0.34,0.03,0.46c0.11-0.21,0.24-0.49,0.4-0.86
		c0.15-0.36,0.33-0.76,0.53-1.2c0.2-0.44,0.42-0.88,0.64-1.33s0.47-0.87,0.73-1.26c0.27-0.42,0.57-0.87,0.91-1.36s0.7-0.98,1.1-1.47
		s0.81-0.97,1.26-1.44c0.45-0.47,0.92-0.88,1.4-1.23c0.48-0.36,0.99-0.64,1.52-0.86c0.53-0.21,1.07-0.32,1.62-0.32
		c0.59,0,1.1,0.1,1.54,0.29c0.44,0.19,0.8,0.44,1.09,0.75c0.29,0.31,0.5,0.67,0.64,1.06C254.24,219.79,254.3,220.19,254.3,220.58z"
		/>
	<path class="st1" d="M307.21,208.05c0,0.66-0.08,1.55-0.24,2.66c-0.16,1.11-0.39,2.37-0.68,3.79c-0.28,1.4-0.58,2.7-0.9,3.91
		c-0.32,1.2-0.63,2.25-0.94,3.13c-0.59,1.79-1.16,3.34-1.71,4.64c-0.27,0.66-0.57,1.38-0.91,2.15s-0.71,1.6-1.11,2.5
		s-0.77,1.71-1.09,2.43s-0.6,1.37-0.83,1.93c-0.1,0.23-0.33,0.43-0.68,0.59s-0.63,0.24-0.83,0.24c-0.59,0-1.13-0.29-1.62-0.87
		c-0.49-0.58-0.96-1.34-1.42-2.3c-0.23-0.47-0.54-1.13-0.91-1.99c-0.37-0.86-0.83-1.92-1.37-3.19c-0.54-1.26-1.04-2.41-1.49-3.44
		c-0.45-1.03-0.87-1.96-1.25-2.78c-0.39,0.58-1.11,1.85-2.16,3.81c-0.52,1-1.03,1.97-1.53,2.92c-0.5,0.95-1,1.89-1.49,2.83
		c-0.98,1.87-1.89,3.47-2.71,4.81c-0.81,1.34-1.35,2.01-1.62,2.01c-0.59,0-1.1-0.25-1.52-0.76s-0.79-1.14-1.1-1.92
		c-0.16-0.39-0.32-0.86-0.49-1.4c-0.17-0.54-0.34-1.16-0.53-1.86c-0.18-0.7-0.33-1.24-0.42-1.62s-0.16-0.6-0.18-0.66
		c-0.47-1.79-0.95-3.77-1.46-5.93c-0.5-2.16-1.02-4.54-1.55-7.13c-0.04-0.17-0.11-0.45-0.22-0.85c-0.11-0.39-0.25-0.91-0.42-1.55
		c-0.36-1.29-0.53-2.2-0.53-2.73c0-0.33,0.15-0.66,0.44-0.98c0.29-0.31,0.59-0.46,0.88-0.46c0.28,0,0.65,0.36,1.11,1.07
		c0.45,0.69,0.83,1.52,1.12,2.5c0.1,0.33,0.21,0.77,0.35,1.31c0.13,0.54,0.3,1.21,0.49,2c0.19,0.79,0.41,1.71,0.65,2.76
		c0.25,1.05,0.53,2.25,0.85,3.6c0.31,1.35,0.59,2.55,0.84,3.61c0.25,1.06,0.48,1.98,0.68,2.77c0.2,0.79,0.38,1.46,0.54,2.02
		c0.16,0.55,0.3,0.99,0.42,1.33c0.93-1.57,1.74-2.94,2.43-4.12s1.26-2.15,1.71-2.94c0.45-0.8,0.84-1.51,1.17-2.13
		s0.59-1.16,0.8-1.61c0.21-0.47,0.5-1.11,0.87-1.94c0.37-0.83,0.82-1.85,1.34-3.07c0.05-0.11,0.13-0.22,0.23-0.34
		c0.1-0.12,0.22-0.22,0.35-0.31c0.13-0.09,0.27-0.17,0.41-0.23s0.29-0.09,0.44-0.09c0.44,0,0.99,0.71,1.64,2.14
		c0.32,0.71,0.74,1.68,1.26,2.89c0.52,1.22,1.15,2.69,1.89,4.42c1.46,3.48,2.42,5.51,2.87,6.1c1.14-1.93,2.15-3.98,3.02-6.15
		s1.62-4.4,2.25-6.67c0.63-2.27,1.1-4.38,1.42-6.32c0.32-1.94,0.52-3.73,0.59-5.36c0-0.16,0.15-0.39,0.46-0.7
		c0.31-0.31,0.58-0.46,0.83-0.46c0.58,0,0.98,0.23,1.2,0.68C307.09,207.17,307.21,207.61,307.21,208.05z"/>
	<path class="st1" d="M334.71,219.75c0,0.71-0.45,1.36-1.36,1.95c-0.39,0.26-0.85,0.5-1.36,0.73c-0.52,0.23-1.05,0.43-1.59,0.62
		c-0.55,0.18-1.09,0.34-1.63,0.47c-0.54,0.13-1.03,0.22-1.47,0.27c-0.21,0.02-0.92,0.06-2.12,0.11c-1.23,0.06-1.88,0.13-1.95,0.2
		c-0.22,0.22-0.38,0.56-0.46,1.03c-0.02,0.12-0.05,0.25-0.06,0.38s-0.03,0.3-0.05,0.51c-0.01,0.21-0.02,0.47-0.03,0.78
		c-0.01,0.31-0.01,0.71-0.01,1.19c0,0.29-0.03,0.61-0.08,0.96c-0.05,0.34-0.13,0.68-0.23,1.02c-0.1,0.34-0.22,0.66-0.37,0.98
		c-0.15,0.31-0.31,0.59-0.5,0.82c-0.28,0.38-0.64,0.76-1.06,1.14c-0.42,0.38-0.89,0.75-1.39,1.11c-0.5,0.36-1.04,0.7-1.6,1.02
		s-1.13,0.6-1.7,0.83c-0.57,0.23-1.13,0.42-1.68,0.55c-0.55,0.13-1.06,0.2-1.54,0.2c-0.82,0-1.5-0.14-2.04-0.42
		c-0.54-0.28-0.97-0.66-1.28-1.14c-0.31-0.48-0.53-1.04-0.66-1.68s-0.19-1.32-0.19-2.04c0-0.74,0.09-1.45,0.26-2.15
		c0.17-0.69,0.4-1.38,0.67-2.05c0.28-0.67,0.58-1.34,0.92-2c0.34-0.66,0.67-1.32,1-1.98c0.32-0.53,0.61-1.03,0.88-1.51
		c0.26-0.48,0.53-0.93,0.79-1.34c0.26-0.42,0.54-0.79,0.84-1.12c0.29-0.33,0.64-0.62,1.05-0.86s0.88-0.42,1.42-0.55
		c0.54-0.13,1.18-0.19,1.93-0.19c0.33,0,0.62,0.04,0.88,0.13s0.48,0.21,0.69,0.37c0.21,0.16,0.41,0.35,0.6,0.57
		c0.19,0.22,0.4,0.47,0.62,0.74c0.25,0.31,0.46,0.56,0.64,0.77s0.32,0.37,0.43,0.48c0.23,0.21,0.53,0.36,0.9,0.45
		c0.37,0.09,0.89,0.14,1.57,0.14c0.9,0,1.62-0.02,2.17-0.05c0.55-0.04,1.06-0.09,1.51-0.17c0.52-0.09,0.99-0.18,1.42-0.28
		s0.86-0.2,1.28-0.31s0.86-0.23,1.3-0.36s0.92-0.28,1.44-0.45c0.26-0.07,0.55-0.11,0.87-0.11
		C334.59,219.49,334.71,219.58,334.71,219.75z M320.05,224.43c0-0.49-0.04-0.86-0.11-1.1s-0.17-0.43-0.29-0.58s-0.26-0.29-0.42-0.44
		c-0.16-0.15-0.33-0.38-0.5-0.7c-0.18-0.34-0.35-0.6-0.49-0.75c-0.14-0.16-0.38-0.24-0.73-0.24c-0.86,0-1.68,0.43-2.47,1.29
		c-0.39,0.43-0.77,0.92-1.12,1.46c-0.36,0.55-0.69,1.15-1,1.81c-0.25,0.52-0.49,1.08-0.72,1.69c-0.23,0.61-0.44,1.22-0.63,1.85
		c-0.18,0.63-0.33,1.24-0.45,1.85s-0.17,1.18-0.17,1.7c0,0.22,0.05,0.44,0.15,0.64c0.1,0.21,0.25,0.39,0.44,0.55
		c0.2,0.16,0.43,0.29,0.71,0.39c0.28,0.1,0.6,0.15,0.97,0.15c0.27,0,0.61-0.08,1.02-0.24c0.41-0.16,0.83-0.36,1.26-0.59
		s0.83-0.48,1.21-0.75c0.37-0.26,0.67-0.5,0.88-0.71c0.59-0.63,1.05-1.2,1.38-1.71c0.33-0.52,0.58-1.04,0.74-1.58
		c0.16-0.53,0.26-1.12,0.29-1.75C320.03,226.05,320.05,225.3,320.05,224.43z"/>
	<path class="st1" d="M352.23,233.14c0,0.26-0.07,0.49-0.21,0.7c-0.14,0.21-0.33,0.38-0.55,0.53c-0.23,0.14-0.48,0.25-0.75,0.32
		c-0.28,0.07-0.55,0.11-0.82,0.11c-0.65,0-1.39-0.12-2.22-0.36s-1.69-0.55-2.58-0.92c-0.89-0.37-1.78-0.78-2.67-1.22
		c-0.89-0.44-1.73-0.87-2.5-1.28c-0.78-0.41-1.47-0.78-2.06-1.1c-0.6-0.32-1.04-0.53-1.33-0.64c-0.22,0.14-0.48,0.34-0.78,0.62
		s-0.59,0.57-0.87,0.89c-0.28,0.32-0.52,0.64-0.72,0.95c-0.2,0.31-0.32,0.56-0.36,0.75c0.01,0.32-0.01,0.64-0.06,0.95
		c-0.05,0.31-0.07,0.6-0.07,0.88c0,0.49-0.04,0.9-0.12,1.22s-0.2,0.57-0.37,0.75s-0.38,0.31-0.64,0.39
		c-0.26,0.07-0.56,0.11-0.92,0.11c-0.44,0-0.72-0.11-0.84-0.32c-0.12-0.21-0.17-0.56-0.17-1.04c0-0.41,0.04-0.96,0.12-1.68
		s0.19-1.53,0.32-2.45c0.14-0.92,0.29-1.92,0.45-3.01c0.17-1.09,0.33-2.21,0.49-3.36c0.16-1.15,0.31-2.32,0.46-3.5
		c0.15-1.18,0.26-2.32,0.35-3.43c0.02-0.32,0.05-0.72,0.08-1.21c0.03-0.49,0.06-1,0.08-1.56s0.06-1.12,0.09-1.7
		c0.04-0.58,0.07-1.14,0.11-1.66c0.04-0.52,0.08-0.99,0.12-1.42s0.09-0.75,0.14-0.99c0.01-0.21,0.09-0.41,0.22-0.61
		c0.13-0.2,0.3-0.37,0.5-0.52s0.41-0.28,0.64-0.37c0.23-0.09,0.45-0.14,0.67-0.14c0.21,0,0.41,0.05,0.62,0.15
		c0.2,0.1,0.38,0.21,0.54,0.35c0.16,0.14,0.29,0.28,0.39,0.44s0.15,0.29,0.15,0.41c0,0.53-0.06,1.21-0.17,2.04
		c-0.12,0.83-0.27,1.78-0.45,2.83c-0.18,1.05-0.39,2.18-0.63,3.39s-0.46,2.45-0.68,3.73c-0.22,1.28-0.43,2.56-0.62,3.85
		c-0.19,1.29-0.34,2.54-0.45,3.74c1.12-0.96,2.14-1.93,3.06-2.92c0.92-0.99,1.76-1.95,2.53-2.87c0.77-0.93,1.47-1.8,2.12-2.62
		c0.65-0.82,1.25-1.53,1.81-2.14c0.57-0.61,1.11-1.09,1.62-1.44c0.52-0.35,1.03-0.53,1.55-0.53c0.2,0,0.37,0.04,0.51,0.13
		c0.14,0.09,0.26,0.19,0.35,0.31s0.16,0.25,0.2,0.39c0.04,0.14,0.06,0.26,0.06,0.37c0,0.15-0.12,0.39-0.36,0.73
		c-0.24,0.34-0.56,0.73-0.97,1.19s-0.87,0.95-1.38,1.49s-1.05,1.09-1.59,1.64c-0.55,0.55-1.09,1.09-1.62,1.61
		c-0.53,0.52-1.03,1-1.47,1.42s-0.83,0.78-1.13,1.06c-0.31,0.28-0.5,0.46-0.59,0.53c0.41,0.26,0.95,0.57,1.64,0.92
		c0.69,0.36,1.44,0.73,2.26,1.11c0.82,0.39,1.66,0.77,2.53,1.16c0.87,0.39,1.7,0.74,2.48,1.05c0.78,0.31,1.48,0.57,2.09,0.77
		c0.61,0.2,1.07,0.32,1.38,0.36c0.42,0.05,0.69,0.12,0.82,0.22C352.17,232.8,352.23,232.95,352.23,233.14z"/>
	<path class="st1" d="M371,220.58c0,0.36-0.1,0.65-0.29,0.89s-0.44,0.36-0.72,0.36c-0.44,0-0.78-0.07-1.02-0.22
		s-0.45-0.31-0.64-0.48s-0.37-0.33-0.56-0.48s-0.46-0.22-0.8-0.22c-0.31,0-0.64,0.1-0.99,0.29c-0.36,0.2-0.72,0.45-1.09,0.76
		c-0.37,0.31-0.73,0.67-1.1,1.06c-0.36,0.39-0.71,0.79-1.04,1.2c-0.23,0.28-0.49,0.62-0.76,1s-0.55,0.79-0.82,1.22
		c-0.27,0.42-0.52,0.85-0.75,1.27s-0.42,0.82-0.57,1.19c-0.11,0.28-0.23,0.59-0.37,0.91c-0.14,0.33-0.27,0.66-0.4,1.01
		c-0.13,0.35-0.25,0.71-0.35,1.08s-0.19,0.73-0.25,1.09c-0.07,0.52-0.14,1-0.21,1.44c-0.07,0.44-0.15,0.83-0.24,1.16
		c-0.09,0.33-0.21,0.59-0.36,0.77c-0.15,0.18-0.34,0.28-0.57,0.28c-0.43,0-0.78-0.07-1.06-0.2c-0.28-0.13-0.49-0.32-0.65-0.54
		c-0.16-0.23-0.27-0.49-0.34-0.78s-0.11-0.6-0.14-0.92c-0.04-0.52-0.08-1.01-0.12-1.47s-0.09-0.94-0.13-1.42
		c-0.04-0.48-0.08-0.99-0.1-1.53c-0.03-0.54-0.04-1.15-0.04-1.84c0-0.65,0.02-1.37,0.07-2.16s0.11-1.54,0.18-2.27
		c0.07-0.72,0.14-1.37,0.22-1.93c0.08-0.56,0.15-0.93,0.21-1.11c0.11-0.31,0.25-0.6,0.42-0.89c0.17-0.29,0.36-0.55,0.56-0.77
		c0.2-0.23,0.41-0.41,0.64-0.54c0.22-0.14,0.42-0.2,0.61-0.2c0.16,0,0.32,0.02,0.49,0.06s0.31,0.12,0.44,0.23s0.23,0.26,0.31,0.44
		c0.08,0.18,0.12,0.41,0.12,0.68c0,0.1-0.06,0.34-0.17,0.73c-0.12,0.39-0.25,0.83-0.4,1.33c-0.15,0.5-0.29,1.03-0.43,1.58
		c-0.14,0.55-0.24,1.04-0.29,1.46c0,0.09-0.01,0.25-0.02,0.5c-0.01,0.25-0.03,0.53-0.04,0.86c-0.01,0.33-0.02,0.67-0.04,1.04
		c-0.01,0.37-0.02,0.72-0.02,1.05c0,0.23,0,0.44,0.01,0.63c0.01,0.18,0.02,0.34,0.03,0.46c0.11-0.21,0.24-0.49,0.4-0.86
		c0.15-0.36,0.33-0.76,0.53-1.2c0.2-0.44,0.42-0.88,0.64-1.33s0.47-0.87,0.73-1.26c0.27-0.42,0.57-0.87,0.91-1.36s0.7-0.98,1.1-1.47
		s0.81-0.97,1.26-1.44c0.45-0.47,0.92-0.88,1.4-1.23c0.48-0.36,0.99-0.64,1.52-0.86c0.53-0.21,1.07-0.32,1.62-0.32
		c0.59,0,1.1,0.1,1.54,0.29c0.44,0.19,0.8,0.44,1.09,0.75c0.29,0.31,0.5,0.67,0.64,1.06C370.93,219.79,371,220.19,371,220.58z"/>
</g>
</svg>
