<?xml version="1.0" encoding="utf-8"?>
<!-- Generator: Adobe Illustrator 24.2.3, SVG Export Plug-In . SVG Version: 6.00 Build 0)  -->
<svg version="1.1" id="Capa_1" xmlns="http://www.w3.org/2000/svg" xmlns:xlink="http://www.w3.org/1999/xlink" x="0px" y="0px"
	 viewBox="0 0 137 40" style="enable-background:new 0 0 137 40;" xml:space="preserve">
<style type="text/css">
	.st0{fill:#8C7857;}
	.st1{fill:#FFFFFF;}
</style>
<g>
	<g>
		<path class="st0" d="M0.66,8.05c0-1.44-0.8-2.46-1.79-2.46V5.01h11.37v0.57c-0.99,0-1.79,1.02-1.79,2.46v18.75h5.01
			c2.55,0,3.9-1.44,5.01-3.38h0.57l-0.64,3.96H-1.13v-0.58c0.99,0,1.79-1.02,1.79-2.46V8.05z"/>
		<path class="st0" d="M19.5,19.07c0-5.11,4.18-8.81,9.65-8.81c5.46,0,9.64,3.7,9.64,8.81c0,5.11-4.18,8.81-9.64,8.81
			C23.68,27.88,19.5,24.18,19.5,19.07z M29.14,27.37c1.72,0,2.04-3.74,2.04-8.3c0-4.57-0.32-8.3-2.04-8.3
			c-1.72,0-2.04,3.74-2.04,8.3C27.1,23.63,27.42,27.37,29.14,27.37z"/>
		<path class="st0" d="M39.9,19.07c0-5.11,3.7-8.81,8.34-8.81c1.95,0,3.16,0.77,3.99,1.66v-1.15h9.01v0.51
			c-0.99,0-1.72,1.02-1.72,2.46v15.58c0,3.29-2.87,4.95-8.59,4.95c-3.61,0-6.96-1.34-6.96-3c0-0.7,0.57-1.28,1.28-1.28
			c2.52,0,1.88,3.77,4.85,3.77c1.31,0,2.14-0.96,2.14-2.46v-5.08c-0.83,0.89-2.04,1.66-3.99,1.66C43.61,27.88,39.9,24.18,39.9,19.07
			z M50.03,27.02c1.15,0,2.2-1.92,2.2-4.28v-7.35c0-2.36-1.05-4.28-2.2-4.28c-1.6,0-2.52,3.45-2.52,7.95S48.43,27.02,50.03,27.02z"
			/>
		<path class="st0" d="M63.72,13.73c0-1.44-0.73-2.46-1.72-2.46v-0.51h3.03c3.26,0,5.97,1.82,5.97,4.63v9.01
			c0,1.44,0.73,2.46,1.72,2.46v0.51H62v-0.51c0.99,0,1.72-1.02,1.72-2.46V13.73z M66.41,4.5c2.11,0,3.8,1.21,3.8,2.71
			s-1.69,2.71-3.8,2.71c-2.11,0-3.8-1.21-3.8-2.71S64.3,4.5,66.41,4.5z"/>
		<path class="st0" d="M87.04,10.25c4.22,0,6.93,1.82,6.93,4.63v11.85c0,0.29,0.16,0.38,0.29,0.38c0.38,0,0.38-1.02,0.96-1.02
			c0.29,0,0.48,0.19,0.48,0.48c0,0.16-0.06,0.32-0.19,0.45c-0.51,0.51-1.5,0.86-2.84,0.86c-3.26,0-5.97-1.82-5.97-4.63v-9.48
			c0-1.5-0.83-2.46-2.14-2.46c-1.31,0-2.14,0.96-2.14,2.46V24.4c0,1.44,0.74,2.46,1.72,2.46v0.51H73.4v-0.51
			c0.99,0,1.72-1.02,1.72-2.46V13.73c0-1.44-0.73-2.46-1.72-2.46v-0.51h3.03c2.01,0,3.83,0.7,4.92,1.88
			C82.31,11.4,84.29,10.25,87.04,10.25z"/>
	</g>
</g>
<g>
	<path class="st1" d="M73.42,28.24c0,0.19-0.07,0.37-0.21,0.53c-0.05,0.05-0.12,0.13-0.23,0.21s-0.19,0.17-0.28,0.25l-0.74,0.74
		c-0.14,0.14-0.27,0.27-0.39,0.38s-0.23,0.21-0.32,0.29c-0.16,0.13-0.34,0.28-0.56,0.46c-0.22,0.18-0.47,0.39-0.76,0.63
		c-0.56,0.46-1.08,0.84-1.55,1.14c-0.47,0.29-0.98,0.52-1.52,0.7s-1.11,0.26-1.72,0.26c-0.37,0.01-0.71-0.05-1-0.19
		c-0.29-0.14-0.54-0.33-0.74-0.57c-0.2-0.24-0.36-0.52-0.46-0.84c-0.11-0.32-0.16-0.67-0.15-1.03c0-0.72,0.15-1.43,0.46-2.15
		s0.71-1.42,1.22-2.12c0.28-0.37,0.61-0.72,1-1.05c0.38-0.33,0.73-0.5,1.04-0.5c0.17,0,0.36,0.14,0.57,0.42
		c0.11,0.14,0.21,0.29,0.31,0.45c0.1,0.16,0.19,0.33,0.27,0.5c0.16,0.35,0.24,0.6,0.24,0.76s-0.05,0.36-0.15,0.61
		c-0.1,0.25-0.21,0.37-0.35,0.37c-0.19,0-0.36-0.13-0.49-0.4c-0.06-0.13-0.11-0.25-0.14-0.34c-0.03-0.09-0.06-0.2-0.1-0.3
		c-0.12-0.32-0.23-0.55-0.32-0.7c-0.36,0.07-0.65,0.24-0.89,0.53c-0.11,0.14-0.23,0.31-0.35,0.51s-0.25,0.42-0.38,0.67
		c-0.11,0.19-0.21,0.41-0.3,0.66c-0.09,0.24-0.17,0.49-0.23,0.75c-0.06,0.26-0.12,0.51-0.15,0.77c-0.04,0.26-0.06,0.5-0.06,0.72
		c0,0.31,0.13,0.62,0.4,0.91c0.27,0.29,0.57,0.43,0.89,0.43c0.69,0,1.34-0.12,1.96-0.36c0.62-0.24,1.22-0.57,1.79-0.97
		c0.57-0.39,1.14-0.85,1.72-1.38c0.29-0.26,0.57-0.51,0.83-0.75c0.26-0.23,0.51-0.46,0.75-0.67c0.39-0.34,0.72-0.52,0.98-0.52
		C73.38,28.02,73.42,28.09,73.42,28.24z"/>
	<path class="st1" d="M83.12,26.67c0,0.09-0.03,0.19-0.1,0.3c-0.07,0.11-0.15,0.22-0.25,0.33s-0.22,0.22-0.35,0.32
		c-0.13,0.11-0.26,0.2-0.39,0.29c-0.13,0.09-0.25,0.17-0.37,0.24c-0.12,0.07-0.21,0.12-0.29,0.15c-0.14,0.06-0.33,0.11-0.55,0.16
		c-0.23,0.05-0.47,0.08-0.72,0.12s-0.49,0.06-0.73,0.08s-0.44,0.03-0.6,0.03c-0.06,0-0.15-0.01-0.27-0.03s-0.23-0.05-0.35-0.08
		c-0.12-0.03-0.23-0.07-0.34-0.11c-0.1-0.04-0.18-0.08-0.23-0.13c0.05,0.21,0.09,0.41,0.13,0.62c0.04,0.21,0.06,0.42,0.06,0.64
		c0,0.1-0.01,0.22-0.04,0.36c-0.02,0.14-0.06,0.28-0.1,0.42c-0.04,0.14-0.08,0.28-0.13,0.41c-0.05,0.13-0.1,0.24-0.15,0.33
		c-0.14,0.24-0.28,0.45-0.43,0.65c-0.15,0.19-0.32,0.37-0.5,0.54s-0.39,0.32-0.63,0.46c-0.23,0.15-0.5,0.29-0.8,0.42
		c-0.32,0.14-0.65,0.24-0.97,0.3s-0.66,0.08-1.01,0.08c-0.22,0-0.42-0.07-0.59-0.19c-0.17-0.13-0.32-0.3-0.44-0.52
		c-0.12-0.22-0.21-0.47-0.27-0.76c-0.06-0.29-0.09-0.58-0.09-0.9c0-0.08,0.01-0.18,0.02-0.3c0.01-0.12,0.03-0.24,0.06-0.36
		c0.02-0.12,0.05-0.24,0.08-0.36c0.03-0.11,0.05-0.21,0.08-0.29c0.08-0.23,0.18-0.48,0.32-0.78c0.14-0.29,0.3-0.59,0.49-0.89
		s0.4-0.6,0.63-0.9s0.47-0.56,0.73-0.79c0.25-0.23,0.52-0.42,0.79-0.56c0.28-0.14,0.55-0.21,0.83-0.21c0.09,0,0.17,0.01,0.22,0.04
		c0.06,0.03,0.1,0.06,0.15,0.11c0.04,0.04,0.08,0.09,0.11,0.14c0.03,0.05,0.07,0.1,0.11,0.15c0.02,0.03,0.04,0.04,0.07,0.04
		c0.04,0,0.1-0.01,0.16-0.03c0.07-0.02,0.14-0.03,0.22-0.03c0.1,0,0.23,0.07,0.38,0.2c0.15,0.13,0.31,0.28,0.47,0.44
		c0.16,0.16,0.33,0.3,0.49,0.44c0.16,0.13,0.31,0.2,0.44,0.2c0.15,0,0.3,0,0.47-0.01c0.17-0.01,0.34-0.02,0.51-0.03
		c0.17-0.01,0.34-0.03,0.51-0.05s0.32-0.05,0.46-0.07c0.04-0.01,0.13-0.04,0.27-0.07c0.14-0.04,0.3-0.08,0.49-0.13
		c0.19-0.05,0.38-0.11,0.59-0.17c0.21-0.06,0.4-0.11,0.58-0.17c0.18-0.05,0.32-0.09,0.44-0.13s0.18-0.05,0.19-0.05
		c0.03,0,0.06,0.01,0.09,0.02C83.1,26.6,83.12,26.63,83.12,26.67z M76.81,27.96c-0.03-0.11-0.1-0.21-0.19-0.32
		c-0.09-0.1-0.2-0.19-0.32-0.27s-0.25-0.15-0.38-0.2c-0.13-0.05-0.26-0.08-0.38-0.08c-0.1,0-0.19,0.02-0.28,0.05
		s-0.18,0.07-0.27,0.13c-0.09,0.05-0.17,0.11-0.25,0.17c-0.08,0.06-0.16,0.12-0.23,0.17c-0.21,0.18-0.41,0.43-0.6,0.75
		c-0.19,0.32-0.36,0.67-0.5,1.04s-0.26,0.74-0.34,1.1s-0.13,0.68-0.13,0.95c0,0.12,0.02,0.23,0.06,0.34
		c0.04,0.11,0.1,0.21,0.17,0.29c0.08,0.08,0.16,0.15,0.27,0.2c0.1,0.05,0.22,0.08,0.34,0.08c0.32,0,0.62-0.06,0.9-0.17
		c0.27-0.12,0.52-0.28,0.75-0.48S75.83,31.28,76,31s0.32-0.58,0.44-0.91s0.21-0.67,0.27-1.03C76.77,28.69,76.81,28.33,76.81,27.96z"
		/>
	<path class="st1" d="M99.17,30.46c0,0.05-0.03,0.11-0.08,0.2c-0.05,0.08-0.11,0.17-0.19,0.26c-0.07,0.09-0.15,0.17-0.24,0.25
		s-0.17,0.14-0.24,0.19c-0.56,0.33-1.07,0.59-1.55,0.77c-0.48,0.18-0.97,0.27-1.48,0.27c-0.27,0-0.52-0.05-0.73-0.16
		c-0.21-0.11-0.4-0.27-0.56-0.48c-0.16-0.21-0.3-0.47-0.42-0.78c-0.12-0.31-0.23-0.66-0.32-1.06c-0.05-0.22-0.09-0.44-0.14-0.66
		s-0.09-0.43-0.14-0.62c-0.05-0.19-0.1-0.34-0.17-0.46C92.85,28.07,92.77,28,92.67,28c-0.23,0-0.48,0.2-0.76,0.59
		s-0.64,0.98-1.08,1.75c-0.44,0.78-0.81,1.37-1.11,1.77s-0.58,0.61-0.82,0.61c-0.37,0-0.62-0.17-0.75-0.53
		c-0.12-0.36-0.19-0.95-0.22-1.79c0-0.33-0.02-0.62-0.06-0.87s-0.07-0.46-0.12-0.64c-0.05-0.18-0.11-0.33-0.17-0.44
		c-0.07-0.12-0.14-0.21-0.21-0.27c-0.28,0.17-0.54,0.39-0.79,0.66c-0.25,0.27-0.49,0.56-0.71,0.87c-0.22,0.31-0.43,0.62-0.62,0.93
		s-0.36,0.6-0.51,0.86c-0.08,0.13-0.16,0.28-0.26,0.45s-0.2,0.33-0.29,0.5s-0.2,0.33-0.29,0.48c-0.09,0.15-0.18,0.27-0.25,0.37
		c-0.16,0.23-0.34,0.34-0.57,0.34c-0.41,0-0.68-0.21-0.81-0.63c-0.03-0.11-0.06-0.21-0.08-0.29c-0.02-0.09-0.04-0.17-0.05-0.26
		c-0.01-0.09-0.02-0.18-0.03-0.28s-0.01-0.21-0.01-0.34c0-0.22,0.01-0.44,0.03-0.69c0.02-0.24,0.05-0.49,0.08-0.74
		s0.08-0.5,0.12-0.75s0.09-0.49,0.13-0.73c0.09-0.46,0.16-0.88,0.22-1.26c0.05-0.38,0.08-0.74,0.08-1.08c0-0.13,0.04-0.24,0.11-0.33
		c0.08-0.09,0.18-0.13,0.32-0.13c0.54,0,0.81,0.37,0.81,1.11c0,0.19-0.02,0.4-0.04,0.63s-0.07,0.46-0.11,0.71s-0.1,0.49-0.15,0.74
		c-0.05,0.25-0.11,0.5-0.15,0.74c-0.03,0.15-0.05,0.3-0.08,0.46c-0.03,0.16-0.05,0.32-0.08,0.47s-0.04,0.28-0.06,0.4
		c-0.02,0.12-0.02,0.2-0.02,0.25c0.07-0.07,0.16-0.17,0.26-0.31c0.11-0.13,0.22-0.29,0.34-0.48c0.12-0.18,0.26-0.39,0.4-0.61
		c0.14-0.22,0.29-0.45,0.43-0.69c0.3-0.47,0.58-0.89,0.84-1.26c0.26-0.36,0.51-0.67,0.73-0.93c0.45-0.51,0.94-0.77,1.46-0.77
		c0.13,0,0.24,0.04,0.34,0.11c0.1,0.08,0.18,0.18,0.25,0.3c0.07,0.12,0.13,0.26,0.18,0.42c0.05,0.16,0.09,0.32,0.12,0.48
		c0.05,0.27,0.11,0.58,0.16,0.91c0.05,0.33,0.1,0.65,0.15,0.94c0.05,0.29,0.1,0.54,0.16,0.73c0.06,0.2,0.12,0.29,0.2,0.29
		c0.06,0,0.13-0.04,0.21-0.13c0.08-0.09,0.17-0.2,0.26-0.34c0.09-0.14,0.18-0.29,0.28-0.46c0.09-0.17,0.18-0.34,0.27-0.51
		c0.09-0.16,0.17-0.32,0.24-0.46c0.07-0.14,0.13-0.25,0.17-0.33c0.12-0.21,0.26-0.44,0.41-0.69c0.16-0.25,0.32-0.48,0.5-0.7
		s0.38-0.4,0.59-0.55c0.21-0.15,0.43-0.22,0.66-0.22c0.24,0,0.43,0.05,0.57,0.17s0.25,0.28,0.34,0.49c0.09,0.22,0.17,0.49,0.23,0.82
		c0.07,0.33,0.15,0.71,0.25,1.15c0.17,0.71,0.35,1.24,0.54,1.59c0.19,0.35,0.45,0.53,0.77,0.53c0.2,0,0.4-0.01,0.61-0.04
		c0.21-0.03,0.42-0.07,0.65-0.13c0.23-0.06,0.46-0.15,0.72-0.25s0.52-0.24,0.8-0.4c0.02-0.01,0.05-0.03,0.1-0.05
		s0.09-0.05,0.15-0.07c0.05-0.02,0.1-0.04,0.14-0.06c0.04-0.02,0.07-0.02,0.09-0.02c0.02,0,0.05,0.01,0.08,0.03s0.06,0.05,0.08,0.08
		s0.05,0.07,0.07,0.11C99.16,30.39,99.17,30.43,99.17,30.46z"/>
	<path class="st1" d="M106.6,29.78c0,0.19-0.07,0.39-0.21,0.61c-0.14,0.22-0.34,0.47-0.6,0.74c-0.3,0.31-0.62,0.6-0.98,0.87
		s-0.72,0.5-1.1,0.7c-0.38,0.2-0.76,0.35-1.15,0.46c-0.39,0.11-0.76,0.17-1.12,0.17c-0.85,0-1.5-0.27-1.96-0.82
		c-0.46-0.54-0.7-1.34-0.7-2.39c0-0.33,0.03-0.67,0.09-1.02c0.06-0.35,0.15-0.69,0.26-1.03c0.12-0.34,0.26-0.67,0.44-0.99
		c0.17-0.32,0.38-0.61,0.61-0.89c0.15-0.17,0.31-0.34,0.49-0.51c0.18-0.17,0.37-0.33,0.59-0.46c0.22-0.14,0.45-0.25,0.71-0.34
		c0.26-0.09,0.54-0.13,0.84-0.13c0.22,0,0.41,0.04,0.58,0.13c0.17,0.08,0.32,0.19,0.44,0.32c0.12,0.13,0.21,0.27,0.27,0.44
		c0.06,0.16,0.09,0.32,0.09,0.48c0,0.33-0.09,0.66-0.27,1s-0.43,0.68-0.75,1.02c-0.32,0.34-0.71,0.68-1.16,1.03
		c-0.45,0.34-0.96,0.68-1.51,1.02c-0.08,0.04-0.15,0.09-0.23,0.14c-0.08,0.05-0.11,0.11-0.11,0.19c0,0.16,0.02,0.33,0.06,0.51
		s0.12,0.34,0.23,0.49s0.27,0.27,0.46,0.37c0.19,0.1,0.43,0.15,0.73,0.15c0.38,0,0.76-0.06,1.15-0.18c0.39-0.12,0.77-0.29,1.15-0.51
		c0.37-0.22,0.74-0.47,1.09-0.77c0.35-0.3,0.68-0.62,0.99-0.96c0.17-0.19,0.31-0.28,0.41-0.28c0.06,0,0.1,0.04,0.13,0.11
		C106.58,29.51,106.6,29.62,106.6,29.78z M102.85,26.33c0-0.06-0.02-0.11-0.05-0.16c-0.03-0.05-0.07-0.09-0.12-0.12
		s-0.09-0.06-0.15-0.08c-0.05-0.02-0.1-0.03-0.13-0.03c-0.24,0-0.48,0.08-0.73,0.25c-0.25,0.17-0.48,0.41-0.7,0.71
		c-0.21,0.3-0.4,0.66-0.57,1.08s-0.27,0.87-0.33,1.35c0.08-0.05,0.18-0.12,0.3-0.21s0.26-0.19,0.4-0.3
		c0.14-0.11,0.29-0.22,0.43-0.34c0.14-0.11,0.27-0.22,0.38-0.32c0.25-0.21,0.45-0.4,0.61-0.56c0.16-0.17,0.29-0.32,0.38-0.45
		c0.09-0.14,0.16-0.27,0.2-0.4S102.85,26.48,102.85,26.33z"/>
	<path class="st1" d="M125.06,26.67c0,0.09-0.03,0.19-0.1,0.3c-0.07,0.11-0.15,0.22-0.25,0.33s-0.22,0.22-0.35,0.32
		c-0.13,0.11-0.26,0.2-0.39,0.29c-0.13,0.09-0.25,0.17-0.37,0.24c-0.12,0.07-0.21,0.12-0.29,0.15c-0.14,0.06-0.33,0.11-0.55,0.16
		c-0.23,0.05-0.47,0.08-0.72,0.12s-0.49,0.06-0.73,0.08s-0.44,0.03-0.6,0.03c-0.06,0-0.15-0.01-0.27-0.03s-0.23-0.05-0.35-0.08
		c-0.12-0.03-0.23-0.07-0.34-0.11c-0.1-0.04-0.18-0.08-0.23-0.13c0.05,0.21,0.09,0.41,0.13,0.62c0.04,0.21,0.06,0.42,0.06,0.64
		c0,0.1-0.01,0.22-0.04,0.36c-0.02,0.14-0.06,0.28-0.1,0.42c-0.04,0.14-0.08,0.28-0.13,0.41c-0.05,0.13-0.1,0.24-0.15,0.33
		c-0.14,0.24-0.28,0.45-0.43,0.65c-0.15,0.19-0.32,0.37-0.5,0.54s-0.39,0.32-0.63,0.46c-0.23,0.15-0.5,0.29-0.8,0.42
		c-0.32,0.14-0.65,0.24-0.97,0.3s-0.66,0.08-1.01,0.08c-0.22,0-0.42-0.07-0.59-0.19c-0.17-0.13-0.32-0.3-0.44-0.52
		c-0.12-0.22-0.21-0.47-0.27-0.76c-0.06-0.29-0.09-0.58-0.09-0.9c0-0.08,0.01-0.18,0.02-0.3c0.01-0.12,0.03-0.24,0.06-0.36
		c0.02-0.12,0.05-0.24,0.08-0.36c0.03-0.11,0.05-0.21,0.08-0.29c0.08-0.23,0.18-0.48,0.32-0.78c0.14-0.29,0.3-0.59,0.49-0.89
		s0.4-0.6,0.63-0.9s0.47-0.56,0.73-0.79c0.25-0.23,0.52-0.42,0.79-0.56c0.28-0.14,0.55-0.21,0.83-0.21c0.09,0,0.17,0.01,0.22,0.04
		c0.06,0.03,0.1,0.06,0.15,0.11c0.04,0.04,0.08,0.09,0.11,0.14c0.03,0.05,0.07,0.1,0.11,0.15c0.02,0.03,0.04,0.04,0.07,0.04
		c0.04,0,0.1-0.01,0.16-0.03c0.07-0.02,0.14-0.03,0.22-0.03c0.1,0,0.23,0.07,0.38,0.2c0.15,0.13,0.31,0.28,0.47,0.44
		c0.16,0.16,0.33,0.3,0.49,0.44c0.16,0.13,0.31,0.2,0.44,0.2c0.15,0,0.3,0,0.47-0.01c0.17-0.01,0.34-0.02,0.51-0.03
		c0.17-0.01,0.34-0.03,0.51-0.05s0.32-0.05,0.46-0.07c0.04-0.01,0.13-0.04,0.27-0.07c0.14-0.04,0.3-0.08,0.49-0.13
		c0.19-0.05,0.38-0.11,0.59-0.17c0.21-0.06,0.4-0.11,0.58-0.17c0.18-0.05,0.32-0.09,0.44-0.13s0.18-0.05,0.19-0.05
		c0.03,0,0.06,0.01,0.09,0.02C125.04,26.6,125.06,26.63,125.06,26.67z M118.75,27.96c-0.03-0.11-0.1-0.21-0.19-0.32
		c-0.09-0.1-0.2-0.19-0.32-0.27s-0.25-0.15-0.38-0.2c-0.13-0.05-0.26-0.08-0.38-0.08c-0.1,0-0.19,0.02-0.28,0.05
		s-0.18,0.07-0.27,0.13c-0.09,0.05-0.17,0.11-0.25,0.17c-0.08,0.06-0.16,0.12-0.23,0.17c-0.21,0.18-0.41,0.43-0.6,0.75
		c-0.19,0.32-0.36,0.67-0.5,1.04s-0.26,0.74-0.34,1.1s-0.13,0.68-0.13,0.95c0,0.12,0.02,0.23,0.06,0.34
		c0.04,0.11,0.1,0.21,0.17,0.29c0.08,0.08,0.16,0.15,0.27,0.2c0.1,0.05,0.22,0.08,0.34,0.08c0.32,0,0.62-0.06,0.9-0.17
		c0.27-0.12,0.52-0.28,0.75-0.48s0.42-0.44,0.59-0.72s0.32-0.58,0.44-0.91s0.21-0.67,0.27-1.03
		C118.71,28.69,118.75,28.33,118.75,27.96z"/>
	<path class="st1" d="M134.72,31.4c0,0.19-0.06,0.4-0.19,0.62c-0.13,0.23-0.32,0.44-0.57,0.63c-0.25,0.2-0.56,0.36-0.93,0.49
		c-0.37,0.13-0.8,0.2-1.28,0.2c-0.49,0-0.91-0.08-1.29-0.25c-0.37-0.17-0.69-0.44-0.94-0.8s-0.45-0.82-0.58-1.37
		c-0.13-0.56-0.2-1.22-0.2-1.99c-0.09,0.05-0.21,0.16-0.38,0.33c-0.17,0.17-0.35,0.36-0.56,0.58c-0.21,0.22-0.42,0.46-0.65,0.72
		s-0.44,0.51-0.64,0.75c-0.2,0.24-0.38,0.46-0.54,0.67s-0.28,0.36-0.35,0.48c-0.13,0.2-0.24,0.38-0.32,0.51
		c-0.08,0.14-0.16,0.25-0.23,0.33c-0.07,0.08-0.14,0.14-0.22,0.18s-0.18,0.05-0.3,0.05c-0.11,0-0.22-0.02-0.32-0.05
		s-0.18-0.08-0.25-0.14c-0.07-0.06-0.12-0.12-0.16-0.19c-0.04-0.07-0.06-0.14-0.06-0.21c0-0.1,0-0.21,0.02-0.33s0.03-0.26,0.04-0.39
		c0.02-0.13,0.04-0.26,0.06-0.39c0.02-0.13,0.04-0.25,0.06-0.35c0.05-0.29,0.11-0.62,0.18-1s0.12-0.85,0.15-1.4
		c0.03-0.35,0.05-0.68,0.08-1c0.02-0.31,0.04-0.64,0.04-0.98c0-0.16,0.02-0.32,0.06-0.47c0.04-0.15,0.1-0.28,0.17-0.4
		c0.08-0.12,0.18-0.21,0.29-0.28c0.12-0.07,0.25-0.11,0.42-0.11c0.12,0,0.22,0.02,0.29,0.05s0.13,0.08,0.18,0.13
		c0.04,0.05,0.07,0.12,0.08,0.18s0.02,0.14,0.02,0.21c0,0.08-0.01,0.16-0.02,0.24s-0.02,0.15-0.02,0.21c0,0.02-0.01,0.08-0.02,0.18
		c-0.02,0.1-0.04,0.24-0.07,0.4c-0.03,0.16-0.06,0.34-0.1,0.54c-0.04,0.2-0.08,0.4-0.13,0.6c-0.09,0.42-0.16,0.75-0.2,1
		c-0.04,0.25-0.07,0.47-0.09,0.65c-0.02,0.18-0.03,0.35-0.04,0.5s-0.03,0.34-0.05,0.57c0.12-0.16,0.29-0.36,0.5-0.6
		c0.21-0.24,0.44-0.49,0.67-0.74c0.23-0.26,0.45-0.5,0.67-0.74c0.21-0.24,0.38-0.44,0.5-0.6c0.16-0.22,0.33-0.41,0.49-0.59
		s0.34-0.33,0.52-0.46c0.18-0.13,0.37-0.23,0.57-0.3c0.2-0.07,0.41-0.11,0.64-0.11c0.16,0,0.26,0.04,0.3,0.11s0.06,0.17,0.06,0.27
		c0,0.04,0,0.09,0,0.13s0,0.09,0,0.13s-0.01,0.12-0.02,0.23c-0.02,0.11-0.03,0.23-0.05,0.36c-0.02,0.13-0.03,0.25-0.04,0.36
		s-0.02,0.19-0.02,0.23c0,0.47,0.04,0.9,0.11,1.29s0.18,0.73,0.34,1.01s0.36,0.5,0.62,0.66s0.58,0.23,0.95,0.23
		c0.24,0,0.46-0.01,0.64-0.04c0.19-0.03,0.36-0.08,0.53-0.15s0.34-0.16,0.52-0.27c0.17-0.11,0.37-0.24,0.59-0.4
		c0.05-0.04,0.11-0.08,0.16-0.12c0.04-0.03,0.09-0.05,0.13-0.08c0.04-0.03,0.08-0.04,0.11-0.04L134.72,31.4z"/>
</g>
</svg>
