<?xml version="1.0" encoding="utf-8"?>
<!-- Generator: Adobe Illustrator 24.2.3, SVG Export Plug-In . SVG Version: 6.00 Build 0)  -->
<svg version="1.1" id="Capa_1" xmlns="http://www.w3.org/2000/svg" xmlns:xlink="http://www.w3.org/1999/xlink" x="0px" y="0px"
	 viewBox="0 0 71.57 71.57" style="enable-background:new 0 0 71.57 71.57;" xml:space="preserve">
<style type="text/css">
	.st0{fill:#FFFFFF;}
</style>
<g>
	<g>
		<path class="st0" d="M34.87,33.46c1.48-1.84,1.81-3.78,1.38-5.9c-0.34-1.68-0.43-3.34,0.61-4.85c0.14-0.2,0.27-0.4,0.45-0.56
			c0.7-0.66,1.49-0.5,1.9,0.37c0.7,1.51,1.17,3.09,1.44,4.74c0.29,1.75,0.5,3.5,0.3,5.27c-0.03,0.23,0,0.47,0.06,0.73
			c0.76-0.94,1.77-1.63,1.79-3.12c0.02-1.55,0.04-3.03-0.47-4.54c-0.54-1.59-0.34-3.15,1.04-4.37c0.75-0.66,1.55-0.58,1.97,0.32
			c0.69,1.46,1.34,2.94,1.97,4.42c0.14,0.33,0.17,0.72,0.18,1.08c0.04,1.44,0.04,2.88,0.07,4.32c0,0.25,0.07,0.49,0.11,0.74
			c0.06,0.01,0.12,0.02,0.18,0.03c0.09-0.19,0.22-0.38,0.27-0.58c0.23-1,0.51-1.99,0.64-3c0.12-0.92,0.02-1.87,0.15-2.79
			c0.12-0.86,0.39-1.7,0.65-2.52c0.22-0.7,0.76-1.16,1.43-1.45c0.76-0.33,1.35-0.13,1.65,0.65c0.78,2.05,1.47,4.12,1.25,6.36
			c-0.01,0.13-0.01,0.26-0.01,0.39c0,0.09,0.02,0.17,0.07,0.48c0.27-0.31,0.52-0.47,0.6-0.7c0.56-1.72,1.73-2.97,3.1-4.05
			c0.38-0.3,0.96-0.5,1.44-0.48c1.14,0.04,1.79,1.02,1.43,2.14c-0.38,1.2-0.83,2.39-1.34,3.55c-0.78,1.73-1.65,3.42-2.46,5.13
			c-0.13,0.27-0.23,0.58-0.22,0.87c0.05,1.68-0.87,2.6-2.38,3.11c-0.75,0.26-1.33,0.63-1.87,1.22c-1.66,1.79-3.34,3.58-5.13,5.24
			c-0.76,0.71-1.8,1.14-2.74,1.62c-1.07,0.55-1.17,0.67-0.62,1.73c1.25,2.4,2.55,4.77,3.81,7.16c1.26,2.39,2.51,4.79,3.76,7.19
			c0.11,0.21,0.28,0.44,0.27,0.66c-0.01,0.34-0.05,0.77-0.26,0.97c-0.14,0.13-0.69,0-0.9-0.19c-0.7-0.62-1.39-1.27-1.98-2
			c-3.08-3.79-6.14-7.61-9.2-11.43c-0.67-0.84-0.65-0.86-1.56-0.34c-0.09,0.05-0.19,0.13-0.29,0.15c-2.56,0.57-4.02,2.52-5.59,4.38
			c-1.28,1.5-1.82,3.24-2.17,5.1c-0.19,1.03-0.44,1.26-1.5,1.19c-0.74-0.05-1.48-0.13-2.2-0.3c-3.38-0.84-6.55-2.12-9.2-4.48
			c-1.3-1.16-1.47-1.76-0.61-3.3c1.14-2.03,1.75-4.21,2.22-6.46c0.17-0.81,0.54-1.61,0.97-2.33c1.6-2.63,3.87-4.53,6.64-5.83
			c0.87-0.41,1.73-0.82,2.59-1.25c0.78-0.39,0.9-0.79,0.44-1.51c-1.57-2.44-3.15-4.88-4.74-7.31c-0.49-0.75-1.05-0.79-1.52-0.03
			c-0.37,0.61-0.69,1.32-0.79,2.02c-0.26,1.75-1.4,2.66-3.16,2.37c-2.54-0.43-3.78-2.47-2.86-4.73c0.34-0.85,0.96-1.34,1.83-1.63
			c1.11-0.37,2.19-0.86,3.27-1.31c0.45-0.19,0.43-0.46,0.12-0.81c-2.64-2.92-4.49-6.32-5.91-9.97c-0.32-0.82-0.42-1.72-0.65-2.58
			c-0.06-0.21-0.2-0.43-0.37-0.55c-1.79-1.27-1.75-3.27,0.11-4.43c1.42-0.88,2.73-0.84,3.61,0.22c0.3,0.36,0.37,0.9,0.58,1.33
			c0.13,0.26,0.29,0.53,0.51,0.73c0.32,0.29,0.74,0.47,1.04,0.77c2.64,2.65,4.78,5.66,6.42,9.03c0.18,0.37,0.39,0.73,0.62,1.08
			c0.19,0.29,0.43,0.28,0.61-0.02c0.25-0.43,0.49-0.88,0.72-1.32c0.98-1.84,3.13-2.73,5.13-2.12c1.39,0.42,2.21,1.6,2.26,3.25
			c0.04,1.37-0.66,2.32-2.06,2.85c-0.55,0.2-1.06,0.17-1.57-0.12c-0.82-0.47-1.22-0.47-1.89,0.15c-1.37,1.25-1.36,0.65-0.36,2.26
			c1.45,2.33,2.85,4.7,4.28,7.05C34.41,32.89,34.62,33.13,34.87,33.46z M33.6,38.49c-1.3-0.11-2.46-0.12-3.52,0.24
			c-3.01,1.02-5.75,2.51-8.03,4.78c-1.09,1.09-1.37,2.98-0.53,4.27c0.53,0.81,1.09,1.57,1.96,2.07c0.16,0.09,0.29,0.52,0.21,0.7
			c-0.07,0.16-0.48,0.3-0.68,0.25c-0.84-0.22-1.43-0.8-1.91-1.5c-0.35-0.5-0.68-1.01-1.05-1.5c-0.1-0.14-0.29-0.21-0.44-0.32
			c-0.07,0.15-0.18,0.29-0.2,0.45c-0.24,1.91-0.93,3.67-1.71,5.41c-0.26,0.58-0.54,1.15-0.71,1.76c-0.07,0.24,0.03,0.68,0.22,0.83
			c3.07,2.58,6.53,4.33,10.57,4.81c0.41,0.05,0.6-0.06,0.69-0.46c0.49-2.1,1.18-4.1,2.6-5.79c0.42-0.5,0.24-0.8-0.4-0.97
			c-0.7-0.18-1.41-0.32-2.07-0.58c-0.21-0.08-0.45-0.49-0.43-0.71c0.05-0.43,0.43-0.49,0.82-0.37c0.19,0.06,0.37,0.13,0.55,0.21
			c1.14,0.46,2.24,0.41,3.35-0.14c0.94-0.46,1.92-0.84,2.86-1.3c1.46-0.72,2.92-1.47,4.36-2.24c1.5-0.8,2.92-1.76,4.46-2.44
			c1.81-0.81,2.94-2.28,4.15-3.71c0.03-0.04,0.02-0.12,0.04-0.26c-0.24,0.06-0.47,0.07-0.65,0.16c-1.35,0.75-2.76,1.41-4.02,2.29
			c-1.3,0.91-2.45,2.02-3.66,3.05c-0.29,0.24-0.57,0.32-0.87,0.05c-0.32-0.28-0.26-0.58,0.01-0.85c0.57-0.57,1.1-1.2,1.74-1.67
			c1.48-1.08,3.01-2.09,4.54-3.09c0.78-0.51,0.81-0.54,0.49-1.4c-0.16-0.42-0.25-0.88-0.31-1.33C46,39,46.15,38.66,46.26,38.64
			c0.19-0.04,0.5,0.06,0.61,0.22c0.27,0.36,0.49,0.77,0.67,1.18c0.28,0.63,0.54,0.75,1.16,0.46c1.14-0.53,1.6-1.52,1.25-2.72
			c-0.38-1.3-0.27-1.59,0.87-2.33c0.3-0.2,0.6-0.39,0.91-0.58c-0.25-0.1-0.44-0.09-0.62-0.02c-1.49,0.54-3.04,0.98-4.46,1.66
			c-2.41,1.16-4.91,1.84-7.56,2.21c-1.78,0.25-3.7,0.17-5.19,1.52c-0.12,0.11-0.53,0.09-0.64-0.03c-0.14-0.15-0.19-0.48-0.14-0.7
			C33.19,39.22,33.38,38.94,33.6,38.49z M46.34,29.43c0.04,0,0.09-0.01,0.13-0.01c-0.1-0.99-0.04-2.02-0.33-2.95
			c-0.37-1.2-1-2.31-1.55-3.45c-0.08-0.17-0.33-0.41-0.45-0.38c-0.19,0.05-0.43,0.26-0.49,0.45c-0.31,0.97-0.44,1.95-0.14,2.96
			c0.13,0.43,0.29,0.62,0.8,0.43c0.19-0.07,0.63,0.12,0.71,0.3c0.08,0.17-0.11,0.64-0.28,0.71c-0.52,0.2-0.61,0.58-0.65,1.03
			c-0.04,0.41-0.06,0.83-0.13,1.24c-0.11,0.61-0.14,1.13,0.67,1.25c0.17,0.02,0.4,0.17,0.47,0.32c0.09,0.19,0.13,0.49,0.03,0.65
			c-0.1,0.15-0.48,0.32-0.58,0.25c-0.76-0.51-1.08-0.02-1.42,0.53c-0.12,0.2-0.3,0.37-0.46,0.56c-0.85,0.98-0.83,1.05,0.4,1.48
			c0.44,0.15,0.64,0.44,0.51,0.9c-0.13,0.48-0.46,0.51-0.87,0.42c-0.7-0.17-1.4-0.36-2.1-0.48c-1.22-0.22-2.44-0.45-3.68-0.57
			c-0.77-0.08-1.08,0.48-0.72,1.15c0.22,0.4,0.45,0.82,0.77,1.13c0.23,0.22,0.63,0.4,0.95,0.38c0.8-0.04,1.6-0.26,2.4-0.31
			c2.18-0.14,3.85-1.13,5.13-2.86c0.06-0.09,0.17-0.15,0.21-0.25c0.17-0.39,0.42-0.77,0.45-1.18
			C46.24,31.88,46.28,30.65,46.34,29.43z M20.35,30.38c-0.1,0.21-0.15,0.41-0.27,0.54c-0.15,0.17-0.39,0.46-0.52,0.42
			c-0.31-0.08-0.63-0.28-0.83-0.52c-0.09-0.1,0.05-0.51,0.2-0.66c0.37-0.37,0.8-0.68,1.22-0.98c1.13-0.82,2.29-1.59,3.4-2.43
			c2.69-2.02,5.35-4.07,8.03-6.08c0.3-0.22,0.71-0.41,1.06-0.4c0.24,0,0.59,0.35,0.66,0.6c0.05,0.16-0.32,0.45-0.53,0.65
			c-0.07,0.07-0.23,0.03-0.41,0.05c0.34,0.57,0.72,0.75,1.28,0.45c0.8-0.43,1.1-0.96,0.98-1.8c-0.16-1.11-0.76-1.81-1.71-1.97
			c-1.34-0.23-2.41,0.24-3.19,1.33c-0.42,0.58-0.76,1.22-1.11,1.85c-0.43,0.77-1.07,1.26-1.93,1.44c-0.47,0.1-0.95,0.15-1.42,0.22
			c-0.59,0.08-1.01,0.38-1.26,0.92c-0.88,1.93-2.3,3.25-4.38,3.81c-0.48,0.13-0.96,0.29-1.43,0.45c-1.39,0.46-1.82,2.56-0.73,3.56
			c0.14,0.13,0.32,0.25,0.51,0.28c0.51,0.11,1.04,0.28,1.54,0.22c0.37-0.04,0.8-0.34,1.02-0.65C20.8,31.3,20.81,30.81,20.35,30.38z
			 M46.85,35.21c-0.04-0.02-0.08-0.04-0.12-0.06c0.39-0.15,0.78-0.3,1.17-0.46c0.89-0.37,1.75-0.82,2.66-1.09
			c1.33-0.4,1.92-1.08,1.95-2.49c0.01-0.7,0.02-1.4,0.11-2.09c0.25-1.88-0.14-3.65-0.82-5.37c-0.09-0.23-0.35-0.39-0.53-0.58
			c-0.18,0.17-0.45,0.32-0.51,0.52c-0.28,0.93-0.53,1.88-0.72,2.83c-0.1,0.53-0.06,1.06,0.72,1.12c0.18,0.01,0.43,0.37,0.46,0.58
			c0.02,0.14-0.33,0.48-0.49,0.47c-0.77-0.06-0.9,0.42-1.01,0.99c-0.08,0.43-0.16,0.86-0.3,1.27c-0.19,0.55-0.04,0.89,0.45,1.2
			c0.2,0.13,0.39,0.56,0.32,0.77c-0.12,0.39-0.5,0.39-0.88,0.24c-0.17-0.07-0.49-0.12-0.58-0.02
			C48.07,33.76,47.47,34.49,46.85,35.21z M36.04,37.78c-0.02-0.06-0.03-0.12-0.06-0.17c-2.37-3.94-4.73-7.88-7.11-11.82
			c-0.8-1.32-0.46-1.38-1.89-0.35c-0.05,0.03-0.07,0.1-0.09,0.14c0,0.05,0,0.07,0.01,0.09c2.37,3.86,4.73,7.73,7.11,11.59
			C34.38,37.86,35.3,38.08,36.04,37.78z M31.45,37.26c0.9-0.01,1.05-0.26,0.64-0.93c-1.8-2.98-3.63-5.95-5.45-8.91
			c-0.11-0.18-0.26-0.35-0.42-0.5c-0.47-0.45-0.84-0.05-1.21,0.18c-0.42,0.26-0.19,0.55-0.01,0.83c0.43,0.68,0.85,1.37,1.3,2.04
			c1.52,2.28,3.05,4.56,4.6,6.83C31.04,37.04,31.34,37.18,31.45,37.26z M39.97,31.29c-0.23-1.22-0.44-2.44-0.68-3.66
			c-0.22-1.07-0.45-2.13-0.73-3.18c-0.06-0.22-0.36-0.38-0.54-0.57c-0.17,0.18-0.44,0.35-0.48,0.56c-0.13,0.7-0.19,1.41-0.25,2.13
			c-0.03,0.33,0.09,0.56,0.49,0.64c0.43,0.09,0.68,0.4,0.36,0.82c-0.66,0.87-0.61,1.71-0.07,2.61c0.11,0.18-0.02,0.73-0.15,0.77
			c-0.86,0.27-0.95,1.08-1.3,1.7c-0.22,0.39-0.07,0.61,0.37,0.66c0.6,0.08,1.2,0.15,1.8,0.27c0.39,0.07,0.66-0.01,0.75-0.41
			C39.68,32.86,39.82,32.09,39.97,31.29z M55.25,33.9c0.71,0.02,1.03-0.32,1.25-0.82c0.91-2.12,1.84-4.24,2.73-6.37
			c0.11-0.26,0.02-0.6,0.03-0.9c-0.35,0.09-0.79,0.07-1.04,0.28c-0.55,0.45-1.01,1.02-1.52,1.53c-0.56,0.57-1.04,1.14-0.42,1.99
			c0.1,0.13,0.02,0.49-0.1,0.65c-0.08,0.12-0.38,0.07-0.57,0.12c-0.22,0.05-0.5,0.07-0.65,0.21c-0.3,0.28-0.53,0.63-0.79,0.96
			c-0.37,0.47-0.92,0.9-0.63,1.6c0.3,0.72,1.01,0.65,1.63,0.74C55.24,33.9,55.31,33.9,55.25,33.9z M49.63,61.96
			c0.09-0.05,0.18-0.1,0.27-0.15c-2.55-4.49-5.09-8.98-7.67-13.53c-0.37,0.25-0.66,0.45-1,0.67C44.06,53.33,46.85,57.64,49.63,61.96
			z M39.53,50.19c3.26,4.21,6.49,8.38,9.71,12.55c0.06-0.04,0.12-0.09,0.18-0.13c-2.98-4.34-5.95-8.67-8.96-13.05
			C40.14,49.77,39.86,49.96,39.53,50.19z M17.36,9.2c-0.09-0.6-0.4-0.95-0.95-1.06c-0.74-0.15-1.91,0.38-2.14,1.07
			c-0.11,0.33-0.02,0.82,0.16,1.15c0.13,0.26,0.64,0.59,0.79,0.52c0.71-0.35,1.36-0.83,2.01-1.28C17.32,9.52,17.32,9.31,17.36,9.2z
			 M50.99,37.04c0.01,0.72,0.54,1.48,0.9,1.34c0.88-0.33,1.73-0.75,2.25-1.59c0.37-0.61,0.12-1.06-0.59-1.14
			c-1.01-0.1-1.72,0.51-2.43,1.08C51.02,36.82,51.01,37,50.99,37.04z"/>
		<path class="st0" d="M53.17,52.96c-0.29-0.04-0.66-0.22-0.84-0.1c-0.4,0.28-0.38,1.26-0.03,1.52c0.21,0.16,0.46,0.26,0.66,0.42
			c0.12,0.1,0.2,0.25,0.25,0.47c-1.05-0.43-2.07-0.67-3.25,0.06c0.1-0.34,0.09-0.5,0.17-0.57c0.88-0.76,0.32-1.76,0.43-2.64
			c0.01-0.06-0.2-0.2-0.33-0.23c-0.19-0.04-0.41,0.02-0.58-0.04c-0.15-0.05-0.25-0.23-0.37-0.35c0.13-0.08,0.27-0.24,0.39-0.23
			c0.74,0.07,0.91-0.36,0.91-0.96c0-0.63,0.01-1.27,0-1.9c-0.02-0.66-0.25-0.86-0.94-0.83c-0.09,0-0.26-0.06-0.27-0.1
			c-0.01-0.11,0.02-0.27,0.09-0.33c0.38-0.29,0.76-0.59,1.18-0.81c0.14-0.07,0.42,0.01,0.58,0.1c0.22,0.13,0.41,0.33,0.58,0.52
			c0.26,0.28,0.49,0.31,0.77,0.03c0.12-0.12,0.27-0.22,0.41-0.32c0.36-0.28,0.72-0.62,1.23-0.34c0.53,0.3,1.01,0.71,0.99,1.36
			c-0.03,1.22-0.15,2.44-0.24,3.66c-0.01,0.12-0.06,0.27-0.15,0.35c-0.52,0.49-1.06,0.96-1.59,1.44
			C53.21,53.08,53.19,53.02,53.17,52.96z M53.6,47.36c-0.09-0.06-0.18-0.12-0.26-0.18c-0.35,0.27-0.97,0.51-1,0.82
			c-0.12,1.05-0.09,2.13,0,3.19c0.02,0.21,0.57,0.39,0.9,0.52c0.04,0.02,0.33-0.38,0.35-0.6c0.05-0.52,0.02-1.04,0.02-1.57
			C53.6,48.82,53.6,48.09,53.6,47.36z"/>
		<path class="st0" d="M11.5,26.38c0.93-0.79,0.52-1.81,0.53-2.72c0.01-0.88,0.44-1.93-0.65-2.52c0.69-1.02,1.51-0.99,2.58-0.01
			c-0.61,1.66-0.17,3.34-0.3,5.02c0.33,0,0.55,0,0.8,0C13.89,27.14,12.55,27.25,11.5,26.38z"/>
		<path class="st0" d="M35.13,60.79c0.11-0.79,0.62-1.52,1.31-2.14c0.08-0.08,0.46-0.01,0.47,0.04c0.15,0.71,0.37,1.43,0.33,2.14
			c-0.03,0.57-0.5,1-1.14,1.08C35.51,61.97,35.14,61.6,35.13,60.79z"/>
		<path class="st0" d="M37.32,53.7c0.21,0.69,0.59,1.37,0.17,2.14c-0.24,0.44-0.64,0.7-1.14,0.48c-0.47-0.2-0.51-0.7-0.34-1.07
			c0.28-0.58,0.69-1.1,1.05-1.64C37.14,53.64,37.23,53.67,37.32,53.7z"/>
		<path class="st0" d="M40.12,57.35c0.33,0.56,0.75,1.1,0.65,1.83c-0.08,0.6-0.57,1.02-1.05,0.94c-0.42-0.08-0.73-0.59-0.56-1.15
			c0.16-0.56,0.46-1.09,0.7-1.63C39.95,57.33,40.04,57.34,40.12,57.35z"/>
		<path class="st0" d="M12.59,19.33c0.19-0.43,0.3-0.92,0.59-1.26c0.15-0.18,0.6-0.1,0.96-0.14c-0.55,0.56-1,1.01-1.45,1.47
			C12.66,19.38,12.63,19.35,12.59,19.33z"/>
		<path class="st0" d="M28.25,43.85c0.11-0.4,0.13-0.66,0.26-0.85c0.74-1.14,1.51-2.27,2.27-3.4c0.07-0.11,0.18-0.24,0.28-0.26
			c0.36-0.06,0.88-0.25,1.06-0.08c0.36,0.33,0.02,0.72-0.28,0.98c-1.15,1-1.85,2.28-2.36,3.69c-0.08,0.21-0.45,0.48-0.64,0.45
			C28.6,44.35,28.41,44.02,28.25,43.85z"/>
		<path class="st0" d="M45.81,40.7c-0.11,0.08-0.3,0.34-0.52,0.37c-0.44,0.07-0.91-0.59-0.9-1.17c0.01-0.38,0.17-0.63,0.58-0.65
			C45.33,39.24,45.79,39.92,45.81,40.7z"/>
	</g>
</g>
</svg>
