<?xml version="1.0" encoding="utf-8"?>
<!-- Generator: Adobe Illustrator 24.2.3, SVG Export Plug-In . SVG Version: 6.00 Build 0)  -->
<svg version="1.1" id="Capa_1" xmlns="http://www.w3.org/2000/svg" xmlns:xlink="http://www.w3.org/1999/xlink" x="0px" y="0px"
	 viewBox="0 0 71.6 71.6" style="enable-background:new 0 0 71.6 71.6;" xml:space="preserve">
<style type="text/css">
	.st0{fill:#0F0F0F;}
</style>
<g>
	<g>
		<path class="st0" d="M34.6,32.9c1.8-2.2,2.2-4.6,1.7-7.2c-0.4-2.1-0.5-4.1,0.7-5.9c0.2-0.2,0.3-0.5,0.6-0.7
			c0.9-0.8,1.8-0.6,2.3,0.5c0.9,1.8,1.4,3.8,1.8,5.8c0.4,2.1,0.6,4.3,0.4,6.4c0,0.3,0,0.6,0.1,0.9c0.9-1.1,2.2-2,2.2-3.8
			c0-1.9,0-3.7-0.6-5.6c-0.7-1.9-0.4-3.9,1.3-5.3c0.9-0.8,1.9-0.7,2.4,0.4c0.8,1.8,1.6,3.6,2.4,5.4c0.2,0.4,0.2,0.9,0.2,1.3
			c0,1.8,0,3.5,0.1,5.3c0,0.3,0.1,0.6,0.1,0.9c0.1,0,0.1,0,0.2,0c0.1-0.2,0.3-0.5,0.3-0.7c0.3-1.2,0.6-2.4,0.8-3.7
			c0.1-1.1,0-2.3,0.2-3.4c0.1-1.1,0.5-2.1,0.8-3.1c0.3-0.9,0.9-1.4,1.7-1.8c0.9-0.4,1.7-0.2,2,0.8c1,2.5,1.8,5,1.5,7.8
			c0,0.2,0,0.3,0,0.5c0,0.1,0,0.2,0.1,0.6c0.3-0.4,0.6-0.6,0.7-0.9c0.7-2.1,2.1-3.6,3.8-5c0.5-0.4,1.2-0.6,1.8-0.6
			c1.4,0,2.2,1.2,1.7,2.6c-0.5,1.5-1,2.9-1.6,4.3c-1,2.1-2,4.2-3,6.3c-0.2,0.3-0.3,0.7-0.3,1.1c0.1,2.1-1.1,3.2-2.9,3.8
			c-0.9,0.3-1.6,0.8-2.3,1.5c-2,2.2-4.1,4.4-6.3,6.4c-0.9,0.9-2.2,1.4-3.3,2c-1.3,0.7-1.4,0.8-0.8,2.1c1.5,2.9,3.1,5.8,4.7,8.8
			c1.5,2.9,3.1,5.9,4.6,8.8c0.1,0.3,0.3,0.5,0.3,0.8c0,0.4-0.1,0.9-0.3,1.2c-0.2,0.2-0.8,0-1.1-0.2c-0.9-0.8-1.7-1.6-2.4-2.4
			c-3.8-4.6-7.5-9.3-11.2-14c-0.8-1-0.8-1.1-1.9-0.4c-0.1,0.1-0.2,0.2-0.4,0.2c-3.1,0.7-4.9,3.1-6.8,5.4c-1.6,1.8-2.2,4-2.7,6.2
			c-0.2,1.3-0.5,1.5-1.8,1.5c-0.9-0.1-1.8-0.2-2.7-0.4c-4.1-1-8-2.6-11.2-5.5c-1.6-1.4-1.8-2.2-0.7-4c1.4-2.5,2.1-5.1,2.7-7.9
			c0.2-1,0.7-2,1.2-2.8c2-3.2,4.7-5.5,8.1-7.1c1.1-0.5,2.1-1,3.2-1.5c1-0.5,1.1-1,0.5-1.8c-1.9-3-3.9-6-5.8-8.9
			c-0.6-0.9-1.3-1-1.9,0c-0.5,0.7-0.8,1.6-1,2.5c-0.3,2.1-1.7,3.3-3.9,2.9c-3.1-0.5-4.6-3-3.5-5.8c0.4-1,1.2-1.6,2.2-2
			c1.4-0.5,2.7-1.1,4-1.6c0.6-0.2,0.5-0.6,0.1-1c-3.2-3.6-5.5-7.7-7.2-12.2c-0.4-1-0.5-2.1-0.8-3.2C9.8,7,9.6,6.7,9.4,6.6
			C7.2,5,7.2,2.6,9.5,1.1c1.7-1.1,3.3-1,4.4,0.3c0.4,0.4,0.5,1.1,0.7,1.6c0.2,0.3,0.4,0.6,0.6,0.9c0.4,0.4,0.9,0.6,1.3,0.9
			c3.2,3.2,5.8,6.9,7.8,11c0.2,0.5,0.5,0.9,0.8,1.3c0.2,0.4,0.5,0.3,0.7,0c0.3-0.5,0.6-1.1,0.9-1.6c1.2-2.2,3.8-3.3,6.3-2.6
			c1.7,0.5,2.7,2,2.8,4c0,1.7-0.8,2.8-2.5,3.5c-0.7,0.2-1.3,0.2-1.9-0.1c-1-0.6-1.5-0.6-2.3,0.2c-1.7,1.5-1.7,0.8-0.4,2.8
			c1.8,2.8,3.5,5.7,5.2,8.6C34.1,32.2,34.3,32.5,34.6,32.9z M33.1,39c-1.6-0.1-3-0.1-4.3,0.3c-3.7,1.2-7,3.1-9.8,5.8
			c-1.3,1.3-1.7,3.6-0.6,5.2c0.6,1,1.3,1.9,2.4,2.5c0.2,0.1,0.4,0.6,0.3,0.9c-0.1,0.2-0.6,0.4-0.8,0.3c-1-0.3-1.7-1-2.3-1.8
			c-0.4-0.6-0.8-1.2-1.3-1.8c-0.1-0.2-0.4-0.3-0.5-0.4c-0.1,0.2-0.2,0.4-0.2,0.6c-0.3,2.3-1.1,4.5-2.1,6.6c-0.3,0.7-0.7,1.4-0.9,2.2
			c-0.1,0.3,0,0.8,0.3,1c3.8,3.2,8,5.3,12.9,5.9c0.5,0.1,0.7-0.1,0.8-0.6c0.6-2.6,1.4-5,3.2-7.1c0.5-0.6,0.3-1-0.5-1.2
			c-0.9-0.2-1.7-0.4-2.5-0.7c-0.3-0.1-0.6-0.6-0.5-0.9c0.1-0.5,0.5-0.6,1-0.5c0.2,0.1,0.5,0.2,0.7,0.3c1.4,0.6,2.7,0.5,4.1-0.2
			c1.1-0.6,2.3-1,3.5-1.6c1.8-0.9,3.6-1.8,5.3-2.7c1.8-1,3.6-2.2,5.5-3c2.2-1,3.6-2.8,5.1-4.5c0,0,0-0.1,0-0.3
			c-0.3,0.1-0.6,0.1-0.8,0.2c-1.7,0.9-3.4,1.7-4.9,2.8c-1.6,1.1-3,2.5-4.5,3.7c-0.4,0.3-0.7,0.4-1.1,0.1c-0.4-0.3-0.3-0.7,0-1
			c0.7-0.7,1.3-1.5,2.1-2c1.8-1.3,3.7-2.6,5.6-3.8c1-0.6,1-0.7,0.6-1.7c-0.2-0.5-0.3-1.1-0.4-1.6c0-0.2,0.1-0.6,0.3-0.7
			c0.2,0,0.6,0.1,0.7,0.3c0.3,0.4,0.6,0.9,0.8,1.4c0.3,0.8,0.7,0.9,1.4,0.6c1.4-0.6,2-1.9,1.5-3.3c-0.5-1.6-0.3-1.9,1.1-2.8
			c0.4-0.2,0.7-0.5,1.1-0.7c-0.3-0.1-0.5-0.1-0.8,0c-1.8,0.7-3.7,1.2-5.5,2c-2.9,1.4-6,2.2-9.2,2.7c-2.2,0.3-4.5,0.2-6.3,1.9
			c-0.1,0.1-0.6,0.1-0.8,0c-0.2-0.2-0.2-0.6-0.2-0.9C32.6,39.9,32.8,39.6,33.1,39z M48.6,28c0,0,0.1,0,0.2,0c-0.1-1.2,0-2.5-0.4-3.6
			c-0.5-1.5-1.2-2.8-1.9-4.2c-0.1-0.2-0.4-0.5-0.6-0.5c-0.2,0.1-0.5,0.3-0.6,0.6c-0.4,1.2-0.5,2.4-0.2,3.6c0.2,0.5,0.4,0.8,1,0.5
			c0.2-0.1,0.8,0.1,0.9,0.4c0.1,0.2-0.1,0.8-0.3,0.9c-0.6,0.2-0.7,0.7-0.8,1.3c0,0.5-0.1,1-0.2,1.5c-0.1,0.7-0.2,1.4,0.8,1.5
			c0.2,0,0.5,0.2,0.6,0.4c0.1,0.2,0.2,0.6,0,0.8c-0.1,0.2-0.6,0.4-0.7,0.3c-0.9-0.6-1.3,0-1.7,0.6c-0.1,0.2-0.4,0.5-0.6,0.7
			c-1,1.2-1,1.3,0.5,1.8c0.5,0.2,0.8,0.5,0.6,1.1c-0.2,0.6-0.6,0.6-1.1,0.5c-0.9-0.2-1.7-0.4-2.6-0.6c-1.5-0.3-3-0.6-4.5-0.7
			c-0.9-0.1-1.3,0.6-0.9,1.4c0.3,0.5,0.6,1,0.9,1.4c0.3,0.3,0.8,0.5,1.2,0.5c1,0,2-0.3,2.9-0.4c2.7-0.2,4.7-1.4,6.3-3.5
			c0.1-0.1,0.2-0.2,0.3-0.3c0.2-0.5,0.5-0.9,0.6-1.4C48.5,31,48.6,29.5,48.6,28z M16.9,29.1c-0.1,0.3-0.2,0.5-0.3,0.7
			c-0.2,0.2-0.5,0.6-0.6,0.5c-0.4-0.1-0.8-0.3-1-0.6c-0.1-0.1,0.1-0.6,0.2-0.8c0.5-0.5,1-0.8,1.5-1.2c1.4-1,2.8-1.9,4.2-3
			c3.3-2.5,6.5-5,9.8-7.4c0.4-0.3,0.9-0.5,1.3-0.5c0.3,0,0.7,0.4,0.8,0.7c0.1,0.2-0.4,0.6-0.6,0.8c-0.1,0.1-0.3,0-0.5,0.1
			c0.4,0.7,0.9,0.9,1.6,0.6c1-0.5,1.3-1.2,1.2-2.2c-0.2-1.4-0.9-2.2-2.1-2.4c-1.6-0.3-2.9,0.3-3.9,1.6c-0.5,0.7-0.9,1.5-1.4,2.3
			c-0.5,0.9-1.3,1.5-2.4,1.8c-0.6,0.1-1.2,0.2-1.7,0.3c-0.7,0.1-1.2,0.5-1.5,1.1c-1.1,2.4-2.8,4-5.4,4.7c-0.6,0.2-1.2,0.4-1.7,0.6
			c-1.7,0.6-2.2,3.1-0.9,4.4c0.2,0.2,0.4,0.3,0.6,0.3c0.6,0.1,1.3,0.3,1.9,0.3c0.5,0,1-0.4,1.2-0.8C17.4,30.3,17.4,29.7,16.9,29.1z
			 M49.3,35c0,0-0.1,0-0.1-0.1c0.5-0.2,1-0.4,1.4-0.6c1.1-0.5,2.1-1,3.3-1.3c1.6-0.5,2.3-1.3,2.4-3c0-0.9,0-1.7,0.1-2.6
			c0.3-2.3-0.2-4.5-1-6.6c-0.1-0.3-0.4-0.5-0.6-0.7c-0.2,0.2-0.6,0.4-0.6,0.6c-0.3,1.1-0.6,2.3-0.9,3.5c-0.1,0.6-0.1,1.3,0.9,1.4
			c0.2,0,0.5,0.5,0.6,0.7c0,0.2-0.4,0.6-0.6,0.6c-0.9-0.1-1.1,0.5-1.2,1.2c-0.1,0.5-0.2,1.1-0.4,1.6c-0.2,0.7,0,1.1,0.6,1.5
			c0.2,0.2,0.5,0.7,0.4,0.9c-0.1,0.5-0.6,0.5-1.1,0.3c-0.2-0.1-0.6-0.1-0.7,0C50.8,33.3,50,34.2,49.3,35z M36,38.2
			c0-0.1,0-0.1-0.1-0.2c-2.9-4.8-5.8-9.6-8.7-14.4c-1-1.6-0.6-1.7-2.3-0.4c-0.1,0-0.1,0.1-0.1,0.2c0,0.1,0,0.1,0,0.1
			c2.9,4.7,5.8,9.4,8.7,14.2C34,38.3,35.1,38.5,36,38.2z M30.4,37.5c1.1,0,1.3-0.3,0.8-1.1c-2.2-3.6-4.4-7.3-6.7-10.9
			c-0.1-0.2-0.3-0.4-0.5-0.6c-0.6-0.6-1-0.1-1.5,0.2c-0.5,0.3-0.2,0.7,0,1c0.5,0.8,1,1.7,1.6,2.5c1.9,2.8,3.7,5.6,5.6,8.3
			C29.9,37.3,30.3,37.4,30.4,37.5z M40.9,30.2c-0.3-1.5-0.5-3-0.8-4.5c-0.3-1.3-0.6-2.6-0.9-3.9c-0.1-0.3-0.4-0.5-0.7-0.7
			c-0.2,0.2-0.5,0.4-0.6,0.7c-0.2,0.9-0.2,1.7-0.3,2.6c0,0.4,0.1,0.7,0.6,0.8c0.5,0.1,0.8,0.5,0.4,1c-0.8,1.1-0.7,2.1-0.1,3.2
			c0.1,0.2,0,0.9-0.2,0.9c-1.1,0.3-1.2,1.3-1.6,2.1c-0.3,0.5-0.1,0.7,0.5,0.8c0.7,0.1,1.5,0.2,2.2,0.3c0.5,0.1,0.8,0,0.9-0.5
			C40.5,32.2,40.7,31.2,40.9,30.2z M59.5,33.4c0.9,0,1.3-0.4,1.5-1c1.1-2.6,2.2-5.2,3.3-7.8c0.1-0.3,0-0.7,0-1.1
			c-0.4,0.1-1,0.1-1.3,0.3c-0.7,0.6-1.2,1.2-1.9,1.9c-0.7,0.7-1.3,1.4-0.5,2.4c0.1,0.2,0,0.6-0.1,0.8c-0.1,0.1-0.5,0.1-0.7,0.1
			c-0.3,0.1-0.6,0.1-0.8,0.3c-0.4,0.3-0.6,0.8-1,1.2c-0.5,0.6-1.1,1.1-0.8,2C57.8,33.4,58.7,33.3,59.5,33.4
			C59.5,33.4,59.6,33.4,59.5,33.4z M52.7,67.7c0.1-0.1,0.2-0.1,0.3-0.2c-3.1-5.5-6.2-11-9.4-16.5c-0.5,0.3-0.8,0.6-1.2,0.8
			C45.9,57.2,49.3,62.5,52.7,67.7z M40.3,53.4c4,5.1,7.9,10.2,11.9,15.3c0.1,0,0.1-0.1,0.2-0.2c-3.6-5.3-7.3-10.6-11-16
			C41.1,52.8,40.7,53.1,40.3,53.4z M13.2,3.2c-0.1-0.7-0.5-1.2-1.2-1.3c-0.9-0.2-2.3,0.5-2.6,1.3c-0.1,0.4,0,1,0.2,1.4
			c0.2,0.3,0.8,0.7,1,0.6c0.9-0.4,1.7-1,2.5-1.6C13.2,3.6,13.2,3.4,13.2,3.2z M54.3,37.3c0,0.9,0.7,1.8,1.1,1.6
			c1.1-0.4,2.1-0.9,2.8-1.9c0.5-0.7,0.1-1.3-0.7-1.4c-1.2-0.1-2.1,0.6-3,1.3C54.4,37,54.3,37.2,54.3,37.3z"/>
		<path class="st0" d="M57,56.7c-0.4,0-0.8-0.3-1-0.1c-0.5,0.3-0.5,1.5,0,1.9c0.3,0.2,0.6,0.3,0.8,0.5c0.1,0.1,0.2,0.3,0.3,0.6
			c-1.3-0.5-2.5-0.8-4,0.1c0.1-0.4,0.1-0.6,0.2-0.7c1.1-0.9,0.4-2.2,0.5-3.2c0-0.1-0.2-0.2-0.4-0.3c-0.2,0-0.5,0-0.7,0
			c-0.2-0.1-0.3-0.3-0.5-0.4c0.2-0.1,0.3-0.3,0.5-0.3c0.9,0.1,1.1-0.4,1.1-1.2c0-0.8,0-1.6,0-2.3c0-0.8-0.3-1.1-1.1-1
			c-0.1,0-0.3-0.1-0.3-0.1c0-0.1,0-0.3,0.1-0.4c0.5-0.4,0.9-0.7,1.4-1c0.2-0.1,0.5,0,0.7,0.1c0.3,0.2,0.5,0.4,0.7,0.6
			c0.3,0.3,0.6,0.4,0.9,0c0.1-0.1,0.3-0.3,0.5-0.4c0.4-0.3,0.9-0.8,1.5-0.4c0.6,0.4,1.2,0.9,1.2,1.7c0,1.5-0.2,3-0.3,4.5
			c0,0.1-0.1,0.3-0.2,0.4c-0.6,0.6-1.3,1.2-1.9,1.8C57,56.9,57,56.8,57,56.7z M57.5,49.9c-0.1-0.1-0.2-0.1-0.3-0.2
			c-0.4,0.3-1.2,0.6-1.2,1c-0.1,1.3-0.1,2.6,0,3.9c0,0.3,0.7,0.5,1.1,0.6c0,0,0.4-0.5,0.4-0.7c0.1-0.6,0-1.3,0-1.9
			C57.5,51.7,57.5,50.8,57.5,49.9z"/>
		<path class="st0" d="M6,24.2c1.1-1,0.6-2.2,0.6-3.3c0-1.1,0.5-2.4-0.8-3.1c0.8-1.2,1.8-1.2,3.2,0c-0.7,2-0.2,4.1-0.4,6.1
			c0.4,0,0.7,0,1,0C9,25.2,7.3,25.3,6,24.2z"/>
		<path class="st0" d="M34.9,66.3c0.1-1,0.8-1.9,1.6-2.6c0.1-0.1,0.6,0,0.6,0c0.2,0.9,0.5,1.7,0.4,2.6c0,0.7-0.6,1.2-1.4,1.3
			C35.4,67.8,34.9,67.3,34.9,66.3z"/>
		<path class="st0" d="M37.6,57.6c0.3,0.8,0.7,1.7,0.2,2.6c-0.3,0.5-0.8,0.9-1.4,0.6c-0.6-0.2-0.6-0.9-0.4-1.3
			c0.3-0.7,0.8-1.3,1.3-2C37.4,57.6,37.5,57.6,37.6,57.6z"/>
		<path class="st0" d="M41,62.1c0.4,0.7,0.9,1.3,0.8,2.2c-0.1,0.7-0.7,1.2-1.3,1.1c-0.5-0.1-0.9-0.7-0.7-1.4c0.2-0.7,0.6-1.3,0.9-2
			C40.8,62.1,40.9,62.1,41,62.1z"/>
		<path class="st0" d="M7.4,15.6c0.2-0.5,0.4-1.1,0.7-1.5c0.2-0.2,0.7-0.1,1.2-0.2c-0.7,0.7-1.2,1.2-1.8,1.8
			C7.5,15.7,7.4,15.7,7.4,15.6z"/>
		<path class="st0" d="M26.5,45.6c0.1-0.5,0.2-0.8,0.3-1c0.9-1.4,1.8-2.8,2.8-4.2c0.1-0.1,0.2-0.3,0.3-0.3c0.4-0.1,1.1-0.3,1.3-0.1
			c0.4,0.4,0,0.9-0.3,1.2c-1.4,1.2-2.3,2.8-2.9,4.5c-0.1,0.3-0.6,0.6-0.8,0.6C27,46.2,26.7,45.8,26.5,45.6z"/>
		<path class="st0" d="M48,41.8c-0.1,0.1-0.4,0.4-0.6,0.5c-0.5,0.1-1.1-0.7-1.1-1.4c0-0.5,0.2-0.8,0.7-0.8C47.4,40,48,40.8,48,41.8z
			"/>
	</g>
</g>
</svg>
