<?xml version="1.0" encoding="utf-8"?>
<!-- Generator: Adobe Illustrator 24.2.3, SVG Export Plug-In . SVG Version: 6.00 Build 0)  -->
<svg version="1.1" xmlns="http://www.w3.org/2000/svg" xmlns:xlink="http://www.w3.org/1999/xlink" x="0px" y="0px"
	 viewBox="0 0 687.3 402" style="enable-background:new 0 0 687.3 402;" xml:space="preserve">
<style type="text/css">
	.st0{fill:#0F0F0F;}
	.st1{fill:#FFFFFF;}
	.st2{fill:#8C7857;}
</style>
<g id="Capa_2">
	<rect x="-1.8" y="-5" class="st0" width="688.7" height="407"/>
</g>
<g id="Capa_1">
	<g>
		<g>
			<g>
				<path class="st1" d="M340.8,108.7c3.7-4.6,4.5-9.5,3.5-14.8c-0.9-4.2-1.1-8.4,1.5-12.2c0.4-0.5,0.7-1,1.1-1.4
					c1.8-1.7,3.7-1.3,4.8,0.9c1.8,3.8,2.9,7.8,3.6,11.9c0.7,4.4,1.3,8.8,0.8,13.2c-0.1,0.6,0,1.2,0.2,1.8c1.9-2.4,4.4-4.1,4.5-7.8
					c0.1-3.9,0.1-7.6-1.2-11.4c-1.4-4-0.9-7.9,2.6-11c1.9-1.7,3.9-1.5,4.9,0.8c1.7,3.7,3.4,7.4,4.9,11.1c0.4,0.8,0.4,1.8,0.5,2.7
					c0.1,3.6,0.1,7.2,0.2,10.8c0,0.6,0.2,1.2,0.3,1.9c0.2,0,0.3,0.1,0.5,0.1c0.2-0.5,0.6-1,0.7-1.5c0.6-2.5,1.3-5,1.6-7.5
					c0.3-2.3,0.1-4.7,0.4-7c0.3-2.2,1-4.3,1.6-6.3c0.6-1.8,1.9-2.9,3.6-3.6c1.9-0.8,3.4-0.3,4.1,1.6c2,5.1,3.7,10.3,3.1,16
					c0,0.3,0,0.7,0,1c0,0.2,0.1,0.4,0.2,1.2c0.7-0.8,1.3-1.2,1.5-1.8c1.4-4.3,4.3-7.5,7.8-10.2c1-0.8,2.4-1.3,3.6-1.2
					c2.9,0.1,4.5,2.6,3.6,5.4c-1,3-2.1,6-3.4,8.9c-2,4.3-4.1,8.6-6.2,12.9c-0.3,0.7-0.6,1.5-0.6,2.2c0.1,4.2-2.2,6.5-6,7.8
					c-1.9,0.7-3.3,1.6-4.7,3.1c-4.2,4.5-8.4,9-12.9,13.2c-1.9,1.8-4.5,2.9-6.9,4.1c-2.7,1.4-2.9,1.7-1.6,4.3c3.1,6,6.4,12,9.6,18
					c3.2,6,6.3,12,9.4,18c0.3,0.5,0.7,1.1,0.7,1.7c0,0.9-0.1,1.9-0.7,2.4c-0.4,0.3-1.7,0-2.3-0.5c-1.8-1.6-3.5-3.2-5-5
					c-7.7-9.5-15.4-19.1-23.1-28.7c-1.7-2.1-1.6-2.2-3.9-0.9c-0.2,0.1-0.5,0.3-0.7,0.4c-6.4,1.4-10.1,6.3-14,11
					c-3.2,3.8-4.6,8.1-5.4,12.8c-0.5,2.6-1.1,3.2-3.8,3c-1.9-0.1-3.7-0.3-5.5-0.8c-8.5-2.1-16.4-5.3-23.1-11.2
					c-3.3-2.9-3.7-4.4-1.5-8.3c2.9-5.1,4.4-10.6,5.6-16.2c0.4-2,1.4-4,2.4-5.8c4-6.6,9.7-11.4,16.7-14.6c2.2-1,4.3-2.1,6.5-3.1
					c2-1,2.3-2,1.1-3.8c-3.9-6.1-7.9-12.2-11.9-18.3c-1.2-1.9-2.6-2-3.8-0.1c-0.9,1.5-1.7,3.3-2,5.1c-0.7,4.4-3.5,6.7-7.9,5.9
					c-6.4-1.1-9.5-6.2-7.2-11.9c0.9-2.1,2.4-3.4,4.6-4.1c2.8-0.9,5.5-2.2,8.2-3.3c1.1-0.5,1.1-1.2,0.3-2c-6.6-7.3-11.3-15.9-14.8-25
					c-0.8-2.1-1.1-4.3-1.6-6.5c-0.2-0.5-0.5-1.1-0.9-1.4c-4.5-3.2-4.4-8.2,0.3-11.1c3.6-2.2,6.9-2.1,9.1,0.6
					c0.8,0.9,0.9,2.3,1.5,3.3c0.3,0.7,0.7,1.3,1.3,1.8c0.8,0.7,1.9,1.2,2.6,1.9c6.6,6.7,12,14.2,16.1,22.7c0.5,0.9,1,1.8,1.6,2.7
					c0.5,0.7,1.1,0.7,1.5-0.1c0.6-1.1,1.2-2.2,1.8-3.3c2.5-4.6,7.9-6.9,12.9-5.3c3.5,1.1,5.5,4,5.7,8.2c0.1,3.4-1.7,5.8-5.2,7.2
					c-1.4,0.5-2.7,0.4-3.9-0.3c-2.1-1.2-3.1-1.2-4.7,0.4c-3.4,3.1-3.4,1.6-0.9,5.7c3.6,5.8,7.2,11.8,10.7,17.7
					C339.7,107.2,340.2,107.8,340.8,108.7z M337.6,121.3c-3.3-0.3-6.2-0.3-8.8,0.6c-7.6,2.6-14.4,6.3-20.2,12
					c-2.7,2.7-3.4,7.5-1.3,10.7c1.3,2,2.7,3.9,4.9,5.2c0.4,0.2,0.7,1.3,0.5,1.8c-0.2,0.4-1.2,0.8-1.7,0.6c-2.1-0.6-3.6-2-4.8-3.8
					c-0.9-1.3-1.7-2.5-2.6-3.8c-0.3-0.4-0.7-0.5-1.1-0.8c-0.2,0.4-0.5,0.7-0.5,1.1c-0.6,4.8-2.3,9.2-4.3,13.6
					c-0.7,1.5-1.4,2.9-1.8,4.4c-0.2,0.6,0.1,1.7,0.6,2.1c7.7,6.5,16.4,10.9,26.5,12.1c1,0.1,1.5-0.2,1.7-1.2
					c1.2-5.3,3-10.3,6.5-14.5c1.1-1.3,0.6-2-1-2.4c-1.8-0.5-3.5-0.8-5.2-1.5c-0.5-0.2-1.1-1.2-1.1-1.8c0.1-1.1,1.1-1.2,2.1-0.9
					c0.5,0.2,0.9,0.3,1.4,0.5c2.9,1.2,5.6,1,8.4-0.4c2.4-1.2,4.8-2.1,7.2-3.3c3.7-1.8,7.3-3.7,10.9-5.6c3.8-2,7.3-4.4,11.2-6.1
					c4.5-2,7.4-5.7,10.4-9.3c0.1-0.1,0.1-0.3,0.1-0.7c-0.6,0.2-1.2,0.2-1.6,0.4c-3.4,1.9-6.9,3.5-10.1,5.7c-3.3,2.3-6.1,5.1-9.2,7.7
					c-0.7,0.6-1.4,0.8-2.2,0.1c-0.8-0.7-0.7-1.5,0-2.1c1.4-1.4,2.8-3,4.4-4.2c3.7-2.7,7.6-5.2,11.4-7.8c2-1.3,2-1.4,1.2-3.5
					c-0.4-1.1-0.6-2.2-0.8-3.3c-0.1-0.5,0.3-1.3,0.6-1.4c0.5-0.1,1.3,0.2,1.5,0.6c0.7,0.9,1.2,1.9,1.7,3c0.7,1.6,1.4,1.9,2.9,1.2
					c2.9-1.3,4-3.8,3.1-6.8c-1-3.3-0.7-4,2.2-5.8c0.8-0.5,1.5-1,2.3-1.5c-0.6-0.3-1.1-0.2-1.6-0.1c-3.7,1.4-7.6,2.5-11.2,4.2
					c-6,2.9-12.3,4.6-19,5.5c-4.5,0.6-9.3,0.4-13,3.8c-0.3,0.3-1.3,0.2-1.6-0.1c-0.4-0.4-0.5-1.2-0.4-1.8
					C336.6,123.1,337.1,122.4,337.6,121.3z M369.6,98.5c0.1,0,0.2,0,0.3,0c-0.3-2.5-0.1-5.1-0.8-7.4c-0.9-3-2.5-5.8-3.9-8.7
					c-0.2-0.4-0.8-1-1.1-1c-0.5,0.1-1.1,0.7-1.2,1.1c-0.8,2.4-1.1,4.9-0.4,7.4c0.3,1.1,0.7,1.6,2,1.1c0.5-0.2,1.6,0.3,1.8,0.8
					c0.2,0.4-0.3,1.6-0.7,1.8c-1.3,0.5-1.5,1.5-1.6,2.6c-0.1,1-0.2,2.1-0.3,3.1c-0.3,1.5-0.4,2.8,1.7,3.1c0.4,0.1,1,0.4,1.2,0.8
					c0.2,0.5,0.3,1.2,0.1,1.6c-0.3,0.4-1.2,0.8-1.5,0.6c-1.9-1.3-2.7-0.1-3.6,1.3c-0.3,0.5-0.8,0.9-1.2,1.4c-2.1,2.5-2.1,2.6,1,3.7
					c1.1,0.4,1.6,1.1,1.3,2.3c-0.3,1.2-1.2,1.3-2.2,1.1c-1.8-0.4-3.5-0.9-5.3-1.2c-3.1-0.6-6.1-1.1-9.2-1.4
					c-1.9-0.2-2.7,1.2-1.8,2.9c0.6,1,1.1,2.1,1.9,2.8c0.6,0.6,1.6,1,2.4,1c2-0.1,4-0.7,6-0.8c5.5-0.4,9.7-2.8,12.9-7.2
					c0.2-0.2,0.4-0.4,0.5-0.6c0.4-1,1.1-1.9,1.1-3C369.3,104.7,369.4,101.6,369.6,98.5z M304.4,100.9c-0.3,0.5-0.4,1-0.7,1.4
					c-0.4,0.4-1,1.2-1.3,1.1c-0.8-0.2-1.6-0.7-2.1-1.3c-0.2-0.3,0.1-1.3,0.5-1.7c0.9-0.9,2-1.7,3.1-2.5c2.8-2.1,5.7-4,8.5-6.1
					c6.8-5.1,13.4-10.2,20.2-15.3c0.8-0.6,1.8-1,2.7-1c0.6,0,1.5,0.9,1.7,1.5c0.1,0.4-0.8,1.1-1.3,1.6c-0.2,0.2-0.6,0.1-1,0.1
					c0.9,1.4,1.8,1.9,3.2,1.1c2-1.1,2.8-2.4,2.5-4.5c-0.4-2.8-1.9-4.5-4.3-4.9c-3.4-0.6-6,0.6-8,3.3c-1.1,1.5-1.9,3.1-2.8,4.6
					c-1.1,1.9-2.7,3.2-4.8,3.6c-1.2,0.3-2.4,0.4-3.6,0.6c-1.5,0.2-2.5,1-3.2,2.3c-2.2,4.8-5.8,8.2-11,9.6c-1.2,0.3-2.4,0.7-3.6,1.1
					c-3.5,1.2-4.6,6.4-1.8,8.9c0.4,0.3,0.8,0.6,1.3,0.7c1.3,0.3,2.6,0.7,3.9,0.6c0.9-0.1,2-0.9,2.6-1.6
					C305.5,103.2,305.5,102,304.4,100.9z M370.9,113.1c-0.1-0.1-0.2-0.1-0.3-0.2c1-0.4,2-0.8,2.9-1.2c2.2-0.9,4.4-2.1,6.7-2.7
					c3.3-1,4.8-2.7,4.9-6.2c0-1.8,0.1-3.5,0.3-5.2c0.6-4.7-0.4-9.2-2.1-13.5c-0.2-0.6-0.9-1-1.3-1.5c-0.5,0.4-1.1,0.8-1.3,1.3
					c-0.7,2.3-1.3,4.7-1.8,7.1c-0.3,1.3-0.2,2.7,1.8,2.8c0.5,0,1.1,0.9,1.2,1.5c0.1,0.4-0.8,1.2-1.2,1.2c-1.9-0.2-2.3,1.1-2.5,2.5
					c-0.2,1.1-0.4,2.2-0.8,3.2c-0.5,1.4-0.1,2.2,1.1,3c0.5,0.3,1,1.4,0.8,1.9c-0.3,1-1.3,1-2.2,0.6c-0.4-0.2-1.2-0.3-1.5-0.1
					C373.9,109.4,372.4,111.2,370.9,113.1z M343.7,119.5c-0.1-0.2-0.1-0.3-0.2-0.4c-5.9-9.9-11.9-19.8-17.8-29.7
					c-2-3.3-1.2-3.5-4.7-0.9c-0.1,0.1-0.2,0.3-0.2,0.4c0,0.1,0,0.2,0,0.2c5.9,9.7,11.9,19.4,17.8,29.1
					C339.6,119.7,341.9,120.3,343.7,119.5z M332.2,118.2c2.3,0,2.6-0.7,1.6-2.3c-4.5-7.5-9.1-14.9-13.7-22.4
					c-0.3-0.5-0.7-0.9-1.1-1.3c-1.2-1.1-2.1-0.1-3,0.5c-1.1,0.7-0.5,1.4,0,2.1c1.1,1.7,2.1,3.4,3.3,5.1c3.8,5.7,7.7,11.4,11.5,17.1
					C331.2,117.6,332,118,332.2,118.2z M353.6,103.2c-0.6-3.1-1.1-6.1-1.7-9.2c-0.6-2.7-1.1-5.3-1.8-8c-0.2-0.6-0.9-1-1.4-1.4
					c-0.4,0.5-1.1,0.9-1.2,1.4c-0.3,1.8-0.5,3.5-0.6,5.3c-0.1,0.8,0.2,1.4,1.2,1.6c1.1,0.2,1.7,1,0.9,2.1c-1.7,2.2-1.5,4.3-0.2,6.6
					c0.3,0.5-0.1,1.8-0.4,1.9c-2.2,0.7-2.4,2.7-3.3,4.3c-0.6,1-0.2,1.5,0.9,1.7c1.5,0.2,3,0.4,4.5,0.7c1,0.2,1.7,0,1.9-1
					C352.9,107.2,353.2,105.2,353.6,103.2z M392,109.8c1.8,0.1,2.6-0.8,3.1-2.1c2.3-5.3,4.6-10.6,6.9-16c0.3-0.7,0.1-1.5,0.1-2.3
					c-0.9,0.2-2,0.2-2.6,0.7c-1.4,1.1-2.5,2.6-3.8,3.8c-1.4,1.4-2.6,2.9-1.1,5c0.3,0.3,0.1,1.2-0.3,1.6c-0.2,0.3-1,0.2-1.4,0.3
					c-0.6,0.1-1.3,0.2-1.6,0.5c-0.8,0.7-1.3,1.6-2,2.4c-0.9,1.2-2.3,2.3-1.6,4c0.8,1.8,2.5,1.6,4.1,1.9
					C391.9,109.8,392.1,109.8,392,109.8z M377.9,180.2c0.2-0.1,0.5-0.3,0.7-0.4c-6.4-11.3-12.8-22.5-19.3-34
					c-0.9,0.6-1.7,1.1-2.5,1.7C363.9,158.5,370.9,169.3,377.9,180.2z M352.5,150.7c8.2,10.6,16.3,21,24.4,31.5
					c0.2-0.1,0.3-0.2,0.5-0.3c-7.5-10.9-14.9-21.8-22.5-32.8C354,149.6,353.3,150.1,352.5,150.7z M296.9,47.8
					c-0.2-1.5-1-2.4-2.4-2.7c-1.9-0.4-4.8,1-5.4,2.7c-0.3,0.8-0.1,2.1,0.4,2.9c0.3,0.7,1.6,1.5,2,1.3c1.8-0.9,3.4-2.1,5-3.2
					C296.8,48.6,296.8,48,296.9,47.8z M381.3,117.6c0,1.8,1.4,3.7,2.3,3.4c2.2-0.8,4.3-1.9,5.6-4c0.9-1.5,0.3-2.7-1.5-2.9
					c-2.5-0.3-4.3,1.3-6.1,2.7C381.3,117.1,381.3,117.5,381.3,117.6z"/>
				<path class="st1" d="M386.7,157.6c-0.7-0.1-1.7-0.6-2.1-0.3c-1,0.7-1,3.2-0.1,3.8c0.5,0.4,1.2,0.7,1.7,1.1
					c0.3,0.3,0.5,0.6,0.6,1.2c-2.6-1.1-5.2-1.7-8.2,0.2c0.3-0.9,0.2-1.3,0.4-1.4c2.2-1.9,0.8-4.4,1.1-6.6c0-0.2-0.5-0.5-0.8-0.6
					c-0.5-0.1-1,0.1-1.5-0.1c-0.4-0.1-0.6-0.6-0.9-0.9c0.3-0.2,0.7-0.6,1-0.6c1.9,0.2,2.3-0.9,2.3-2.4c0-1.6,0-3.2,0-4.8
					c-0.1-1.7-0.6-2.2-2.4-2.1c-0.2,0-0.7-0.2-0.7-0.3c0-0.3,0.1-0.7,0.2-0.8c1-0.7,1.9-1.5,3-2c0.4-0.2,1.1,0,1.5,0.3
					c0.6,0.3,1,0.8,1.5,1.3c0.7,0.7,1.2,0.8,1.9,0.1c0.3-0.3,0.7-0.6,1-0.8c0.9-0.7,1.8-1.6,3.1-0.9c1.3,0.8,2.5,1.8,2.5,3.4
					c-0.1,3.1-0.4,6.1-0.6,9.2c0,0.3-0.2,0.7-0.4,0.9c-1.3,1.2-2.7,2.4-4,3.6C386.8,157.9,386.8,157.8,386.7,157.6z M387.8,143.5
					c-0.2-0.2-0.5-0.3-0.7-0.5c-0.9,0.7-2.4,1.3-2.5,2.1c-0.3,2.6-0.2,5.3,0,8c0.1,0.5,1.4,1,2.3,1.3c0.1,0.1,0.8-1,0.9-1.5
					c0.1-1.3,0.1-2.6,0.1-3.9C387.8,147.2,387.8,145.4,387.8,143.5z"/>
				<path class="st1" d="M282.2,90.9c2.3-2,1.3-4.5,1.3-6.8c0-2.2,1.1-4.8-1.6-6.3c1.7-2.6,3.8-2.5,6.5,0c-1.5,4.2-0.4,8.4-0.8,12.6
					c0.8,0,1.4,0,2,0C288.2,92.8,284.8,93.1,282.2,90.9z"/>
				<path class="st1" d="M341.5,177.3c0.3-2,1.6-3.8,3.3-5.4c0.2-0.2,1.2,0,1.2,0.1c0.4,1.8,0.9,3.6,0.8,5.4
					c-0.1,1.4-1.3,2.5-2.9,2.7C342.4,180.2,341.5,179.3,341.5,177.3z"/>
				<path class="st1" d="M347,159.5c0.5,1.7,1.5,3.4,0.4,5.4c-0.6,1.1-1.6,1.8-2.9,1.2c-1.2-0.5-1.3-1.8-0.9-2.7
					c0.7-1.5,1.7-2.8,2.6-4.1C346.5,159.3,346.7,159.4,347,159.5z"/>
				<path class="st1" d="M354,168.6c0.8,1.4,1.9,2.8,1.6,4.6c-0.2,1.5-1.4,2.6-2.6,2.4c-1.1-0.2-1.8-1.5-1.4-2.9
					c0.4-1.4,1.2-2.7,1.8-4.1C353.6,168.6,353.8,168.6,354,168.6z"/>
				<path class="st1" d="M284.9,73.2c0.5-1.1,0.8-2.3,1.5-3.2c0.4-0.5,1.5-0.3,2.4-0.4c-1.4,1.4-2.5,2.5-3.6,3.7
					C285.1,73.3,285,73.2,284.9,73.2z"/>
				<path class="st1" d="M324.2,134.7c0.3-1,0.3-1.7,0.7-2.1c1.9-2.9,3.8-5.7,5.7-8.5c0.2-0.3,0.5-0.6,0.7-0.7
					c0.9-0.2,2.2-0.6,2.7-0.2c0.9,0.8,0.1,1.8-0.7,2.5c-2.9,2.5-4.6,5.7-5.9,9.3c-0.2,0.5-1.1,1.2-1.6,1.1
					C325.1,136,324.6,135.2,324.2,134.7z"/>
				<path class="st1" d="M368.3,126.8c-0.3,0.2-0.8,0.9-1.3,0.9c-1.1,0.2-2.3-1.5-2.3-2.9c0-1,0.4-1.6,1.5-1.6
					C367.1,123.2,368.2,124.9,368.3,126.8z"/>
			</g>
		</g>
		<g>
			<g>
				<path class="st2" d="M293.6,232.8c-1.8-3.1-3.9-5.4-8-5.4h-2.2v30c0,2.3,1.3,3.9,2.9,3.9v0.9h-18.2v-0.9c1.6,0,2.9-1.6,2.9-3.9
					v-30h-2.2c-4.1,0-6.2,2.3-8,5.4h-0.9l1-6.3h32.7l1,6.3H293.6z"/>
				<path class="st2" d="M298.2,241.7c-1.1,0-2-0.9-2-2c0-2.7,5.4-4.8,11.1-4.8c9.1,0,13.7,2.7,13.7,7.9v18.4c0,0.5,0.3,0.6,0.5,0.6
					c0.6,0,0.6-1.6,1.5-1.6c0.5,0,0.8,0.3,0.8,0.8c0,0.3-0.1,0.5-0.3,0.7c-0.8,0.8-2.4,1.4-4.5,1.4c-3.4,0-6.5-1.3-8.2-3.4
					c-1.7,1.8-4.6,3.4-8.8,3.4c-6.7,0-11.1-2.9-11.1-8.4c0-11,18.5-7.9,18.5-15c0-2.4-1.3-3.9-3.4-3.9
					C301.2,235.7,302.2,241.7,298.2,241.7z M305.9,261.3c2.1,0,3.4-1.5,3.4-3.9v-15.3c-1.7,4.2-6.5,9-6.5,15
					C302.8,259.8,304,261.3,305.9,261.3z"/>
				<path class="st2" d="M323.3,235.7c5.5,0,10.2-0.7,13.6-5.6h0.8v5.6h0.7c7.6,0,12.7-3.3,15.6-9.2h0.8v9.2h2.8v0.8
					c-1.6,0-2.8,1.6-2.8,3.9v17.7c0,1.8,0.8,3,1.9,3c2.7,0,3.6-4,4.9-4c0.5,0,0.8,0.3,0.8,0.8c0,0.4-0.3,0.6-0.5,0.8
					c-3.2,3.1-5.7,4.3-9.3,4.3c-5.2,0-9.5-2.9-9.5-7.4v-15.2c0-2.4-1.1-3.9-2.8-3.9c-1.7,0-2.8,1.5-2.8,3.9v20.8
					c0,0.5,0.3,0.6,0.5,0.6c0.6,0,0.6-1.6,1.5-1.6c0.5,0,0.8,0.3,0.8,0.8c0,0.3-0.1,0.5-0.3,0.7c-0.8,0.8-2.4,1.4-4.5,1.4
					c-5.2,0-9.5-2.9-9.5-7.4v-15.2c0-2.3-1.2-3.9-2.8-3.9V235.7z"/>
				<path class="st2" d="M363,248.9c0-8.2,6.7-14.1,15.4-14.1c8.7,0,15.4,5.9,15.4,14.1s-6.7,14.1-15.4,14.1
					C369.7,263,363,257.1,363,248.9z M378.4,262.2c2.8,0,3.3-6,3.3-13.3s-0.5-13.3-3.3-13.3c-2.8,0-3.3,6-3.3,13.3
					S375.7,262.2,378.4,262.2z"/>
				<path class="st2" d="M395.6,248.9c0-8.2,6.7-14.1,15.4-14.1c8.7,0,15.4,5.9,15.4,14.1S419.7,263,411,263
					C402.3,263,395.6,257.1,395.6,248.9z M411,262.2c2.8,0,3.3-6,3.3-13.3s-0.5-13.3-3.3-13.3c-2.8,0-3.3,6-3.3,13.3
					S408.2,262.2,411,262.2z"/>
				<path class="st2" d="M285.2,309.9c0,5.5-5.7,9-14.6,9c-5.1,0-8.8-1.6-12.2-4.3c-0.2-0.2-0.5-0.5-0.5-0.8c0-0.5,0.3-0.8,0.8-0.8
					c1.1,0,2,2.2,4.1,3.3c1.9,1.1,3.9,1.6,6.3,1.6c3.2,0,5.3-1.3,5.3-3.8c0-6.3-15.8-6.4-15.8-15.5c0-5,4.8-7.9,12.1-7.9
					c5.1,0,7.3,1.3,13.9,1.3c6.1,0,10.5-2,10.5-5.4c0-2.5-2.2-4.3-5.3-4.3c-6.4,0-6.4,6.7-9.5,6.7c-0.9,0-1.5-0.7-1.5-1.5
					c0-3.3,5.5-6,11.1-6c4,0,10.2,1.7,10.2,7.9v2.1h2.8v0.8c-1.6,0-2.8,1.6-2.8,3.9V314c0,1.8,0.8,3,1.9,3c2.7,0,3.6-4,4.9-4
					c0.5,0,0.8,0.3,0.8,0.8c0,0.4-0.3,0.6-0.5,0.8c-3.2,3.1-5.7,4.3-9.3,4.3c-5.2,0-9.5-2.9-9.5-7.4v-13.7c0-2.3-0.9-3.4-3.3-3.9
					c-7.1-1.4-10.5-2.3-13.4-2.3c-1.6,0-2.7,0.6-2.7,2.4C269.1,299.9,285.2,299.3,285.2,309.9z"/>
				<path class="st2" d="M322.1,313.3c0,2.4,1.3,3.9,3.4,3.9c2.1,0,3.4-1.5,3.4-3.9v-17c0-2.3-1.2-3.9-2.8-3.9v-0.8h4.8
					c5.2,0,9.5,2.9,9.5,7.4v18.1c0,0.5,0.3,0.6,0.5,0.6c0.6,0,0.6-1.6,1.5-1.6c0.5,0,0.8,0.3,0.8,0.8c0,0.3-0.1,0.5-0.3,0.7
					c-0.8,0.8-2.4,1.4-4.5,1.4c-3.4,0-6.5-1.3-8.2-3.4c-1.7,1.8-4.6,3.4-8.8,3.4c-6.7,0-11.1-2.9-11.1-7.4v-15.2
					c0-2.3-1.2-3.9-2.8-3.9v-0.8h4.8c5.2,0,9.5,2.9,9.5,7.4V313.3z"/>
				<path class="st2" d="M376.4,317.7c0.6,0,0.6-1.6,1.5-1.6c0.5,0,0.8,0.3,0.8,0.8c0,0.3-0.1,0.5-0.3,0.7c-0.8,0.8-2.4,1.4-4.5,1.4
					c-3.7,0-7-1.5-8.6-4c-1.3,2-3.3,4-7.3,4c-7.4,0-13.3-5.9-13.3-14.1s5.9-14.1,13.3-14.1c3.1,0,5.1,1.2,6.4,2.7v-6.3
					c0-2.3-1.2-3.9-2.8-3.9v-0.8h14.4v34.7C375.9,317.5,376.1,317.7,376.4,317.7z M360.7,317.5c1.8,0,3.5-3.1,3.5-6.8V299
					c0-3.8-1.7-6.8-3.5-6.8c-2.6,0-4,5.5-4,12.7S358.2,317.5,360.7,317.5z"/>
				<path class="st2" d="M382.7,296.3c0-2.3-1.2-3.9-2.8-3.9v-0.8h4.8c5.2,0,9.5,2.9,9.5,7.4v14.4c0,2.3,1.2,3.9,2.8,3.9v0.8H380
					v-0.8c1.6,0,2.8-1.6,2.8-3.9V296.3z M387,281.6c3.4,0,6.1,1.9,6.1,4.3s-2.7,4.3-6.1,4.3c-3.4,0-6.1-1.9-6.1-4.3
					C380.9,283.5,383.7,281.6,387,281.6z"/>
				<path class="st2" d="M398.4,304.8c0-8.2,6.7-14.1,15.4-14.1c8.7,0,15.4,5.9,15.4,14.1s-6.7,14.1-15.4,14.1
					C405.1,318.9,398.4,313,398.4,304.8z M413.8,318.1c2.8,0,3.3-6,3.3-13.3s-0.5-13.3-3.3-13.3c-2.8,0-3.3,6-3.3,13.3
					S411.1,318.1,413.8,318.1z"/>
			</g>
		</g>
		<g>
			<path class="st1" d="M330.1,316.5L330.1,316.5c0,0.2-0.1,0.4-0.2,0.7c-0.2,0.3-0.4,0.6-0.6,0.9c-0.3,0.4-0.6,0.7-0.9,1.1
				s-0.7,0.8-1.1,1.2c-0.4,0.5-0.9,0.9-1.4,1.4s-1,0.9-1.6,1.3c-1.1,0.8-2.1,1.2-2.9,1.2c-0.9,0-1.7-0.3-2.2-0.9
				c-0.5-0.6-0.9-1.4-1.1-2.3c-0.2-0.9-0.3-1.8-0.3-2.8c0-0.4,0-1,0.1-1.9c0-0.4,0.1-0.8,0.1-1.1c0-0.3,0.1-0.5,0.2-0.7
				c0.1-0.4,0.3-0.7,0.7-1c0.4-0.3,0.7-0.4,1.1-0.4c0.2,0,0.3,0.2,0.3,0.6c0,0.3,0,0.6-0.1,0.9c-0.1,0.3-0.1,0.7-0.2,1
				c-0.1,0.6-0.2,1.2-0.2,1.7s-0.1,0.9-0.1,1.3c0,0.8,0.1,1.6,0.3,2.4c0.2,0.8,0.6,1.2,1.2,1.2c0.6,0,1.2-0.2,2-0.6
				c0.4-0.2,0.8-0.5,1.1-0.7c0.4-0.3,0.8-0.6,1.1-0.9c0.4-0.3,0.8-0.7,1.1-1c0.4-0.3,0.7-0.7,1.1-1c0.4-0.4,0.7-0.7,0.9-1
				c0.3-0.3,0.5-0.6,0.7-0.8c0,0,0-0.1,0.1-0.2s0.1-0.1,0.1-0.1l0,0c0.1,0,0.1,0,0.1,0.1c0,0,0.1,0.1,0.1,0.2
				C330,316.3,330.1,316.4,330.1,316.5z M322.4,307c0,0.5-0.1,0.9-0.4,1.3c-0.3,0.4-0.6,0.5-1.1,0.5c-0.3,0-0.7,0-1-0.1
				c-0.4-0.1-0.6-0.2-0.6-0.5c0-0.4,0.1-0.7,0.4-1.1c0.2-0.3,0.5-0.6,0.9-0.8c0.3-0.2,0.4-0.2,0.5-0.2c0.4,0,0.8,0.1,1,0.2
				C322.3,306.4,322.4,306.6,322.4,307z"/>
			<path class="st1" d="M349,313.8c0,0.2,0,0.5-0.1,0.8c-0.1,0.3-0.2,0.6-0.4,0.9s-0.3,0.6-0.5,0.9c-0.2,0.3-0.3,0.5-0.4,0.7
				c-0.3,0.4-0.6,0.8-0.9,1.3c-0.3,0.4-0.7,0.9-1.1,1.3c-0.4,0.4-0.8,0.8-1.2,1.2c-0.4,0.4-0.9,0.7-1.4,1c-0.5,0.3-1,0.5-1.5,0.7
				c-0.5,0.2-1,0.2-1.5,0.2c-0.4,0-0.7-0.1-1-0.2c-0.3-0.1-0.6-0.3-0.8-0.5c-0.2-0.2-0.4-0.5-0.5-0.8c-0.1-0.3-0.2-0.7-0.2-1.1
				c0-0.2,0-0.4,0-0.7s0-0.6,0.1-0.9c0-0.3,0-0.6,0-1c0-0.3,0-0.6,0-0.9c0-0.3-0.1-0.5-0.1-0.6s-0.1-0.2-0.3-0.2
				c-0.1,0-0.3,0.1-0.5,0.2s-0.4,0.4-0.6,0.6c-0.2,0.2-0.5,0.5-0.7,0.8s-0.5,0.6-0.7,0.9c-0.2,0.3-0.4,0.6-0.6,0.8
				c-0.2,0.3-0.4,0.5-0.5,0.6c-0.3,0.4-0.6,0.8-0.8,1.1s-0.4,0.6-0.6,0.8c-0.2,0.2-0.3,0.4-0.5,0.6c-0.1,0.2-0.3,0.4-0.4,0.6
				c-0.2,0.3-0.3,0.5-0.5,0.6c-0.1,0.1-0.2,0.2-0.3,0.2c-0.2,0-0.4,0-0.5,0s-0.3-0.1-0.4-0.1c-0.1-0.1-0.2-0.2-0.3-0.3
				s-0.1-0.3-0.1-0.5c0-0.3,0-0.6,0.1-0.9s0.1-0.6,0.1-1c0.1-0.3,0.1-0.7,0.2-1.1c0.1-0.4,0.1-0.8,0.2-1.2c0.1-0.5,0.1-0.9,0.1-1.3
				c0-0.4,0.1-0.7,0.1-1.1c0-0.3,0-0.7,0-1c0-0.3,0-0.6,0-0.9c0-0.1,0-0.3,0.1-0.4c0.1-0.2,0.1-0.3,0.2-0.4c0.1-0.1,0.2-0.3,0.3-0.3
				c0.1-0.1,0.2-0.1,0.3-0.1c0.2,0,0.4,0,0.6,0.1c0.1,0.1,0.2,0.2,0.3,0.3c0.1,0.1,0.1,0.3,0.1,0.5c0,0.2,0,0.4,0,0.7
				c0,0.4,0,0.9-0.1,1.4s-0.2,1-0.3,1.6c-0.1,0.5-0.2,1-0.3,1.5c-0.1,0.5-0.1,0.9-0.1,1.3c0.2-0.1,0.5-0.4,0.8-0.7
				c0.3-0.3,0.6-0.7,0.9-1.1s0.6-0.8,0.9-1.3s0.6-0.8,0.9-1.1c0.3-0.4,0.6-0.7,0.9-1c0.3-0.3,0.5-0.5,0.7-0.7s0.4-0.4,0.6-0.5
				c0.2-0.1,0.4-0.3,0.6-0.4c0.1-0.1,0.2-0.1,0.3-0.2c0.1,0,0.3-0.1,0.4-0.1c0.1,0,0.3-0.1,0.4-0.1c0.1,0,0.2,0,0.3,0
				c0.1,0,0.2,0,0.3,0.1c0.1,0.1,0.2,0.2,0.3,0.3c0.1,0.1,0.2,0.2,0.2,0.3c0.1,0.1,0.1,0.2,0.1,0.3c0,0.3,0,0.7-0.1,1.2
				c0,0.5-0.1,1-0.1,1.5s-0.1,1.1-0.1,1.6c0,0.5-0.1,0.9-0.1,1.3c0,0.1,0,0.2,0.1,0.4c0,0.1,0.1,0.3,0.2,0.4
				c0.1,0.1,0.1,0.2,0.3,0.3c0.1,0.1,0.2,0.1,0.4,0.1c0.5,0,1-0.1,1.6-0.3c0.5-0.2,1-0.5,1.5-0.8c0.5-0.4,1-0.8,1.5-1.2
				c0.5-0.5,0.9-1,1.3-1.5c0.3-0.3,0.5-0.7,0.7-1c0.2-0.3,0.4-0.7,0.6-1c0.2-0.3,0.3-0.6,0.5-0.8c0.1-0.2,0.2-0.4,0.3-0.6
				c0.1-0.1,0.1-0.2,0.3-0.3s0.2-0.1,0.3-0.1c0,0,0.1,0,0.1,0.1c0,0,0.1,0.1,0.1,0.1s0.1,0.1,0.1,0.2S349,313.8,349,313.8z"/>
			<path class="st1" d="M362.6,322.7c0,0.2-0.1,0.3-0.3,0.5c-0.2,0.2-0.4,0.3-0.7,0.4c-0.3,0.1-0.5,0.2-0.8,0.3
				c-0.3,0.1-0.5,0.1-0.7,0.1c-0.7,0-1.4-0.1-2-0.2c-0.6-0.1-1.2-0.4-1.8-0.6c-0.5-0.2-1-0.5-1.5-0.7c-0.5-0.3-0.9-0.6-1.4-0.9
				c-0.5-0.3-0.9-0.6-1.4-0.9c-0.5-0.3-1-0.6-1.5-0.9c0,0-0.1,0.1-0.1,0.1s-0.1,0.1-0.2,0.2c-0.1,0.1-0.2,0.1-0.2,0.2
				s-0.2,0.1-0.2,0.2c-0.2,0.2-0.4,0.3-0.5,0.5s-0.2,0.3-0.3,0.4s-0.1,0.2-0.2,0.4c0,0.1-0.1,0.2-0.2,0.4c0,0.1,0,0.3,0,0.5
				c0,0.2-0.1,0.4-0.1,0.6c0,0.5-0.1,0.9-0.3,1.1c-0.2,0.3-0.6,0.4-1,0.4c-0.3,0-0.5-0.1-0.5-0.2c-0.1-0.1-0.1-0.4-0.1-0.7
				c0-0.1,0-0.3,0.1-0.6c0-0.3,0.1-0.7,0.1-1.1c0.1-0.4,0.1-0.9,0.2-1.5c0.1-0.5,0.2-1.1,0.2-1.7c0.1-0.6,0.2-1.1,0.2-1.7
				s0.2-1.1,0.2-1.6c0.1-0.5,0.1-0.9,0.2-1.2c0.1-0.4,0.1-0.6,0.1-0.8c0-0.1,0-0.4,0.1-0.6c0-0.3,0-0.6,0.1-0.9
				c0-0.4,0.1-0.7,0.1-1.1c0-0.4,0.1-0.8,0.1-1.1s0.1-0.6,0.1-0.9c0-0.3,0-0.5,0-0.6l0.1-1.1c0-0.1,0.1-0.3,0.2-0.4
				c0.1-0.1,0.2-0.2,0.4-0.3c0.1-0.1,0.3-0.2,0.5-0.2s0.3-0.1,0.5-0.1c0.1,0,0.2,0,0.4,0.1s0.2,0.1,0.3,0.2c0.1,0.1,0.1,0.2,0.1,0.3
				s0,0.2,0,0.2c0,0.1,0,0.3-0.1,0.6c0,0.3-0.1,0.6-0.2,1c-0.1,0.4-0.1,0.9-0.2,1.3s-0.2,1-0.3,1.5c-0.1,0.5-0.2,1-0.3,1.5
				c-0.1,0.5-0.2,0.9-0.2,1.3s-0.1,0.7-0.2,0.9c0,0.2-0.1,0.4-0.1,0.5c-0.1,0.9-0.2,1.7-0.3,2.4s-0.2,1.2-0.2,1.6
				c0.1-0.1,0.2-0.2,0.4-0.5c0.2-0.2,0.4-0.5,0.7-0.8c0.3-0.3,0.6-0.6,0.9-1c0.3-0.3,0.6-0.7,0.9-1c0.3-0.3,0.5-0.6,0.7-0.8
				c0.2-0.2,0.3-0.4,0.4-0.5c0.3-0.4,0.6-0.8,1-1.3c0.3-0.4,0.7-0.8,1-1.2s0.7-0.6,1-0.8c0.3-0.2,0.7-0.3,1-0.3
				c0.5,0,0.7,0.1,0.7,0.4c0,0.1,0,0.3-0.1,0.5c-0.1,0.2-0.2,0.4-0.3,0.5c-0.1,0.2-0.2,0.4-0.4,0.5c-0.1,0.2-0.2,0.3-0.3,0.4
				c-0.1,0.1-0.3,0.3-0.5,0.5c-0.2,0.2-0.4,0.4-0.6,0.6c-0.2,0.2-0.5,0.4-0.7,0.7c-0.2,0.2-0.5,0.5-0.7,0.7
				c-0.2,0.2-0.4,0.4-0.6,0.6s-0.3,0.3-0.4,0.4c-0.1,0.1-0.2,0.2-0.3,0.3c-0.1,0.1-0.2,0.2-0.3,0.2s-0.2,0.2-0.2,0.3
				c-0.1,0.1-0.2,0.2-0.3,0.3c0.8,0.5,1.5,0.9,2.3,1.3c0.8,0.4,1.5,0.8,2.3,1.2c0.8,0.4,1.5,0.7,2.3,0.9c0.7,0.3,1.5,0.4,2.2,0.5
				c0.3,0,0.5,0.1,0.7,0.1c0.2,0,0.4,0,0.5,0c0.1,0,0.3,0,0.3,0C362.6,322.5,362.6,322.6,362.6,322.7z"/>
			<path class="st1" d="M390,315.1c0,0.2-0.1,0.5-0.2,0.9c0,0.1-0.1,0.2-0.2,0.3c-0.1,0.1-0.2,0.2-0.3,0.3c-0.1,0.1-0.2,0.2-0.3,0.3
				s-0.2,0.1-0.2,0.2c-0.3,0.2-0.6,0.4-1,0.7c-0.4,0.3-0.9,0.5-1.4,0.8c-0.5,0.3-1,0.6-1.6,0.9c-0.6,0.3-1.1,0.6-1.7,0.9
				s-1.1,0.6-1.6,0.8c-0.5,0.3-1,0.5-1.4,0.7c-0.3,0.1-0.6,0.3-0.9,0.5c-0.3,0.2-0.6,0.3-0.8,0.5s-0.5,0.3-0.8,0.4
				c-0.3,0.1-0.6,0.2-0.9,0.2c-0.2,0-0.4,0-0.5-0.1c-0.2,0-0.3-0.1-0.5-0.2c-0.1-0.1-0.2-0.2-0.3-0.4s-0.1-0.3-0.1-0.5
				c0-0.1,0-0.2,0.1-0.3s0.2-0.2,0.3-0.3c0.1-0.1,0.2-0.1,0.4-0.2c0.1-0.1,0.3-0.1,0.4-0.2c0.1-0.1,0.3-0.1,0.5-0.2
				c0.2-0.1,0.4-0.1,0.6-0.2c0.2-0.1,0.4-0.1,0.6-0.2c0.2-0.1,0.3-0.1,0.5-0.2c0.3-0.1,0.5-0.3,0.7-0.5c0.2-0.2,0.4-0.4,0.6-0.7
				c0.2-0.2,0.4-0.5,0.5-0.8c0.2-0.3,0.3-0.5,0.5-0.8c0.1-0.2,0.2-0.3,0.3-0.5c0.1-0.2,0.2-0.4,0.2-0.6c0.1-0.2,0.1-0.4,0.2-0.6
				c0-0.2,0.1-0.3,0.1-0.5c0-0.5-0.1-1-0.4-1.3c-0.2-0.3-0.5-0.5-0.9-0.5c-0.2,0-0.5,0.1-0.8,0.2c-0.3,0.1-0.6,0.3-0.9,0.5
				c-0.3,0.2-0.5,0.4-0.8,0.6c-0.2,0.2-0.4,0.4-0.6,0.6c-0.4,0.4-0.7,0.8-1,1.2s-0.6,0.9-0.9,1.4s-0.5,0.9-0.8,1.4
				c-0.3,0.5-0.5,0.9-0.7,1.4c-0.1,0.4-0.2,0.8-0.3,1.2c-0.1,0.4-0.2,0.9-0.2,1.5c-0.1,1.1-0.2,2-0.2,2.8c0,0.8-0.1,1.6-0.3,2.3
				c0,0.2-0.2,0.5-0.3,0.7c-0.2,0.2-0.4,0.3-0.7,0.3c-0.1,0-0.2,0-0.3-0.1s-0.2-0.1-0.3-0.2c-0.1-0.1-0.2-0.2-0.3-0.3
				s-0.1-0.2-0.1-0.3c0-0.3,0-0.6,0.1-1c0-0.4,0.1-0.8,0.1-1.1s0.1-0.7,0.1-1c0-0.3,0.1-0.5,0.1-0.7c0.1-0.8,0.2-1.7,0.3-2.6
				s0.2-1.9,0.2-3c0-0.2,0-0.5,0-0.9s0-0.8,0-1.2s0-0.8,0-1.1s0-0.6,0-0.7c0.1-1.5,0.5-2.2,1.2-2.2c0.1,0,0.3,0,0.4,0.1
				s0.2,0.2,0.3,0.3c0.1,0.1,0.2,0.2,0.2,0.4c0.1,0.1,0.1,0.3,0.1,0.4c0,0.3,0,0.6-0.1,0.9s-0.1,0.6-0.2,1s-0.1,0.7-0.2,1
				s-0.1,0.6-0.1,0.9c0,0.2,0,0.3,0.1,0.3c0.5-1,1.1-1.8,1.6-2.6c0.5-0.7,1-1.4,1.6-1.9c0.3-0.3,0.7-0.6,1-0.9
				c0.3-0.3,0.7-0.5,1-0.7s0.7-0.3,1-0.4c0.4-0.1,0.7-0.2,1.1-0.2c0.3,0,0.6,0.1,0.8,0.2c0.3,0.1,0.6,0.4,0.8,0.6
				c0.2,0.3,0.4,0.6,0.6,1c0.2,0.4,0.2,0.9,0.2,1.4c0,0.4-0.1,0.8-0.2,1.2c-0.1,0.4-0.3,0.8-0.5,1.2c-0.2,0.4-0.5,0.7-0.7,1.1
				c-0.3,0.4-0.6,0.7-0.9,1c0.6-0.2,1.3-0.5,2-0.9s1.3-0.7,2-1.1c0.7-0.4,1.3-0.8,2-1.3c0.7-0.4,1.3-0.9,1.9-1.3
				c0.2-0.1,0.3-0.2,0.4-0.3c0.1-0.1,0.2-0.1,0.4-0.1c0.1,0,0.2,0.1,0.2,0.2C390,314.9,390,315,390,315.1z"/>
			<path class="st1" d="M405.1,316.2c0,0.1,0,0.2,0,0.3s-0.1,0.3-0.1,0.4s-0.1,0.3-0.1,0.4c-0.1,0.1-0.1,0.2-0.2,0.3
				c0,0.1-0.1,0.1-0.2,0.3s-0.2,0.2-0.3,0.3c-0.1,0.1-0.2,0.3-0.4,0.4c-0.1,0.1-0.3,0.3-0.4,0.4c-0.5,0.4-1,0.9-1.4,1.3
				s-0.9,0.8-1.4,1.1s-1,0.6-1.5,0.8c-0.5,0.2-1.1,0.3-1.7,0.3c-0.3,0-0.6-0.1-0.9-0.2s-0.6-0.3-0.8-0.5c-0.3-0.2-0.5-0.4-0.7-0.7
				c-0.2-0.3-0.3-0.6-0.4-0.9c-0.2,0.2-0.5,0.5-0.7,0.7c-0.2,0.3-0.5,0.5-0.8,0.8c-0.3,0.3-0.5,0.5-0.8,0.7
				c-0.3,0.2-0.6,0.5-0.9,0.7c-0.2,0.1-0.4,0.2-0.6,0.4c-0.2,0.1-0.5,0.2-0.7,0.3c-0.3,0.1-0.5,0.2-0.8,0.3
				c-0.3,0.1-0.5,0.1-0.7,0.1c-0.3,0-0.6-0.1-0.8-0.3c-0.2-0.2-0.4-0.4-0.6-0.7c-0.2-0.3-0.3-0.6-0.3-0.9s-0.1-0.6-0.1-0.9
				c0-0.5,0.1-1,0.2-1.6c0.1-0.5,0.3-1.1,0.6-1.6c0.2-0.5,0.5-1,0.8-1.5c0.3-0.5,0.6-0.9,0.9-1.2c0.3-0.4,0.6-0.7,1.1-1.1
				c0.4-0.4,0.8-0.7,1.3-1c0.4-0.3,0.9-0.5,1.3-0.7s0.8-0.3,1.1-0.3c0.2,0,0.3,0,0.5,0c0.2,0,0.4,0,0.5,0c0.2,0,0.4,0.1,0.5,0.1
				s0.3,0.1,0.5,0.2c0.1,0,0.2,0.1,0.2,0.3c0.1,0.1,0.2,0.3,0.3,0.4c0.1,0.2,0.2,0.3,0.2,0.5c0.1,0.2,0.1,0.3,0.1,0.4
				c0,0.3-0.1,0.6-0.2,1c-0.1,0.5-0.2,1-0.3,1.5c-0.1,0.4-0.2,0.9-0.2,1.4c0,0.3,0,0.5,0.1,0.8c0.1,0.3,0.2,0.5,0.4,0.8
				c0.2,0.2,0.4,0.4,0.6,0.6c0.2,0.1,0.5,0.2,0.8,0.2c0.5,0,1-0.1,1.5-0.3c0.5-0.2,1-0.5,1.5-0.8s1-0.7,1.5-1.2
				c0.5-0.5,1-0.9,1.5-1.5c0,0,0.1-0.1,0.2-0.2s0.2-0.2,0.3-0.3c0.1-0.1,0.2-0.2,0.3-0.3c0.1-0.1,0.2-0.1,0.2-0.1
				C405.1,315.7,405.1,315.8,405.1,316.2z M394.7,315.2c0-0.1,0-0.3,0-0.5c0-0.2-0.1-0.4-0.2-0.5c-0.1-0.1-0.2-0.2-0.3-0.2
				c-0.1,0-0.3,0-0.4,0c-0.3,0-0.5,0-0.8,0.1c-0.3,0.1-0.5,0.2-0.7,0.4c-0.2,0.2-0.5,0.3-0.7,0.5c-0.2,0.2-0.4,0.4-0.6,0.6
				c-0.2,0.2-0.4,0.4-0.6,0.7c-0.2,0.3-0.4,0.6-0.6,0.9c-0.2,0.3-0.4,0.6-0.6,1c-0.2,0.3-0.3,0.7-0.5,1c-0.1,0.3-0.2,0.7-0.3,1
				c-0.1,0.3-0.1,0.6-0.1,0.9c0,0.1,0,0.2,0,0.3c0,0.1,0,0.3,0.1,0.4s0.1,0.2,0.2,0.3c0.1,0.1,0.2,0.1,0.3,0.1
				c0.4,0,0.8-0.1,1.3-0.3c0.7-0.3,1.4-0.7,2-1.3c0.6-0.5,1.1-1.2,1.5-1.9C394.4,317.6,394.7,316.4,394.7,315.2z"/>
			<path class="st1" d="M415.6,315.7c0,0.1,0,0.3-0.1,0.4c-0.1,0.2-0.2,0.3-0.3,0.5c-0.1,0.2-0.2,0.3-0.4,0.5
				c-0.1,0.2-0.3,0.3-0.4,0.5c-0.1,0.1-0.2,0.3-0.4,0.4s-0.3,0.3-0.5,0.5s-0.4,0.4-0.6,0.6c-0.2,0.2-0.5,0.5-0.8,0.8
				c-0.3,0.3-0.6,0.5-0.9,0.8c-0.3,0.3-0.7,0.6-1,0.9c-0.3,0.3-0.7,0.5-1,0.8c-0.3,0.3-0.6,0.5-0.8,0.7c-0.6,0.5-1.1,0.9-1.6,1.3
				s-1,0.8-1.5,1.1c-1,0.7-1.7,1-2.3,1c-0.2,0-0.4-0.1-0.7-0.2c-0.3-0.1-0.4-0.2-0.4-0.4c0-0.5,0.2-0.9,0.6-1.2
				c0.4-0.3,1-0.6,1.8-0.9c0.8-0.3,1.4-0.6,1.8-0.9c0.4-0.3,0.6-0.7,0.6-1.2c0-0.3-0.3-0.8-0.8-1.6c-0.3-0.4-0.5-0.8-0.7-1.1
				c-0.2-0.3-0.4-0.6-0.5-0.9c-0.3-0.5-0.4-1.1-0.4-1.7c0-0.5,0.1-1.1,0.3-1.6c0.1-0.3,0.2-0.7,0.5-1c0.2-0.3,0.4-0.6,0.7-0.9
				c0.2-0.3,0.5-0.5,0.7-0.6s0.5-0.2,0.7-0.2c0.7,0,1,0.4,1,1.2c0,0.3-0.1,0.6-0.3,0.9c-0.1,0.1-0.2,0.3-0.4,0.4s-0.3,0.3-0.5,0.5
				c-0.2,0.2-0.4,0.3-0.5,0.4c-0.1,0.1-0.2,0.2-0.3,0.3c0,0.4,0.1,0.9,0.4,1.4c0.1,0.3,0.3,0.6,0.5,0.9c0.2,0.3,0.4,0.6,0.6,1
				c0.2,0.4,0.4,0.7,0.6,1c0.2,0.3,0.3,0.5,0.4,0.6c0,0,0.1,0,0.1,0c0.1,0,0.3-0.1,0.6-0.2c0.3-0.2,0.6-0.4,1-0.6
				c0.4-0.3,0.8-0.6,1.2-0.9s0.9-0.7,1.3-1.1c0.5-0.4,0.8-0.8,1.1-1.1c0.3-0.3,0.6-0.6,0.8-0.9c0.3-0.3,0.5-0.5,0.6-0.6
				c0.1-0.1,0.2-0.2,0.2-0.2c0.1,0,0.1,0,0.2,0.1s0.1,0.1,0.1,0.2s0.1,0.2,0.1,0.2S415.6,315.6,415.6,315.7z"/>
			<path class="st1" d="M415.5,313.3c0.1-0.2,0.2-0.3,0.4-0.5c0.2-0.2,0.3-0.3,0.5-0.5c0.2-0.1,0.3-0.2,0.5-0.3
				c0.2-0.1,0.3-0.1,0.4-0.1c0.1,0,0.2,0,0.3,0.1c0.1,0,0.2,0.1,0.3,0.2s0.1,0.2,0.2,0.3c0.1,0.1,0.1,0.2,0.1,0.3
				c0,0.2-0.1,0.4-0.2,0.6c-0.1,0.2-0.2,0.4-0.4,0.5c-0.2,0.2-0.3,0.4-0.5,0.5c-0.2,0.2-0.4,0.3-0.5,0.5c-0.2,0.2-0.3,0.3-0.4,0.4
				c-0.1,0.1-0.2,0.3-0.2,0.4c0.1,0.3,0.3,0.5,0.5,0.7c0.2,0.2,0.4,0.5,0.7,0.7c0.3,0.2,0.5,0.5,0.8,0.7c0.3,0.2,0.6,0.5,0.9,0.7
				c0.2,0.1,0.3,0.3,0.5,0.4c0.1,0.1,0.2,0.3,0.3,0.4s0.2,0.2,0.2,0.3c0.1,0.1,0.1,0.1,0.1,0.1c0.1,0,0.1,0,0.3-0.1
				c0.1-0.1,0.2-0.2,0.4-0.3c0.1-0.1,0.3-0.2,0.5-0.4c0.2-0.2,0.4-0.3,0.5-0.5c0.5-0.4,0.9-0.9,1.4-1.4s0.9-1,1.3-1.4s0.7-0.8,1-1.1
				c0.3-0.3,0.5-0.4,0.6-0.4c0.1,0,0.2,0,0.2,0.1s0.1,0.1,0.1,0.1s0,0.1,0,0.2s0,0.1,0,0.2c0,0.1-0.1,0.2-0.2,0.4
				c-0.1,0.2-0.3,0.5-0.5,0.7c-0.2,0.3-0.4,0.6-0.7,0.9c-0.3,0.3-0.5,0.6-0.8,1c-0.3,0.3-0.5,0.6-0.7,0.9c-0.2,0.3-0.5,0.5-0.6,0.7
				c-0.2,0.2-0.4,0.4-0.6,0.6c-0.2,0.2-0.4,0.3-0.5,0.5c-0.2,0.2-0.4,0.4-0.6,0.6c-0.2,0.2-0.5,0.5-0.8,0.8
				c-0.3,0.3-0.5,0.5-0.7,0.8c-0.2,0.3-0.4,0.5-0.7,0.8c-0.2,0.3-0.4,0.5-0.7,0.8c-0.2,0.3-0.5,0.5-0.7,0.7c-0.4,0.4-0.9,0.7-1.2,1
				c-0.4,0.3-0.8,0.4-1.2,0.4c-0.3,0-0.6-0.1-0.8-0.2c-0.2-0.1-0.3-0.3-0.3-0.5c0-0.2,0.1-0.5,0.3-0.7c0.2-0.2,0.4-0.4,0.7-0.6
				c0.3-0.2,0.6-0.4,0.9-0.5s0.6-0.3,0.9-0.5c0.6-0.3,1-0.7,1.3-1.1c0.3-0.4,0.4-0.8,0.4-1.2c0-0.3-0.2-0.6-0.5-1s-0.9-0.8-1.7-1.3
				c-0.3-0.2-0.5-0.3-0.7-0.5s-0.4-0.4-0.5-0.6c-0.1-0.2-0.3-0.4-0.3-0.6c-0.1-0.2-0.1-0.4-0.1-0.5c0-0.3,0-0.5,0-0.8
				c0-0.2,0.1-0.5,0.2-0.7c0.1-0.2,0.2-0.5,0.3-0.7C415.1,313.9,415.3,313.6,415.5,313.3z"/>
			<path class="st1" d="M436.9,316.5c0,0.2-0.1,0.4-0.2,0.7c-0.2,0.3-0.4,0.6-0.6,1c-0.3,0.4-0.6,0.7-0.9,1.1s-0.7,0.8-1.1,1.2
				c-0.4,0.5-0.9,0.9-1.4,1.4s-1,0.9-1.6,1.3c-1.1,0.8-2.1,1.2-2.9,1.2c-0.9,0-1.7-0.3-2.2-0.9c-0.5-0.6-0.9-1.4-1.1-2.3
				c-0.2-0.9-0.3-1.8-0.3-2.8c0-0.4,0-1,0.1-1.9c0-0.4,0.1-0.8,0.1-1.1c0-0.3,0.1-0.5,0.2-0.7c0.1-0.4,0.3-0.7,0.7-1
				c0.4-0.3,0.7-0.4,1.1-0.4c0.2,0,0.3,0.2,0.3,0.6c0,0.3,0,0.6-0.1,0.9c-0.1,0.3-0.1,0.7-0.2,1c-0.1,0.6-0.2,1.2-0.2,1.7
				c0,0.5-0.1,0.9-0.1,1.3c0,0.8,0.1,1.6,0.3,2.4c0.2,0.8,0.6,1.2,1.2,1.2c0.6,0,1.2-0.2,2-0.6c0.4-0.2,0.8-0.5,1.1-0.7
				c0.4-0.3,0.8-0.6,1.1-0.9c0.4-0.3,0.8-0.7,1.1-1c0.4-0.3,0.7-0.7,1.1-1s0.7-0.7,0.9-1c0.3-0.3,0.5-0.6,0.7-0.8c0,0,0,0,0-0.1
				c0,0,0-0.1,0.1-0.1c0,0,0-0.1,0.1-0.1s0,0,0.1,0c0.1,0,0.2,0.1,0.2,0.3C436.9,316.3,436.9,316.4,436.9,316.5z M429.2,307
				c0,0.5-0.1,0.9-0.4,1.3c-0.3,0.4-0.6,0.5-1.1,0.5c-0.3,0-0.7,0-1-0.1c-0.4-0.1-0.6-0.2-0.6-0.5c0-0.4,0.1-0.7,0.4-1.1
				c0.2-0.3,0.5-0.6,0.9-0.8c0.3-0.2,0.4-0.2,0.5-0.2c0.4,0,0.8,0.1,1,0.2C429.1,306.4,429.2,306.6,429.2,307z"/>
			<path class="st1" d="M451.4,313.8c0,0.1,0,0.3-0.1,0.4c-0.1,0.2-0.2,0.3-0.4,0.5c-0.1,0.2-0.3,0.3-0.5,0.5
				c-0.2,0.2-0.4,0.3-0.6,0.4c-0.2,0.1-0.4,0.2-0.5,0.3c-0.2,0.1-0.3,0.2-0.4,0.2c-0.2,0.1-0.5,0.2-0.8,0.2c-0.3,0.1-0.7,0.1-1,0.2
				c-0.4,0-0.7,0.1-1.1,0.1c-0.3,0-0.6,0-0.9,0c-0.1,0-0.2,0-0.4,0c-0.2,0-0.3-0.1-0.5-0.1c-0.2,0-0.3-0.1-0.5-0.2
				c-0.2-0.1-0.3-0.1-0.3-0.2c0.1,0.3,0.1,0.6,0.2,0.9c0.1,0.3,0.1,0.6,0.1,0.9c0,0.1,0,0.3-0.1,0.5c0,0.2-0.1,0.4-0.1,0.6
				c-0.1,0.2-0.1,0.4-0.2,0.6c-0.1,0.2-0.1,0.3-0.2,0.5c-0.2,0.3-0.4,0.7-0.6,0.9c-0.2,0.3-0.5,0.5-0.7,0.8
				c-0.3,0.2-0.6,0.5-0.9,0.7c-0.3,0.2-0.7,0.4-1.2,0.6c-0.5,0.2-0.9,0.3-1.4,0.4s-1,0.1-1.5,0.1c-0.3,0-0.6-0.1-0.9-0.3
				c-0.3-0.2-0.5-0.4-0.6-0.8c-0.2-0.3-0.3-0.7-0.4-1.1c-0.1-0.4-0.1-0.8-0.1-1.3c0-0.1,0-0.3,0-0.4c0-0.2,0-0.3,0.1-0.5
				s0.1-0.4,0.1-0.5c0-0.2,0.1-0.3,0.1-0.4c0.1-0.3,0.3-0.7,0.5-1.1c0.2-0.4,0.4-0.9,0.7-1.3c0.3-0.4,0.6-0.9,0.9-1.3
				c0.3-0.4,0.7-0.8,1.1-1.1c0.4-0.3,0.7-0.6,1.1-0.8c0.4-0.2,0.8-0.3,1.2-0.3c0.1,0,0.2,0,0.3,0.1s0.2,0.1,0.2,0.2s0.1,0.1,0.2,0.2
				c0,0.1,0.1,0.1,0.2,0.2c0,0,0.1,0.1,0.1,0.1c0.1,0,0.1,0,0.2,0c0.1,0,0.2,0,0.3,0c0.1,0,0.3,0.1,0.5,0.3c0.2,0.2,0.4,0.4,0.7,0.6
				c0.2,0.2,0.5,0.4,0.7,0.6c0.2,0.2,0.5,0.3,0.6,0.3c0.2,0,0.4,0,0.7,0c0.2,0,0.5,0,0.7,0c0.3,0,0.5,0,0.7-0.1
				c0.2,0,0.5-0.1,0.7-0.1c0.1,0,0.2-0.1,0.4-0.1c0.2-0.1,0.4-0.1,0.7-0.2c0.3-0.1,0.6-0.2,0.9-0.2c0.3-0.1,0.6-0.2,0.8-0.2
				c0.3-0.1,0.5-0.1,0.6-0.2c0.2,0,0.3-0.1,0.3-0.1c0,0,0.1,0,0.1,0C451.4,313.7,451.4,313.7,451.4,313.8z M442.3,315.7
				c0-0.2-0.1-0.3-0.3-0.5c-0.1-0.1-0.3-0.3-0.5-0.4c-0.2-0.1-0.4-0.2-0.6-0.3s-0.4-0.1-0.5-0.1c-0.1,0-0.3,0-0.4,0.1
				s-0.3,0.1-0.4,0.2s-0.3,0.2-0.4,0.2c-0.1,0.1-0.2,0.2-0.3,0.3c-0.3,0.3-0.6,0.6-0.9,1.1c-0.3,0.5-0.5,1-0.7,1.5
				c-0.2,0.5-0.4,1.1-0.5,1.6c-0.1,0.5-0.2,1-0.2,1.4c0,0.2,0,0.3,0.1,0.5s0.1,0.3,0.3,0.4c0.1,0.1,0.2,0.2,0.4,0.3
				c0.1,0.1,0.3,0.1,0.5,0.1c0.5,0,0.9-0.1,1.3-0.3s0.8-0.4,1.1-0.7c0.3-0.3,0.6-0.6,0.9-1c0.2-0.4,0.5-0.8,0.6-1.3
				c0.2-0.5,0.3-1,0.4-1.5C442.2,316.7,442.3,316.2,442.3,315.7z"/>
			<path class="st1" d="M465.4,320.6c0,0.3-0.1,0.6-0.3,0.9c-0.2,0.3-0.5,0.6-0.8,0.9c-0.4,0.3-0.8,0.5-1.4,0.7s-1.2,0.3-1.8,0.3
				c-0.7,0-1.3-0.1-1.9-0.4c-0.5-0.2-1-0.6-1.4-1.2s-0.7-1.2-0.8-2c-0.2-0.8-0.3-1.8-0.3-2.9c-0.1,0.1-0.3,0.2-0.5,0.5
				c-0.2,0.2-0.5,0.5-0.8,0.8c-0.3,0.3-0.6,0.7-0.9,1c-0.3,0.4-0.6,0.7-0.9,1.1c-0.3,0.3-0.6,0.7-0.8,1c-0.2,0.3-0.4,0.5-0.5,0.7
				c-0.2,0.3-0.4,0.5-0.5,0.7c-0.1,0.2-0.2,0.4-0.3,0.5c-0.1,0.1-0.2,0.2-0.3,0.3c-0.1,0.1-0.3,0.1-0.4,0.1c-0.2,0-0.3,0-0.5-0.1
				c-0.1-0.1-0.3-0.1-0.4-0.2c-0.1-0.1-0.2-0.2-0.2-0.3c-0.1-0.1-0.1-0.2-0.1-0.3c0-0.1,0-0.3,0-0.5c0-0.2,0-0.4,0.1-0.6
				c0-0.2,0.1-0.4,0.1-0.6s0.1-0.4,0.1-0.5c0.1-0.4,0.2-0.9,0.3-1.5c0.1-0.6,0.2-1.2,0.2-2c0-0.5,0.1-1,0.1-1.4s0.1-0.9,0.1-1.4
				c0-0.2,0-0.5,0.1-0.7c0.1-0.2,0.1-0.4,0.3-0.6s0.3-0.3,0.4-0.4c0.2-0.1,0.4-0.2,0.6-0.2c0.2,0,0.3,0,0.4,0.1s0.2,0.1,0.3,0.2
				c0.1,0.1,0.1,0.2,0.1,0.3s0,0.2,0,0.3c0,0.1,0,0.2,0,0.3c0,0.1,0,0.2,0,0.3c0,0,0,0.1,0,0.3c0,0.2-0.1,0.3-0.1,0.6
				c0,0.2-0.1,0.5-0.2,0.8c-0.1,0.3-0.1,0.6-0.2,0.9c-0.1,0.6-0.2,1.1-0.3,1.4c-0.1,0.4-0.1,0.7-0.1,0.9c0,0.3,0,0.5-0.1,0.7
				c0,0.2,0,0.5-0.1,0.8c0.2-0.2,0.4-0.5,0.7-0.9c0.3-0.3,0.6-0.7,1-1.1c0.3-0.4,0.7-0.7,1-1.1s0.6-0.6,0.7-0.9
				c0.2-0.3,0.5-0.6,0.7-0.9c0.2-0.3,0.5-0.5,0.7-0.7c0.3-0.2,0.5-0.3,0.8-0.4c0.3-0.1,0.6-0.2,0.9-0.2c0.2,0,0.4,0.1,0.4,0.2
				s0.1,0.2,0.1,0.4c0,0.1,0,0.1,0,0.2c0,0.1,0,0.1,0,0.2s0,0.2,0,0.3c0,0.2,0,0.3-0.1,0.5c0,0.2,0,0.4-0.1,0.5c0,0.2,0,0.3,0,0.3
				c0,0.7,0.1,1.3,0.2,1.9c0.1,0.6,0.3,1.1,0.5,1.5c0.2,0.4,0.5,0.7,0.9,1c0.4,0.2,0.8,0.3,1.4,0.3c0.4,0,0.7,0,0.9-0.1
				c0.3,0,0.5-0.1,0.8-0.2c0.2-0.1,0.5-0.2,0.7-0.4c0.3-0.2,0.5-0.4,0.9-0.6c0.1-0.1,0.2-0.1,0.2-0.2c0.1,0,0.1-0.1,0.2-0.1
				s0.1-0.1,0.2-0.1L465.4,320.6z"/>
		</g>
	</g>
</g>
</svg>
