<?xml version="1.0" encoding="utf-8"?>
<!-- Generator: Adobe Illustrator 24.2.3, SVG Export Plug-In . SVG Version: 6.00 Build 0)  -->
<svg version="1.1" id="Capa_1" xmlns="http://www.w3.org/2000/svg" xmlns:xlink="http://www.w3.org/1999/xlink" x="0px" y="0px"
	 viewBox="0 0 137 40" style="enable-background:new 0 0 137 40;" xml:space="preserve">
<style type="text/css">
	.st0{fill:#8C7857;}
	.st1{fill:#FFFFFF;}
</style>
<g>
	<g>
		<path class="st0" d="M10.68,20.69l3.46-8.8h7.02v0.42c-0.73,0-1.31,0.75-1.31,1.8v11.94c0,1.05,0.59,1.8,1.31,1.8v0.42h-8.33
			v-0.42c0.73,0,1.31-0.75,1.31-1.8V13.08L8.18,28.27H7.69L1.9,13.97c-0.05-0.12-0.12-0.23-0.16-0.35
			c-0.02,0.16-0.05,0.33-0.05,0.49v11.94c0,1.05,0.58,1.8,1.31,1.8v0.42h-3.04v-0.42c0.73,0,1.31-0.75,1.31-1.8V14.11
			c0-1.05-0.59-1.8-1.31-1.8v-0.42h3.28c2.72,0,4.45,1.22,5.31,3.39L10.68,20.69z"/>
		<path class="st0" d="M23.09,18.28c0-1.05-0.54-1.8-1.26-1.8V16.1h2.22c2.39,0,4.38,1.33,4.38,3.39v6.6c0,1.05,0.54,1.8,1.26,1.8
			v0.37h-7.86V27.9c0.73,0,1.26-0.75,1.26-1.8V18.28z M25.06,11.51c1.54,0,2.79,0.89,2.79,1.99c0,1.1-1.24,1.99-2.79,1.99
			c-1.54,0-2.79-0.89-2.79-1.99C22.27,12.4,23.52,11.51,25.06,11.51z"/>
		<path class="st0" d="M41.33,17.93c0,0.51-0.42,0.94-0.94,0.94c-1.85,0-1.62-2.76-3.79-2.76c-0.75,0-1.24,0.3-1.24,1.12
			c0,2.69,7.37,2.41,7.37,7.28c0,2.5-2.62,4.14-6.69,4.14c-2.34,0-4.05-0.75-5.59-1.99c-0.09-0.09-0.21-0.21-0.21-0.37
			c0-0.21,0.14-0.35,0.35-0.35c0.49,0,0.94,1.01,1.87,1.52c0.89,0.49,1.78,0.73,2.9,0.73c1.45,0,2.43-0.61,2.43-1.73
			c0-2.9-7.23-2.95-7.23-7.12c0-2.29,2.2-3.6,6.04-3.6C39.25,15.73,41.33,16.71,41.33,17.93z"/>
		<path class="st0" d="M68.84,26.35c-0.94,0.91-3.58,2.29-6.81,2.29c-5.2,0-8.8-3.6-8.8-8.57s3.61-8.57,9.04-8.57
			c3.42,0,6.23,1.4,6.23,3.09c0,0.66-0.51,1.17-1.17,1.17c-2.53,0-2.55-3.84-5.06-3.84c-2.57,0-3.14,3.44-3.14,6.74
			c0,5.64,2.25,9.01,5.57,9.01c2.88,0,3.04-2.34,3.98-2.34c0.26,0,0.47,0.21,0.47,0.47C69.14,26,69.03,26.17,68.84,26.35z"/>
		<path class="st0" d="M70.74,18.28c0-1.05-0.54-1.8-1.26-1.8V16.1h2.22c2.39,0,4.38,1.33,4.38,3.39v6.6c0,1.05,0.54,1.8,1.26,1.8
			v0.37h-7.86V27.9c0.73,0,1.26-0.75,1.26-1.8V18.28z M72.71,11.51c1.54,0,2.79,0.89,2.79,1.99c0,1.1-1.24,1.99-2.79,1.99
			s-2.79-0.89-2.79-1.99C69.92,12.4,71.16,11.51,72.71,11.51z"/>
		<path class="st0" d="M84.86,16.1v0.38c-0.73,0-1.26,0.75-1.26,1.8v8.12c0,0.82,0.35,1.36,0.89,1.36c1.24,0,1.64-1.83,2.27-1.83
			c0.21,0,0.35,0.14,0.35,0.35c0,0.16-0.12,0.28-0.21,0.37c-1.45,1.4-2.62,1.99-4.26,1.99c-2.39,0-4.38-1.33-4.38-3.39v-6.98
			c0-1.05-0.54-1.8-1.26-1.8V16.1c2.5,0,4.66-0.33,6.23-2.57h0.38v2.57H84.86z"/>
		<path class="st0" d="M90.69,18.86c-0.51,0-0.94-0.42-0.94-0.94c0-1.22,2.46-2.2,5.1-2.2c4.19,0,6.3,1.22,6.3,3.63v8.45
			c0,0.21,0.12,0.28,0.21,0.28c0.28,0,0.28-0.75,0.7-0.75c0.21,0,0.35,0.14,0.35,0.35c0,0.12-0.05,0.23-0.14,0.33
			c-0.38,0.38-1.1,0.63-2.08,0.63c-1.57,0-2.97-0.59-3.75-1.57c-0.77,0.84-2.13,1.57-4.03,1.57c-3.09,0-5.08-1.33-5.08-3.86
			c0-5.03,8.47-3.63,8.47-6.88c0-1.1-0.61-1.8-1.57-1.8C92.07,16.1,92.54,18.86,90.69,18.86z M94.25,27.88c0.96,0,1.57-0.7,1.57-1.8
			v-7c-0.77,1.94-3,4.12-3,6.86C92.82,27.17,93.38,27.88,94.25,27.88z"/>
	</g>
</g>
<g>
	<path class="st1" d="M37.75,27.81c0,0.13-0.07,0.31-0.21,0.52c-0.28,0.4-0.55,0.75-0.82,1.05c-0.27,0.3-0.55,0.58-0.84,0.82
		c-0.1,0.09-0.22,0.17-0.34,0.26c-0.13,0.08-0.26,0.17-0.41,0.25c-0.3,0.16-0.55,0.24-0.75,0.24c-0.26,0-0.49-0.14-0.69-0.41
		c-0.21-0.28-0.38-0.59-0.53-0.94c-0.08-0.18-0.15-0.36-0.23-0.53s-0.16-0.36-0.24-0.55c-0.16-0.37-0.29-0.56-0.41-0.56
		c-0.17,0-0.35,0.14-0.56,0.43s-0.47,0.72-0.79,1.29c-0.32,0.57-0.59,1.01-0.81,1.3c-0.22,0.29-0.42,0.44-0.6,0.44
		c-0.27,0-0.46-0.13-0.55-0.38c-0.09-0.26-0.14-0.7-0.16-1.31c-0.01-0.31-0.02-0.57-0.02-0.78c-0.01-0.21-0.02-0.38-0.02-0.5
		c-0.02-0.24-0.1-0.43-0.25-0.58c-0.14,0.01-0.34,0.17-0.61,0.49c-0.27,0.32-0.51,0.65-0.72,0.97s-0.41,0.64-0.6,0.96
		c-0.06,0.1-0.12,0.2-0.17,0.3s-0.11,0.19-0.17,0.29c-0.09,0.17-0.17,0.31-0.25,0.43s-0.15,0.22-0.2,0.31
		c-0.11,0.17-0.25,0.25-0.42,0.25c-0.3,0-0.5-0.15-0.59-0.46c-0.09-0.33-0.14-0.68-0.14-1.04c0-0.13,0-0.25,0.01-0.37
		c0.01-0.12,0.02-0.24,0.04-0.36c0.02-0.12,0.04-0.26,0.06-0.41c0.03-0.16,0.06-0.33,0.09-0.52c0.08-0.38,0.13-0.67,0.16-0.85
		c0.04-0.26,0.08-0.48,0.1-0.67c0.02-0.19,0.04-0.34,0.04-0.46c0-0.09,0.03-0.17,0.08-0.24c0.06-0.07,0.13-0.1,0.23-0.1
		c0.4,0,0.59,0.27,0.59,0.81c0,0.14-0.01,0.3-0.03,0.48c-0.02,0.18-0.05,0.36-0.08,0.55c-0.03,0.19-0.07,0.38-0.11,0.58
		c-0.04,0.19-0.07,0.38-0.11,0.56c-0.07,0.44-0.11,0.73-0.11,0.88c0.11-0.1,0.24-0.26,0.4-0.49c0.16-0.22,0.35-0.51,0.57-0.85
		c0.23-0.35,0.43-0.66,0.62-0.92c0.19-0.27,0.37-0.5,0.53-0.68c0.33-0.38,0.69-0.56,1.07-0.56c0.09,0,0.15,0.02,0.2,0.05
		c0.21,0.16,0.37,0.47,0.46,0.91c0.05,0.23,0.09,0.46,0.13,0.71s0.07,0.51,0.1,0.8c0.05,0.55,0.1,0.82,0.15,0.82
		c0.08,0,0.2-0.16,0.38-0.47c0.02-0.03,0.06-0.1,0.12-0.21c0.06-0.11,0.13-0.23,0.21-0.36c0.08-0.13,0.15-0.25,0.21-0.37
		c0.07-0.12,0.11-0.19,0.13-0.23c0.28-0.48,0.55-0.86,0.81-1.14c0.26-0.3,0.53-0.44,0.78-0.44c0.24,0,0.4,0.08,0.5,0.24
		c0.05,0.08,0.1,0.18,0.16,0.31c0.05,0.13,0.11,0.28,0.17,0.45c0.07,0.21,0.13,0.39,0.19,0.56c0.06,0.17,0.12,0.32,0.17,0.45
		c0.06,0.13,0.12,0.27,0.19,0.39c0.07,0.13,0.16,0.25,0.26,0.38c0.2,0.25,0.42,0.37,0.66,0.37c0.27,0,0.66-0.22,1.16-0.67
		c0.25-0.22,0.51-0.47,0.77-0.72s0.54-0.53,0.82-0.82c0.05-0.05,0.09-0.07,0.13-0.07C37.72,27.65,37.75,27.71,37.75,27.81z"/>
	<path class="st1" d="M42.78,26.84c0,0.03-0.01,0.07-0.02,0.14s-0.03,0.14-0.05,0.21s-0.04,0.15-0.07,0.23
		c-0.02,0.08-0.04,0.14-0.06,0.18c-0.04,0.1-0.09,0.23-0.15,0.38s-0.12,0.32-0.18,0.5s-0.13,0.37-0.2,0.56s-0.13,0.38-0.2,0.57
		c-0.06,0.19-0.12,0.36-0.17,0.53s-0.1,0.31-0.13,0.43c-0.04,0.12-0.08,0.27-0.13,0.44c-0.05,0.17-0.11,0.36-0.17,0.55
		c-0.06,0.2-0.13,0.4-0.2,0.62c-0.07,0.22-0.13,0.43-0.2,0.64c-0.07,0.21-0.13,0.42-0.19,0.62c-0.06,0.2-0.12,0.39-0.17,0.56
		c-0.04,0.12-0.07,0.24-0.09,0.37c-0.03,0.13-0.06,0.26-0.11,0.37c-0.04,0.11-0.11,0.21-0.19,0.29c-0.08,0.08-0.2,0.12-0.36,0.12
		c-0.06,0-0.12-0.02-0.17-0.05c-0.05-0.03-0.1-0.07-0.13-0.12s-0.06-0.1-0.08-0.16s-0.03-0.12-0.03-0.17c0-0.09,0.02-0.21,0.07-0.35
		c0.05-0.14,0.1-0.3,0.17-0.47c0.07-0.17,0.14-0.36,0.22-0.55c0.08-0.19,0.15-0.39,0.22-0.58c0.1-0.3,0.19-0.58,0.29-0.84
		c0.09-0.27,0.17-0.5,0.24-0.71c0.07-0.21,0.12-0.38,0.16-0.51c0.04-0.13,0.06-0.21,0.06-0.25c0-0.04-0.01-0.07-0.02-0.1
		c-0.01-0.03-0.03-0.04-0.06-0.04c-0.03,0-0.09,0.03-0.18,0.09c-0.09,0.06-0.21,0.14-0.34,0.23c-0.14,0.09-0.29,0.19-0.46,0.29
		s-0.34,0.2-0.52,0.29s-0.36,0.17-0.54,0.23s-0.35,0.09-0.5,0.09c-0.25,0-0.46-0.04-0.65-0.12c-0.19-0.08-0.35-0.19-0.47-0.32
		c-0.13-0.13-0.23-0.27-0.29-0.43s-0.1-0.31-0.1-0.45c0-0.12,0.01-0.27,0.04-0.44c0.03-0.18,0.06-0.37,0.11-0.57
		c0.04-0.2,0.1-0.41,0.16-0.63c0.06-0.22,0.13-0.43,0.2-0.63s0.15-0.39,0.22-0.56s0.16-0.32,0.23-0.43c0.11-0.16,0.2-0.27,0.29-0.33
		s0.17-0.09,0.26-0.09c0.08,0,0.14,0.01,0.19,0.04c0.05,0.03,0.09,0.06,0.12,0.11c0.03,0.05,0.05,0.1,0.06,0.17s0.01,0.13,0.01,0.2
		c0,0.06-0.03,0.15-0.09,0.28c-0.06,0.13-0.14,0.29-0.23,0.48c-0.09,0.19-0.18,0.4-0.28,0.63c-0.1,0.23-0.18,0.48-0.25,0.74
		c-0.04,0.13-0.07,0.27-0.08,0.42s-0.02,0.29-0.02,0.42c0,0.11,0.03,0.21,0.09,0.28c0.06,0.08,0.13,0.14,0.21,0.18
		c0.08,0.05,0.17,0.08,0.25,0.1c0.08,0.02,0.16,0.03,0.21,0.03c0.17,0,0.35-0.03,0.52-0.09s0.34-0.14,0.5-0.23s0.32-0.19,0.48-0.29
		c0.16-0.11,0.31-0.2,0.46-0.28c0.13-0.08,0.27-0.18,0.42-0.29c0.14-0.12,0.27-0.25,0.37-0.39c0.05-0.06,0.1-0.18,0.17-0.34
		c0.06-0.16,0.13-0.35,0.2-0.55c0.07-0.21,0.13-0.42,0.2-0.64c0.07-0.22,0.13-0.42,0.18-0.59c0.06-0.21,0.14-0.36,0.24-0.46
		s0.19-0.15,0.28-0.15c0.11,0,0.19,0.02,0.25,0.05c0.06,0.04,0.1,0.08,0.13,0.14c0.03,0.05,0.05,0.12,0.06,0.19
		S42.78,26.77,42.78,26.84z"/>
	<path class="st1" d="M57.39,27.26c0,0.13-0.04,0.28-0.12,0.43c-0.08,0.15-0.16,0.29-0.26,0.42c-0.25,0.34-0.51,0.64-0.78,0.92
		c-0.27,0.28-0.54,0.54-0.82,0.79c-0.29,0.26-0.58,0.46-0.86,0.61c-0.29,0.15-0.54,0.22-0.77,0.22c-0.1,0-0.2-0.02-0.29-0.07
		c-0.1-0.05-0.19-0.11-0.27-0.19s-0.16-0.17-0.23-0.27c-0.07-0.1-0.12-0.21-0.15-0.32c-0.02-0.06-0.04-0.13-0.05-0.21
		c-0.02-0.08-0.03-0.15-0.05-0.21s-0.03-0.12-0.05-0.17c-0.02-0.05-0.04-0.07-0.06-0.07c-0.02,0-0.05,0.03-0.1,0.08
		c-0.05,0.05-0.11,0.12-0.18,0.2s-0.14,0.17-0.22,0.27c-0.08,0.1-0.16,0.2-0.23,0.29s-0.15,0.18-0.21,0.26s-0.11,0.14-0.15,0.18
		c-0.12,0.14-0.27,0.28-0.44,0.42c-0.17,0.14-0.34,0.28-0.5,0.39c-0.17,0.12-0.32,0.22-0.46,0.29c-0.14,0.08-0.24,0.11-0.31,0.11
		c-0.15,0-0.3-0.02-0.44-0.07c-0.14-0.05-0.26-0.12-0.37-0.22c-0.11-0.09-0.19-0.21-0.26-0.35c-0.07-0.14-0.1-0.3-0.1-0.47
		c0-0.29,0.06-0.63,0.17-1c0.12-0.38,0.27-0.76,0.46-1.14c0.19-0.39,0.41-0.76,0.66-1.12c0.25-0.36,0.51-0.67,0.78-0.92
		c0.31-0.3,0.64-0.52,0.98-0.66c0.34-0.14,0.69-0.21,1.05-0.21c0.07,0,0.13,0.01,0.17,0.04c0.05,0.03,0.09,0.06,0.13,0.11
		c0.04,0.04,0.07,0.09,0.09,0.15c0.03,0.05,0.06,0.11,0.08,0.16c0.02,0.04,0.05,0.08,0.1,0.12c0.05,0.04,0.1,0.09,0.16,0.13
		c0.06,0.04,0.1,0.09,0.15,0.13c0.04,0.04,0.06,0.08,0.06,0.13c0,0.08-0.02,0.17-0.05,0.28s-0.07,0.22-0.11,0.35
		c-0.04,0.13-0.08,0.28-0.11,0.45c-0.03,0.17-0.05,0.36-0.05,0.58c0,0.14,0.01,0.3,0.04,0.49c0.03,0.18,0.07,0.36,0.12,0.52
		c0.05,0.16,0.12,0.3,0.2,0.41c0.08,0.11,0.18,0.17,0.29,0.17c0.13,0,0.27-0.04,0.4-0.12c0.13-0.08,0.29-0.18,0.46-0.32
		c0.39-0.31,0.75-0.65,1.1-1.01c0.35-0.37,0.7-0.73,1.07-1.1c0.06-0.06,0.12-0.09,0.18-0.09C57.35,27.04,57.39,27.12,57.39,27.26z
		 M52.76,26.58c0-0.01-0.01-0.03-0.02-0.07c-0.01-0.04-0.03-0.07-0.05-0.11c-0.02-0.04-0.05-0.07-0.09-0.1
		c-0.03-0.03-0.07-0.04-0.11-0.04h-0.01c-0.15,0.02-0.3,0.06-0.47,0.15s-0.34,0.21-0.53,0.37s-0.38,0.38-0.59,0.65
		c-0.21,0.27-0.42,0.59-0.64,0.97c-0.07,0.11-0.14,0.24-0.22,0.38c-0.08,0.14-0.16,0.29-0.23,0.45s-0.13,0.34-0.18,0.52
		c-0.05,0.19-0.07,0.38-0.07,0.59c0,0.12,0.04,0.22,0.13,0.28c0.09,0.06,0.18,0.1,0.28,0.1c0.1,0,0.23-0.05,0.38-0.16
		c0.16-0.11,0.33-0.25,0.51-0.43c0.18-0.18,0.37-0.38,0.56-0.62s0.37-0.47,0.53-0.71s0.31-0.49,0.43-0.72
		c0.12-0.24,0.2-0.45,0.25-0.65c0.01-0.06,0.03-0.13,0.04-0.21s0.03-0.16,0.04-0.24c0.01-0.08,0.03-0.16,0.04-0.23
		S52.76,26.61,52.76,26.58z"/>
	<path class="st1" d="M65.85,27.44c0,0.12-0.04,0.27-0.12,0.44s-0.18,0.29-0.28,0.37c-0.4,0.32-0.83,0.62-1.31,0.9
		c-0.48,0.28-1.01,0.55-1.59,0.82c-0.58,0.27-1.14,0.51-1.67,0.71c-0.53,0.2-1.04,0.36-1.54,0.49c-0.04,0.02-0.12,0.02-0.23,0.02
		c-0.19,0-0.37-0.05-0.54-0.15c-0.17-0.11-0.25-0.26-0.25-0.46c0-0.07,0.02-0.13,0.07-0.18c0.07-0.07,0.2-0.14,0.4-0.21
		c0.21-0.07,0.47-0.16,0.78-0.27c0.16-0.05,0.29-0.1,0.4-0.14c0.11-0.04,0.19-0.07,0.25-0.1c0.25-0.13,0.49-0.31,0.7-0.54
		s0.39-0.46,0.54-0.71c0.19-0.32,0.29-0.61,0.29-0.86c0-0.54-0.17-0.81-0.52-0.81c-0.2,0-0.46,0.08-0.77,0.24
		c-0.15,0.08-0.29,0.16-0.42,0.24c-0.13,0.08-0.24,0.16-0.35,0.24c-0.17,0.13-0.34,0.32-0.53,0.55s-0.37,0.48-0.55,0.75
		c-0.18,0.27-0.34,0.54-0.5,0.82c-0.16,0.27-0.29,0.52-0.39,0.74c-0.02,0.18-0.04,0.38-0.06,0.61c-0.02,0.22-0.04,0.47-0.07,0.74
		c-0.04,0.54-0.09,1.04-0.15,1.52c-0.05,0.48-0.12,0.89-0.18,1.24c-0.01,0.07-0.02,0.14-0.04,0.21s-0.03,0.13-0.04,0.16
		c-0.05,0.12-0.13,0.18-0.25,0.18c-0.11,0-0.26-0.06-0.44-0.17c-0.18-0.11-0.27-0.22-0.27-0.33c0-0.07,0-0.15,0.01-0.24
		s0.02-0.2,0.04-0.32c0.03-0.32,0.06-0.59,0.09-0.82c0.03-0.23,0.05-0.41,0.07-0.54c0.06-0.41,0.1-0.85,0.15-1.32
		c0.04-0.47,0.08-0.99,0.11-1.54c0.01-0.16,0.01-0.4,0.02-0.72c0.01-0.32,0.02-0.6,0.02-0.84c0.01-0.23,0.01-0.43,0.03-0.59
		c0.06-0.75,0.25-1.13,0.59-1.13c0.13,0,0.25,0.06,0.36,0.18c0.1,0.12,0.15,0.25,0.15,0.38c0,0.14-0.01,0.29-0.04,0.46
		c-0.03,0.17-0.06,0.34-0.1,0.51c-0.03,0.17-0.06,0.34-0.09,0.51c-0.03,0.17-0.04,0.32-0.04,0.45c0,0.11,0.01,0.17,0.04,0.17
		c0.28-0.5,0.55-0.93,0.82-1.3s0.53-0.68,0.8-0.92c0.39-0.36,0.77-0.62,1.13-0.78c0.36-0.16,0.79-0.24,1.29-0.24
		c0.15,0,0.28,0.04,0.39,0.15c0.12,0.1,0.22,0.23,0.3,0.38s0.15,0.31,0.19,0.49s0.07,0.32,0.07,0.45c0,0.2-0.03,0.4-0.1,0.62
		c-0.07,0.21-0.16,0.43-0.28,0.64c-0.11,0.21-0.25,0.42-0.39,0.61c-0.15,0.2-0.3,0.37-0.45,0.52c0.39-0.15,0.83-0.34,1.32-0.59
		c0.49-0.25,0.96-0.52,1.39-0.8c0.43-0.28,0.82-0.57,1.17-0.87c0.17-0.14,0.32-0.21,0.45-0.21C65.79,27.26,65.85,27.32,65.85,27.44z
		"/>
	<path class="st1" d="M74,27.44c0,0.12-0.04,0.27-0.12,0.44c-0.02,0.04-0.05,0.09-0.1,0.14c-0.05,0.05-0.1,0.1-0.15,0.15
		c-0.05,0.05-0.11,0.09-0.16,0.13c-0.05,0.04-0.09,0.07-0.11,0.09c-0.13,0.11-0.3,0.23-0.5,0.36c-0.21,0.13-0.43,0.27-0.68,0.42
		s-0.52,0.3-0.8,0.45c-0.28,0.15-0.56,0.3-0.84,0.45c-0.28,0.15-0.55,0.28-0.82,0.42c-0.27,0.13-0.51,0.25-0.72,0.34
		c-0.16,0.07-0.31,0.15-0.45,0.24c-0.14,0.09-0.28,0.17-0.42,0.25c-0.14,0.08-0.27,0.14-0.41,0.19c-0.14,0.05-0.29,0.08-0.44,0.08
		c-0.09,0-0.18-0.01-0.26-0.03c-0.08-0.02-0.16-0.06-0.23-0.1c-0.07-0.05-0.12-0.11-0.16-0.18c-0.04-0.07-0.06-0.16-0.06-0.26
		c0-0.06,0.02-0.11,0.06-0.15c0.04-0.05,0.09-0.09,0.15-0.13c0.06-0.04,0.13-0.07,0.2-0.1c0.07-0.03,0.14-0.06,0.21-0.08
		c0.07-0.03,0.16-0.06,0.25-0.09c0.1-0.03,0.19-0.06,0.29-0.09c0.1-0.03,0.19-0.06,0.29-0.09c0.09-0.03,0.17-0.06,0.24-0.09
		c0.13-0.07,0.25-0.15,0.36-0.25s0.21-0.22,0.31-0.34s0.18-0.25,0.27-0.38c0.08-0.13,0.16-0.26,0.23-0.38
		c0.05-0.08,0.09-0.18,0.14-0.28c0.04-0.1,0.08-0.21,0.12-0.31c0.03-0.1,0.06-0.2,0.08-0.29s0.03-0.17,0.03-0.23
		c0-0.27-0.06-0.49-0.18-0.65c-0.12-0.16-0.27-0.24-0.44-0.24c-0.11,0-0.24,0.04-0.38,0.11s-0.29,0.16-0.43,0.26
		c-0.14,0.1-0.28,0.21-0.4,0.32c-0.12,0.11-0.22,0.21-0.3,0.29c-0.18,0.19-0.35,0.4-0.51,0.63s-0.31,0.46-0.45,0.7
		c-0.14,0.24-0.28,0.48-0.4,0.72s-0.24,0.47-0.35,0.69c-0.05,0.19-0.09,0.39-0.14,0.62c-0.04,0.22-0.08,0.47-0.1,0.74
		c-0.04,0.53-0.08,1.01-0.1,1.43s-0.07,0.8-0.13,1.15c-0.02,0.13-0.08,0.24-0.17,0.34c-0.09,0.1-0.21,0.14-0.36,0.14
		c-0.04,0-0.09-0.01-0.15-0.03s-0.12-0.05-0.17-0.09c-0.05-0.04-0.1-0.08-0.14-0.13c-0.04-0.05-0.06-0.1-0.06-0.16
		c0-0.13,0.01-0.29,0.03-0.48c0.02-0.19,0.04-0.38,0.06-0.58c0.02-0.19,0.05-0.37,0.07-0.53c0.02-0.16,0.04-0.27,0.04-0.33
		c0.06-0.41,0.1-0.85,0.15-1.32c0.04-0.47,0.08-0.99,0.11-1.54c0-0.12,0.01-0.28,0.01-0.47c0.01-0.2,0.01-0.39,0.02-0.59
		c0.01-0.2,0.01-0.38,0.02-0.56s0.01-0.29,0.02-0.37c0.06-0.75,0.25-1.13,0.59-1.13c0.07,0,0.13,0.02,0.19,0.05
		c0.06,0.03,0.12,0.08,0.16,0.13c0.05,0.05,0.08,0.11,0.11,0.18c0.03,0.07,0.04,0.13,0.04,0.2c0,0.14-0.01,0.29-0.04,0.45
		c-0.03,0.16-0.06,0.32-0.1,0.49c-0.04,0.17-0.07,0.33-0.1,0.5c-0.03,0.16-0.04,0.31-0.04,0.44c0,0.11,0.01,0.17,0.04,0.17
		c0.28-0.5,0.55-0.94,0.81-1.31c0.26-0.38,0.53-0.69,0.79-0.94c0.17-0.16,0.34-0.3,0.5-0.44c0.17-0.13,0.33-0.25,0.5-0.34
		c0.17-0.1,0.34-0.17,0.52-0.23s0.37-0.08,0.57-0.09c0.14,0,0.28,0.03,0.43,0.1c0.15,0.07,0.28,0.18,0.4,0.32
		c0.12,0.14,0.22,0.32,0.29,0.52c0.08,0.2,0.11,0.43,0.11,0.69c0,0.2-0.03,0.4-0.09,0.59c-0.07,0.2-0.15,0.39-0.26,0.58
		c-0.11,0.19-0.23,0.38-0.38,0.55c-0.14,0.18-0.29,0.34-0.45,0.49c0.32-0.12,0.66-0.27,1-0.45c0.34-0.18,0.68-0.37,1.03-0.58
		c0.34-0.21,0.68-0.42,1.01-0.64c0.33-0.22,0.64-0.44,0.95-0.65c0.09-0.06,0.16-0.12,0.22-0.16c0.06-0.04,0.12-0.06,0.18-0.06
		c0.05,0,0.09,0.03,0.1,0.08C74,27.33,74,27.38,74,27.44z"/>
	<path class="st1" d="M81.02,26.76c0,0.07-0.02,0.14-0.07,0.22c-0.05,0.08-0.11,0.16-0.18,0.24s-0.16,0.16-0.25,0.24
		s-0.19,0.15-0.28,0.21c-0.09,0.07-0.18,0.12-0.27,0.17c-0.08,0.05-0.16,0.09-0.21,0.11c-0.1,0.04-0.24,0.08-0.41,0.12
		c-0.17,0.03-0.34,0.06-0.52,0.09s-0.36,0.04-0.53,0.06c-0.17,0.01-0.32,0.02-0.44,0.02c-0.05,0-0.11-0.01-0.2-0.02
		s-0.17-0.04-0.25-0.06s-0.17-0.05-0.25-0.08s-0.13-0.06-0.17-0.09c0.04,0.15,0.07,0.3,0.09,0.45c0.03,0.15,0.04,0.31,0.04,0.47
		c0,0.07-0.01,0.16-0.03,0.26c-0.02,0.1-0.04,0.21-0.07,0.31c-0.03,0.1-0.06,0.21-0.1,0.3c-0.04,0.1-0.07,0.18-0.11,0.24
		c-0.1,0.17-0.21,0.33-0.32,0.47s-0.23,0.27-0.37,0.39c-0.14,0.12-0.29,0.23-0.46,0.34s-0.37,0.21-0.59,0.31
		c-0.24,0.1-0.47,0.17-0.71,0.22c-0.24,0.04-0.49,0.06-0.74,0.06c-0.16,0-0.31-0.05-0.43-0.14c-0.13-0.09-0.23-0.22-0.32-0.38
		s-0.15-0.34-0.2-0.55c-0.04-0.21-0.07-0.43-0.07-0.66c0-0.06,0-0.13,0.01-0.22c0.01-0.09,0.02-0.18,0.04-0.27s0.04-0.18,0.06-0.26
		s0.04-0.15,0.06-0.21c0.05-0.17,0.13-0.36,0.24-0.57c0.1-0.21,0.22-0.43,0.36-0.66c0.14-0.22,0.29-0.44,0.46-0.66
		c0.17-0.21,0.35-0.41,0.53-0.58c0.19-0.17,0.38-0.31,0.58-0.41c0.2-0.1,0.4-0.15,0.6-0.15c0.07,0,0.12,0.01,0.16,0.03
		c0.04,0.02,0.08,0.04,0.11,0.08c0.03,0.03,0.06,0.07,0.08,0.1s0.05,0.07,0.08,0.11c0.01,0.02,0.03,0.03,0.05,0.03
		c0.03,0,0.07-0.01,0.12-0.02c0.05-0.02,0.1-0.02,0.16-0.02c0.08,0,0.17,0.05,0.28,0.15c0.11,0.1,0.23,0.2,0.35,0.32
		c0.12,0.12,0.24,0.22,0.36,0.32c0.12,0.1,0.23,0.15,0.32,0.15c0.11,0,0.22,0,0.34-0.01c0.12,0,0.25-0.01,0.37-0.02
		c0.13-0.01,0.25-0.02,0.37-0.04c0.12-0.02,0.24-0.03,0.34-0.05c0.03-0.01,0.09-0.03,0.2-0.05s0.22-0.06,0.36-0.1
		c0.14-0.04,0.28-0.08,0.43-0.12c0.15-0.04,0.29-0.08,0.42-0.12c0.13-0.04,0.24-0.07,0.32-0.09c0.08-0.02,0.13-0.04,0.14-0.04
		c0.02,0,0.05,0.01,0.07,0.02S81.02,26.73,81.02,26.76z M76.39,27.71c-0.02-0.08-0.07-0.16-0.14-0.23c-0.07-0.08-0.15-0.14-0.24-0.2
		c-0.09-0.06-0.18-0.11-0.28-0.15c-0.1-0.04-0.19-0.06-0.28-0.06c-0.07,0-0.14,0.01-0.21,0.04c-0.07,0.02-0.13,0.05-0.2,0.09
		c-0.07,0.04-0.13,0.08-0.19,0.12c-0.06,0.05-0.12,0.09-0.17,0.13c-0.15,0.13-0.3,0.31-0.44,0.55c-0.14,0.24-0.26,0.49-0.37,0.76
		c-0.1,0.27-0.19,0.54-0.25,0.81s-0.09,0.5-0.09,0.7c0,0.09,0.01,0.17,0.04,0.25c0.03,0.08,0.07,0.15,0.13,0.21s0.12,0.11,0.2,0.15
		c0.08,0.04,0.16,0.06,0.25,0.06c0.24,0,0.46-0.04,0.66-0.13c0.2-0.08,0.38-0.2,0.55-0.35s0.31-0.33,0.44-0.53
		c0.13-0.21,0.23-0.43,0.32-0.67c0.09-0.24,0.15-0.49,0.2-0.76C76.37,28.24,76.39,27.98,76.39,27.71z"/>
	<path class="st1" d="M86.47,28.13v0.01c0,0.09-0.04,0.2-0.12,0.34c-0.08,0.14-0.19,0.3-0.32,0.48c-0.13,0.18-0.29,0.37-0.46,0.57
		c-0.17,0.2-0.36,0.41-0.54,0.61c-0.23,0.24-0.46,0.47-0.7,0.68c-0.24,0.22-0.51,0.43-0.79,0.64c-0.55,0.41-1.05,0.62-1.48,0.62
		c-0.48,0-0.85-0.16-1.11-0.48c-0.26-0.32-0.44-0.71-0.54-1.17c-0.09-0.45-0.14-0.92-0.14-1.4c0-0.2,0.02-0.52,0.07-0.94
		c0.02-0.21,0.05-0.4,0.07-0.55c0.02-0.15,0.05-0.28,0.08-0.37c0.06-0.19,0.17-0.35,0.35-0.49c0.18-0.15,0.37-0.22,0.57-0.22
		c0.11,0,0.16,0.1,0.16,0.3c0,0.13-0.01,0.29-0.04,0.46c-0.03,0.17-0.05,0.34-0.08,0.5c-0.05,0.31-0.09,0.59-0.11,0.84
		c-0.02,0.25-0.04,0.46-0.04,0.64c0,0.4,0.06,0.81,0.17,1.21c0.11,0.42,0.31,0.62,0.6,0.62c0.29,0,0.63-0.11,1.02-0.32
		c0.19-0.11,0.39-0.23,0.58-0.37c0.19-0.13,0.39-0.28,0.58-0.45c0.2-0.17,0.39-0.33,0.57-0.5s0.36-0.34,0.53-0.52
		c0.18-0.18,0.33-0.34,0.47-0.5s0.26-0.3,0.36-0.43c0.01-0.02,0.02-0.05,0.05-0.09c0.02-0.04,0.04-0.07,0.07-0.07l0.01,0.01
		c0.03,0,0.05,0.01,0.07,0.03c0.02,0.02,0.03,0.05,0.05,0.1C86.45,28.01,86.47,28.08,86.47,28.13z M82.58,23.31
		c0,0.26-0.07,0.48-0.2,0.66c-0.13,0.18-0.32,0.27-0.58,0.27c-0.16,0-0.33-0.02-0.53-0.07c-0.19-0.05-0.28-0.12-0.28-0.23
		c0-0.19,0.06-0.38,0.18-0.55c0.12-0.18,0.27-0.32,0.44-0.43c0.14-0.08,0.23-0.12,0.27-0.12c0.23,0,0.4,0.03,0.52,0.09
		C82.52,22.99,82.58,23.12,82.58,23.31z"/>
	<path class="st1" d="M95.88,27.75c0,0.08-0.01,0.15-0.04,0.23c-0.03,0.08-0.06,0.15-0.09,0.23c-0.04,0.08-0.08,0.15-0.13,0.22
		c-0.05,0.07-0.09,0.14-0.14,0.21c-0.11,0.18-0.25,0.36-0.4,0.54c-0.15,0.18-0.32,0.36-0.5,0.54s-0.36,0.34-0.54,0.49
		s-0.37,0.29-0.55,0.41c-0.14,0.09-0.28,0.18-0.41,0.27c-0.13,0.08-0.26,0.15-0.39,0.21c-0.13,0.06-0.27,0.11-0.41,0.14
		c-0.14,0.04-0.3,0.05-0.47,0.05c-0.33,0-0.59-0.08-0.8-0.25c-0.1-0.08-0.19-0.19-0.27-0.32c-0.08-0.13-0.14-0.28-0.2-0.44
		s-0.11-0.33-0.15-0.52c-0.04-0.18-0.08-0.36-0.1-0.54c-0.04-0.22-0.07-0.42-0.1-0.6s-0.07-0.32-0.11-0.44
		c-0.04-0.12-0.09-0.21-0.15-0.28s-0.14-0.1-0.23-0.1c-0.08,0-0.15,0.01-0.21,0.02c-0.07,0.02-0.14,0.05-0.21,0.09
		c-0.07,0.05-0.15,0.12-0.24,0.2s-0.19,0.2-0.31,0.34c-0.12,0.14-0.25,0.32-0.4,0.52c-0.15,0.21-0.33,0.45-0.53,0.74
		c-0.1,0.14-0.21,0.29-0.35,0.46c-0.13,0.17-0.27,0.32-0.41,0.47c-0.14,0.15-0.28,0.28-0.41,0.4c-0.13,0.11-0.25,0.19-0.36,0.22
		c-0.35-0.08-0.52-0.51-0.52-1.3c0-0.21,0.02-0.53,0.07-0.95c0.02-0.19,0.05-0.4,0.08-0.61c0.03-0.21,0.07-0.42,0.12-0.63
		c0.05-0.21,0.1-0.42,0.16-0.62c0.06-0.2,0.13-0.38,0.22-0.55c0.04-0.08,0.08-0.14,0.12-0.19c0.04-0.05,0.09-0.08,0.13-0.1
		c0.04-0.02,0.09-0.04,0.14-0.04c0.05-0.01,0.1-0.01,0.15-0.01c0.06,0,0.12,0.04,0.17,0.13c0.05,0.09,0.07,0.21,0.07,0.36
		c0,0.09-0.01,0.18-0.02,0.27s-0.04,0.17-0.07,0.25s-0.06,0.18-0.09,0.28s-0.06,0.22-0.09,0.35c-0.02,0.11-0.05,0.23-0.08,0.36
		c-0.03,0.13-0.06,0.26-0.08,0.4c-0.03,0.13-0.05,0.27-0.07,0.39c-0.02,0.13-0.03,0.24-0.03,0.35c0,0.07,0.01,0.14,0.04,0.22
		c0.11-0.01,0.29-0.18,0.55-0.5c0.13-0.16,0.27-0.34,0.43-0.53c0.16-0.19,0.33-0.41,0.51-0.64c0.13-0.17,0.27-0.34,0.4-0.49
		c0.13-0.15,0.27-0.28,0.41-0.39c0.14-0.11,0.29-0.2,0.45-0.27s0.34-0.1,0.53-0.1c0.21,0,0.38,0.04,0.51,0.13
		c0.14,0.09,0.25,0.21,0.33,0.37s0.15,0.34,0.19,0.56c0.04,0.22,0.08,0.46,0.11,0.72c0.02,0.22,0.05,0.44,0.07,0.66
		c0.02,0.22,0.06,0.41,0.13,0.58c0.06,0.17,0.15,0.31,0.27,0.42c0.12,0.11,0.29,0.16,0.51,0.16c0.17,0,0.35-0.04,0.53-0.12
		s0.38-0.19,0.59-0.33c0.21-0.14,0.42-0.31,0.64-0.5c0.22-0.19,0.45-0.4,0.68-0.62c0.09-0.09,0.19-0.2,0.3-0.33
		c0.11-0.13,0.21-0.26,0.32-0.38c0.11-0.12,0.2-0.23,0.29-0.31s0.16-0.13,0.22-0.13c0.02,0,0.06,0.01,0.12,0.04
		S95.88,27.69,95.88,27.75z"/>
	<path class="st1" d="M101.32,26.86c0,0.07-0.01,0.13-0.03,0.18c-0.02,0.05-0.05,0.09-0.08,0.13c-0.04,0.04-0.08,0.07-0.13,0.1
		c-0.05,0.03-0.1,0.06-0.15,0.09c-0.13,0.06-0.29,0.11-0.46,0.15c-0.18,0.04-0.37,0.07-0.56,0.1c-0.19,0.03-0.38,0.05-0.57,0.08
		c-0.19,0.02-0.36,0.04-0.51,0.07c-0.29,0.04-0.54,0.08-0.76,0.1c-0.22,0.03-0.41,0.05-0.58,0.07c-0.16,0.02-0.3,0.05-0.4,0.08
		c-0.11,0.03-0.19,0.07-0.25,0.12c-0.08,0.36-0.17,0.72-0.26,1.09s-0.17,0.72-0.23,1.04c-0.01,0.06-0.02,0.11-0.04,0.17
		c-0.01,0.06-0.03,0.13-0.04,0.19c-0.03,0.14-0.05,0.26-0.06,0.36c-0.02,0.1-0.02,0.21-0.02,0.3c0,0.13,0.01,0.24,0.04,0.33
		c0.02,0.04,0.03,0.1,0.05,0.17c0.02,0.07,0.05,0.15,0.08,0.24c0.06,0.19,0.09,0.32,0.09,0.4c0,0.13-0.05,0.26-0.15,0.41
		c-0.1,0.15-0.21,0.22-0.33,0.22c-0.13,0-0.27-0.1-0.4-0.3c-0.07-0.1-0.13-0.2-0.18-0.29c-0.05-0.1-0.1-0.2-0.14-0.29
		c-0.06-0.19-0.09-0.38-0.09-0.56c0-0.04,0-0.08,0.01-0.12c0-0.04,0.01-0.09,0.02-0.13c0.02-0.09,0.04-0.2,0.07-0.33
		c0.02-0.06,0.03-0.12,0.04-0.16c0.01-0.05,0.02-0.08,0.03-0.11c0.09-0.44,0.17-0.81,0.24-1.1c0.07-0.3,0.11-0.53,0.14-0.69
		c0.08-0.37,0.13-0.58,0.13-0.63c0-0.06-0.02-0.11-0.07-0.14c-0.04-0.03-0.1-0.05-0.16-0.05c-0.08,0-0.16,0-0.25,0.01
		s-0.2,0.02-0.31,0.03c-0.11,0.02-0.21,0.03-0.28,0.03s-0.13,0.01-0.17,0.01c-0.14,0-0.27-0.02-0.39-0.07
		c-0.12-0.04-0.22-0.11-0.3-0.19s-0.15-0.18-0.2-0.29c-0.05-0.11-0.07-0.24-0.07-0.38c0.11,0.02,0.22,0.03,0.34,0.03
		c0.12,0.01,0.24,0.01,0.36,0.01c0.06,0,0.14,0,0.25-0.01s0.25-0.02,0.42-0.03c0.17-0.02,0.32-0.03,0.45-0.04
		c0.13-0.01,0.23-0.01,0.31-0.01c0.09,0,0.2-0.15,0.31-0.44c0.05-0.15,0.11-0.3,0.16-0.46c0.05-0.15,0.09-0.31,0.13-0.48
		c0.04-0.17,0.08-0.31,0.11-0.44c0.03-0.13,0.05-0.24,0.07-0.33c0.01-0.02,0.03-0.11,0.05-0.26c0.02-0.08,0.04-0.15,0.05-0.22
		c0.01-0.07,0.02-0.13,0.03-0.19c0.03-0.15,0.06-0.29,0.09-0.42c0.03-0.13,0.07-0.24,0.12-0.34c0.09-0.21,0.23-0.31,0.42-0.31
		c0.29,0,0.44,0.16,0.44,0.49c0,0.2-0.04,0.43-0.13,0.69c-0.38,1.2-0.56,1.93-0.56,2.19c0,0.15,0.07,0.22,0.22,0.22
		c0.36,0,0.72-0.01,1.09-0.03c0.37-0.02,0.73-0.04,1.08-0.07c0.18-0.02,0.34-0.03,0.48-0.05s0.27-0.04,0.39-0.05
		c0.12-0.02,0.23-0.03,0.34-0.05c0.11-0.02,0.22-0.03,0.35-0.05c0.02,0,0.05-0.01,0.09-0.01c0.04,0,0.07,0,0.11,0.01
		c0.04,0.01,0.07,0.03,0.09,0.06C101.3,26.76,101.32,26.8,101.32,26.86z"/>
	<path class="st1" d="M112.86,29.54c0,0.04-0.02,0.08-0.06,0.14c-0.04,0.06-0.08,0.13-0.14,0.19c-0.05,0.07-0.11,0.13-0.18,0.19
		s-0.12,0.1-0.17,0.14c-0.41,0.25-0.79,0.43-1.14,0.57c-0.35,0.13-0.71,0.2-1.08,0.2c-0.2,0-0.38-0.04-0.54-0.12
		s-0.29-0.2-0.41-0.35c-0.12-0.15-0.22-0.34-0.31-0.57c-0.09-0.22-0.17-0.48-0.23-0.78c-0.04-0.16-0.07-0.32-0.1-0.49
		c-0.03-0.17-0.06-0.32-0.1-0.45c-0.04-0.14-0.08-0.25-0.12-0.34c-0.05-0.09-0.11-0.13-0.18-0.13c-0.17,0-0.35,0.14-0.56,0.43
		c-0.21,0.29-0.47,0.72-0.79,1.29c-0.32,0.57-0.59,1-0.81,1.3c-0.22,0.3-0.42,0.45-0.6,0.45c-0.27,0-0.46-0.13-0.55-0.39
		c-0.09-0.26-0.14-0.7-0.16-1.31c0-0.24-0.02-0.45-0.04-0.64c-0.02-0.18-0.05-0.34-0.09-0.47c-0.04-0.13-0.08-0.24-0.13-0.32
		c-0.05-0.08-0.1-0.15-0.15-0.2c-0.2,0.12-0.39,0.28-0.58,0.48c-0.18,0.2-0.36,0.41-0.52,0.63s-0.31,0.45-0.45,0.68
		c-0.14,0.23-0.27,0.44-0.38,0.63c-0.06,0.09-0.12,0.2-0.19,0.33c-0.07,0.12-0.14,0.25-0.22,0.37c-0.07,0.13-0.14,0.24-0.21,0.35
		c-0.07,0.11-0.13,0.2-0.18,0.27c-0.12,0.17-0.25,0.25-0.42,0.25c-0.3,0-0.5-0.15-0.59-0.46c-0.02-0.08-0.04-0.15-0.06-0.21
		c-0.02-0.06-0.03-0.13-0.04-0.19c-0.01-0.06-0.02-0.13-0.02-0.2s-0.01-0.16-0.01-0.25c0-0.16,0.01-0.33,0.02-0.5
		s0.04-0.36,0.06-0.54s0.06-0.36,0.09-0.55s0.07-0.36,0.1-0.54c0.07-0.34,0.12-0.65,0.16-0.92c0.04-0.28,0.06-0.54,0.06-0.79
		c0-0.09,0.03-0.17,0.08-0.24c0.05-0.07,0.13-0.1,0.23-0.1c0.39,0,0.59,0.27,0.59,0.81c0,0.14-0.01,0.3-0.03,0.46
		s-0.05,0.34-0.08,0.52c-0.03,0.18-0.07,0.36-0.11,0.55c-0.04,0.18-0.08,0.36-0.11,0.54c-0.02,0.11-0.04,0.22-0.06,0.34
		c-0.02,0.12-0.04,0.24-0.06,0.34c-0.02,0.11-0.03,0.21-0.04,0.29s-0.02,0.15-0.02,0.19c0.05-0.05,0.12-0.13,0.19-0.23
		c0.08-0.1,0.16-0.21,0.25-0.35c0.09-0.13,0.19-0.28,0.29-0.44s0.21-0.33,0.32-0.5c0.22-0.35,0.43-0.66,0.62-0.92
		c0.19-0.27,0.37-0.5,0.54-0.68c0.33-0.38,0.69-0.56,1.07-0.56c0.09,0,0.18,0.03,0.25,0.08s0.13,0.13,0.18,0.22
		c0.05,0.09,0.09,0.19,0.13,0.31c0.04,0.12,0.07,0.23,0.09,0.35c0.04,0.2,0.08,0.43,0.12,0.67c0.04,0.25,0.08,0.47,0.11,0.69
		c0.04,0.21,0.08,0.39,0.12,0.54c0.04,0.14,0.09,0.22,0.14,0.22c0.04,0,0.1-0.03,0.16-0.1c0.06-0.07,0.13-0.15,0.19-0.25
		c0.06-0.1,0.13-0.21,0.2-0.34c0.07-0.13,0.14-0.25,0.2-0.37c0.06-0.12,0.12-0.23,0.17-0.33c0.05-0.1,0.1-0.18,0.13-0.24
		c0.09-0.15,0.19-0.32,0.3-0.51c0.11-0.18,0.24-0.36,0.37-0.52s0.28-0.29,0.43-0.4s0.32-0.16,0.49-0.16c0.18,0,0.32,0.04,0.42,0.12
		s0.18,0.2,0.25,0.36s0.12,0.36,0.17,0.6s0.11,0.52,0.19,0.84c0.12,0.52,0.25,0.91,0.4,1.17s0.33,0.39,0.56,0.39
		c0.15,0,0.29-0.01,0.45-0.03c0.15-0.02,0.31-0.05,0.48-0.1c0.17-0.04,0.34-0.11,0.52-0.18s0.38-0.17,0.59-0.29
		c0.02-0.01,0.04-0.02,0.07-0.04s0.07-0.04,0.11-0.05c0.04-0.02,0.07-0.03,0.1-0.04c0.03-0.01,0.05-0.02,0.07-0.02
		c0.02,0,0.04,0.01,0.06,0.02s0.04,0.04,0.06,0.06c0.02,0.03,0.04,0.05,0.05,0.08C112.85,29.49,112.86,29.52,112.86,29.54z"/>
	<path class="st1" d="M119.74,27.52c0,0.06-0.04,0.17-0.13,0.31c-0.16,0.25-0.36,0.53-0.59,0.82c-0.24,0.29-0.5,0.59-0.78,0.88
		c-0.29,0.29-0.59,0.58-0.91,0.85s-0.65,0.51-0.98,0.72c-0.33,0.21-0.66,0.38-0.98,0.5c-0.32,0.13-0.63,0.19-0.92,0.19h-0.04
		c-0.68,0-1.18-0.19-1.52-0.58c-0.34-0.39-0.5-0.93-0.5-1.62c0-0.28,0.02-0.57,0.07-0.88c0.04-0.31,0.12-0.62,0.23-0.94
		c0.11-0.32,0.26-0.64,0.44-0.96s0.43-0.63,0.71-0.92c0.22-0.22,0.45-0.38,0.69-0.5c0.24-0.12,0.47-0.17,0.68-0.17
		c0.03,0,0.07,0.01,0.12,0.02c0.05,0.02,0.1,0.04,0.16,0.06c0.05,0.03,0.1,0.06,0.15,0.09c0.05,0.04,0.09,0.08,0.13,0.12
		c0.11,0.14,0.19,0.28,0.24,0.41c0.05,0.13,0.08,0.28,0.08,0.46c0,0.23-0.03,0.44-0.09,0.63c-0.06,0.19-0.15,0.37-0.27,0.55
		s-0.26,0.36-0.44,0.54c-0.17,0.18-0.37,0.37-0.6,0.58c-0.08,0.07-0.16,0.15-0.27,0.24c-0.1,0.09-0.21,0.18-0.33,0.27
		c-0.12,0.09-0.24,0.19-0.37,0.3c-0.13,0.1-0.25,0.2-0.37,0.3c0.03,0.71,0.42,1.06,1.18,1.06c0.42,0,0.87-0.11,1.34-0.33
		c0.23-0.11,0.45-0.24,0.65-0.38c0.2-0.14,0.4-0.29,0.59-0.44c0.09-0.08,0.2-0.16,0.31-0.27c0.12-0.1,0.23-0.21,0.35-0.33
		c0.12-0.12,0.24-0.23,0.36-0.34c0.12-0.11,0.23-0.22,0.34-0.33c0.07-0.07,0.14-0.14,0.22-0.21s0.16-0.16,0.25-0.24l0.32-0.32
		c0.19-0.17,0.33-0.25,0.42-0.25C119.72,27.41,119.74,27.44,119.74,27.52z M115.18,26.63c0-0.12-0.03-0.22-0.09-0.31
		c-0.06-0.09-0.14-0.13-0.23-0.13c-0.07,0-0.15,0.03-0.26,0.08c-0.11,0.05-0.22,0.15-0.33,0.3c-0.24,0.29-0.45,0.65-0.62,1.06
		s-0.29,0.87-0.36,1.38c0.25-0.2,0.46-0.38,0.63-0.54s0.33-0.31,0.46-0.45c0.09-0.09,0.19-0.2,0.28-0.3
		c0.09-0.11,0.18-0.22,0.25-0.34c0.08-0.12,0.14-0.24,0.19-0.37C115.15,26.88,115.18,26.75,115.18,26.63z"/>
	<path class="st1" d="M129.04,27.75c0,0.08-0.01,0.15-0.04,0.23c-0.03,0.08-0.06,0.15-0.09,0.23c-0.04,0.08-0.08,0.15-0.13,0.22
		c-0.05,0.07-0.09,0.14-0.14,0.21c-0.11,0.18-0.25,0.36-0.4,0.54c-0.15,0.18-0.32,0.36-0.5,0.54s-0.36,0.34-0.54,0.49
		s-0.37,0.29-0.55,0.41c-0.14,0.09-0.28,0.18-0.41,0.27c-0.13,0.08-0.26,0.15-0.39,0.21c-0.13,0.06-0.27,0.11-0.41,0.14
		c-0.14,0.04-0.3,0.05-0.47,0.05c-0.33,0-0.59-0.08-0.8-0.25c-0.1-0.08-0.19-0.19-0.27-0.32c-0.08-0.13-0.14-0.28-0.2-0.44
		s-0.11-0.33-0.15-0.52c-0.04-0.18-0.08-0.36-0.1-0.54c-0.04-0.22-0.07-0.42-0.1-0.6s-0.07-0.32-0.11-0.44
		c-0.04-0.12-0.09-0.21-0.15-0.28s-0.14-0.1-0.23-0.1c-0.08,0-0.15,0.01-0.21,0.02c-0.07,0.02-0.14,0.05-0.21,0.09
		c-0.07,0.05-0.15,0.12-0.24,0.2s-0.19,0.2-0.31,0.34c-0.12,0.14-0.25,0.32-0.4,0.52c-0.15,0.21-0.33,0.45-0.53,0.74
		c-0.1,0.14-0.21,0.29-0.35,0.46c-0.13,0.17-0.27,0.32-0.41,0.47c-0.14,0.15-0.28,0.28-0.41,0.4c-0.13,0.11-0.25,0.19-0.36,0.22
		c-0.35-0.08-0.52-0.51-0.52-1.3c0-0.21,0.02-0.53,0.07-0.95c0.02-0.19,0.05-0.4,0.08-0.61c0.03-0.21,0.07-0.42,0.12-0.63
		c0.05-0.21,0.1-0.42,0.16-0.62c0.06-0.2,0.13-0.38,0.22-0.55c0.04-0.08,0.08-0.14,0.12-0.19c0.04-0.05,0.09-0.08,0.13-0.1
		c0.04-0.02,0.09-0.04,0.14-0.04c0.05-0.01,0.1-0.01,0.15-0.01c0.06,0,0.12,0.04,0.17,0.13c0.05,0.09,0.07,0.21,0.07,0.36
		c0,0.09-0.01,0.18-0.02,0.27s-0.04,0.17-0.07,0.25s-0.06,0.18-0.09,0.28s-0.06,0.22-0.09,0.35c-0.02,0.11-0.05,0.23-0.08,0.36
		c-0.03,0.13-0.06,0.26-0.08,0.4c-0.03,0.13-0.05,0.27-0.07,0.39c-0.02,0.13-0.03,0.24-0.03,0.35c0,0.07,0.01,0.14,0.04,0.22
		c0.11-0.01,0.29-0.18,0.55-0.5c0.13-0.16,0.27-0.34,0.43-0.53c0.16-0.19,0.33-0.41,0.51-0.64c0.13-0.17,0.27-0.34,0.4-0.49
		c0.13-0.15,0.27-0.28,0.41-0.39c0.14-0.11,0.29-0.2,0.45-0.27s0.34-0.1,0.53-0.1c0.21,0,0.38,0.04,0.51,0.13
		c0.14,0.09,0.25,0.21,0.33,0.37s0.15,0.34,0.19,0.56c0.04,0.22,0.08,0.46,0.11,0.72c0.02,0.22,0.05,0.44,0.07,0.66
		c0.02,0.22,0.06,0.41,0.13,0.58c0.06,0.17,0.15,0.31,0.27,0.42c0.12,0.11,0.29,0.16,0.51,0.16c0.17,0,0.35-0.04,0.53-0.12
		s0.38-0.19,0.59-0.33c0.21-0.14,0.42-0.31,0.64-0.5c0.22-0.19,0.45-0.4,0.68-0.62c0.09-0.09,0.19-0.2,0.3-0.33
		c0.11-0.13,0.21-0.26,0.32-0.38c0.11-0.12,0.2-0.23,0.29-0.31s0.16-0.13,0.22-0.13c0.02,0,0.06,0.01,0.12,0.04
		S129.04,27.69,129.04,27.75z"/>
	<path class="st1" d="M134.25,26.77c0,0.15-0.04,0.26-0.12,0.33c-0.08,0.08-0.17,0.14-0.27,0.2c-0.13,0.06-0.28,0.11-0.44,0.16
		c-0.16,0.05-0.32,0.09-0.49,0.13c-0.17,0.04-0.34,0.07-0.51,0.1c-0.17,0.03-0.33,0.05-0.49,0.06c-0.17,0.02-0.34,0.03-0.53,0.05
		s-0.37,0.03-0.54,0.05c-0.17,0.02-0.33,0.04-0.48,0.06s-0.27,0.05-0.36,0.09c-0.08,0.36-0.17,0.7-0.26,1.03
		c-0.09,0.33-0.17,0.65-0.23,0.97c-0.02,0.08-0.04,0.19-0.06,0.34c-0.03,0.15-0.05,0.31-0.07,0.47s-0.04,0.32-0.06,0.46
		c-0.02,0.14-0.03,0.25-0.03,0.31c0,0.16,0.03,0.28,0.08,0.37c0.05,0.08,0.11,0.15,0.17,0.2c0.06,0.05,0.12,0.1,0.17,0.14
		c0.05,0.04,0.08,0.11,0.08,0.2c0,0.06-0.03,0.11-0.08,0.16c-0.05,0.05-0.12,0.1-0.19,0.14c-0.08,0.04-0.16,0.07-0.24,0.09
		c-0.08,0.02-0.16,0.03-0.22,0.03c-0.11,0-0.22-0.03-0.31-0.09c-0.09-0.06-0.17-0.15-0.23-0.25c-0.06-0.1-0.11-0.22-0.15-0.35
		c-0.04-0.13-0.05-0.26-0.05-0.4c0-0.18,0.02-0.38,0.05-0.58c0.03-0.21,0.07-0.42,0.12-0.64c0.05-0.22,0.1-0.44,0.15-0.67
		c0.05-0.23,0.1-0.45,0.15-0.68c0.02-0.09,0.04-0.19,0.06-0.29c0.02-0.1,0.04-0.2,0.06-0.29s0.03-0.16,0.04-0.22
		c0.01-0.06,0.02-0.1,0.02-0.11c0-0.06-0.02-0.11-0.07-0.14c-0.04-0.03-0.1-0.05-0.16-0.05c-0.05,0-0.12,0-0.21,0.01
		s-0.2,0.02-0.3,0.03c-0.1,0.01-0.2,0.02-0.3,0.03c-0.09,0.01-0.16,0.01-0.21,0.01c-0.14,0-0.26-0.01-0.36-0.03
		c-0.1-0.02-0.18-0.05-0.24-0.1c-0.06-0.05-0.11-0.11-0.14-0.2c-0.03-0.08-0.04-0.19-0.04-0.33c0-0.05,0.03-0.1,0.08-0.13
		c0.05-0.03,0.11-0.05,0.19-0.07s0.15-0.02,0.23-0.02s0.16,0,0.22,0c0.05,0,0.14,0,0.25-0.01c0.12-0.01,0.24-0.02,0.37-0.03
		c0.13-0.01,0.25-0.02,0.37-0.03c0.12-0.01,0.2-0.02,0.25-0.02c0.02,0,0.05,0,0.08-0.01s0.06-0.01,0.1-0.03
		c0.03-0.02,0.06-0.05,0.09-0.09c0.03-0.04,0.05-0.1,0.07-0.17c0.03-0.12,0.06-0.27,0.1-0.43c0.04-0.16,0.08-0.33,0.12-0.5
		c0.04-0.17,0.08-0.34,0.12-0.5c0.04-0.16,0.07-0.3,0.1-0.41c0.04-0.11,0.07-0.23,0.09-0.36c0.03-0.13,0.05-0.25,0.07-0.38
		c0.02-0.13,0.05-0.25,0.07-0.37c0.03-0.12,0.06-0.23,0.11-0.33c0.09-0.21,0.23-0.31,0.42-0.31c0.29,0,0.44,0.16,0.44,0.49
		c0,0.2-0.04,0.43-0.13,0.69c-0.19,0.6-0.33,1.1-0.42,1.49c-0.09,0.39-0.14,0.65-0.14,0.79c0,0.15,0.07,0.22,0.22,0.22
		c0.18,0,0.34,0,0.5-0.01s0.31-0.02,0.47-0.03c0.16-0.01,0.33-0.03,0.51-0.05s0.38-0.04,0.6-0.07c0.16-0.02,0.31-0.04,0.45-0.07
		c0.14-0.03,0.28-0.05,0.4-0.08c0.12-0.03,0.23-0.05,0.33-0.07c0.09-0.02,0.17-0.04,0.24-0.05c0.04,0,0.09-0.01,0.13-0.02
		c0.04-0.01,0.08-0.01,0.11,0c0.03,0.01,0.05,0.02,0.07,0.05S134.25,26.71,134.25,26.77z"/>
	<path class="st1" d="M135.96,30.7c0,0.2-0.04,0.4-0.11,0.59c-0.07,0.19-0.17,0.37-0.29,0.54c-0.12,0.17-0.26,0.33-0.42,0.47
		c-0.16,0.14-0.32,0.27-0.49,0.37s-0.34,0.19-0.51,0.24s-0.33,0.09-0.47,0.09c-0.2,0-0.33-0.04-0.39-0.13
		c-0.06-0.09-0.1-0.21-0.1-0.37c0-0.15,0.03-0.26,0.08-0.33c0.06-0.08,0.13-0.14,0.24-0.2c0.01,0,0.03-0.01,0.07-0.01
		s0.07-0.01,0.1-0.01c0.04,0,0.08,0,0.11-0.01c0.04,0,0.07,0,0.09,0c0.03,0,0.07-0.01,0.12-0.02s0.11-0.03,0.17-0.05
		c0.06-0.02,0.12-0.05,0.18-0.08c0.06-0.03,0.12-0.07,0.18-0.12c0.16-0.13,0.27-0.27,0.33-0.42c0.07-0.16,0.1-0.29,0.1-0.42
		c0-0.15-0.05-0.3-0.15-0.43s-0.22-0.27-0.37-0.39c-0.15-0.13-0.31-0.26-0.49-0.38c-0.17-0.13-0.34-0.26-0.49-0.41
		s-0.28-0.3-0.37-0.46s-0.15-0.34-0.15-0.54c0-0.1,0.01-0.2,0.04-0.31s0.06-0.22,0.1-0.33c0.04-0.11,0.09-0.21,0.14-0.31
		c0.05-0.1,0.11-0.19,0.17-0.28c0.09-0.13,0.2-0.27,0.31-0.4c0.11-0.13,0.23-0.25,0.34-0.35c0.11-0.1,0.23-0.18,0.34-0.24
		c0.11-0.06,0.21-0.09,0.31-0.09c0.27,0,0.4,0.16,0.4,0.47c0,0.11-0.04,0.24-0.13,0.39c-0.09,0.15-0.2,0.28-0.32,0.4
		c-0.19,0.18-0.36,0.34-0.5,0.47c-0.14,0.13-0.27,0.26-0.4,0.39c0.09,0.13,0.19,0.26,0.3,0.37c0.11,0.11,0.22,0.22,0.33,0.32
		c0.12,0.1,0.23,0.2,0.36,0.3c0.12,0.1,0.24,0.2,0.36,0.31c0.11,0.1,0.22,0.21,0.32,0.31s0.19,0.21,0.27,0.33
		c0.08,0.11,0.14,0.23,0.19,0.35C135.94,30.44,135.96,30.57,135.96,30.7z"/>
</g>
</svg>
