<?xml version="1.0" encoding="utf-8"?>
<!-- Generator: Adobe Illustrator 24.2.3, SVG Export Plug-In . SVG Version: 6.00 Build 0)  -->
<svg version="1.1" id="Capa_1" xmlns="http://www.w3.org/2000/svg" xmlns:xlink="http://www.w3.org/1999/xlink" x="0px" y="0px"
	 viewBox="0 0 137 40" style="enable-background:new 0 0 137 40;" xml:space="preserve">
<style type="text/css">
	.st0{fill:#8C7857;}
	.st1{fill:#FFFFFF;}
</style>
<g>
	<g>
		<path class="st0" d="M11.27,14.84l2.26,5.74l3.68-9.34h7.45v0.45c-0.77,0-1.39,0.79-1.39,1.91v12.67c0,1.12,0.62,1.91,1.39,1.91
			v0.45h-8.84v-0.45c0.77,0,1.39-0.79,1.39-1.91V12.5l-6.33,16.12h-0.52L4.21,13.44c-0.05-0.12-0.12-0.25-0.17-0.37
			c-0.02,0.17-0.05,0.35-0.05,0.52v12.67c0,1.12,0.62,1.91,1.39,1.91v0.45H2.15v-0.45c0.77,0,1.39-0.79,1.39-1.91V13.59
			c0-1.12-0.62-1.91-1.39-1.91v-0.45h3.48C8.51,11.23,10.35,12.53,11.27,14.84L11.27,14.84z"/>
		<path class="st0" d="M26.69,26.31v-8.3c0-1.12-0.57-1.91-1.34-1.91v-0.4h2.36c2.53,0,4.65,1.42,4.65,3.6v7
			c0,1.12,0.57,1.91,1.34,1.91v0.4h-8.35v-0.4C26.12,28.23,26.69,27.43,26.69,26.31L26.69,26.31z M28.78,10.84
			c1.64,0,2.96,0.94,2.96,2.11s-1.32,2.11-2.96,2.11s-2.96-0.94-2.96-2.11S27.14,10.84,28.78,10.84z"/>
		<path class="st0" d="M45.96,26.26V13.59c0-1.12-0.62-1.91-1.39-1.91v-0.45h12.27c3.6,0,6.21,2.04,6.21,4.82
			c0,2.78-2.61,4.82-6.21,4.82h-4.82v5.39c0,1.12,0.62,1.91,1.39,1.91v0.45h-8.84v-0.45C45.34,28.18,45.96,27.38,45.96,26.26z
			 M56.79,16.05c0-2.53-1.37-4.37-3.23-4.37h-1.54v8.74h1.54C55.42,20.43,56.79,18.59,56.79,16.05z"/>
		<path class="st0" d="M70.47,29.02c-4.35,0-7.5-2.88-7.5-6.86s3.38-6.86,8-6.86c3.23,0,5.84,1.29,5.84,3.78
			c0,3.35-6.11,4.25-7.63,4.37c0.65,3.01,2.33,4.65,3.97,4.65c2.11,0,2.43-1.96,3.1-1.96c0.22,0,0.37,0.15,0.37,0.37
			c0,0.17-0.12,0.3-0.22,0.4C74.77,28.4,72.96,29.02,70.47,29.02z M69.11,23.03c1.79-0.94,3.33-3.33,3.33-5.47
			c0-1.14-0.55-1.86-1.47-1.86c-1.84,0-2.06,3.4-2.06,4.97C68.91,21.52,68.98,22.31,69.11,23.03z"/>
		<path class="st0" d="M87.46,15.31c2.11,0,3.6,1.24,3.6,2.76c0,0.55-0.45,0.99-0.99,0.99c-1.96,0-1.49-3.11-3.8-3.11
			c-1.02,0-1.66,0.75-1.66,1.91v8.45c0,1.12,0.57,1.91,1.34,1.91v0.4H77.6v-0.4c0.77,0,1.34-0.79,1.34-1.91v-8.3
			c0-1.12-0.57-1.91-1.34-1.91v-0.4h2.36c1.57,0,2.98,0.55,3.83,1.47C84.48,16.2,85.55,15.31,87.46,15.31z"/>
		<path class="st0" d="M107.38,13.64c0,0.82-0.94,1.42-2.21,1.42c-3.6,0-4.02-3.73-6.76-3.73c-1.22,0-1.99,0.92-1.99,2.31
			c0,1.34,0.87,2.06,2.04,2.06h4.89c2.53,0,4.64,1.42,4.64,3.6v7c0,1.12,0.57,1.91,1.34,1.91v0.4h-8.35v-0.4
			c0.77,0,1.34-0.79,1.34-1.91v-8.3c0-1.12-0.57-1.91-1.94-1.91c-1.37,0-1.94,0.79-1.94,1.91v8.3c0,1.12,0.57,1.91,1.34,1.91v0.4
			h-8.35v-0.4c0.77,0,1.34-0.79,1.34-1.91v-8.3c0-1.12-0.57-1.91-1.34-1.91v-0.4h1.34c0-2.56,2.48-4.87,6.93-4.87
			C103.15,10.84,107.38,11.28,107.38,13.64z"/>
		<path class="st0" d="M111.15,13.54c0-1.12-0.57-1.91-1.34-1.91v-0.4h7v15.08c0,1.12,0.57,1.91,1.34,1.91v0.4h-8.35v-0.4
			c0.77,0,1.34-0.79,1.34-1.91V13.54z"/>
	</g>
</g>
<g>
	<path class="st1" d="M81.35,29.53v0.01c0,0.09-0.04,0.21-0.13,0.37c-0.08,0.15-0.2,0.32-0.34,0.51c-0.14,0.19-0.3,0.39-0.49,0.6
		c-0.18,0.21-0.38,0.43-0.58,0.65c-0.24,0.25-0.49,0.49-0.75,0.73s-0.54,0.46-0.84,0.68c-0.59,0.44-1.11,0.65-1.57,0.65
		c-0.51,0-0.9-0.17-1.18-0.51c-0.28-0.34-0.47-0.76-0.57-1.24c-0.1-0.48-0.15-0.98-0.15-1.49c0-0.21,0.03-0.55,0.08-1
		c0.03-0.23,0.05-0.42,0.08-0.58c0.03-0.16,0.05-0.3,0.08-0.4c0.06-0.2,0.18-0.37,0.37-0.52c0.19-0.16,0.39-0.23,0.6-0.23
		c0.11,0,0.17,0.11,0.17,0.32c0,0.14-0.01,0.3-0.04,0.48c-0.03,0.18-0.06,0.36-0.08,0.54c-0.05,0.33-0.09,0.63-0.12,0.89
		c-0.03,0.26-0.04,0.49-0.04,0.68c0,0.43,0.06,0.86,0.18,1.28c0.12,0.44,0.33,0.66,0.63,0.66c0.31,0,0.67-0.11,1.08-0.34
		c0.21-0.12,0.41-0.25,0.62-0.39c0.21-0.14,0.41-0.3,0.62-0.48c0.21-0.18,0.42-0.35,0.6-0.53c0.19-0.18,0.38-0.36,0.57-0.55
		s0.36-0.36,0.5-0.53c0.14-0.16,0.27-0.31,0.38-0.45c0.01-0.02,0.02-0.05,0.05-0.09s0.05-0.07,0.07-0.07l0.01,0.01
		c0.03,0,0.06,0.01,0.08,0.03c0.02,0.02,0.04,0.06,0.06,0.1C81.34,29.41,81.36,29.48,81.35,29.53z M77.23,24.42
		c0,0.27-0.07,0.51-0.21,0.7c-0.14,0.19-0.34,0.29-0.61,0.29c-0.17,0-0.35-0.02-0.56-0.08c-0.2-0.05-0.3-0.13-0.3-0.25
		c0-0.21,0.06-0.4,0.19-0.59s0.28-0.34,0.46-0.46c0.15-0.08,0.24-0.13,0.28-0.13c0.24,0,0.42,0.03,0.55,0.1
		C77.17,24.08,77.23,24.21,77.23,24.42z"/>
	<path class="st1" d="M91.53,28.09c0,0.13-0.02,0.27-0.08,0.43c-0.05,0.16-0.11,0.32-0.19,0.48s-0.16,0.32-0.24,0.47
		c-0.09,0.15-0.16,0.27-0.23,0.37c-0.15,0.22-0.32,0.44-0.5,0.68c-0.18,0.23-0.38,0.46-0.59,0.68c-0.21,0.22-0.43,0.43-0.67,0.63
		c-0.24,0.2-0.48,0.38-0.73,0.53c-0.25,0.15-0.52,0.27-0.79,0.35c-0.27,0.09-0.55,0.13-0.83,0.13c-0.21,0-0.39-0.04-0.55-0.11
		c-0.16-0.07-0.3-0.17-0.42-0.3c-0.11-0.13-0.2-0.28-0.26-0.45s-0.09-0.36-0.09-0.57c0-0.1,0-0.22,0.02-0.38s0.02-0.32,0.03-0.49
		c0.01-0.17,0.02-0.34,0.02-0.52c0-0.17,0-0.33-0.01-0.47s-0.03-0.25-0.07-0.34c-0.03-0.09-0.08-0.13-0.15-0.13
		c-0.07,0-0.16,0.04-0.26,0.13c-0.11,0.08-0.22,0.19-0.34,0.32c-0.12,0.13-0.25,0.28-0.38,0.44c-0.13,0.16-0.26,0.33-0.38,0.49
		c-0.12,0.16-0.24,0.31-0.34,0.45c-0.1,0.14-0.19,0.25-0.26,0.34c-0.18,0.23-0.33,0.42-0.46,0.58s-0.24,0.3-0.34,0.42
		s-0.18,0.24-0.26,0.34c-0.08,0.1-0.15,0.22-0.23,0.34c-0.1,0.15-0.18,0.25-0.26,0.31c-0.08,0.06-0.13,0.09-0.17,0.09
		c-0.1,0-0.2-0.01-0.29-0.02s-0.17-0.04-0.23-0.08c-0.07-0.04-0.12-0.09-0.15-0.16c-0.04-0.07-0.05-0.17-0.05-0.29
		c0-0.14,0.01-0.3,0.03-0.46c0.02-0.17,0.05-0.34,0.08-0.53s0.06-0.38,0.09-0.58c0.03-0.2,0.06-0.41,0.09-0.63
		c0.03-0.25,0.05-0.47,0.08-0.68c0.02-0.2,0.04-0.39,0.05-0.58c0.01-0.18,0.02-0.35,0.03-0.52s0.01-0.33,0.01-0.5
		c0-0.07,0.02-0.14,0.05-0.23c0.04-0.08,0.08-0.16,0.13-0.24c0.05-0.07,0.11-0.13,0.18-0.19c0.06-0.05,0.13-0.08,0.19-0.08
		c0.13,0,0.22,0.02,0.3,0.06c0.07,0.04,0.13,0.1,0.17,0.18c0.04,0.08,0.06,0.17,0.07,0.28c0.01,0.11,0.02,0.23,0.02,0.36
		c0,0.24-0.03,0.49-0.08,0.77c-0.05,0.28-0.11,0.56-0.17,0.84c-0.06,0.28-0.12,0.55-0.17,0.81c-0.05,0.26-0.07,0.49-0.07,0.68
		c0.13-0.08,0.27-0.21,0.43-0.4s0.32-0.39,0.49-0.61c0.17-0.22,0.33-0.45,0.5-0.68c0.17-0.23,0.32-0.43,0.47-0.61
		c0.18-0.21,0.33-0.38,0.47-0.52c0.14-0.14,0.26-0.26,0.38-0.36c0.12-0.1,0.23-0.19,0.34-0.26c0.11-0.08,0.22-0.15,0.33-0.22
		c0.04-0.03,0.1-0.06,0.17-0.08s0.15-0.05,0.23-0.07c0.08-0.02,0.15-0.03,0.22-0.05s0.12-0.02,0.15-0.02c0.05,0,0.1,0.02,0.15,0.06
		c0.05,0.04,0.11,0.08,0.15,0.14c0.05,0.05,0.09,0.11,0.12,0.18c0.03,0.06,0.05,0.12,0.05,0.16c0,0.18-0.01,0.4-0.04,0.67
		c-0.02,0.27-0.05,0.55-0.08,0.83s-0.05,0.57-0.08,0.84c-0.02,0.27-0.04,0.5-0.04,0.68c0,0.06,0.01,0.12,0.03,0.2
		c0.02,0.07,0.05,0.14,0.08,0.2c0.04,0.07,0.08,0.12,0.14,0.16c0.05,0.04,0.12,0.07,0.19,0.07c0.28,0,0.56-0.06,0.84-0.17
		c0.28-0.11,0.56-0.26,0.83-0.45s0.54-0.41,0.79-0.66c0.26-0.25,0.5-0.52,0.72-0.8c0.14-0.18,0.28-0.36,0.4-0.54
		c0.12-0.18,0.24-0.35,0.34-0.52c0.1-0.16,0.19-0.31,0.26-0.44s0.13-0.23,0.16-0.3c0.03-0.06,0.08-0.12,0.13-0.16
		c0.06-0.05,0.11-0.07,0.15-0.07c0.01,0,0.03,0.01,0.04,0.03c0.02,0.02,0.03,0.04,0.05,0.07s0.03,0.06,0.04,0.09
		C91.52,28.04,91.53,28.07,91.53,28.09z"/>
	<path class="st1" d="M98.84,32.84c0,0.09-0.05,0.17-0.15,0.25c-0.1,0.08-0.22,0.15-0.35,0.21c-0.14,0.06-0.28,0.11-0.42,0.14
		s-0.26,0.05-0.36,0.05c-0.38,0-0.73-0.04-1.05-0.12c-0.33-0.08-0.66-0.19-0.99-0.33c-0.28-0.11-0.54-0.24-0.79-0.39
		c-0.25-0.15-0.5-0.3-0.75-0.46c-0.25-0.16-0.5-0.32-0.76-0.49c-0.26-0.17-0.53-0.33-0.81-0.49c-0.01,0.01-0.03,0.03-0.06,0.06
		c-0.03,0.03-0.07,0.07-0.11,0.1c-0.04,0.04-0.08,0.08-0.13,0.12s-0.08,0.07-0.11,0.1c-0.11,0.1-0.19,0.18-0.25,0.25
		c-0.06,0.07-0.11,0.14-0.15,0.2c-0.04,0.07-0.07,0.13-0.1,0.19c-0.03,0.06-0.05,0.13-0.09,0.21c0.02,0.08,0.01,0.18-0.01,0.29
		c-0.02,0.11-0.03,0.21-0.03,0.3c0,0.27-0.06,0.48-0.17,0.62c-0.12,0.14-0.3,0.21-0.54,0.21c-0.15,0-0.25-0.04-0.29-0.11
		s-0.06-0.19-0.06-0.35c0-0.05,0.01-0.16,0.03-0.32c0.02-0.17,0.04-0.37,0.07-0.61c0.03-0.24,0.06-0.51,0.1-0.8
		c0.04-0.29,0.08-0.6,0.13-0.91c0.04-0.31,0.09-0.61,0.13-0.92s0.08-0.58,0.12-0.84s0.07-0.48,0.1-0.67s0.05-0.32,0.06-0.41
		c0.01-0.08,0.02-0.19,0.03-0.34s0.03-0.32,0.04-0.51c0.01-0.19,0.03-0.39,0.05-0.59s0.03-0.4,0.05-0.59s0.03-0.35,0.04-0.49
		s0.02-0.24,0.02-0.3l0.05-0.62c0-0.07,0.03-0.14,0.09-0.2c0.05-0.06,0.12-0.12,0.2-0.16c0.08-0.05,0.16-0.08,0.25-0.11
		c0.09-0.03,0.17-0.04,0.25-0.04c0.07,0,0.13,0.01,0.19,0.04s0.1,0.06,0.13,0.11c0.04,0.04,0.06,0.09,0.08,0.14
		c0.02,0.05,0.03,0.09,0.03,0.13c0,0.06-0.01,0.17-0.03,0.32c-0.02,0.16-0.05,0.34-0.09,0.56c-0.04,0.22-0.08,0.46-0.13,0.72
		c-0.05,0.26-0.09,0.52-0.14,0.79c-0.05,0.27-0.1,0.53-0.14,0.78c-0.05,0.25-0.09,0.48-0.13,0.69s-0.07,0.37-0.09,0.51
		c-0.02,0.13-0.04,0.22-0.04,0.25c-0.06,0.51-0.12,0.94-0.16,1.3s-0.09,0.64-0.12,0.84c0.04-0.05,0.12-0.13,0.23-0.25
		c0.11-0.12,0.24-0.27,0.39-0.43c0.15-0.16,0.3-0.33,0.46-0.51c0.16-0.18,0.32-0.35,0.46-0.51c0.14-0.16,0.27-0.3,0.37-0.42
		c0.11-0.12,0.18-0.2,0.21-0.24c0.17-0.22,0.35-0.45,0.53-0.68s0.36-0.43,0.55-0.62s0.36-0.33,0.54-0.45
		c0.18-0.12,0.36-0.17,0.53-0.17c0.27,0,0.4,0.07,0.4,0.22c0,0.07-0.02,0.15-0.07,0.24c-0.04,0.09-0.1,0.19-0.16,0.29
		c-0.06,0.1-0.13,0.19-0.2,0.28c-0.07,0.09-0.13,0.17-0.18,0.22c-0.07,0.08-0.15,0.16-0.25,0.27s-0.21,0.21-0.33,0.33
		c-0.12,0.12-0.24,0.24-0.37,0.36c-0.13,0.12-0.25,0.24-0.37,0.35c-0.12,0.11-0.23,0.22-0.33,0.31c-0.1,0.09-0.18,0.17-0.24,0.23
		c-0.05,0.05-0.1,0.1-0.14,0.14s-0.09,0.08-0.14,0.13c-0.04,0.04-0.09,0.09-0.13,0.14c-0.04,0.05-0.09,0.11-0.14,0.19
		c0.41,0.25,0.82,0.49,1.23,0.72c0.41,0.23,0.82,0.44,1.23,0.63c0.41,0.19,0.81,0.35,1.21,0.49c0.4,0.14,0.79,0.23,1.17,0.29
		c0.15,0.03,0.28,0.04,0.4,0.04c0.12,0,0.21,0,0.29,0c0.08,0,0.14,0.01,0.18,0.02C98.82,32.75,98.84,32.79,98.84,32.84z"/>
	<path class="st1" d="M113.68,29.29c0,0.1-0.03,0.21-0.08,0.31c-0.09,0.18-0.3,0.47-0.63,0.85c-0.16,0.19-0.33,0.37-0.51,0.56
		c-0.18,0.18-0.37,0.37-0.57,0.56c-0.2,0.19-0.4,0.36-0.58,0.51c-0.19,0.15-0.37,0.29-0.55,0.41c-0.36,0.24-0.64,0.36-0.86,0.36
		c-0.08,0-0.19-0.03-0.32-0.09c-0.26-0.12-0.47-0.34-0.63-0.67c-0.15-0.32-0.26-0.66-0.32-1.01c-0.06-0.35-0.12-0.75-0.16-1.18
		c-0.52,0.98-1.2,1.84-2.04,2.6c-0.84,0.76-1.71,1.14-2.6,1.14c-0.25,0-0.44-0.13-0.57-0.4c-0.13-0.26-0.19-0.53-0.19-0.81
		c0-0.38,0.03-0.66,0.09-0.84c0.18-0.54,0.38-1.04,0.61-1.51c0.23-0.47,0.51-0.93,0.83-1.38c0.21-0.29,0.46-0.59,0.73-0.88
		c0.28-0.29,0.54-0.5,0.78-0.63c0.3-0.16,0.74-0.25,1.3-0.25c0.2,0,0.37,0.11,0.5,0.33c0.14,0.22,0.24,0.47,0.31,0.76
		c0.07,0.31,0.11,0.54,0.11,0.72c0.06-0.21,0.12-0.41,0.17-0.63c0.05-0.21,0.09-0.43,0.13-0.66c0.04-0.23,0.07-0.46,0.1-0.71
		s0.06-0.52,0.08-0.8c0.01-0.08,0.02-0.17,0.03-0.29c0.01-0.12,0.02-0.26,0.03-0.42c0.03-0.33,0.05-0.6,0.08-0.83
		c0.03-0.22,0.06-0.37,0.1-0.44c0.1-0.17,0.28-0.26,0.53-0.26c0.13,0,0.25,0.03,0.37,0.08c0.13,0.05,0.19,0.12,0.19,0.21
		c0,0.05-0.01,0.13-0.03,0.25c-0.02,0.11-0.05,0.26-0.08,0.44c-0.03,0.18-0.08,0.4-0.13,0.67s-0.12,0.58-0.19,0.95
		c0,0.04-0.02,0.13-0.04,0.25c-0.02,0.13-0.04,0.26-0.07,0.4s-0.05,0.27-0.07,0.39c-0.02,0.12-0.03,0.19-0.04,0.22
		c-0.05,0.34-0.1,0.66-0.13,0.96c-0.03,0.3-0.05,0.6-0.05,0.91c0,0.24,0.01,0.53,0.02,0.86c0.01,0.33,0.04,0.66,0.09,0.97
		c0.05,0.31,0.12,0.47,0.22,0.47c0.34,0,0.76-0.16,1.25-0.47c0.48-0.32,0.95-0.68,1.4-1.09c0.45-0.41,0.85-0.8,1.19-1.18
		c0.03-0.03,0.05-0.04,0.07-0.04c0.05,0,0.08,0.03,0.09,0.1S113.68,29.22,113.68,29.29z M107.82,29.68
		c-0.11-0.03-0.19-0.08-0.25-0.16c-0.06-0.08-0.08-0.18-0.08-0.28c0-0.08,0.01-0.21,0.04-0.37c0.03-0.16,0.04-0.29,0.04-0.38
		c0-0.08-0.02-0.16-0.06-0.25c-0.04-0.09-0.09-0.18-0.15-0.26c-0.06-0.08-0.13-0.15-0.21-0.21s-0.15-0.08-0.23-0.08
		c-0.22,0-0.52,0.23-0.91,0.7c-0.19,0.24-0.37,0.47-0.53,0.69c-0.16,0.22-0.31,0.43-0.44,0.65c-0.15,0.23-0.27,0.44-0.37,0.63
		c-0.1,0.19-0.19,0.36-0.26,0.52c-0.25,0.53-0.37,0.95-0.37,1.26c0,0.39,0.13,0.58,0.4,0.58c0.24,0,0.56-0.14,0.97-0.41
		c0.42-0.29,0.75-0.55,0.98-0.78c0.24-0.25,0.44-0.46,0.6-0.64s0.29-0.31,0.38-0.42c0.09-0.1,0.18-0.22,0.25-0.35
		S107.75,29.84,107.82,29.68z"/>
	<path class="st1" d="M121.6,28.61c0,0.14-0.04,0.29-0.12,0.46c-0.08,0.16-0.17,0.31-0.27,0.44c-0.26,0.36-0.54,0.68-0.83,0.98
		c-0.29,0.29-0.58,0.58-0.87,0.84c-0.31,0.28-0.61,0.49-0.92,0.65c-0.3,0.15-0.58,0.23-0.82,0.23c-0.1,0-0.21-0.03-0.31-0.08
		c-0.1-0.05-0.2-0.12-0.29-0.2c-0.09-0.08-0.17-0.18-0.24-0.29c-0.07-0.11-0.12-0.22-0.16-0.34c-0.02-0.06-0.04-0.13-0.06-0.22
		s-0.03-0.16-0.05-0.23s-0.04-0.13-0.06-0.18c-0.02-0.05-0.04-0.07-0.07-0.07c-0.02,0-0.05,0.03-0.11,0.08
		c-0.05,0.05-0.12,0.13-0.19,0.21c-0.07,0.09-0.15,0.18-0.24,0.29c-0.08,0.11-0.17,0.21-0.25,0.31c-0.08,0.1-0.16,0.19-0.22,0.28
		c-0.06,0.08-0.12,0.15-0.15,0.19c-0.13,0.15-0.28,0.3-0.46,0.45c-0.18,0.15-0.36,0.29-0.53,0.42s-0.34,0.23-0.49,0.31
		c-0.15,0.08-0.26,0.12-0.33,0.12c-0.16,0-0.31-0.03-0.46-0.08c-0.15-0.05-0.28-0.13-0.39-0.23s-0.2-0.22-0.27-0.37
		c-0.07-0.15-0.1-0.31-0.1-0.5c0-0.31,0.06-0.66,0.19-1.06c0.12-0.4,0.29-0.8,0.49-1.21c0.2-0.41,0.44-0.81,0.7-1.19
		c0.26-0.38,0.54-0.71,0.82-0.98c0.33-0.31,0.68-0.55,1.04-0.7s0.73-0.22,1.12-0.22c0.07,0,0.13,0.02,0.19,0.04s0.1,0.07,0.13,0.11
		c0.04,0.05,0.07,0.1,0.1,0.15s0.06,0.11,0.09,0.17c0.02,0.04,0.05,0.08,0.11,0.13s0.11,0.09,0.17,0.14s0.11,0.1,0.15,0.14
		s0.07,0.09,0.07,0.13c0,0.09-0.02,0.19-0.05,0.29c-0.04,0.11-0.07,0.23-0.12,0.37c-0.04,0.14-0.08,0.3-0.12,0.48
		c-0.04,0.18-0.05,0.38-0.05,0.61c0,0.15,0.01,0.32,0.04,0.52c0.03,0.19,0.07,0.38,0.13,0.55s0.13,0.32,0.22,0.44
		c0.09,0.12,0.19,0.18,0.31,0.18c0.14,0,0.29-0.04,0.43-0.12s0.31-0.2,0.49-0.34c0.41-0.33,0.8-0.69,1.17-1.08
		c0.37-0.39,0.75-0.78,1.13-1.16c0.07-0.07,0.13-0.1,0.19-0.1C121.55,28.38,121.6,28.46,121.6,28.61z M116.68,27.88
		c0-0.01-0.01-0.03-0.02-0.07c-0.01-0.04-0.03-0.08-0.06-0.12c-0.03-0.04-0.06-0.08-0.09-0.11c-0.04-0.03-0.07-0.05-0.12-0.05h-0.01
		c-0.16,0.02-0.32,0.07-0.5,0.15s-0.36,0.22-0.56,0.4s-0.4,0.41-0.62,0.69c-0.22,0.28-0.44,0.62-0.68,1.03
		c-0.07,0.12-0.15,0.25-0.24,0.4c-0.09,0.15-0.17,0.3-0.25,0.48c-0.08,0.17-0.14,0.36-0.2,0.56c-0.05,0.2-0.08,0.4-0.08,0.62
		c0,0.13,0.05,0.23,0.14,0.3c0.09,0.07,0.19,0.1,0.29,0.1c0.1,0,0.24-0.06,0.41-0.17c0.17-0.12,0.35-0.27,0.54-0.46
		c0.2-0.19,0.39-0.41,0.6-0.65s0.39-0.5,0.57-0.76c0.17-0.26,0.32-0.52,0.45-0.77c0.13-0.25,0.21-0.48,0.26-0.69
		c0.01-0.06,0.03-0.14,0.04-0.22c0.02-0.09,0.03-0.17,0.05-0.26s0.03-0.17,0.04-0.24C116.68,27.97,116.68,27.92,116.68,27.88z"/>
	<path class="st1" d="M121.76,28c0.04,0,0.08,0.01,0.13,0.03c0.04,0.02,0.08,0.05,0.12,0.08c0.04,0.03,0.07,0.06,0.1,0.1
		c0.03,0.04,0.06,0.07,0.07,0.1c0.06,0.1,0.08,0.23,0.07,0.42c-0.01,0.18-0.04,0.4-0.1,0.65c-0.05,0.26-0.09,0.48-0.12,0.67
		c-0.03,0.19-0.06,0.38-0.08,0.56c-0.02,0.18-0.03,0.37-0.03,0.57s0,0.43,0.01,0.7c0.11-0.22,0.22-0.47,0.32-0.73
		c0.1-0.27,0.22-0.54,0.36-0.83s0.29-0.57,0.46-0.86c0.17-0.29,0.38-0.58,0.62-0.85c0.1-0.11,0.21-0.21,0.34-0.3
		s0.27-0.18,0.42-0.25s0.3-0.13,0.45-0.18c0.15-0.05,0.3-0.08,0.44-0.09c0.1-0.01,0.22-0.01,0.34,0.02
		c0.12,0.02,0.24,0.06,0.34,0.11c0.11,0.05,0.2,0.12,0.27,0.2c0.07,0.08,0.12,0.17,0.13,0.27c0,0.03,0,0.08-0.02,0.14
		c-0.02,0.07-0.04,0.13-0.08,0.2c-0.03,0.07-0.07,0.12-0.1,0.18c-0.04,0.05-0.07,0.08-0.11,0.08c-0.01,0-0.05,0-0.11-0.02
		s-0.12-0.02-0.2-0.03c-0.07-0.01-0.15-0.02-0.22-0.04c-0.07-0.01-0.13-0.02-0.16-0.02c-0.13,0-0.25,0.01-0.36,0.03
		c-0.11,0.02-0.22,0.06-0.33,0.11c-0.11,0.05-0.21,0.13-0.32,0.22c-0.11,0.09-0.23,0.21-0.35,0.35c-0.13,0.14-0.25,0.31-0.39,0.52
		c-0.13,0.21-0.26,0.43-0.38,0.67c-0.12,0.24-0.24,0.48-0.35,0.73c-0.11,0.25-0.21,0.48-0.29,0.7c-0.05,0.13-0.1,0.27-0.14,0.42
		c-0.05,0.15-0.09,0.3-0.13,0.46c-0.04,0.16-0.08,0.31-0.11,0.47c-0.03,0.16-0.06,0.31-0.09,0.45c0,0.03-0.04,0.07-0.1,0.1
		c-0.06,0.04-0.13,0.07-0.21,0.1c-0.08,0.03-0.16,0.05-0.23,0.07c-0.07,0.02-0.12,0.03-0.14,0.03c-0.11,0.01-0.21-0.03-0.28-0.13
		c-0.07-0.1-0.13-0.22-0.17-0.37c-0.04-0.15-0.07-0.3-0.08-0.47s-0.02-0.32-0.02-0.46c0-0.14,0-0.32,0.01-0.54
		c0.01-0.22,0.02-0.45,0.03-0.69c0.01-0.24,0.02-0.49,0.03-0.73c0.01-0.24,0.02-0.46,0.03-0.64c0.02-0.2,0.02-0.37,0.02-0.5
		c0-0.13,0-0.25-0.01-0.36c-0.01-0.11-0.01-0.21-0.02-0.31c0-0.1,0-0.22,0.01-0.36c0.01-0.1,0.04-0.2,0.08-0.28s0.1-0.16,0.17-0.23
		c0.07-0.06,0.14-0.12,0.22-0.16C121.61,28.02,121.69,28,121.76,28z"/>
	<path class="st1" d="M135.63,32.84c0,0.09-0.05,0.17-0.15,0.25c-0.1,0.08-0.22,0.15-0.35,0.21c-0.14,0.06-0.28,0.11-0.42,0.14
		s-0.26,0.05-0.36,0.05c-0.38,0-0.73-0.04-1.05-0.12c-0.33-0.08-0.66-0.19-0.99-0.33c-0.28-0.11-0.54-0.24-0.79-0.39
		c-0.25-0.15-0.5-0.3-0.75-0.46c-0.25-0.16-0.5-0.32-0.76-0.49c-0.26-0.17-0.53-0.33-0.81-0.49c-0.01,0.01-0.03,0.03-0.06,0.06
		c-0.03,0.03-0.07,0.07-0.11,0.1c-0.04,0.04-0.08,0.08-0.13,0.12s-0.08,0.07-0.11,0.1c-0.11,0.1-0.19,0.18-0.25,0.25
		c-0.06,0.07-0.11,0.14-0.15,0.2c-0.04,0.07-0.07,0.13-0.1,0.19c-0.03,0.06-0.05,0.13-0.09,0.21c0.02,0.08,0.01,0.18-0.01,0.29
		c-0.02,0.11-0.03,0.21-0.03,0.3c0,0.27-0.06,0.48-0.17,0.62c-0.12,0.14-0.3,0.21-0.54,0.21c-0.15,0-0.25-0.04-0.29-0.11
		s-0.06-0.19-0.06-0.35c0-0.05,0.01-0.16,0.03-0.32c0.02-0.17,0.04-0.37,0.07-0.61c0.03-0.24,0.06-0.51,0.1-0.8
		c0.04-0.29,0.08-0.6,0.13-0.91c0.04-0.31,0.09-0.61,0.13-0.92s0.08-0.58,0.12-0.84s0.07-0.48,0.1-0.67s0.05-0.32,0.06-0.41
		c0.01-0.08,0.02-0.19,0.03-0.34s0.03-0.32,0.04-0.51c0.01-0.19,0.03-0.39,0.05-0.59s0.03-0.4,0.05-0.59s0.03-0.35,0.04-0.49
		s0.02-0.24,0.02-0.3l0.05-0.62c0-0.07,0.03-0.14,0.09-0.2c0.05-0.06,0.12-0.12,0.2-0.16c0.08-0.05,0.16-0.08,0.25-0.11
		c0.09-0.03,0.17-0.04,0.25-0.04c0.07,0,0.13,0.01,0.19,0.04s0.1,0.06,0.13,0.11c0.04,0.04,0.06,0.09,0.08,0.14
		c0.02,0.05,0.03,0.09,0.03,0.13c0,0.06-0.01,0.17-0.03,0.32c-0.02,0.16-0.05,0.34-0.09,0.56c-0.04,0.22-0.08,0.46-0.13,0.72
		c-0.05,0.26-0.09,0.52-0.14,0.79c-0.05,0.27-0.1,0.53-0.14,0.78c-0.05,0.25-0.09,0.48-0.13,0.69s-0.07,0.37-0.09,0.51
		c-0.02,0.13-0.04,0.22-0.04,0.25c-0.06,0.51-0.12,0.94-0.16,1.3s-0.09,0.64-0.12,0.84c0.04-0.05,0.12-0.13,0.23-0.25
		c0.11-0.12,0.24-0.27,0.39-0.43c0.15-0.16,0.3-0.33,0.46-0.51c0.16-0.18,0.32-0.35,0.46-0.51c0.14-0.16,0.27-0.3,0.37-0.42
		c0.11-0.12,0.18-0.2,0.21-0.24c0.17-0.22,0.35-0.45,0.53-0.68s0.36-0.43,0.55-0.62s0.36-0.33,0.54-0.45
		c0.18-0.12,0.36-0.17,0.53-0.17c0.27,0,0.4,0.07,0.4,0.22c0,0.07-0.02,0.15-0.07,0.24c-0.04,0.09-0.1,0.19-0.16,0.29
		c-0.06,0.1-0.13,0.19-0.2,0.28c-0.07,0.09-0.13,0.17-0.18,0.22c-0.07,0.08-0.15,0.16-0.25,0.27s-0.21,0.21-0.33,0.33
		c-0.12,0.12-0.24,0.24-0.37,0.36c-0.13,0.12-0.25,0.24-0.37,0.35c-0.12,0.11-0.23,0.22-0.33,0.31c-0.1,0.09-0.18,0.17-0.24,0.23
		c-0.05,0.05-0.1,0.1-0.14,0.14s-0.09,0.08-0.14,0.13c-0.04,0.04-0.09,0.09-0.13,0.14c-0.04,0.05-0.09,0.11-0.14,0.19
		c0.41,0.25,0.82,0.49,1.23,0.72c0.41,0.23,0.82,0.44,1.23,0.63c0.41,0.19,0.81,0.35,1.21,0.49c0.4,0.14,0.79,0.23,1.17,0.29
		c0.15,0.03,0.28,0.04,0.4,0.04c0.12,0,0.21,0,0.29,0c0.08,0,0.14,0.01,0.18,0.02C135.61,32.75,135.63,32.79,135.63,32.84z"/>
</g>
</svg>
