<?xml version="1.0" encoding="utf-8"?>
<!-- Generator: Adobe Illustrator 24.2.3, SVG Export Plug-In . SVG Version: 6.00 Build 0)  -->
<svg version="1.1" id="Capa_1" xmlns="http://www.w3.org/2000/svg" xmlns:xlink="http://www.w3.org/1999/xlink" x="0px" y="0px"
	 viewBox="0 0 60 60" style="enable-background:new 0 0 60 60;" xml:space="preserve">
<style type="text/css">
	.st0{fill:#8C7857;}
</style>
<g>
	<path class="st0" d="M14.66,58.03c-0.8-0.52-0.88-0.98-0.28-1.75c4.16-5.35,7.96-10.94,11.41-16.78c0.1-0.17,0.19-0.34,0.33-0.59
		c-1.19,0.23-2.29,0.45-3.39,0.65c-4.97,0.9-9.97,1.45-15.03,1.16c-1.33-0.08-2.65-0.27-3.97-0.43c-0.62-0.08-0.94-0.43-0.94-0.95
		c0-0.52,0.31-0.84,0.94-0.93c4.87-0.7,9.64-1.82,14.23-3.6c1.9-0.74,3.72-1.66,5.58-2.51c0.16-0.07,0.31-0.18,0.51-0.3
		c-0.78-0.31-1.42-0.71-2.3-0.6c-2.43,0.28-4.66-0.37-6.64-1.84c-0.16-0.12-0.44-0.15-0.66-0.14c-2.36,0.13-4.64-0.17-6.69-1.44
		c-0.72-0.44-1.36-1.04-1.93-1.67c-0.57-0.63-0.18-1.52,0.67-1.54c3.18-0.09,6.08-1.16,8.87-2.55c3.18-1.58,6.29-3.31,9.56-5.04
		c-0.28-0.12-0.42-0.18-0.55-0.24c-2.06-0.86-3.49-2.34-4.34-4.4c-0.1-0.25-0.34-0.51-0.59-0.63c-1.87-0.98-3.38-2.34-4.55-4.09
		c-0.19-0.29-0.48-0.54-0.78-0.71c-1.08-0.63-2.12-1.3-2.9-2.3c-0.35-0.45-0.66-0.97-0.87-1.5c-0.33-0.83,0.24-1.46,1.12-1.33
		c2.82,0.4,5.62,0.9,8.45,1.18c3.34,0.32,6.7,0.44,10.05,0.67c1.07,0.07,2.16,0.14,3.2,0.37c1.85,0.41,3.25,1.55,4.32,3.07
		c0.67,0.95,1.25,1.97,1.8,3c0.8,1.51,1.72,2.92,2.91,4.21c0.12-0.13,0.23-0.25,0.33-0.36c1.39-1.64,3.14-2.57,5.28-2.77
		c0.25-0.02,0.53-0.14,0.73-0.29c1.31-1.02,2.6-2.06,3.9-3.1c0.34-0.27,0.68-0.51,1.14-0.31c0.47,0.2,0.58,0.6,0.63,1.06
		c0.2,1.72,0.42,3.44,0.65,5.16c0.02,0.16,0.07,0.33,0.16,0.45c1.88,2.6,2.3,5.52,1.78,8.6c-0.91,5.41-3.41,9.93-7.73,13.37
		c-3,2.4-6.48,3.76-10.23,4.44c-1.15,0.21-2.32,0.28-3.47,0.46c-0.25,0.04-0.51,0.24-0.68,0.45c-3.08,3.74-6.45,7.21-10.17,10.33
		c-2.86,2.4-5.94,4.47-9.32,6.08C15.02,58.03,14.84,58.03,14.66,58.03z M41.82,22.16c0.94-0.28,1.78-0.53,2.63-0.79
		c0.58-0.18,1.08,0.03,1.26,0.53c0.18,0.48-0.03,0.96-0.57,1.2c-1.53,0.67-3.13,0.95-4.8,0.82c-2.32-0.17-4.32-1.15-6.19-2.44
		c-1.17-0.81-2.26-1.73-3.35-2.64c-1.37-1.15-2.8-1.27-4.35-0.4c-1.32,0.74-2.66,1.45-3.98,2.19c-3.14,1.75-6.27,3.51-9.67,4.71
		c-1.24,0.44-2.52,0.76-3.85,1.16c0.36,0.16,0.66,0.31,0.98,0.43c2.43,0.87,4.88,0.71,7.34,0.16c2.92-0.65,5.63-1.87,8.26-3.27
		c0.62-0.33,1.15-0.21,1.42,0.29c0.27,0.5,0.09,1.05-0.54,1.35c-1.9,0.88-3.8,1.76-5.73,2.57c-0.92,0.38-1.9,0.61-2.85,0.91
		c-0.01,0.05-0.01,0.09-0.02,0.14c0.79,0.17,1.57,0.39,2.37,0.49c1.79,0.23,3.47-0.31,5.12-0.89c2.04-0.73,3.94-1.73,5.68-3.01
		c0.41-0.3,0.84-0.47,1.3-0.13c0.56,0.4,0.5,1.14-0.14,1.6c-1.76,1.25-3.65,2.27-5.64,3.1c-0.11,0.05-0.22,0.12-0.47,0.25
		c1.6,0.08,2.95-0.25,4.24-0.86c1.66-0.79,3.16-1.82,4.53-3.04c0.48-0.43,1.04-0.39,1.4,0.05c0.35,0.42,0.31,0.95-0.18,1.35
		c-0.86,0.7-1.76,1.36-2.65,2.03c-0.14,0.1-0.28,0.2-0.41,0.3c0.04,0.06,0.05,0.09,0.06,0.09c0.05,0.02,0.1,0.04,0.15,0.05
		c1.63,0.22,3.16-0.06,4.44-1.1c0.94-0.76,1.77-1.67,2.61-2.55c0.48-0.51,0.97-0.66,1.42-0.32c0.47,0.35,0.51,0.88,0.07,1.44
		c-0.36,0.47-0.76,0.92-1.2,1.46c0.94-0.07,1.71-0.34,2.28-0.96c0.45-0.49,0.81-1.07,1.19-1.62c0.33-0.48,0.81-0.64,1.27-0.39
		c0.46,0.25,0.61,0.75,0.37,1.27c-0.12,0.25-0.26,0.5-0.42,0.81c1.3-0.08,2.36-0.44,2.89-1.65c0.73-1.67,0.86-4.54-1.01-6.32
		c-0.62-0.59-0.91-1.35-0.95-2.21c-0.09-1.84,1.48-3.39,3.27-3.25c0.62,0.05,1.01,0.41,1.02,0.93c0,0.5-0.36,0.86-0.95,0.94
		c-0.07,0.01-0.15,0.02-0.22,0.02c-0.53,0.03-0.99,0.2-1.17,0.74c-0.19,0.55-0.12,1.1,0.33,1.52c2.97,2.79,2.34,8.04,0.4,10.43
		c-1.27,1.55-2.86,2.69-4.51,3.79c-1.56,1.04-3.15,2.04-4.67,3.15c-0.99,0.72-1.86,1.61-2.78,2.42c0.03,0.05,0.06,0.1,0.1,0.15
		c0.52-0.08,1.04-0.15,1.55-0.25c8.4-1.62,13.85-6.46,16.04-14.8c0.54-2.04,0.8-4.11,0.17-6.21c-1.33-4.41-5.39-5.38-8.26-4.27
		c-2.42,0.93-3.66,2.87-4.21,5.29C42.05,19.88,41.98,20.92,41.82,22.16z M18.29,8.8c0.9,0.84,1.94,1.47,3.08,1.92
		c2.7,1.07,5.49,1.56,8.39,1.52c0.64-0.01,1.05,0.38,1.04,0.94c-0.01,0.54-0.4,0.93-1.02,0.91c-1.02-0.02-2.05-0.03-3.06-0.16
		c-1.39-0.18-2.76-0.46-4.19-0.7c0.13,0.16,0.25,0.31,0.38,0.45c1.2,1.32,2.76,1.97,4.49,2.16c1.37,0.15,2.76,0.11,4.14,0.13
		c0.44,0.01,0.8,0.1,1.01,0.5c0.2,0.38,0.12,0.74-0.15,1.07c-0.03,0.04-0.03,0.09-0.05,0.15c0.39,0.34,0.78,0.68,1.17,1
		c1.55,1.29,3.22,2.39,5.17,2.99c1.06,0.33,1.34,0.13,1.45-0.99c0.01-0.09,0.01-0.18,0.01-0.27c0.05-1.29,0.32-2.53,0.85-3.71
		c0.18-0.39,0.11-0.61-0.15-0.95c-0.99-1.28-1.96-2.58-2.86-3.92c-0.55-0.83-0.93-1.77-1.45-2.63c-1.06-1.76-2.46-3.08-4.6-3.37
		c-0.67-0.09-1.34-0.13-2.02-0.14c-4.37-0.06-8.71-0.43-13.04-0.97c-1.17-0.15-2.33-0.31-3.64-0.48c0.21,0.18,0.3,0.29,0.41,0.37
		c0.52,0.34,1.02,0.71,1.57,0.99c2.89,1.47,6.01,2.09,9.19,2.49c1.5,0.19,3.01,0.28,4.52,0.43c0.58,0.06,0.93,0.45,0.91,0.96
		c-0.02,0.51-0.43,0.88-0.99,0.9c-0.18,0.01-0.36-0.02-0.55-0.03C24.95,10.16,21.61,9.64,18.29,8.8z M18.48,54.08
		c0.35-0.23,0.63-0.41,0.9-0.59c5.02-3.47,9.34-7.71,13.25-12.36c1.75-2.08,3.44-4.23,5.64-5.87c1.62-1.21,3.34-2.27,5.02-3.41
		c0.68-0.46,1.35-0.94,2.12-1.48c-0.63-0.06-1.12-0.12-1.6-0.15c-0.15-0.01-0.33,0.03-0.46,0.12c-1.38,0.9-2.88,1.05-4.47,0.72
		c-0.2-0.04-0.47,0.01-0.65,0.12c-2.36,1.4-4.8,1.58-7.33,0.5c-0.14-0.06-0.32-0.14-0.46-0.11c-1.1,0.24-2.19,0.51-3.28,0.78
		c-0.15,0.04-0.29,0.14-0.43,0.23c-3.25,1.97-6.67,3.6-10.28,4.81c-1.58,0.53-3.19,0.97-4.8,1.46c0.05,0.01,0.1,0.04,0.15,0.03
		c0.42-0.01,0.84-0.02,1.26-0.05c4.91-0.31,9.75-1.03,14.53-2.21c0.46-0.11,0.88-0.1,1.18,0.32c0.28,0.39,0.2,0.79-0.04,1.18
		c-1.68,2.78-3.3,5.59-5.05,8.32C22.03,49,20.26,51.47,18.48,54.08z M52.78,12.28c-0.09-0.69-0.17-1.3-0.27-1.99
		c-0.57,0.46-1.06,0.85-1.58,1.27C51.56,11.8,52.13,12.02,52.78,12.28z"/>
	<path class="st0" d="M45.09,50.18c-0.8-0.2-1.52-0.38-2.24-0.57c-0.62-0.17-0.93-0.63-0.79-1.16c0.14-0.53,0.63-0.78,1.26-0.63
		c0.79,0.19,1.59,0.39,2.45,0.6c0-0.84-0.01-1.64,0-2.44c0.01-0.64,0.4-1.03,0.97-1.01c0.53,0.02,0.88,0.39,0.89,0.97
		c0.01,0.8,0,1.6,0,2.48c0.84-0.2,1.62-0.4,2.41-0.59c0.68-0.17,1.18,0.07,1.31,0.61c0.14,0.58-0.15,1.01-0.83,1.19
		c-0.71,0.19-1.43,0.37-2.22,0.57c0.63,0.84,1.23,1.61,1.79,2.41c0.17,0.24,0.36,0.59,0.3,0.83c-0.08,0.3-0.35,0.62-0.63,0.79
		c-0.38,0.22-0.75,0.01-1.01-0.31c-0.56-0.72-1.1-1.45-1.65-2.18c-0.12-0.16-0.24-0.32-0.41-0.53c-0.46,0.61-0.89,1.18-1.32,1.75
		c-0.24,0.32-0.47,0.65-0.73,0.96c-0.37,0.44-0.88,0.51-1.31,0.2c-0.41-0.3-0.5-0.86-0.18-1.31c0.51-0.71,1.05-1.4,1.57-2.1
		C44.85,50.54,44.95,50.39,45.09,50.18z"/>
	<path class="st0" d="M7.44,14.74c-0.61,0.81-1.19,1.59-1.78,2.37c-0.57,0.76-1.07,0.92-1.58,0.53c-0.51-0.39-0.48-0.89,0.09-1.66
		c0.54-0.72,1.08-1.45,1.68-2.24c-0.73-0.18-1.37-0.33-2.02-0.51c-0.26-0.07-0.54-0.16-0.74-0.32c-0.35-0.28-0.4-0.7-0.2-1.09
		c0.2-0.4,0.56-0.58,1-0.48c0.73,0.16,1.45,0.35,2.18,0.53c0.12,0.03,0.24,0.04,0.45,0.08c0-0.87-0.01-1.7,0-2.53
		c0.01-0.46,0.26-0.76,0.69-0.87c0.41-0.1,0.79,0.02,0.99,0.4c0.12,0.23,0.16,0.52,0.17,0.78c0.02,0.73,0.01,1.45,0.01,2.24
		c0.75-0.18,1.44-0.35,2.12-0.52c0.16-0.04,0.32-0.09,0.48-0.12c0.52-0.09,0.96,0.18,1.09,0.67c0.13,0.47-0.11,0.97-0.63,1.12
		c-0.77,0.23-1.55,0.41-2.4,0.63c0.46,0.62,0.9,1.21,1.34,1.81c0.2,0.26,0.41,0.52,0.59,0.79c0.31,0.47,0.23,1.01-0.18,1.32
		c-0.42,0.31-0.95,0.25-1.31-0.21c-0.6-0.76-1.17-1.54-1.75-2.31C7.67,15.02,7.57,14.91,7.44,14.74z"/>
</g>
</svg>
