<?xml version="1.0" encoding="utf-8"?>
<!-- Generator: Adobe Illustrator 24.2.3, SVG Export Plug-In . SVG Version: 6.00 Build 0)  -->
<svg version="1.1" id="Capa_1" xmlns="http://www.w3.org/2000/svg" xmlns:xlink="http://www.w3.org/1999/xlink" x="0px" y="0px"
	 viewBox="0 0 60 60" style="enable-background:new 0 0 60 60;" xml:space="preserve">
<style type="text/css">
	.st0{fill:#8C7857;}
</style>
<g>
	<path class="st0" d="M1.58,43.09c0.97-0.76,1.94-1.51,2.89-2.29c0.16-0.13,0.32-0.36,0.33-0.55c0.1-1.14,0.19-2.29,0.23-3.43
		c0.04-1.1,0.47-1.88,1.63-2.17c-1.48-4.14-0.72-7.81,2.29-11.13c-0.26-0.22-0.54-0.41-0.76-0.66c-0.33-0.37-0.32-0.83-0.01-1.15
		c0.33-0.34,0.79-0.36,1.19,0.01c0.27,0.25,0.49,0.55,0.64,0.73c1.18-0.5,2.21-1.01,3.29-1.37c0.73-0.24,1.53-0.25,2.28-0.41
		c0.26-0.05,0.54-0.19,0.73-0.37c0.79-0.78,1.53-1.61,2.32-2.38c0.49-0.48,1.02-0.48,1.36-0.08c0.33,0.38,0.26,0.86-0.24,1.31
		c-2.07,1.82-3.64,3.98-4.58,6.57c-1.38,3.8-1.35,7.6,0.09,11.38c0.13,0.34,0.29,0.68,0.43,1.02c0.31,0.76,0.16,1.12-0.6,1.43
		c-1.15,0.48-1.7,1.54-1.39,2.68c0.26,0.96,1.11,1.6,2.2,1.63c0.94,0.02,1.89,0,2.83,0.01c0.82,0,1.08,0.27,1.09,1.11
		c0.01,1.05-0.02,2.11,0.01,3.16c0.03,1.06,0.77,1.83,1.78,1.94c0.89,0.09,1.77-0.51,2.03-1.39c0.07-0.25,0.08-0.51,0.15-0.76
		c0.12-0.44,0.43-0.64,0.87-0.6c0.42,0.05,0.67,0.3,0.71,0.73c0.04,0.46,0.01,0.93,0.08,1.38c0.14,0.95,0.94,1.63,1.88,1.64
		c0.95,0.01,1.77-0.68,1.93-1.65c0.03-0.16,0.05-0.33,0.09-0.49c0.1-0.39,0.36-0.6,0.75-0.61c0.42-0.01,0.7,0.19,0.82,0.6
		c0.04,0.16,0.06,0.33,0.09,0.49c0.15,0.94,0.92,1.63,1.87,1.67c0.9,0.03,1.74-0.61,1.93-1.52c0.07-0.36,0.07-0.73,0.08-1.1
		c0.02-0.74,0.25-1.1,0.77-1.14c0.52-0.03,0.82,0.3,0.91,1.02c0.11,0.81,0.55,1.37,1.31,1.63c1.28,0.44,2.53-0.48,2.57-1.87
		c0.02-1.04,0-2.07,0.01-3.11c0-0.86,0.27-1.12,1.13-1.13c0.87,0,1.74,0,2.61,0c1.31-0.01,2.2-0.68,2.43-1.83
		c0.22-1.07-0.35-2-1.53-2.51c-0.66-0.29-0.83-0.69-0.52-1.38c0.67-1.49,1.16-3.03,1.38-4.66c0.47-3.52-0.15-6.84-1.87-10
		c-2.97,1.27-5.87,1.2-8.6-0.53c-2.72-1.73-4.06-4.31-4.16-7.58c-1.42-0.09-2.82-0.08-4.19,0.26c-1.21,0.31-2.39,0.74-3.58,1.13
		c-0.21,0.07-0.41,0.18-0.62,0.24c-0.46,0.14-0.85,0.04-1.06-0.43c-0.19-0.43-0.03-0.88,0.46-1.1c0.72-0.33,1.46-0.61,2.2-0.9
		c0.36-0.14,0.73-0.24,1.08-0.35c0.07-0.68,0.14-1.33,0.18-1.97c0.01-0.18-0.07-0.39-0.19-0.53c-0.25-0.3-0.55-0.55-0.81-0.84
		c-0.39-0.43-0.4-0.89-0.04-1.23c0.32-0.31,0.79-0.3,1.2,0.05c0.14,0.12,0.27,0.25,0.44,0.41c0.11-0.2,0.2-0.36,0.29-0.53
		c1.61-3.15,4.15-5.02,7.64-5.62c0.13-0.02,0.26-0.06,0.38-0.04c0.82,0.11,1.4-0.26,1.9-0.87c0.32-0.39,0.73-0.59,1.22-0.29
		C38.23,3,38.28,3.4,37.99,4.04c0.46,0.29,0.83,0.28,1.22-0.18c0.47-0.55,1-1.04,1.52-1.54c0.49-0.47,0.96-0.48,1.39,0.04
		c0.65,0.78,1.26,1.59,1.83,2.43c0.2,0.29,0.36,0.44,0.73,0.45c1.24,0.05,2.47,0.14,3.71,0.22c1.06,0.08,1.71,0.73,1.79,1.83
		c0.09,1.24,0.17,2.47,0.23,3.71c0.01,0.31,0.13,0.48,0.39,0.66c0.79,0.54,1.58,1.09,2.32,1.71c0.76,0.63,0.74,1.02,0.02,1.74
		c-0.75,0.74-1.49,1.48-2.26,2.24c0.85,0.35,1.68,0.63,2.45,1.02c2.32,1.2,3.97,3.04,4.98,5.46c0.25,0.61,0.07,1.01-0.57,1.27
		c-0.94,0.38-1.89,0.74-2.83,1.13c-0.16,0.07-0.35,0.29-0.35,0.44c0.01,3.88-1.59,6.88-4.82,9.01c-0.05,0.03-0.08,0.07-0.15,0.13
		c0.19,0.2,0.38,0.39,0.55,0.6c0.3,0.37,0.29,0.87-0.04,1.15c-0.36,0.3-0.75,0.3-1.11,0.01c-0.19-0.15-0.38-0.31-0.51-0.5
		c-0.33-0.47-0.75-0.56-1.23-0.29c-0.2,0.11-0.41,0.29-0.52,0.49c-0.16,0.28-0.24,0.61-0.37,0.96c0.95,0.6,1.61,1.42,1.86,2.53
		c0.55,2.5-1.27,4.7-3.92,4.75c-0.7,0.01-1.4,0-2.19,0c0,0.83,0.01,1.64,0,2.45c-0.01,1.35-0.53,2.47-1.69,3.19
		c-1.34,0.83-2.7,0.78-4.02-0.09c-0.09-0.06-0.18-0.12-0.3-0.21c-0.67,1.06-1.59,1.73-2.83,1.85c-1.23,0.11-2.28-0.34-3.11-1.24
		c-2.63,1.85-4.15,1.7-6.02-0.57c-0.34,0.19-0.69,0.35-1.01,0.57c-0.12,0.08-0.2,0.25-0.24,0.4c-0.89,3.35-3.02,5.38-6.43,6.03
		c-1.43,0.27-2.83,0.04-4.19-0.49c-2.46-0.97-4.92-1.93-7.37-2.9c-0.86-0.34-1-0.72-0.64-1.54c0.57-1.28,1.33-2.43,2.34-3.4
		c0.12-0.11,0.22-0.24,0.44-0.48c-0.34-0.29-0.69-0.53-0.98-0.84c-0.37-0.39-0.36-0.86-0.03-1.19c0.33-0.33,0.78-0.32,1.19,0.03
		c0.39,0.33,0.73,0.91,1.15,0.96c0.42,0.05,0.9-0.43,1.37-0.63c2.49-1.09,5.03-1.23,7.63-0.42c0.19,0.06,0.39,0.13,0.58,0.19
		c0.03,0.01,0.07,0,0.14,0c0-0.53,0-1.05,0-1.7c-0.94,0-1.87,0.08-2.78-0.02c-2.12-0.24-3.54-2.05-3.37-4.2c0.01-0.07,0-0.14,0-0.2
		c-2.5-0.6-6.18,0.46-8.31,2.42c0.26,0.27,0.54,0.53,0.79,0.81c0.39,0.43,0.42,0.9,0.08,1.24c-0.34,0.34-0.83,0.35-1.23-0.05
		c-0.59-0.58-1.14-1.21-1.71-1.81C1.58,43.46,1.58,43.27,1.58,43.09z M37.42,5.68c-2-0.33-3.76-0.12-5.61,0.83
		c0.29,0.22,0.5,0.34,0.66,0.51c0.4,0.41,0.43,0.89,0.11,1.23c-0.35,0.38-0.82,0.37-1.27-0.05c-0.28-0.26-0.52-0.56-0.77-0.83
		c-1.97,1.38-3.5,4.58-3.17,6.29c1.28,0,2.54,0.01,3.79-0.02c0.14,0,0.35-0.2,0.41-0.35c0.35-0.79,0.63-1.61,1-2.39
		c0.27-0.57,0.73-0.71,1.18-0.49c0.44,0.23,0.55,0.68,0.29,1.24c-0.05,0.1-0.11,0.19-0.15,0.3c-0.28,0.84-0.65,1.66-0.8,2.51
		c-0.51,2.92,1.15,6.07,3.79,7.39c0.32,0.16,0.52,0.11,0.76-0.14c1.02-1.05,2.07-2.06,3.09-3.11c2.64-2.7,3.67-5.93,3.03-9.65
		c-0.32-1.85-1.12-3.5-2.42-4.99c-0.16,0.19-0.28,0.36-0.42,0.5c-1.44,1.44-2.87,2.88-4.32,4.32c-0.44,0.44-0.85,0.5-1.23,0.21
		c-0.42-0.32-0.44-0.87-0.01-1.31C36,7.05,36.66,6.43,37.42,5.68z M6,53.13c2.25,0.89,4.41,1.74,6.57,2.59
		c0.26,0.1,0.52,0.19,0.78,0.28c1.04,0.36,2.1,0.41,3.17,0.2c2.26-0.45,4.31-2.42,4.63-4.45c-0.42-0.18-0.83-0.39-1.26-0.54
		c-0.31-0.11-0.65-0.19-0.98-0.2c-0.33-0.01-0.66,0.08-0.99,0.13c-2.31,0.31-4.61,0.62-6.92,0.92c-0.65,0.09-1.06-0.18-1.12-0.69
		c-0.06-0.53,0.26-0.87,0.91-0.96c1.43-0.19,2.86-0.38,4.28-0.57c1.09-0.15,2.18-0.3,3.26-0.45c0.01-0.06,0.02-0.13,0.03-0.19
		c-1.27-0.78-2.7-1.11-4.18-1.07C10.54,48.22,7.81,49.87,6,53.13z M45.67,11.8c-0.02,0.03-0.06,0.06-0.06,0.09
		c-0.02,0.11-0.04,0.22-0.05,0.33c-0.18,1.91-0.8,3.67-1.8,5.3c-0.91,1.48-2.19,2.64-3.41,3.85c-0.37,0.37-0.79,0.7-1.19,1.05
		c0.26,0.18,0.4,0.22,0.54,0.23c1.97,0.11,3.78-0.39,5.22-1.74c2.26-2.13,4.42-4.36,6.62-6.55c0.02-0.02,0.02-0.06,0.03-0.1
		C50.27,12.93,47.31,11.69,45.67,11.8z M14.76,22.48c-2.79,0.26-5.66,2.6-6.64,5.3c-0.28,0.78-0.28,1.35,0.44,1.84
		c0.16,0.11,0.29,0.29,0.4,0.45c0.22,0.34,0.21,0.73-0.09,0.95c-0.23,0.17-0.59,0.18-0.9,0.23c-0.1,0.01-0.22-0.1-0.33-0.16
		c-0.06,0.02-0.11,0.04-0.17,0.07c0.26,0.97,0.53,1.94,0.79,2.91c0.1,0.38,0.32,0.52,0.72,0.47c0.57-0.07,1.14-0.06,1.71-0.13
		c0.19-0.02,0.4-0.16,0.52-0.31c0.34-0.46,0.66-0.93,0.94-1.43c0.16-0.29,0.31-0.63,0.31-0.95c-0.01-2.33,0.34-4.6,1.21-6.77
		C14,24.11,14.4,23.3,14.76,22.48z M47.67,20.52c0.41,0.06,0.66,0.11,0.92,0.14c1.08,0.15,2.16,0.29,3.24,0.45
		c0.55,0.08,0.87,0.49,0.8,0.95c-0.08,0.47-0.48,0.75-1.03,0.7c-0.09-0.01-0.18-0.03-0.27-0.04c-1.48-0.2-2.97-0.37-4.45-0.62
		c-0.6-0.1-0.99,0.08-1.28,0.48c0.59,1.49,1.17,2.93,1.79,4.49c3.17-0.57,6.01-2.21,9.13-3.23c-1.54-2.81-3.8-4.42-6.84-4.92
		c-0.14-0.02-0.33,0.04-0.44,0.13C48.73,19.49,48.26,19.95,47.67,20.52z M50.84,32.58c-0.33-0.3-0.65-0.55-0.93-0.84
		c-0.43-0.44-0.45-0.92-0.08-1.27c0.36-0.34,0.8-0.31,1.24,0.09c0.24,0.22,0.46,0.44,0.71,0.68c0.78-1.4,1.19-3,1.07-4.11
		c-1.73,0.57-3.47,1.15-5.25,1.74c0.33,1.95,0.17,4.01-0.19,6.12C48.77,34.46,49.83,33.69,50.84,32.58z M10.22,36.11
		c-1.07,0.07-2.14,0.13-3.2,0.21c-0.1,0.01-0.27,0.16-0.28,0.25c-0.08,1.08-0.14,2.16-0.2,3.21c0.99-0.18,1.92-0.34,2.84-0.52
		c0.11-0.02,0.27-0.15,0.3-0.25C9.87,38.07,10.04,37.11,10.22,36.11z M45.05,6.93c0.18,0.99,0.34,1.91,0.52,2.83
		c0.03,0.13,0.18,0.3,0.29,0.32c0.93,0.19,1.88,0.35,2.86,0.53c-0.06-1.06-0.12-2.13-0.2-3.19c-0.01-0.11-0.2-0.28-0.31-0.29
		C47.16,7.05,46.11,6.99,45.05,6.93z M12.76,34.76c-0.82,1.42-1.28,2.87-1.42,4.55c0.52-0.03,1.04,0.06,1.42-0.12
		c0.42-0.2,0.73-0.65,1.07-0.98C13.49,37.1,13.14,35.98,12.76,34.76z"/>
	<path class="st0" d="M37.35,37.79c-2.74-0.02-4.99-2.27-4.98-4.99c0.01-2.73,2.26-4.97,4.99-4.99c2.74-0.01,5.02,2.28,4.99,5.03
		C42.33,35.6,40.09,37.81,37.35,37.79z M40.69,32.8c-0.01-1.83-1.49-3.31-3.31-3.32c-1.81,0-3.31,1.49-3.33,3.31
		c-0.02,1.83,1.51,3.35,3.36,3.33C39.24,36.11,40.7,34.63,40.69,32.8z"/>
	<path class="st0" d="M22.88,37.79c-2.74,0-4.98-2.22-4.99-4.96c-0.01-2.75,2.28-5.04,5.01-5.01c2.74,0.03,4.99,2.29,4.98,5
		C27.86,35.54,25.61,37.79,22.88,37.79z M22.86,36.13c1.82,0.01,3.32-1.47,3.35-3.29c0.03-1.81-1.53-3.37-3.35-3.35
		c-1.83,0.02-3.3,1.5-3.3,3.33C19.55,34.64,21.02,36.12,22.86,36.13z"/>
	<path class="st0" d="M30.13,39.16c-0.49,0.52-0.87,0.95-1.29,1.35c-0.45,0.43-0.92,0.44-1.27,0.07c-0.33-0.35-0.3-0.81,0.1-1.23
		c0.58-0.6,1.17-1.19,1.77-1.77c0.48-0.46,0.89-0.47,1.36-0.01c0.6,0.58,1.19,1.17,1.77,1.77c0.42,0.44,0.44,0.93,0.09,1.27
		c-0.37,0.36-0.82,0.33-1.27-0.12C30.97,40.09,30.59,39.66,30.13,39.16z"/>
</g>
</svg>
