<?xml version="1.0" encoding="utf-8"?>
<!-- Generator: Adobe Illustrator 24.2.3, SVG Export Plug-In . SVG Version: 6.00 Build 0)  -->
<svg version="1.1" id="Capa_1" xmlns="http://www.w3.org/2000/svg" xmlns:xlink="http://www.w3.org/1999/xlink" x="0px" y="0px"
	 viewBox="0 0 60 60" style="enable-background:new 0 0 60 60;" xml:space="preserve">
<style type="text/css">
	.st0{fill:#8C7857;}
</style>
<g>
	<g>
		<path class="st0" d="M60,43.3c-0.57,0.78-1.06,0.81-1.76,0.1c-2.56-2.56-5.12-5.12-7.68-7.68c-0.15-0.15-0.25-0.35-0.37-0.53
			c-1.12,0.95-2.11,1.79-3.13,2.66c1.08,1.62,2.16,3.23,3.24,4.83c0.09,0.13,0.18,0.26,0.26,0.39c0.33,0.54,0.27,1.05-0.16,1.35
			c-0.45,0.31-0.92,0.19-1.29-0.36c-1.05-1.55-2.09-3.12-3.14-4.68c-0.12-0.18-0.24-0.35-0.35-0.5c-1.51,0.74-2.97,1.55-4.49,2.18
			c-1.51,0.62-3.1,1.06-4.72,1.59c0.24,1.28,0.49,2.62,0.74,3.96c0.08,0.44,0.18,0.88,0.25,1.32c0.1,0.6-0.18,1.06-0.72,1.15
			c-0.55,0.1-0.88-0.14-1-0.8c-0.32-1.63-0.62-3.26-0.93-4.9c-0.03-0.13-0.06-0.26-0.11-0.49c-3.13,0.46-6.25,0.48-9.42-0.01
			c-0.28,1.45-0.54,2.83-0.8,4.21c-0.08,0.4-0.15,0.81-0.23,1.21c-0.13,0.58-0.53,0.86-1.05,0.76c-0.49-0.1-0.78-0.55-0.67-1.13
			c0.31-1.69,0.64-3.38,0.96-5.07c0.01-0.08,0.02-0.15,0.04-0.32c-3.25-0.74-6.31-1.97-9.17-3.76c-1.13,1.69-2.23,3.32-3.33,4.96
			c-0.12,0.18-0.23,0.37-0.38,0.52c-0.33,0.34-0.74,0.37-1.12,0.12c-0.37-0.24-0.48-0.61-0.31-1.03c0.09-0.21,0.23-0.41,0.36-0.6
			c1.1-1.64,2.19-3.28,3.3-4.92c-1.01-0.86-1.99-1.69-3.02-2.57c-0.14,0.13-0.29,0.27-0.44,0.42c-2.51,2.5-5.01,5.01-7.51,7.51
			c-0.1,0.1-0.19,0.2-0.29,0.29c-0.49,0.46-1.04,0.51-1.41,0.15c-0.39-0.39-0.34-0.89,0.16-1.39c2.54-2.55,5.09-5.1,7.64-7.64
			c0.21-0.21,0.43-0.4,0.67-0.63c-0.35-0.43-0.67-0.82-0.99-1.21c-1.48-1.81-1.5-3.99-0.04-5.8c0.56-0.7,1.16-1.38,1.77-2.11
			c-0.13-0.14-0.27-0.3-0.42-0.44c-2.74-2.74-5.48-5.48-8.22-8.22c-0.1-0.1-0.19-0.19-0.29-0.29c-0.61-0.62-0.7-1.09-0.29-1.52
			c0.4-0.42,0.94-0.33,1.52,0.25c1.73,1.73,3.46,3.46,5.19,5.19c1.26,1.26,2.51,2.52,3.78,3.78c1.07-0.82,2.1-1.62,3.18-2.46
			c-0.18-0.28-0.37-0.57-0.56-0.85c-1.14-1.71-2.29-3.41-3.43-5.12C9.69,15,9.49,14.78,9.5,14.58c0.02-0.32,0.11-0.7,0.31-0.92
			c0.27-0.3,0.69-0.26,1.01,0.01c0.18,0.15,0.31,0.35,0.44,0.54c1.34,1.99,2.68,3.99,4.05,6.02c1.08-0.53,2.14-1.05,3.25-1.59
			c-0.61-1.43-1.21-2.84-1.82-4.25c-1.03-2.39-2.06-4.77-3.09-7.16c-0.08-0.18-0.15-0.36-0.2-0.55c-0.14-0.47,0.05-0.83,0.46-1.02
			c0.41-0.19,0.81-0.1,1.08,0.31c0.12,0.18,0.2,0.38,0.28,0.58c1.56,3.62,3.12,7.25,4.68,10.87c0.08,0.2,0.18,0.39,0.27,0.59
			c1.17-0.32,2.31-0.64,3.53-0.97c-0.15-0.81-0.29-1.63-0.44-2.45c-0.28-1.48-0.56-2.96-0.84-4.44c-0.12-0.63,0.13-1.07,0.65-1.18
			c0.53-0.11,0.93,0.18,1.06,0.83c0.43,2.23,0.85,4.45,1.28,6.68c0.01,0.07,0.04,0.15,0.06,0.24c1.16-0.1,2.3-0.21,3.52-0.32
			c0-0.25,0-0.48,0-0.71c0-3.78,0-7.55,0-11.33c0-0.96,0.28-1.37,0.9-1.36c0.6,0.01,0.86,0.41,0.86,1.34c0,3.78,0,7.55,0,11.33
			c0,0.23,0,0.46,0,0.73c1.2,0.11,2.34,0.21,3.54,0.32c0.33-1.73,0.65-3.45,0.98-5.18c0.11-0.6,0.22-1.19,0.35-1.78
			c0.13-0.6,0.52-0.89,1.03-0.8c0.52,0.09,0.8,0.55,0.68,1.16c-0.39,2.09-0.79,4.19-1.18,6.28c-0.04,0.21-0.06,0.42-0.08,0.63
			c1.19,0.33,2.33,0.64,3.53,0.97c0.52-1.2,1.04-2.39,1.55-3.59c1.14-2.64,2.27-5.28,3.41-7.91c0.05-0.11,0.09-0.22,0.14-0.32
			c0.27-0.54,0.73-0.74,1.2-0.54c0.45,0.19,0.64,0.7,0.41,1.25c-0.79,1.87-1.6,3.73-2.41,5.6c-0.88,2.04-1.76,4.09-2.64,6.15
			c1.08,0.53,2.13,1.05,3.22,1.58c0.11-0.15,0.23-0.29,0.33-0.45c1.24-1.85,2.49-3.7,3.73-5.55c0.12-0.18,0.24-0.36,0.4-0.51
			c0.33-0.31,0.71-0.34,1.07-0.08c0.36,0.25,0.48,0.62,0.3,1.03c-0.08,0.2-0.21,0.38-0.33,0.55c-1.32,1.97-2.63,3.93-3.97,5.93
			c1.05,0.82,2.09,1.62,3.17,2.45c0.16-0.15,0.31-0.29,0.46-0.44c2.85-2.85,5.7-5.7,8.55-8.55c0.71-0.71,1.18-0.67,1.75,0.14
			c0,0.16,0,0.31,0,0.47c-0.21,0.26-0.4,0.53-0.63,0.76c-2.8,2.81-5.61,5.62-8.42,8.43c-0.15,0.15-0.29,0.31-0.42,0.44
			c0.63,0.74,1.23,1.43,1.81,2.15c1.41,1.76,1.39,3.95-0.04,5.71c-0.33,0.41-0.66,0.81-1.09,1.34c2.94,2.9,5.87,5.77,8.79,8.65
			C60,42.9,60,43.1,60,43.3z M29.57,22.67c-1.49,0.14-2.6,0.23-3.7,0.35c-0.24,0.03-0.5,0.13-0.69,0.27
			c-3.88,2.92-3.87,9.04-0.08,12.06c2.97,2.36,7.67,2.14,10.37-0.65c3.1-3.21,2.84-8.59-0.67-11.34c-0.15-0.12-0.33-0.23-0.51-0.25
			C32.59,22.94,30.9,22.79,29.57,22.67z M49.94,26.99C39.23,14.64,18.99,15.91,9.9,27.06c6.22-3.69,12.78-6.07,20.01-6.08
			C37.17,20.98,43.74,23.36,49.94,26.99z M49.87,32.73c-6.17,3.61-12.72,5.98-19.95,5.98c-7.22,0-13.76-2.38-19.93-5.97
			C20.36,44.77,40.49,44.02,49.87,32.73z M8.93,29.85c3.57,2.68,11.85,6.3,14.31,6.25c-3.33-3.83-3.67-7.93-1.08-12.29
			C19.57,24.03,11.85,27.55,8.93,29.85z M37.65,23.73c2.67,4.46,2.3,8.55-1.12,12.49c5.33-1.22,10.05-3.38,14.46-6.38
			C46.89,27.03,42.52,24.99,37.65,23.73z"/>
		<path class="st0" d="M29.94,58.23c-2.31,0-4.23-1.94-4.08-4.24c0.15-2.23,0.73-4.36,1.86-6.3c1.3-2.23,3.14-2.23,4.44,0.01
			c1.13,1.94,1.72,4.07,1.86,6.3C34.17,56.3,32.24,58.23,29.94,58.23z M29.95,56.47c1.32-0.01,2.42-1.09,2.31-2.43
			c-0.16-1.97-0.68-3.85-1.69-5.56c-0.5-0.85-0.75-0.85-1.24-0.02c-1.03,1.73-1.56,3.63-1.71,5.61
			C27.52,55.4,28.63,56.48,29.95,56.47z"/>
		<path class="st0" d="M40.36,45.75c0.13-0.87,0.15-1.52,0.33-2.13c0.36-1.25,1.46-1.68,2.58-1.01c1.69,1.01,2.82,2.54,3.53,4.32
			c0.62,1.56-0.34,3.34-1.92,3.87c-1.64,0.55-3.41-0.27-3.91-1.93C40.65,47.8,40.53,46.66,40.36,45.75z M42.36,44.05
			c-0.05,0.29-0.12,0.48-0.11,0.66c0.09,1.14,0.18,2.28,0.33,3.42c0.07,0.52,0.37,0.96,0.95,1.06c0.59,0.11,1.08-0.08,1.44-0.57
			c0.35-0.48,0.36-1.01,0.03-1.48c-0.66-0.91-1.36-1.79-2.06-2.67C42.81,44.32,42.6,44.23,42.36,44.05z"/>
		<path class="st0" d="M19.64,45.79c-0.18,0.95-0.29,2.02-0.6,3.04c-0.54,1.78-2.49,2.61-4.16,1.87c-1.69-0.75-2.35-2.7-1.46-4.33
			c0.82-1.51,1.79-2.9,3.32-3.78c1.11-0.64,2.18-0.24,2.55,0.99C19.49,44.25,19.52,44.96,19.64,45.79z M17.68,44.13
			c-0.13,0.03-0.2,0.03-0.24,0.06c-1.14,0.89-2.05,1.99-2.59,3.34c-0.32,0.81,0.34,1.64,1.22,1.64c0.82,0,1.19-0.33,1.45-1.38
			C17.82,46.59,17.89,45.38,17.68,44.13z"/>
		<path class="st0" d="M34.59,29.34c-0.27,0.78-0.48,1.59-0.83,2.33c-0.34,0.72-0.86,0.88-1.36,0.59c-0.49-0.29-0.54-0.78-0.14-1.47
			c0.85-1.46,0.34-3.24-1.16-3.92c-1.06-0.48-2.07-0.35-2.95,0.42c-0.86,0.75-1.14,1.72-0.82,2.81c0.32,1.11,1.09,1.77,2.25,1.94
			c0.17,0.03,0.35,0.05,0.52,0.09c0.5,0.11,0.73,0.44,0.68,0.94c-0.05,0.51-0.38,0.77-0.87,0.76c-1.63-0.02-2.92-0.73-3.76-2.1
			c-1.01-1.63-0.98-3.33,0.1-4.91c1.08-1.58,2.67-2.23,4.55-1.87c1.9,0.37,3.07,1.6,3.55,3.48c0.02,0.08,0.03,0.15,0.04,0.23
			c0.02,0.21,0.03,0.43,0.04,0.64C34.48,29.3,34.54,29.32,34.59,29.34z"/>
	</g>
</g>
</svg>
