<?xml version="1.0" encoding="utf-8"?>
<!-- Generator: Adobe Illustrator 24.2.3, SVG Export Plug-In . SVG Version: 6.00 Build 0)  -->
<svg version="1.1" id="Capa_1" xmlns="http://www.w3.org/2000/svg" xmlns:xlink="http://www.w3.org/1999/xlink" x="0px" y="0px"
	 viewBox="0 0 137 40" style="enable-background:new 0 0 137 40;" xml:space="preserve">
<style type="text/css">
	.st0{fill:#8C7857;}
	.st1{fill:#FFFFFF;}
</style>
<g>
	<g>
		<path class="st0" d="M15.69,13.44c0,0.65-0.51,1.15-1.15,1.15c-2.49,0-2.05-3.78-4.98-3.78c-1.31,0-2.17,0.62-2.17,1.57
			c0,3.78,9.64,3.14,9.64,9.46c0,3.6-2.84,5.44-7.48,5.44c-3.18,0-5.79-1.36-6.71-2.26c-0.18-0.18-0.3-0.35-0.3-0.53
			c0-0.25,0.21-0.46,0.46-0.46c0.58,0,1.06,1.18,2.38,1.92c0.78,0.44,2.1,0.85,3.48,0.85c2.17,0,3.58-1.18,3.58-2.65
			c0-4.01-9.39-3.28-9.39-9.23c0-2.88,2.4-4.52,6.51-4.52C12.92,10.39,15.69,11.78,15.69,13.44z"/>
		<path class="st0" d="M24.76,27.28c-4.04,0-6.97-2.68-6.97-6.37s3.14-6.37,7.43-6.37c3,0,5.42,1.2,5.42,3.51
			c0,3.11-5.68,3.95-7.08,4.06c0.6,2.79,2.17,4.31,3.69,4.31c1.96,0,2.26-1.82,2.88-1.82c0.21,0,0.35,0.14,0.35,0.35
			c0,0.16-0.12,0.28-0.21,0.37C28.75,26.71,27.07,27.28,24.76,27.28z M23.49,21.72c1.66-0.88,3.09-3.09,3.09-5.08
			c0-1.06-0.51-1.73-1.36-1.73c-1.71,0-1.92,3.16-1.92,4.61C23.31,20.31,23.38,21.05,23.49,21.72z"/>
		<path class="st0" d="M40.54,14.55c1.96,0,3.35,1.15,3.35,2.56c0,0.51-0.42,0.92-0.92,0.92c-1.82,0-1.38-2.88-3.53-2.88
			c-0.95,0-1.55,0.69-1.55,1.78v7.84c0,1.04,0.53,1.78,1.25,1.78v0.37h-7.75v-0.37c0.71,0,1.25-0.74,1.25-1.78v-7.71
			c0-1.04-0.53-1.78-1.25-1.78v-0.37h2.19c1.45,0,2.77,0.51,3.55,1.36C37.77,15.38,38.77,14.55,40.54,14.55z"/>
		<path class="st0" d="M53.58,24.05c-0.02-0.23-0.05-0.46-0.05-0.69c0-1.89,0.53-4.68,1.27-6.71c1.34-3.65,3.99-6.25,7.13-6.25
			c1.52,0,2.51,0.76,2.51,1.96c0,1.08-1.22,1.96-2.75,1.96c-1.13,0-1.5-0.3-2.68-0.3c-2.86,0-5.12,6.37-5.12,9.71
			c0,1.34,0.67,2.81,1.59,2.81v0.37h-2.61c-3.04,0-4.34-1.41-5.01-3.35l-2.28-6.6c-0.35-1.02-1.04-1.68-1.73-1.68v-0.37h7.8v0.37
			c-0.69,0-0.88,0.74-0.53,1.73L53.58,24.05z M59.76,24.77v-7.71c0-1.04-0.53-1.78-1.25-1.78v-0.37h2.19c2.35,0,4.31,1.32,4.31,3.35
			v6.51c0,1.04,0.53,1.78,1.25,1.78v0.37h-7.75v-0.37C59.23,26.54,59.76,25.81,59.76,24.77z"/>
		<path class="st0" d="M73.82,27.28c-4.04,0-6.97-2.68-6.97-6.37s3.14-6.37,7.43-6.37c2.38,0,4.43,0.97,4.43,2.17
			c0,0.51-0.42,0.92-0.92,0.92c-1.82,0-1.59-2.72-3.51-2.72c-1.71,0-1.92,3.16-1.92,4.61c0,4.45,2.01,6.9,3.95,6.9
			c1.96,0,2.26-1.82,2.88-1.82c0.21,0,0.35,0.14,0.35,0.35c0,0.16-0.12,0.28-0.21,0.37C77.81,26.71,76.12,27.28,73.82,27.28z"/>
		<path class="st0" d="M81.29,24.77v-7.71c0-1.04-0.53-1.78-1.25-1.78v-0.37h2.19c2.35,0,4.31,1.32,4.31,3.35v6.51
			c0,1.04,0.53,1.78,1.25,1.78v0.37h-7.75v-0.37C80.76,26.54,81.29,25.81,81.29,24.77L81.29,24.77z M83.23,10.39
			c1.52,0,2.75,0.88,2.75,1.96s-1.22,1.96-2.75,1.96s-2.75-0.88-2.75-1.96C80.49,11.27,81.71,10.39,83.23,10.39z"/>
		<path class="st0" d="M88.38,20.91c0-3.69,3.02-6.37,6.97-6.37c3.95,0,6.97,2.68,6.97,6.37s-3.02,6.37-6.97,6.37
			C91.4,27.28,88.38,24.61,88.38,20.91z M95.34,26.91c1.25,0,1.48-2.7,1.48-6c0-3.3-0.23-6-1.48-6c-1.25,0-1.48,2.7-1.48,6
			C93.87,24.21,94.1,26.91,95.34,26.91z"/>
		<path class="st0" d="M113.99,16.72c0,0.51-0.42,0.92-0.92,0.92c-1.82,0-1.59-2.72-3.74-2.72c-0.74,0-1.22,0.3-1.22,1.11
			c0,2.65,7.27,2.38,7.27,7.17c0,2.47-2.58,4.08-6.6,4.08c-2.31,0-3.99-0.74-5.51-1.96c-0.09-0.09-0.21-0.21-0.21-0.37
			c0-0.21,0.14-0.35,0.35-0.35c0.48,0,0.92,0.99,1.85,1.5c0.88,0.48,1.75,0.71,2.86,0.71c1.43,0,2.4-0.6,2.4-1.71
			c0-2.86-7.13-2.91-7.13-7.01c0-2.26,2.17-3.55,5.95-3.55C111.93,14.55,113.99,15.52,113.99,16.72z"/>
	</g>
</g>
<g>
	<path class="st1" d="M78.08,23.75c0,0.12-0.01,0.21-0.04,0.27s-0.06,0.1-0.1,0.13s-0.09,0.04-0.14,0.04s-0.1,0-0.16,0
		c-0.13,0-0.25,0-0.36,0s-0.21,0-0.32-0.01s-0.22-0.01-0.34-0.01s-0.26,0-0.41,0c-0.16,0-0.36,0.01-0.58,0.04
		c-0.23,0.03-0.45,0.06-0.67,0.11s-0.42,0.09-0.6,0.14c-0.18,0.05-0.3,0.09-0.37,0.13c-0.03,0.02-0.06,0.05-0.09,0.08
		s-0.05,0.08-0.07,0.12s-0.04,0.09-0.05,0.14c-0.01,0.05-0.02,0.09-0.02,0.12c-0.04,0.41-0.08,0.82-0.13,1.23
		c-0.05,0.41-0.09,0.81-0.13,1.21s-0.08,0.79-0.1,1.19c-0.03,0.39-0.04,0.78-0.04,1.17c0,0.07,0.01,0.17,0.03,0.29
		c0.02,0.13,0.04,0.26,0.06,0.4c0.02,0.13,0.04,0.25,0.06,0.36s0.03,0.17,0.03,0.18c0,0.08-0.01,0.16-0.04,0.24s-0.05,0.15-0.1,0.22
		s-0.09,0.12-0.15,0.16s-0.13,0.06-0.2,0.06c-0.05,0-0.1-0.01-0.15-0.04c-0.05-0.03-0.11-0.06-0.16-0.11
		c-0.05-0.05-0.1-0.1-0.14-0.17c-0.04-0.06-0.08-0.13-0.1-0.21c-0.03-0.1-0.06-0.21-0.08-0.34s-0.03-0.26-0.05-0.39
		c-0.01-0.14-0.02-0.27-0.02-0.41c0-0.13-0.01-0.26-0.01-0.37c0-0.11,0-0.21,0-0.28c0-0.08,0-0.13,0-0.15c0-0.12,0.01-0.3,0.04-0.56
		c0.02-0.25,0.05-0.54,0.09-0.85s0.07-0.64,0.11-0.97s0.08-0.64,0.11-0.92c0.04-0.28,0.06-0.5,0.09-0.68
		c0.02-0.18,0.04-0.27,0.04-0.27c0-0.06-0.01-0.11-0.04-0.13c-0.03-0.03-0.06-0.04-0.09-0.05s-0.07-0.01-0.1-0.01
		s-0.05,0.01-0.05,0.01c-0.15,0-0.34,0.01-0.57,0.04c-0.23,0.03-0.48,0.06-0.75,0.09s-0.53,0.06-0.81,0.09
		c-0.27,0.03-0.53,0.04-0.76,0.04c-0.05,0-0.11,0-0.16,0s-0.11-0.01-0.17-0.02c-0.06-0.01-0.11-0.03-0.17-0.06s-0.11-0.08-0.17-0.13
		c0-0.04-0.01-0.09-0.01-0.15s0-0.13,0.02-0.19c0.01-0.06,0.04-0.12,0.08-0.18s0.1-0.09,0.18-0.11c0.17-0.04,0.38-0.07,0.6-0.09
		s0.45-0.04,0.68-0.06s0.46-0.03,0.68-0.05s0.42-0.04,0.59-0.06c0.12-0.02,0.27-0.04,0.45-0.06c0.18-0.02,0.36-0.05,0.55-0.08
		c0.19-0.03,0.37-0.05,0.55-0.08c0.18-0.03,0.32-0.05,0.44-0.08c0.23-0.05,0.48-0.1,0.74-0.16c0.26-0.06,0.53-0.12,0.8-0.18
		s0.54-0.1,0.8-0.14c0.26-0.04,0.52-0.05,0.76-0.05c0.03,0,0.08,0,0.14,0s0.15,0.01,0.23,0.01c0.09,0.01,0.18,0.02,0.28,0.04
		c0.1,0.02,0.19,0.04,0.27,0.06c0.04,0.01,0.08,0.04,0.11,0.08s0.06,0.08,0.08,0.13c0.02,0.05,0.04,0.09,0.06,0.14
		S78.08,23.72,78.08,23.75z"/>
	<path class="st1" d="M84.68,29.75c0,0.06-0.01,0.13-0.04,0.21c-0.03,0.08-0.07,0.16-0.12,0.24c-0.07,0.12-0.16,0.24-0.28,0.37
		c-0.11,0.13-0.24,0.24-0.38,0.34c-0.14,0.1-0.3,0.19-0.46,0.25c-0.17,0.07-0.34,0.1-0.52,0.1c-0.23,0-0.43-0.05-0.6-0.16
		c-0.17-0.1-0.32-0.25-0.44-0.43c-0.12-0.18-0.22-0.39-0.3-0.63c-0.08-0.24-0.14-0.5-0.2-0.76c-0.17,0.25-0.38,0.5-0.61,0.74
		c-0.24,0.25-0.48,0.47-0.73,0.66c-0.25,0.2-0.5,0.36-0.74,0.48s-0.46,0.18-0.65,0.18c-0.13,0-0.24-0.03-0.36-0.09
		s-0.22-0.15-0.3-0.25c-0.09-0.11-0.16-0.23-0.21-0.36c-0.05-0.14-0.08-0.28-0.08-0.43c0-0.15,0.01-0.31,0.04-0.48
		c0.02-0.17,0.07-0.35,0.13-0.54c0.06-0.19,0.14-0.4,0.23-0.63c0.09-0.23,0.21-0.47,0.35-0.74c0.16-0.3,0.34-0.59,0.56-0.86
		c0.21-0.27,0.43-0.51,0.65-0.71c0.22-0.21,0.43-0.37,0.63-0.49s0.36-0.18,0.49-0.18c0.04,0,0.07,0.01,0.12,0.02
		s0.09,0.03,0.14,0.05s0.1,0.03,0.14,0.05c0.04,0.01,0.08,0.02,0.11,0.02s0.06-0.01,0.09-0.02s0.06-0.03,0.09-0.05
		s0.06-0.03,0.09-0.05s0.06-0.02,0.09-0.02c0.05,0,0.1,0.02,0.15,0.05c0.05,0.03,0.11,0.07,0.16,0.12s0.1,0.1,0.13,0.17
		c0.04,0.06,0.07,0.12,0.08,0.18c0.01,0.07,0.04,0.12,0.06,0.15c0.03,0.03,0.05,0.06,0.08,0.09s0.05,0.06,0.06,0.1
		s0.03,0.09,0.03,0.17c0,0.04-0.01,0.12-0.04,0.25c-0.03,0.12-0.06,0.27-0.09,0.43c-0.03,0.17-0.06,0.34-0.09,0.52
		c-0.03,0.18-0.04,0.34-0.04,0.49c0,0.42,0.02,0.76,0.07,1.02c0.05,0.26,0.11,0.47,0.19,0.63c0.08,0.15,0.18,0.26,0.29,0.32
		s0.23,0.09,0.35,0.09c0.3,0,0.54-0.05,0.73-0.15c0.19-0.1,0.36-0.25,0.5-0.45c0.04-0.05,0.08-0.1,0.11-0.15s0.06-0.06,0.09-0.06
		c0.05,0,0.1,0.02,0.15,0.06S84.68,29.7,84.68,29.75z M81.41,27.14c0-0.29-0.04-0.5-0.13-0.63c-0.09-0.13-0.19-0.19-0.3-0.19
		c-0.1,0-0.2,0.02-0.29,0.06s-0.19,0.08-0.28,0.14c-0.09,0.06-0.17,0.12-0.25,0.19c-0.07,0.07-0.13,0.14-0.18,0.21
		c-0.09,0.12-0.19,0.27-0.29,0.43c-0.1,0.16-0.21,0.33-0.31,0.5c-0.1,0.17-0.2,0.35-0.29,0.54c-0.09,0.18-0.18,0.36-0.25,0.54
		c-0.07,0.17-0.13,0.34-0.17,0.5c-0.04,0.16-0.06,0.3-0.06,0.42c0,0.18,0.04,0.33,0.11,0.44c0.07,0.11,0.2,0.17,0.4,0.17
		c0.07,0,0.16-0.04,0.29-0.13c0.13-0.08,0.27-0.19,0.41-0.32c0.15-0.13,0.29-0.27,0.43-0.42c0.14-0.15,0.25-0.29,0.34-0.43
		c0.1-0.14,0.2-0.3,0.29-0.47c0.1-0.17,0.19-0.35,0.27-0.53c0.08-0.18,0.15-0.36,0.2-0.53C81.39,27.45,81.41,27.29,81.41,27.14z"/>
	<path class="st1" d="M96.11,26.41c0,0.14-0.04,0.25-0.12,0.33c-0.08,0.08-0.17,0.14-0.27,0.2C95.6,27,95.45,27.06,95.3,27.1
		c-0.16,0.05-0.32,0.09-0.49,0.13s-0.33,0.07-0.5,0.09c-0.17,0.03-0.33,0.05-0.48,0.06c-0.16,0.02-0.34,0.03-0.52,0.05
		c-0.18,0.02-0.36,0.03-0.53,0.05c-0.17,0.02-0.33,0.04-0.48,0.06c-0.15,0.02-0.26,0.05-0.35,0.09c-0.04,0.18-0.09,0.38-0.15,0.63
		c-0.06,0.24-0.11,0.5-0.17,0.77c-0.05,0.27-0.1,0.54-0.14,0.82s-0.06,0.53-0.06,0.77c0,0.08,0.01,0.16,0.02,0.25
		s0.03,0.17,0.06,0.25c0.03,0.08,0.06,0.14,0.11,0.19s0.1,0.08,0.16,0.08c0.19,0,0.37-0.04,0.54-0.11c0.18-0.07,0.33-0.15,0.48-0.22
		c0.14-0.08,0.27-0.13,0.37-0.17c0.1-0.04,0.18-0.02,0.22,0.06c0.01,0.02-0.01,0.08-0.05,0.15c-0.05,0.08-0.12,0.17-0.21,0.28
		c-0.09,0.1-0.21,0.22-0.34,0.33c-0.13,0.12-0.28,0.22-0.44,0.32c-0.16,0.1-0.32,0.18-0.5,0.24c-0.18,0.06-0.35,0.1-0.53,0.1
		c-0.11,0-0.23-0.03-0.34-0.09c-0.11-0.06-0.22-0.14-0.31-0.24c-0.09-0.1-0.17-0.21-0.23-0.34c-0.06-0.13-0.09-0.26-0.09-0.39
		c0-0.37,0.04-0.75,0.12-1.16c0.08-0.41,0.16-0.83,0.25-1.28c0.02-0.09,0.04-0.2,0.07-0.32c0.03-0.12,0.05-0.23,0.07-0.33
		c0.02-0.11,0.04-0.2,0.06-0.27c0.02-0.08,0.02-0.12,0.02-0.13c0-0.04-0.03-0.09-0.08-0.14c-0.06-0.05-0.12-0.09-0.18-0.12
		c-0.1-0.01-0.18-0.01-0.26-0.02s-0.13-0.01-0.16-0.01c-0.4,0-0.78-0.01-1.16-0.04s-0.71-0.06-1-0.09
		c-0.29-0.03-0.53-0.06-0.71-0.08c-0.18-0.02-0.27-0.02-0.28-0.01c-0.04,0.17-0.09,0.38-0.16,0.63c-0.06,0.25-0.12,0.51-0.18,0.77
		c-0.06,0.26-0.1,0.51-0.15,0.75s-0.06,0.42-0.06,0.55c0,0.08,0.01,0.18,0.02,0.3c0.01,0.12,0.04,0.23,0.08,0.34
		c0.04,0.11,0.11,0.2,0.2,0.27s0.2,0.11,0.35,0.11c0.04,0,0.1-0.01,0.18-0.04c0.08-0.03,0.18-0.07,0.28-0.13
		c0.1-0.06,0.21-0.12,0.32-0.2s0.21-0.17,0.31-0.26c0.07-0.07,0.16-0.14,0.24-0.21c0.09-0.07,0.18-0.1,0.28-0.1
		c0.14,0,0.22,0.07,0.22,0.21c0,0.07-0.01,0.14-0.04,0.2s-0.06,0.13-0.1,0.19c-0.04,0.06-0.09,0.13-0.14,0.19
		c-0.05,0.06-0.11,0.13-0.17,0.2c-0.05,0.06-0.13,0.14-0.25,0.23c-0.12,0.1-0.26,0.19-0.42,0.29c-0.16,0.1-0.32,0.18-0.5,0.25
		c-0.18,0.07-0.34,0.11-0.5,0.11c-0.23,0-0.42-0.03-0.58-0.1c-0.15-0.07-0.28-0.15-0.38-0.26c-0.1-0.11-0.17-0.23-0.23-0.37
		c-0.05-0.14-0.09-0.28-0.11-0.42c-0.02-0.14-0.04-0.28-0.04-0.41c0-0.13,0-0.25,0-0.35c0-0.12,0.01-0.26,0.04-0.42
		c0.02-0.16,0.05-0.32,0.09-0.5c0.04-0.17,0.08-0.35,0.12-0.53c0.04-0.18,0.08-0.35,0.12-0.52c0.04-0.17,0.07-0.32,0.09-0.45
		c0.02-0.14,0.03-0.25,0.03-0.34c0-0.05-0.02-0.09-0.07-0.11c-0.05-0.02-0.11-0.03-0.19-0.04s-0.17-0.01-0.27-0.02
		s-0.21-0.02-0.32-0.04c-0.07-0.01-0.14-0.03-0.2-0.05c-0.06-0.02-0.12-0.06-0.17-0.1c-0.05-0.04-0.09-0.09-0.12-0.16
		s-0.04-0.14-0.04-0.24c0-0.12,0.03-0.21,0.1-0.25c0.06-0.05,0.14-0.07,0.23-0.07c0.02,0,0.09,0.01,0.19,0.02s0.23,0.03,0.36,0.04
		c0.14,0.01,0.27,0.03,0.42,0.04c0.14,0.01,0.26,0.02,0.35,0.02c0.02-0.01,0.05-0.05,0.09-0.13s0.08-0.17,0.13-0.29
		c0.05-0.12,0.1-0.25,0.16-0.39c0.05-0.15,0.11-0.3,0.17-0.45c0.06-0.15,0.11-0.31,0.16-0.46c0.05-0.15,0.1-0.29,0.14-0.42
		c0.07-0.21,0.14-0.36,0.23-0.45c0.09-0.09,0.2-0.13,0.34-0.13c0.09,0,0.16,0.02,0.22,0.05s0.11,0.07,0.14,0.12
		c0.04,0.05,0.06,0.1,0.08,0.15c0.02,0.05,0.02,0.11,0.02,0.15c0,0.02-0.02,0.07-0.05,0.17c-0.03,0.1-0.08,0.22-0.13,0.36
		c-0.05,0.14-0.11,0.3-0.18,0.48c-0.06,0.17-0.13,0.35-0.19,0.52c-0.06,0.17-0.12,0.33-0.18,0.49c-0.05,0.15-0.1,0.28-0.13,0.37
		c0.3,0.03,0.61,0.06,0.92,0.09s0.62,0.05,0.92,0.07c0.3,0.02,0.59,0.04,0.87,0.05s0.54,0.02,0.78,0.02
		c0.09-0.03,0.16-0.06,0.23-0.1s0.1-0.09,0.12-0.16c0.03-0.12,0.06-0.25,0.09-0.39c0.03-0.14,0.07-0.29,0.1-0.43
		c0.03-0.15,0.07-0.29,0.1-0.43c0.03-0.14,0.06-0.27,0.09-0.38c0.04-0.11,0.07-0.23,0.09-0.35s0.05-0.25,0.07-0.37
		s0.05-0.25,0.07-0.36s0.06-0.22,0.1-0.32c0.09-0.2,0.22-0.3,0.42-0.3c0.29,0,0.43,0.16,0.43,0.48c0,0.2-0.04,0.43-0.13,0.68
		c-0.19,0.59-0.33,1.08-0.42,1.46c-0.09,0.38-0.13,0.64-0.13,0.77c0,0.14,0.07,0.22,0.22,0.22c0.18,0,0.34,0,0.49-0.01
		c0.15-0.01,0.31-0.02,0.47-0.03c0.16-0.01,0.32-0.03,0.5-0.05c0.17-0.02,0.37-0.04,0.59-0.06c0.16-0.02,0.3-0.04,0.45-0.07
		s0.27-0.05,0.39-0.08c0.12-0.03,0.23-0.05,0.32-0.07s0.17-0.04,0.23-0.05c0.04,0,0.08-0.01,0.13-0.02s0.08-0.01,0.11,0
		c0.03,0.01,0.05,0.02,0.07,0.05C96.1,26.31,96.11,26.35,96.11,26.41z"/>
	<path class="st1" d="M102.63,26.66c0,0.07-0.01,0.13-0.04,0.2s-0.07,0.13-0.11,0.2s-0.1,0.13-0.16,0.18
		c-0.06,0.06-0.11,0.1-0.17,0.14c-0.14,0.09-0.33,0.17-0.58,0.24c-0.25,0.07-0.56,0.1-0.93,0.1c-0.3,0-0.59-0.04-0.89-0.11
		c-0.3-0.08-0.59-0.2-0.87-0.38c0.09,0.14,0.15,0.27,0.17,0.39c0.03,0.12,0.04,0.27,0.04,0.44c0,0.31-0.08,0.63-0.23,0.98
		c-0.15,0.35-0.35,0.68-0.59,0.98c-0.24,0.3-0.5,0.55-0.77,0.75c-0.15,0.11-0.32,0.21-0.5,0.29c-0.18,0.08-0.37,0.15-0.57,0.21
		c-0.2,0.05-0.4,0.09-0.62,0.12c-0.21,0.02-0.43,0.04-0.65,0.04c-0.15,0-0.3-0.05-0.44-0.15c-0.14-0.1-0.27-0.22-0.38-0.36
		c-0.11-0.14-0.2-0.29-0.27-0.45c-0.07-0.16-0.1-0.3-0.1-0.43c0-0.32,0.04-0.62,0.13-0.91s0.2-0.57,0.34-0.84
		c0.14-0.27,0.31-0.54,0.49-0.79c0.19-0.26,0.39-0.52,0.6-0.77c0.12-0.14,0.25-0.29,0.4-0.42c0.15-0.14,0.31-0.26,0.47-0.37
		c0.16-0.11,0.33-0.2,0.5-0.27c0.17-0.07,0.33-0.1,0.48-0.1c0.12,0,0.23,0.02,0.32,0.05c0.09,0.04,0.17,0.08,0.25,0.15
		s0.16,0.15,0.25,0.24c0.08,0.1,0.18,0.21,0.29,0.33c0.04,0.04,0.13,0.09,0.29,0.16c0.16,0.07,0.34,0.13,0.56,0.2
		s0.44,0.12,0.68,0.17s0.45,0.07,0.65,0.07s0.37-0.01,0.54-0.02c0.16-0.01,0.32-0.04,0.48-0.07c0.15-0.03,0.31-0.07,0.46-0.13
		c0.15-0.05,0.32-0.12,0.49-0.2C102.62,26.57,102.63,26.62,102.63,26.66z M98.26,28.07c0-0.11,0-0.23-0.02-0.37
		c-0.02-0.14-0.05-0.27-0.1-0.39c-0.05-0.12-0.11-0.22-0.19-0.3c-0.08-0.08-0.18-0.11-0.29-0.09c-0.18-0.07-0.33-0.14-0.44-0.22
		c-0.12-0.08-0.21-0.12-0.27-0.12c-0.05,0-0.1,0.01-0.15,0.04c-0.05,0.03-0.11,0.07-0.17,0.12s-0.12,0.11-0.18,0.18
		c-0.06,0.07-0.12,0.14-0.18,0.21c-0.12,0.15-0.22,0.29-0.32,0.42c-0.1,0.12-0.19,0.25-0.28,0.37c-0.09,0.12-0.17,0.25-0.25,0.39
		c-0.08,0.13-0.16,0.29-0.25,0.45c-0.04,0.07-0.07,0.15-0.09,0.25c-0.03,0.1-0.05,0.2-0.07,0.3c-0.02,0.1-0.03,0.21-0.04,0.31
		c-0.01,0.1-0.01,0.2-0.01,0.28c0,0.05,0.02,0.11,0.05,0.18c0.04,0.07,0.08,0.14,0.14,0.21s0.12,0.13,0.19,0.17
		c0.07,0.05,0.14,0.07,0.21,0.07c0.2,0,0.37-0.01,0.51-0.03c0.14-0.02,0.27-0.05,0.39-0.09c0.12-0.04,0.24-0.11,0.36-0.18
		c0.12-0.08,0.26-0.18,0.42-0.3c0.08-0.06,0.16-0.13,0.23-0.21c0.08-0.08,0.15-0.16,0.23-0.25s0.14-0.18,0.21-0.27
		s0.13-0.18,0.19-0.27c0.04-0.06,0.07-0.13,0.1-0.22c0.03-0.08,0.05-0.17,0.06-0.26s0.03-0.16,0.03-0.23S98.26,28.1,98.26,28.07z"/>
	<path class="st1" d="M106.29,27.66c0,0.13-0.01,0.24-0.02,0.36c-0.01,0.11-0.03,0.22-0.05,0.33c-0.02,0.11-0.05,0.21-0.09,0.32
		c-0.04,0.11-0.09,0.22-0.14,0.33c-0.05,0.12-0.15,0.26-0.3,0.43c-0.14,0.17-0.32,0.34-0.52,0.52c-0.2,0.18-0.42,0.36-0.66,0.53
		c-0.24,0.18-0.48,0.33-0.73,0.47c-0.25,0.14-0.49,0.25-0.72,0.34c-0.24,0.09-0.45,0.13-0.64,0.13c-0.26,0-0.49-0.04-0.68-0.13
		s-0.36-0.2-0.48-0.34c-0.13-0.14-0.23-0.3-0.29-0.49c-0.06-0.18-0.1-0.37-0.1-0.55c0-0.13,0.02-0.27,0.05-0.43
		c0.03-0.16,0.07-0.33,0.12-0.5c0.05-0.17,0.11-0.35,0.18-0.53c0.07-0.18,0.14-0.35,0.22-0.51c0.08-0.16,0.16-0.32,0.24-0.46
		s0.16-0.26,0.24-0.36c0.14-0.17,0.3-0.34,0.49-0.5c0.19-0.16,0.4-0.31,0.63-0.43c0.23-0.13,0.48-0.23,0.74-0.31
		c0.26-0.08,0.54-0.12,0.82-0.12c0.21,0,0.42,0.05,0.62,0.16c0.2,0.1,0.38,0.24,0.54,0.42c0.16,0.18,0.29,0.38,0.38,0.61
		C106.24,27.17,106.29,27.41,106.29,27.66z M105.38,27.83c0-0.39-0.11-0.69-0.33-0.91c-0.22-0.22-0.54-0.33-0.95-0.33
		c-0.14,0-0.28,0.04-0.43,0.11c-0.14,0.07-0.28,0.17-0.41,0.27c-0.13,0.11-0.25,0.23-0.37,0.35c-0.11,0.12-0.2,0.23-0.28,0.33
		c-0.07,0.1-0.16,0.24-0.25,0.41c-0.09,0.17-0.17,0.36-0.25,0.56c-0.08,0.2-0.15,0.39-0.2,0.59c-0.05,0.2-0.08,0.37-0.08,0.52
		c0,0.09,0.02,0.18,0.05,0.27c0.04,0.09,0.08,0.17,0.15,0.25s0.14,0.13,0.23,0.18c0.09,0.05,0.19,0.07,0.3,0.07
		c0.12,0,0.27-0.04,0.45-0.11c0.19-0.07,0.38-0.17,0.59-0.29c0.21-0.12,0.42-0.27,0.63-0.44c0.21-0.17,0.4-0.35,0.57-0.55
		c0.17-0.2,0.31-0.41,0.41-0.63S105.38,28.05,105.38,27.83z"/>
	<path class="st1" d="M118.75,27.76v0.01c0,0.09-0.04,0.2-0.12,0.34c-0.08,0.14-0.18,0.3-0.31,0.47c-0.13,0.17-0.28,0.36-0.45,0.56
		c-0.17,0.2-0.35,0.4-0.54,0.6c-0.22,0.23-0.45,0.46-0.69,0.67c-0.24,0.22-0.5,0.43-0.78,0.63c-0.54,0.4-1.03,0.61-1.46,0.61
		c-0.47,0-0.84-0.16-1.1-0.47c-0.26-0.32-0.44-0.71-0.53-1.16c-0.09-0.45-0.14-0.91-0.14-1.38c0-0.2,0.02-0.51,0.07-0.93
		c0.02-0.21,0.05-0.39,0.07-0.54c0.02-0.15,0.05-0.27,0.08-0.37c0.05-0.18,0.17-0.34,0.34-0.48c0.18-0.14,0.37-0.22,0.56-0.22
		c0.11,0,0.16,0.1,0.16,0.3c0,0.13-0.01,0.28-0.04,0.45c-0.03,0.17-0.05,0.33-0.08,0.5c-0.05,0.31-0.09,0.58-0.11,0.83
		s-0.04,0.46-0.04,0.63c0,0.4,0.05,0.79,0.16,1.19c0.11,0.41,0.31,0.61,0.59,0.61c0.29,0,0.62-0.11,1-0.32
		c0.19-0.11,0.38-0.23,0.57-0.36c0.19-0.13,0.38-0.28,0.57-0.44c0.2-0.16,0.39-0.33,0.56-0.49c0.18-0.17,0.35-0.34,0.53-0.51
		c0.17-0.18,0.33-0.34,0.46-0.49c0.13-0.15,0.25-0.29,0.35-0.42c0.01-0.02,0.02-0.04,0.05-0.09s0.04-0.06,0.06-0.06l0.01,0.01
		c0.03,0,0.05,0.01,0.07,0.03s0.03,0.05,0.05,0.1C118.74,27.64,118.75,27.71,118.75,27.76z M114.92,23.01c0,0.25-0.07,0.47-0.2,0.65
		c-0.13,0.18-0.32,0.27-0.57,0.27c-0.16,0-0.33-0.02-0.52-0.07c-0.19-0.05-0.28-0.12-0.28-0.23c0-0.19,0.06-0.37,0.18-0.55
		c0.12-0.17,0.26-0.31,0.43-0.42c0.14-0.08,0.22-0.12,0.26-0.12c0.22,0,0.39,0.03,0.51,0.09C114.86,22.69,114.92,22.82,114.92,23.01
		z"/>
	<path class="st1" d="M128.21,26.42c0,0.12-0.02,0.25-0.07,0.4c-0.05,0.15-0.1,0.3-0.17,0.45c-0.07,0.15-0.15,0.29-0.22,0.43
		c-0.08,0.14-0.15,0.25-0.21,0.35c-0.14,0.2-0.29,0.41-0.46,0.63c-0.17,0.22-0.35,0.43-0.55,0.63c-0.2,0.21-0.4,0.4-0.62,0.59
		c-0.22,0.19-0.45,0.35-0.68,0.49c-0.24,0.14-0.48,0.25-0.73,0.33c-0.25,0.08-0.51,0.12-0.77,0.12c-0.19,0-0.36-0.03-0.51-0.1
		c-0.15-0.07-0.28-0.16-0.39-0.27c-0.11-0.12-0.19-0.26-0.24-0.42c-0.05-0.16-0.08-0.34-0.08-0.53c0-0.09,0-0.21,0.01-0.35
		s0.02-0.3,0.03-0.46c0.01-0.16,0.02-0.32,0.02-0.48c0-0.16,0-0.31-0.01-0.44s-0.03-0.23-0.06-0.32s-0.08-0.12-0.14-0.12
		c-0.07,0-0.15,0.04-0.25,0.12s-0.2,0.18-0.32,0.3s-0.23,0.26-0.36,0.41c-0.12,0.15-0.24,0.3-0.36,0.45
		c-0.12,0.15-0.22,0.29-0.32,0.42c-0.1,0.13-0.18,0.24-0.24,0.32c-0.16,0.21-0.3,0.39-0.42,0.54c-0.12,0.15-0.22,0.28-0.31,0.39
		c-0.09,0.11-0.17,0.22-0.24,0.32c-0.07,0.1-0.14,0.2-0.21,0.32c-0.09,0.14-0.17,0.23-0.24,0.29s-0.12,0.08-0.16,0.08
		c-0.1,0-0.19-0.01-0.27-0.02s-0.15-0.04-0.21-0.07s-0.11-0.09-0.14-0.15c-0.03-0.07-0.05-0.16-0.05-0.27
		c0-0.13,0.01-0.28,0.03-0.43c0.02-0.16,0.04-0.32,0.07-0.49s0.06-0.35,0.09-0.54c0.03-0.19,0.06-0.38,0.08-0.58
		c0.03-0.23,0.05-0.44,0.07-0.63c0.02-0.19,0.04-0.37,0.05-0.53c0.01-0.17,0.02-0.33,0.02-0.48s0.01-0.31,0.01-0.46
		c0-0.06,0.02-0.13,0.05-0.21s0.07-0.15,0.12-0.22c0.05-0.07,0.1-0.13,0.16-0.17s0.12-0.07,0.17-0.07c0.12,0,0.21,0.02,0.28,0.06
		s0.12,0.1,0.15,0.17c0.04,0.07,0.06,0.16,0.07,0.26s0.01,0.21,0.01,0.34c0,0.22-0.02,0.46-0.07,0.72s-0.1,0.52-0.16,0.78
		c-0.06,0.26-0.11,0.51-0.16,0.76c-0.05,0.24-0.07,0.46-0.06,0.63c0.12-0.07,0.25-0.2,0.4-0.37c0.15-0.17,0.3-0.36,0.45-0.57
		c0.16-0.21,0.31-0.42,0.47-0.63c0.16-0.21,0.3-0.4,0.44-0.57c0.16-0.19,0.31-0.35,0.44-0.48s0.25-0.24,0.36-0.33
		s0.22-0.17,0.32-0.25s0.2-0.14,0.31-0.21c0.04-0.03,0.09-0.05,0.16-0.08c0.07-0.02,0.14-0.04,0.21-0.06s0.14-0.03,0.2-0.04
		c0.06-0.01,0.11-0.02,0.14-0.02c0.04,0,0.09,0.02,0.14,0.05c0.05,0.04,0.1,0.08,0.14,0.13c0.04,0.05,0.08,0.11,0.11,0.16
		s0.05,0.11,0.05,0.15c0,0.16-0.01,0.37-0.03,0.62c-0.02,0.25-0.04,0.51-0.07,0.77c-0.03,0.27-0.05,0.53-0.07,0.78
		s-0.03,0.46-0.03,0.63c0,0.05,0.01,0.12,0.03,0.18s0.04,0.13,0.08,0.19s0.08,0.11,0.13,0.15s0.11,0.06,0.18,0.06
		c0.26,0,0.52-0.05,0.78-0.16s0.52-0.24,0.77-0.42c0.25-0.18,0.5-0.38,0.74-0.62c0.24-0.23,0.46-0.48,0.67-0.74
		c0.13-0.16,0.26-0.33,0.37-0.5c0.12-0.17,0.22-0.33,0.31-0.48c0.09-0.15,0.17-0.29,0.24-0.41c0.07-0.12,0.12-0.21,0.15-0.28
		c0.03-0.06,0.07-0.11,0.13-0.15s0.1-0.06,0.14-0.06c0.01,0,0.03,0.01,0.04,0.03c0.02,0.02,0.03,0.04,0.04,0.07
		c0.01,0.03,0.03,0.05,0.04,0.08S128.21,26.4,128.21,26.42z"/>
	<path class="st1" d="M135,30.84c0,0.08-0.05,0.16-0.14,0.24c-0.09,0.08-0.2,0.14-0.33,0.2c-0.13,0.05-0.26,0.1-0.39,0.13
		c-0.13,0.03-0.24,0.05-0.33,0.05c-0.35,0-0.68-0.04-0.98-0.11c-0.3-0.07-0.61-0.18-0.92-0.3c-0.26-0.11-0.5-0.23-0.74-0.36
		c-0.23-0.14-0.47-0.28-0.7-0.43c-0.23-0.15-0.47-0.3-0.7-0.45c-0.24-0.15-0.49-0.3-0.75-0.45c-0.01,0.01-0.03,0.03-0.05,0.06
		c-0.03,0.03-0.06,0.06-0.1,0.1s-0.08,0.07-0.12,0.11s-0.08,0.07-0.1,0.09c-0.1,0.09-0.18,0.17-0.24,0.23s-0.1,0.13-0.14,0.19
		c-0.04,0.06-0.07,0.12-0.09,0.18s-0.05,0.12-0.08,0.19c0.02,0.07,0.01,0.16-0.01,0.27c-0.02,0.1-0.03,0.2-0.03,0.28
		c0,0.25-0.05,0.44-0.16,0.57c-0.11,0.13-0.28,0.19-0.51,0.19c-0.14,0-0.23-0.03-0.27-0.1c-0.04-0.07-0.06-0.18-0.06-0.33
		c0-0.05,0.01-0.15,0.03-0.3c0.02-0.15,0.04-0.34,0.07-0.57c0.03-0.22,0.06-0.47,0.1-0.75c0.04-0.27,0.08-0.55,0.12-0.84
		s0.08-0.57,0.12-0.85s0.08-0.54,0.11-0.78c0.03-0.24,0.06-0.45,0.09-0.62c0.03-0.17,0.04-0.3,0.06-0.38
		c0.01-0.07,0.02-0.17,0.03-0.32c0.01-0.14,0.02-0.3,0.04-0.47c0.01-0.18,0.03-0.36,0.04-0.55c0.02-0.19,0.03-0.37,0.04-0.55
		c0.01-0.17,0.03-0.32,0.04-0.46c0.01-0.13,0.02-0.23,0.02-0.28l0.05-0.57c0-0.07,0.03-0.13,0.08-0.19
		c0.05-0.06,0.11-0.11,0.18-0.15c0.07-0.04,0.15-0.08,0.23-0.1s0.16-0.04,0.23-0.04c0.07,0,0.13,0.01,0.18,0.04s0.09,0.06,0.13,0.1
		s0.06,0.08,0.07,0.13c0.02,0.05,0.02,0.09,0.02,0.12c0,0.05-0.01,0.15-0.03,0.3c-0.02,0.14-0.05,0.32-0.08,0.52
		c-0.04,0.2-0.07,0.42-0.12,0.67c-0.04,0.24-0.09,0.49-0.13,0.73c-0.04,0.25-0.09,0.49-0.13,0.72c-0.04,0.24-0.08,0.45-0.12,0.64
		c-0.04,0.19-0.06,0.35-0.09,0.47c-0.02,0.13-0.04,0.2-0.04,0.23c-0.06,0.47-0.11,0.87-0.15,1.2s-0.08,0.59-0.11,0.78
		c0.04-0.04,0.11-0.12,0.21-0.24c0.1-0.11,0.22-0.25,0.36-0.4c0.14-0.15,0.28-0.31,0.43-0.48c0.15-0.17,0.29-0.33,0.43-0.48
		c0.13-0.15,0.25-0.28,0.35-0.39c0.1-0.11,0.16-0.19,0.2-0.23c0.16-0.21,0.32-0.42,0.49-0.63c0.17-0.21,0.34-0.4,0.51-0.58
		c0.17-0.17,0.34-0.31,0.51-0.42c0.17-0.11,0.33-0.16,0.49-0.16c0.25,0,0.37,0.07,0.37,0.21c0,0.06-0.02,0.14-0.06,0.22
		c-0.04,0.09-0.09,0.18-0.15,0.27c-0.06,0.09-0.12,0.18-0.18,0.26c-0.06,0.08-0.12,0.15-0.17,0.21c-0.06,0.07-0.14,0.15-0.24,0.25
		c-0.1,0.1-0.2,0.2-0.31,0.31c-0.11,0.11-0.23,0.22-0.35,0.34c-0.12,0.12-0.24,0.23-0.35,0.33c-0.11,0.11-0.21,0.2-0.3,0.29
		c-0.09,0.09-0.16,0.16-0.22,0.21c-0.05,0.05-0.09,0.09-0.13,0.13c-0.04,0.04-0.08,0.08-0.13,0.12s-0.08,0.08-0.12,0.13
		s-0.08,0.11-0.13,0.17c0.38,0.23,0.76,0.45,1.14,0.67c0.38,0.22,0.77,0.41,1.15,0.59c0.38,0.17,0.76,0.33,1.13,0.45
		c0.37,0.13,0.73,0.22,1.09,0.27c0.14,0.02,0.26,0.03,0.37,0.03c0.11,0,0.2,0,0.27,0c0.07,0,0.13,0.01,0.16,0.02
		S135,30.79,135,30.84z"/>
</g>
</svg>
