<?xml version="1.0" encoding="utf-8"?>
<!-- Generator: Adobe Illustrator 24.2.3, SVG Export Plug-In . SVG Version: 6.00 Build 0)  -->
<svg version="1.1" id="Capa_1" xmlns="http://www.w3.org/2000/svg" xmlns:xlink="http://www.w3.org/1999/xlink" x="0px" y="0px"
	 viewBox="0 0 137 40" style="enable-background:new 0 0 137 40;" xml:space="preserve">
<style type="text/css">
	.st0{fill:#8C7857;}
	.st1{fill:#FFFFFF;}
</style>
<g>
	<g>
		<path class="st0" d="M19.73,7.52c0,0.87-0.69,1.56-1.56,1.56c-3.37,0-2.77-5.11-6.73-5.11C9.66,3.96,8.5,4.8,8.5,6.08
			c0,5.11,13.03,4.24,13.03,12.78c0,4.86-3.83,7.36-10.1,7.36c-4.3,0-7.82-1.84-9.07-3.06c-0.25-0.25-0.41-0.47-0.41-0.72
			c0-0.34,0.28-0.62,0.62-0.62c0.78,0,1.43,1.59,3.21,2.59c1.06,0.59,2.84,1.15,4.71,1.15c2.93,0,4.83-1.59,4.83-3.59
			c0-5.42-12.69-4.43-12.69-12.47c0-3.9,3.24-6.11,8.79-6.11C15.99,3.4,19.73,5.27,19.73,7.52z"/>
		<path class="st0" d="M23.81,12.41c0-1.4-0.72-2.4-1.68-2.4v-0.5h2.96c3.18,0,5.83,1.78,5.83,4.52v8.79c0,1.4,0.72,2.4,1.68,2.4
			v0.5H22.12v-0.5c0.97,0,1.68-1,1.68-2.4V12.41z M26.43,3.4c2.06,0,3.71,1.18,3.71,2.65c0,1.46-1.65,2.65-3.71,2.65
			s-3.71-1.18-3.71-2.65C22.72,4.58,24.37,3.4,26.43,3.4z"/>
		<path class="st0" d="M33.41,17.62c0-4.99,3.62-8.6,8.14-8.6c1.9,0,3.09,0.75,3.9,1.62V9.51h8.79v0.5c-0.97,0-1.68,1-1.68,2.4
			v15.21c0,3.21-2.81,4.83-8.39,4.83c-3.52,0-6.8-1.31-6.8-2.93c0-0.69,0.56-1.25,1.25-1.25c2.46,0,1.84,3.68,4.74,3.68
			c1.28,0,2.09-0.93,2.09-2.4V24.6c-0.81,0.87-2,1.62-3.9,1.62C37.02,26.22,33.41,22.6,33.41,17.62z M43.29,25.38
			c1.12,0,2.15-1.87,2.15-4.18v-7.17c0-2.31-1.03-4.18-2.15-4.18c-1.56,0-2.46,3.37-2.46,7.76C40.83,22.01,41.73,25.38,43.29,25.38z
			"/>
		<path class="st0" d="M68.25,9.01c4.11,0,6.76,1.78,6.76,4.52V25.1c0,0.28,0.16,0.38,0.28,0.38c0.37,0,0.37-1,0.94-1
			c0.28,0,0.47,0.19,0.47,0.47c0,0.16-0.06,0.31-0.19,0.44c-0.5,0.5-1.46,0.84-2.77,0.84c-3.18,0-5.83-1.78-5.83-4.52v-9.26
			c0-1.46-0.81-2.4-2.09-2.4c-1.28,0-2.09,0.94-2.09,2.4v10.38c0,1.4,0.72,2.4,1.68,2.4v0.5H54.94v-0.5c0.97,0,1.68-1,1.68-2.4
			V12.41c0-1.4-0.72-2.4-1.68-2.4v-0.5h2.96c1.96,0,3.74,0.69,4.8,1.84C63.64,10.13,65.57,9.01,68.25,9.01z"/>
		<path class="st0" d="M99.02,14.03v8.76c0,1.47,0.81,2.4,2.09,2.4s2.09-0.93,2.09-2.4V12.41c0-1.4-0.72-2.4-1.68-2.4v-0.5h2.96
			c3.18,0,5.83,1.78,5.83,4.52V25.1c0,0.28,0.16,0.38,0.28,0.38c0.37,0,0.37-1,0.94-1c0.28,0,0.47,0.19,0.47,0.47
			c0,0.16-0.06,0.31-0.19,0.44c-0.5,0.5-1.46,0.84-2.77,0.84c-2.09,0-3.96-0.78-4.99-2.09c-1.03,1.12-2.84,2.09-5.36,2.09
			c-4.11,0-6.76-1.78-6.76-4.52v-9.29c0-1.4-0.72-2.4-1.68-2.4v-0.5h2.96C96.37,9.51,99.02,11.29,99.02,14.03L99.02,14.03z"/>
		<path class="st0" d="M132.96,17.62c0,4.99-3.62,8.6-8.14,8.6c-1.9,0-3.09-0.75-3.9-1.62v4.46c0,1.4,0.72,2.4,1.68,2.4v0.5h-10.47
			v-0.5c0.97,0,1.68-1,1.68-2.4V12.41c0-1.4-0.72-2.4-1.68-2.4v-0.5h2.96c1.96,0,3.74,0.69,4.8,1.84c0.06,0.06,0.13,0.14,0.2,0.21
			c0.35-0.41,0.64-0.73,0.83-0.93c0.96-0.98,2-1.62,3.9-1.62C129.34,9.01,132.96,12.63,132.96,17.62z M125.54,17.62
			c0-4.4-0.9-7.76-2.46-7.76c-1.12,0-2.15,1.87-2.15,4.18v7.17c0,2.31,1.03,4.18,2.15,4.18C124.64,25.38,125.54,22.01,125.54,17.62z
			"/>
	</g>
</g>
<g>
	<path class="st1" d="M79.94,28.39c0,0.07-0.07,0.16-0.22,0.26c-0.14,0.11-0.34,0.21-0.6,0.32c-0.25,0.1-0.55,0.19-0.9,0.26
		c-0.34,0.07-0.72,0.11-1.12,0.11c-0.2,0-0.37-0.01-0.53-0.03c-0.16-0.02-0.3-0.04-0.43-0.06c-0.13-0.02-0.24-0.04-0.34-0.06
		s-0.18-0.03-0.25-0.03c-0.13,0-0.2,0.06-0.2,0.18c0,0.08,0.02,0.19,0.05,0.32s0.08,0.29,0.13,0.48c0.05,0.18,0.09,0.39,0.13,0.62
		c0.04,0.23,0.05,0.47,0.05,0.74c0,0.22-0.05,0.45-0.15,0.69c-0.1,0.24-0.25,0.46-0.44,0.66c-0.19,0.2-0.43,0.37-0.71,0.5
		s-0.61,0.2-0.97,0.2c-0.43,0-0.8-0.08-1.13-0.24c-0.32-0.16-0.6-0.39-0.84-0.69c-0.24-0.3-0.43-0.66-0.59-1.09
		c-0.16-0.43-0.28-0.9-0.38-1.44c-0.01-0.03-0.01-0.1-0.01-0.21s0-0.23-0.01-0.35c-0.01-0.13-0.02-0.25-0.03-0.36
		s-0.04-0.18-0.08-0.21c-0.2,0.27-0.43,0.58-0.69,0.93c-0.26,0.35-0.54,0.7-0.82,1.04c-0.28,0.35-0.57,0.67-0.85,0.98
		s-0.54,0.56-0.79,0.75c-0.03,0.03-0.1,0.06-0.21,0.09c-0.11,0.03-0.22,0.06-0.35,0.08c-0.12,0.02-0.24,0.04-0.35,0.06
		c-0.11,0.02-0.18,0.02-0.22,0.02c-0.14,0-0.27-0.06-0.4-0.19c-0.12-0.13-0.23-0.3-0.32-0.51c-0.09-0.21-0.16-0.45-0.21-0.71
		c-0.05-0.26-0.08-0.53-0.08-0.79c0-0.38,0.02-0.79,0.06-1.24c0.04-0.45,0.08-0.9,0.13-1.34c0.05-0.44,0.11-0.87,0.17-1.27
		c0.06-0.41,0.11-0.75,0.16-1.03c0.02-0.08,0.05-0.18,0.11-0.31c0.06-0.13,0.13-0.25,0.22-0.37s0.18-0.23,0.28-0.31
		c0.1-0.09,0.2-0.13,0.3-0.13c0.09,0,0.17,0.02,0.24,0.07s0.13,0.1,0.18,0.16c0.05,0.06,0.09,0.12,0.11,0.18s0.04,0.11,0.04,0.15
		c0,0.19-0.04,0.42-0.13,0.69c-0.09,0.27-0.18,0.58-0.29,0.93c0,0.02-0.02,0.09-0.04,0.22c-0.02,0.13-0.04,0.29-0.06,0.48
		c-0.02,0.19-0.05,0.41-0.07,0.66c-0.02,0.25-0.05,0.49-0.07,0.75c-0.02,0.25-0.04,0.5-0.05,0.75c-0.01,0.24-0.02,0.46-0.02,0.66
		c0,0.24,0.01,0.45,0.04,0.63c0.03,0.18,0.07,0.32,0.14,0.42c0.18-0.02,0.36-0.1,0.55-0.22c0.19-0.13,0.38-0.3,0.56-0.5
		c0.19-0.21,0.38-0.44,0.57-0.7c0.19-0.26,0.38-0.53,0.56-0.81c0.19-0.28,0.37-0.56,0.55-0.84s0.35-0.55,0.53-0.81
		c0.05-0.07,0.1-0.16,0.16-0.26c0.06-0.11,0.13-0.21,0.21-0.31c0.08-0.1,0.18-0.18,0.3-0.25s0.25-0.11,0.41-0.11
		c0.05,0,0.11,0.02,0.17,0.06c0.06,0.04,0.12,0.1,0.17,0.17c0.05,0.07,0.09,0.16,0.12,0.26s0.05,0.21,0.05,0.33v0.58
		c0,0.14,0,0.27,0,0.4c0,0.13,0.01,0.23,0.02,0.3c0.02,0.18,0.05,0.39,0.08,0.65c0.03,0.25,0.08,0.52,0.13,0.79
		c0.06,0.27,0.13,0.54,0.22,0.81s0.2,0.51,0.34,0.72c0.14,0.21,0.3,0.39,0.49,0.52c0.19,0.13,0.42,0.2,0.68,0.2
		c0.15,0,0.3-0.04,0.45-0.1s0.28-0.16,0.4-0.27c0.12-0.11,0.21-0.24,0.28-0.38c0.07-0.14,0.11-0.28,0.11-0.42
		c0-0.1-0.01-0.22-0.02-0.36s-0.03-0.27-0.05-0.4c-0.02-0.13-0.04-0.25-0.06-0.37c-0.02-0.11-0.04-0.2-0.06-0.25
		c-0.09-0.35-0.17-0.65-0.26-0.9c-0.08-0.24-0.12-0.45-0.12-0.63c0-0.05,0.02-0.1,0.05-0.17s0.07-0.13,0.12-0.19
		c0.05-0.06,0.1-0.11,0.16-0.15c0.06-0.04,0.11-0.06,0.16-0.06c0.03,0,0.1,0.01,0.2,0.04c0.1,0.03,0.23,0.06,0.37,0.11
		c0.15,0.04,0.3,0.09,0.47,0.13c0.17,0.05,0.34,0.09,0.52,0.13c0.17,0.04,0.34,0.08,0.5,0.11c0.16,0.03,0.29,0.04,0.41,0.04
		c0.19,0,0.39-0.01,0.59-0.02c0.2-0.02,0.39-0.04,0.57-0.06c0.18-0.03,0.36-0.06,0.52-0.09s0.3-0.07,0.41-0.11
		c0.07-0.03,0.15-0.05,0.23-0.08s0.17-0.04,0.24-0.04c0.09,0,0.17,0.03,0.23,0.08C79.91,28.12,79.94,28.23,79.94,28.39z"/>
	<path class="st1" d="M88.74,24.79c0,0.12-0.05,0.31-0.16,0.58s-0.25,0.57-0.43,0.91c-0.18,0.34-0.4,0.7-0.65,1.07
		c-0.25,0.37-0.52,0.73-0.8,1.06c-0.29,0.36-0.63,0.71-0.99,1.04s-0.76,0.64-1.19,0.9c-0.42,0.26-0.87,0.47-1.34,0.63
		c-0.47,0.16-0.95,0.24-1.44,0.24c-0.5,0-0.94-0.09-1.29-0.26c-0.36-0.17-0.64-0.4-0.87-0.67c-0.22-0.28-0.39-0.59-0.49-0.95
		c-0.1-0.35-0.15-0.71-0.15-1.08c0-0.33,0.03-0.67,0.09-1.01c0.06-0.34,0.15-0.67,0.27-0.99c0.12-0.32,0.26-0.63,0.42-0.93
		c0.16-0.29,0.34-0.57,0.54-0.82c0.13-0.16,0.28-0.34,0.46-0.52c0.18-0.18,0.39-0.35,0.62-0.5c0.23-0.15,0.48-0.28,0.75-0.38
		c0.27-0.1,0.55-0.15,0.84-0.15c0.21,0,0.4,0.04,0.56,0.11c0.16,0.08,0.29,0.18,0.4,0.3c0.11,0.12,0.19,0.26,0.25,0.41
		c0.05,0.15,0.08,0.31,0.08,0.46c0,0.31-0.06,0.61-0.17,0.9c-0.12,0.29-0.31,0.59-0.57,0.9c-0.26,0.31-0.61,0.63-1.03,0.97
		c-0.42,0.34-0.94,0.71-1.56,1.12c-0.04,0.03-0.09,0.06-0.16,0.1s-0.14,0.09-0.21,0.14c-0.07,0.05-0.13,0.1-0.18,0.15
		c-0.05,0.05-0.08,0.09-0.08,0.13c0,0.14,0.02,0.3,0.07,0.46c0.05,0.17,0.13,0.32,0.26,0.46s0.29,0.26,0.51,0.35
		s0.49,0.14,0.83,0.14c0.24,0,0.48-0.03,0.74-0.09c0.25-0.06,0.51-0.14,0.76-0.25c0.26-0.11,0.51-0.24,0.75-0.39
		c0.25-0.15,0.48-0.32,0.7-0.5c0.29-0.24,0.59-0.51,0.89-0.82c0.3-0.31,0.59-0.65,0.88-1.01c0.28-0.36,0.55-0.75,0.81-1.15
		c0.26-0.4,0.49-0.81,0.7-1.23c0.06-0.12,0.12-0.19,0.19-0.24c0.07-0.04,0.13-0.06,0.18-0.06c0.06,0,0.11,0.04,0.14,0.12
		C88.73,24.52,88.74,24.63,88.74,24.79z M83.06,24.52c0-0.06-0.02-0.11-0.05-0.17c-0.03-0.05-0.08-0.1-0.13-0.14
		c-0.05-0.04-0.1-0.08-0.16-0.1s-0.1-0.04-0.14-0.04c-0.21,0-0.43,0.09-0.68,0.26c-0.25,0.17-0.49,0.41-0.72,0.71
		c-0.23,0.31-0.43,0.67-0.61,1.1c-0.18,0.43-0.3,0.89-0.36,1.4c0.07-0.05,0.2-0.14,0.37-0.28s0.36-0.29,0.56-0.46
		c0.2-0.17,0.4-0.34,0.6-0.51c0.2-0.17,0.36-0.32,0.48-0.45c0.15-0.15,0.27-0.29,0.38-0.41c0.11-0.12,0.19-0.23,0.26-0.33
		c0.07-0.1,0.12-0.2,0.15-0.3S83.06,24.62,83.06,24.52z"/>
	<path class="st1" d="M94.98,27.22c0,0.25-0.15,0.63-0.45,1.16c-0.06,0.1-0.14,0.22-0.24,0.36c-0.1,0.14-0.22,0.28-0.34,0.43
		c-0.13,0.15-0.26,0.3-0.39,0.46c-0.14,0.16-0.27,0.3-0.4,0.43c-0.2,0.2-0.42,0.39-0.66,0.58C92.25,30.83,92,31,91.73,31.15
		c-0.27,0.15-0.54,0.28-0.82,0.37c-0.28,0.09-0.56,0.14-0.83,0.14c-0.36,0-0.7-0.07-1.02-0.2c-0.32-0.13-0.59-0.33-0.82-0.61
		c-0.23-0.27-0.42-0.62-0.55-1.03c-0.13-0.41-0.2-0.9-0.2-1.46c0-0.38,0.02-0.79,0.06-1.2c0.04-0.42,0.08-0.84,0.14-1.26
		s0.12-0.84,0.19-1.25s0.14-0.81,0.22-1.2c0.05-0.26,0.09-0.48,0.12-0.65c0.03-0.17,0.06-0.32,0.09-0.46
		c0.03-0.14,0.05-0.29,0.07-0.43c0.02-0.14,0.05-0.32,0.08-0.54c0.02-0.15,0.04-0.28,0.06-0.39c0.02-0.11,0.03-0.21,0.04-0.28
		c0.02-0.13,0.06-0.25,0.11-0.36c0.05-0.12,0.11-0.22,0.19-0.31c0.08-0.09,0.16-0.16,0.26-0.21c0.1-0.05,0.21-0.08,0.33-0.08
		c0.25,0,0.44,0.12,0.56,0.35c-0.03,0.16-0.06,0.32-0.1,0.47c-0.03,0.15-0.06,0.31-0.09,0.48c-0.13,0.66-0.24,1.2-0.32,1.61
		c-0.08,0.41-0.14,0.7-0.18,0.87c-0.06,0.33-0.13,0.69-0.2,1.07c-0.07,0.38-0.14,0.78-0.2,1.18c-0.06,0.4-0.11,0.79-0.15,1.18
		c-0.04,0.39-0.05,0.75-0.05,1.09c0,0.36,0.03,0.69,0.09,0.99c0.06,0.3,0.15,0.55,0.28,0.76c0.13,0.21,0.29,0.37,0.5,0.49
		c0.2,0.12,0.45,0.17,0.74,0.17c0.32,0,0.63-0.07,0.93-0.21c0.3-0.14,0.6-0.32,0.88-0.53c0.28-0.21,0.55-0.45,0.8-0.71
		c0.25-0.26,0.48-0.51,0.69-0.75c0.17-0.2,0.32-0.37,0.44-0.52s0.23-0.27,0.32-0.37c0.07-0.08,0.15-0.16,0.23-0.24
		c0.09-0.08,0.17-0.13,0.24-0.13C94.94,26.99,94.98,27.06,94.98,27.22z"/>
	<path class="st1" d="M104.18,26.57c0,0.19-0.07,0.36-0.21,0.51c-0.05,0.05-0.12,0.12-0.22,0.21c-0.1,0.09-0.19,0.17-0.27,0.25
		l-0.73,0.73c-0.14,0.14-0.26,0.26-0.38,0.37c-0.12,0.11-0.22,0.2-0.31,0.28c-0.15,0.13-0.33,0.28-0.55,0.45
		c-0.21,0.18-0.46,0.38-0.74,0.61c-0.55,0.45-1.05,0.82-1.51,1.11c-0.46,0.28-0.96,0.51-1.49,0.68c-0.53,0.17-1.09,0.26-1.68,0.26
		c-0.36,0.01-0.69-0.05-0.97-0.19c-0.29-0.14-0.53-0.32-0.73-0.56c-0.2-0.23-0.35-0.51-0.45-0.83s-0.15-0.65-0.15-1
		c0-0.7,0.15-1.4,0.45-2.1c0.3-0.7,0.69-1.39,1.19-2.07c0.27-0.36,0.59-0.7,0.97-1.03c0.37-0.33,0.71-0.49,1.02-0.49
		c0.16,0,0.35,0.14,0.56,0.41c0.11,0.14,0.21,0.28,0.3,0.44s0.18,0.32,0.26,0.49c0.16,0.34,0.24,0.59,0.24,0.74
		s-0.05,0.35-0.14,0.59s-0.21,0.36-0.34,0.36c-0.19,0-0.35-0.13-0.47-0.39c-0.06-0.13-0.11-0.24-0.14-0.34
		c-0.03-0.09-0.06-0.19-0.1-0.3c-0.12-0.32-0.22-0.54-0.31-0.68c-0.35,0.06-0.64,0.23-0.87,0.51c-0.11,0.14-0.22,0.3-0.34,0.49
		c-0.12,0.19-0.24,0.41-0.38,0.65c-0.11,0.19-0.2,0.4-0.29,0.64c-0.09,0.24-0.17,0.48-0.23,0.73c-0.06,0.25-0.11,0.5-0.15,0.75
		s-0.06,0.48-0.06,0.7c0,0.31,0.13,0.6,0.39,0.89c0.27,0.28,0.56,0.42,0.87,0.42c0.67,0,1.31-0.12,1.92-0.36s1.19-0.55,1.74-0.95
		c0.55-0.38,1.11-0.83,1.68-1.35c0.28-0.26,0.55-0.5,0.81-0.73c0.25-0.23,0.5-0.45,0.73-0.66c0.38-0.34,0.7-0.5,0.96-0.5
		C104.14,26.36,104.18,26.43,104.18,26.57z"/>
	<path class="st1" d="M113.65,25.04c0,0.09-0.03,0.19-0.09,0.29c-0.06,0.11-0.14,0.21-0.24,0.32c-0.1,0.11-0.21,0.21-0.34,0.32
		c-0.13,0.1-0.25,0.2-0.38,0.28c-0.13,0.09-0.25,0.16-0.36,0.23c-0.11,0.07-0.21,0.11-0.28,0.15c-0.14,0.06-0.32,0.11-0.54,0.15
		c-0.22,0.04-0.46,0.08-0.7,0.11c-0.24,0.03-0.48,0.06-0.71,0.08s-0.43,0.03-0.58,0.03c-0.06,0-0.15-0.01-0.26-0.03
		c-0.11-0.02-0.22-0.05-0.34-0.08c-0.12-0.03-0.23-0.07-0.33-0.11c-0.1-0.04-0.18-0.08-0.22-0.12c0.05,0.2,0.09,0.4,0.13,0.6
		c0.04,0.2,0.06,0.41,0.06,0.63c0,0.09-0.01,0.21-0.04,0.35c-0.02,0.14-0.05,0.28-0.09,0.42c-0.04,0.14-0.08,0.27-0.13,0.4
		c-0.05,0.13-0.1,0.24-0.15,0.32c-0.14,0.23-0.28,0.44-0.42,0.63s-0.31,0.37-0.49,0.53s-0.39,0.31-0.61,0.45
		c-0.23,0.14-0.49,0.28-0.78,0.41c-0.32,0.14-0.63,0.23-0.95,0.29c-0.32,0.05-0.65,0.08-0.99,0.08c-0.22,0-0.41-0.06-0.58-0.19
		c-0.17-0.13-0.31-0.3-0.43-0.51c-0.12-0.21-0.2-0.46-0.26-0.74c-0.06-0.28-0.09-0.57-0.09-0.88c0-0.08,0.01-0.18,0.02-0.29
		c0.01-0.12,0.03-0.23,0.06-0.36c0.02-0.12,0.05-0.24,0.07-0.35c0.03-0.11,0.05-0.21,0.08-0.28c0.07-0.22,0.18-0.47,0.32-0.76
		s0.3-0.58,0.48-0.87c0.18-0.3,0.39-0.59,0.62-0.88c0.23-0.29,0.46-0.54,0.71-0.77s0.5-0.41,0.77-0.54s0.54-0.21,0.8-0.21
		c0.09,0,0.16,0.01,0.22,0.04c0.05,0.03,0.1,0.06,0.14,0.1s0.08,0.09,0.11,0.13s0.07,0.09,0.11,0.14c0.02,0.03,0.04,0.04,0.07,0.04
		c0.04,0,0.09-0.01,0.16-0.03c0.06-0.02,0.13-0.03,0.21-0.03c0.1,0,0.22,0.06,0.37,0.19c0.15,0.13,0.3,0.27,0.46,0.43
		c0.16,0.16,0.32,0.3,0.48,0.43c0.16,0.13,0.3,0.19,0.43,0.19c0.14,0,0.29,0,0.46-0.01s0.33-0.01,0.5-0.03
		c0.17-0.01,0.33-0.03,0.5-0.05c0.16-0.02,0.31-0.04,0.45-0.07c0.04-0.01,0.12-0.03,0.26-0.07c0.14-0.04,0.3-0.08,0.48-0.13
		c0.18-0.05,0.37-0.1,0.58-0.16c0.2-0.06,0.39-0.11,0.56-0.16c0.17-0.05,0.32-0.09,0.43-0.12c0.11-0.03,0.17-0.05,0.19-0.05
		c0.03,0,0.06,0.01,0.09,0.02C113.64,24.97,113.65,25,113.65,25.04z M107.49,26.3c-0.03-0.1-0.09-0.21-0.19-0.31
		c-0.09-0.1-0.2-0.19-0.32-0.27c-0.12-0.08-0.24-0.14-0.38-0.19c-0.13-0.05-0.25-0.07-0.37-0.07c-0.09,0-0.19,0.02-0.28,0.05
		c-0.09,0.03-0.18,0.07-0.26,0.12c-0.09,0.05-0.17,0.11-0.25,0.17s-0.15,0.12-0.22,0.17c-0.21,0.17-0.4,0.42-0.59,0.73
		c-0.19,0.31-0.35,0.65-0.49,1.01c-0.14,0.36-0.25,0.72-0.34,1.08s-0.13,0.67-0.13,0.93c0,0.12,0.02,0.23,0.06,0.34
		c0.04,0.11,0.1,0.2,0.17,0.28c0.07,0.08,0.16,0.15,0.26,0.2c0.1,0.05,0.21,0.08,0.33,0.08c0.32,0,0.61-0.06,0.88-0.17
		c0.27-0.11,0.51-0.27,0.73-0.47c0.22-0.2,0.41-0.43,0.58-0.71c0.17-0.27,0.31-0.57,0.43-0.89c0.12-0.32,0.2-0.65,0.26-1.01
		S107.49,26.66,107.49,26.3z"/>
	<path class="st1" d="M129.32,28.74c0,0.05-0.03,0.11-0.08,0.19c-0.05,0.08-0.11,0.17-0.18,0.25s-0.15,0.17-0.24,0.25
		c-0.09,0.08-0.17,0.14-0.23,0.18c-0.54,0.33-1.05,0.58-1.51,0.75c-0.47,0.18-0.95,0.26-1.44,0.26c-0.27,0-0.51-0.05-0.71-0.16
		c-0.21-0.1-0.39-0.26-0.55-0.46c-0.16-0.21-0.3-0.46-0.42-0.76c-0.12-0.3-0.22-0.64-0.31-1.03c-0.05-0.21-0.09-0.43-0.13-0.65
		c-0.04-0.22-0.09-0.42-0.13-0.6c-0.05-0.18-0.1-0.33-0.17-0.45c-0.06-0.12-0.14-0.18-0.24-0.18c-0.22,0-0.47,0.19-0.74,0.58
		c-0.27,0.38-0.63,0.96-1.06,1.71c-0.43,0.76-0.79,1.33-1.08,1.73c-0.29,0.39-0.56,0.59-0.81,0.59c-0.36,0-0.61-0.17-0.73-0.51
		c-0.12-0.35-0.19-0.93-0.21-1.74c-0.01-0.32-0.02-0.6-0.06-0.85c-0.03-0.24-0.07-0.45-0.12-0.63c-0.05-0.17-0.1-0.32-0.17-0.43
		c-0.07-0.11-0.13-0.2-0.2-0.26c-0.27,0.16-0.52,0.38-0.77,0.64c-0.24,0.26-0.47,0.54-0.69,0.84s-0.42,0.6-0.6,0.91
		c-0.19,0.31-0.35,0.58-0.5,0.84c-0.07,0.13-0.16,0.27-0.25,0.43s-0.19,0.33-0.29,0.49c-0.1,0.17-0.19,0.32-0.28,0.47
		s-0.17,0.27-0.24,0.36c-0.15,0.22-0.34,0.33-0.55,0.33c-0.4,0-0.66-0.21-0.79-0.62c-0.03-0.11-0.06-0.2-0.08-0.28
		s-0.04-0.17-0.05-0.25c-0.01-0.08-0.02-0.18-0.03-0.27c-0.01-0.1-0.01-0.21-0.01-0.34c0-0.21,0.01-0.43,0.03-0.67
		c0.02-0.24,0.05-0.48,0.08-0.72s0.07-0.49,0.12-0.73c0.04-0.24,0.09-0.48,0.13-0.71c0.09-0.45,0.16-0.86,0.21-1.23
		c0.05-0.37,0.08-0.72,0.08-1.05c0-0.13,0.04-0.23,0.11-0.32c0.07-0.09,0.18-0.13,0.31-0.13c0.53,0,0.79,0.36,0.79,1.08
		c0,0.19-0.01,0.39-0.04,0.62c-0.03,0.22-0.07,0.45-0.11,0.69c-0.04,0.24-0.09,0.48-0.15,0.73c-0.05,0.25-0.1,0.49-0.15,0.72
		c-0.03,0.14-0.05,0.29-0.08,0.45c-0.03,0.16-0.05,0.31-0.08,0.46s-0.04,0.27-0.06,0.39c-0.02,0.11-0.02,0.2-0.02,0.25
		c0.07-0.07,0.15-0.17,0.26-0.3c0.1-0.13,0.21-0.29,0.33-0.46c0.12-0.18,0.25-0.38,0.39-0.59c0.14-0.21,0.28-0.44,0.42-0.67
		c0.29-0.46,0.57-0.87,0.82-1.23s0.49-0.66,0.71-0.91c0.44-0.5,0.92-0.75,1.43-0.75c0.13,0,0.24,0.04,0.33,0.11s0.18,0.17,0.24,0.29
		s0.13,0.26,0.17,0.41c0.05,0.15,0.09,0.31,0.12,0.47c0.05,0.27,0.1,0.57,0.15,0.89c0.05,0.33,0.1,0.63,0.15,0.92
		c0.05,0.28,0.1,0.52,0.16,0.71c0.05,0.19,0.12,0.29,0.19,0.29c0.06,0,0.13-0.04,0.21-0.13c0.08-0.09,0.17-0.2,0.25-0.33
		s0.18-0.29,0.27-0.45c0.09-0.17,0.18-0.33,0.26-0.49c0.08-0.16,0.16-0.31,0.23-0.45c0.07-0.14,0.13-0.25,0.17-0.32
		c0.12-0.21,0.25-0.43,0.4-0.67c0.15-0.24,0.32-0.47,0.49-0.69c0.18-0.21,0.37-0.39,0.57-0.53c0.21-0.14,0.42-0.21,0.65-0.21
		c0.24,0,0.42,0.05,0.55,0.16c0.13,0.11,0.24,0.27,0.33,0.48c0.09,0.21,0.16,0.48,0.23,0.8c0.07,0.32,0.15,0.69,0.25,1.12
		c0.16,0.69,0.34,1.21,0.53,1.55s0.44,0.51,0.75,0.51c0.19,0,0.39-0.01,0.6-0.04c0.2-0.03,0.42-0.07,0.64-0.13s0.45-0.14,0.7-0.25
		c0.25-0.1,0.51-0.23,0.79-0.39c0.02-0.01,0.05-0.03,0.1-0.05c0.04-0.02,0.09-0.05,0.14-0.07c0.05-0.02,0.1-0.04,0.14-0.06
		s0.07-0.02,0.09-0.02c0.02,0,0.05,0.01,0.08,0.03c0.03,0.02,0.06,0.05,0.08,0.08c0.03,0.03,0.05,0.07,0.07,0.11
		C129.3,28.67,129.32,28.71,129.32,28.74z"/>
	<path class="st1" d="M136.57,28.08c0,0.18-0.07,0.38-0.21,0.6s-0.33,0.46-0.58,0.73c-0.29,0.31-0.61,0.59-0.96,0.85
		s-0.71,0.49-1.07,0.68s-0.74,0.34-1.12,0.45c-0.38,0.11-0.74,0.17-1.1,0.17c-0.83,0-1.46-0.27-1.92-0.8
		c-0.45-0.53-0.68-1.31-0.68-2.34c0-0.33,0.03-0.66,0.09-1c0.06-0.34,0.14-0.67,0.26-1.01c0.11-0.33,0.25-0.65,0.43-0.96
		s0.37-0.6,0.6-0.87c0.14-0.16,0.3-0.33,0.47-0.5c0.17-0.17,0.37-0.32,0.58-0.45c0.21-0.13,0.44-0.24,0.69-0.33
		c0.25-0.08,0.52-0.13,0.82-0.13c0.21,0,0.4,0.04,0.57,0.12c0.17,0.08,0.31,0.19,0.43,0.31c0.12,0.13,0.2,0.27,0.26,0.43
		s0.09,0.31,0.09,0.47c0,0.32-0.09,0.65-0.26,0.97s-0.42,0.66-0.73,0.99c-0.32,0.33-0.69,0.67-1.14,1c-0.44,0.33-0.93,0.67-1.48,1
		c-0.07,0.04-0.15,0.09-0.22,0.14c-0.07,0.05-0.11,0.11-0.11,0.19c0,0.16,0.02,0.32,0.06,0.5s0.12,0.33,0.23,0.48
		s0.26,0.26,0.45,0.36c0.19,0.09,0.42,0.14,0.71,0.14c0.37,0,0.74-0.06,1.13-0.18c0.38-0.12,0.75-0.28,1.12-0.49
		c0.37-0.21,0.72-0.46,1.07-0.75c0.34-0.29,0.67-0.6,0.97-0.94c0.17-0.18,0.3-0.28,0.4-0.28c0.06,0,0.1,0.03,0.13,0.1
		C136.55,27.8,136.57,27.92,136.57,28.08z M132.91,24.71c0-0.06-0.02-0.11-0.05-0.16c-0.03-0.05-0.07-0.09-0.11-0.12
		c-0.04-0.03-0.09-0.06-0.14-0.08s-0.09-0.03-0.13-0.03c-0.23,0-0.47,0.08-0.71,0.25c-0.24,0.17-0.47,0.4-0.68,0.69
		c-0.21,0.29-0.39,0.64-0.55,1.05c-0.16,0.41-0.27,0.84-0.32,1.32c0.07-0.05,0.17-0.12,0.29-0.21s0.25-0.19,0.39-0.3
		c0.14-0.11,0.28-0.22,0.42-0.33c0.14-0.11,0.26-0.21,0.38-0.31c0.24-0.21,0.44-0.39,0.6-0.55c0.16-0.16,0.28-0.31,0.38-0.44
		c0.09-0.13,0.16-0.27,0.19-0.39C132.89,24.98,132.91,24.85,132.91,24.71z"/>
</g>
</svg>
