<?xml version="1.0" encoding="utf-8"?>
<!-- Generator: Adobe Illustrator 24.2.3, SVG Export Plug-In . SVG Version: 6.00 Build 0)  -->
<svg version="1.1" id="Capa_1" xmlns="http://www.w3.org/2000/svg" xmlns:xlink="http://www.w3.org/1999/xlink" x="0px" y="0px"
	 viewBox="0 0 137 40" style="enable-background:new 0 0 137 40;" xml:space="preserve">
<style type="text/css">
	.st0{fill:#FFFFFF;}
</style>
<g>
	<path class="st0" d="M18.28,20.46c0,0.06-0.07,0.15-0.21,0.25c-0.14,0.1-0.32,0.2-0.56,0.3s-0.52,0.18-0.85,0.25
		c-0.33,0.07-0.68,0.1-1.05,0.1c-0.18,0-0.35-0.01-0.5-0.03c-0.15-0.02-0.29-0.04-0.41-0.06c-0.12-0.02-0.22-0.04-0.32-0.06
		s-0.17-0.03-0.23-0.03c-0.12,0-0.19,0.06-0.19,0.17c0,0.07,0.02,0.17,0.05,0.3c0.03,0.13,0.07,0.28,0.12,0.45
		c0.04,0.17,0.08,0.37,0.12,0.58c0.03,0.21,0.05,0.45,0.05,0.7c0,0.21-0.05,0.43-0.14,0.66c-0.09,0.23-0.23,0.44-0.41,0.63
		c-0.18,0.19-0.41,0.34-0.67,0.47s-0.57,0.19-0.92,0.19c-0.4,0-0.76-0.08-1.06-0.23s-0.57-0.37-0.79-0.65
		c-0.22-0.28-0.41-0.63-0.55-1.03c-0.15-0.4-0.26-0.85-0.35-1.36c0-0.03-0.01-0.1-0.01-0.2c0-0.1,0-0.22-0.01-0.33
		S9.37,21.3,9.36,21.2c-0.02-0.1-0.04-0.17-0.07-0.2c-0.19,0.26-0.41,0.55-0.65,0.88c-0.25,0.33-0.51,0.66-0.77,0.98
		c-0.27,0.33-0.54,0.64-0.8,0.93c-0.27,0.29-0.51,0.53-0.74,0.71c-0.03,0.03-0.1,0.06-0.2,0.09c-0.1,0.03-0.21,0.06-0.33,0.08
		s-0.23,0.04-0.33,0.06c-0.1,0.02-0.17,0.02-0.21,0.02c-0.13,0-0.26-0.06-0.38-0.18c-0.12-0.12-0.22-0.28-0.31-0.48
		c-0.09-0.2-0.15-0.42-0.2-0.67c-0.05-0.25-0.07-0.5-0.07-0.75c0-0.36,0.02-0.75,0.05-1.17c0.03-0.42,0.08-0.85,0.13-1.27
		c0.05-0.42,0.1-0.82,0.16-1.2c0.05-0.38,0.1-0.71,0.15-0.98c0.02-0.07,0.05-0.17,0.11-0.29s0.13-0.24,0.21-0.35
		c0.08-0.12,0.17-0.21,0.27-0.29s0.19-0.12,0.28-0.12c0.08,0,0.16,0.02,0.23,0.06s0.12,0.09,0.17,0.15
		c0.05,0.06,0.08,0.11,0.11,0.17s0.04,0.1,0.04,0.14c0,0.18-0.04,0.4-0.12,0.65c-0.08,0.26-0.17,0.55-0.27,0.88
		c0,0.02-0.02,0.09-0.03,0.21c-0.02,0.12-0.04,0.27-0.06,0.45c-0.02,0.18-0.04,0.39-0.07,0.62c-0.02,0.23-0.04,0.47-0.06,0.7
		c-0.02,0.24-0.04,0.47-0.05,0.7c-0.01,0.23-0.02,0.44-0.02,0.62c0,0.22,0.01,0.42,0.04,0.59s0.07,0.3,0.13,0.4
		c0.17-0.02,0.34-0.09,0.52-0.21c0.18-0.12,0.35-0.28,0.53-0.47C6.9,22.46,7.08,22.25,7.26,22c0.18-0.25,0.36-0.5,0.53-0.76
		c0.18-0.26,0.35-0.53,0.52-0.8c0.17-0.27,0.33-0.52,0.5-0.76c0.04-0.06,0.09-0.15,0.15-0.25c0.05-0.1,0.12-0.2,0.2-0.29
		c0.08-0.09,0.17-0.17,0.28-0.24c0.11-0.07,0.23-0.1,0.38-0.1c0.05,0,0.1,0.02,0.16,0.06s0.11,0.09,0.16,0.16
		c0.05,0.07,0.09,0.15,0.12,0.25s0.04,0.2,0.04,0.32v0.55c0,0.13,0,0.25,0,0.38s0,0.22,0.02,0.29c0.02,0.17,0.04,0.37,0.07,0.61
		s0.07,0.49,0.13,0.74s0.12,0.51,0.21,0.77c0.08,0.25,0.19,0.48,0.32,0.68c0.13,0.2,0.29,0.36,0.47,0.49s0.39,0.19,0.64,0.19
		c0.14,0,0.29-0.03,0.42-0.1c0.14-0.06,0.26-0.15,0.38-0.25c0.11-0.1,0.2-0.22,0.27-0.35c0.07-0.13,0.1-0.26,0.1-0.4
		c0-0.09-0.01-0.21-0.02-0.34c-0.01-0.13-0.03-0.25-0.05-0.38c-0.02-0.12-0.04-0.24-0.06-0.35c-0.02-0.11-0.04-0.18-0.05-0.23
		c-0.08-0.33-0.17-0.61-0.24-0.84c-0.08-0.23-0.12-0.43-0.12-0.59c0-0.04,0.02-0.1,0.04-0.16s0.07-0.12,0.11-0.17
		c0.04-0.06,0.09-0.1,0.15-0.14s0.1-0.06,0.15-0.06c0.03,0,0.09,0.01,0.19,0.04s0.21,0.06,0.35,0.1c0.14,0.04,0.29,0.08,0.45,0.13
		c0.16,0.04,0.32,0.09,0.49,0.13c0.16,0.04,0.32,0.07,0.47,0.1s0.28,0.04,0.39,0.04c0.18,0,0.37-0.01,0.55-0.02s0.37-0.03,0.54-0.06
		c0.17-0.02,0.34-0.05,0.49-0.08s0.28-0.07,0.39-0.1c0.06-0.03,0.14-0.05,0.22-0.08c0.08-0.02,0.16-0.04,0.23-0.04
		c0.08,0,0.15,0.03,0.21,0.08C18.25,20.2,18.28,20.3,18.28,20.46z"/>
	<path class="st0" d="M26.58,17.05c0,0.11-0.05,0.3-0.15,0.55c-0.1,0.25-0.24,0.54-0.41,0.86c-0.17,0.32-0.38,0.66-0.61,1.01
		c-0.23,0.35-0.49,0.68-0.76,1c-0.28,0.34-0.59,0.67-0.94,0.98c-0.35,0.32-0.72,0.6-1.12,0.85s-0.82,0.45-1.26,0.6
		c-0.44,0.15-0.9,0.22-1.36,0.22c-0.48,0-0.88-0.08-1.22-0.24s-0.61-0.37-0.82-0.64s-0.36-0.56-0.46-0.89
		c-0.1-0.33-0.15-0.67-0.15-1.02c0-0.31,0.03-0.63,0.09-0.95c0.06-0.32,0.15-0.63,0.26-0.94c0.11-0.31,0.24-0.6,0.4-0.88
		c0.15-0.28,0.32-0.54,0.51-0.77c0.12-0.15,0.26-0.32,0.44-0.49c0.17-0.17,0.36-0.33,0.58-0.47c0.22-0.14,0.45-0.26,0.7-0.36
		c0.25-0.1,0.52-0.15,0.8-0.15c0.2,0,0.37,0.04,0.52,0.11s0.28,0.17,0.38,0.28c0.1,0.12,0.18,0.25,0.23,0.39
		c0.05,0.14,0.08,0.29,0.08,0.43c0,0.29-0.05,0.58-0.16,0.85c-0.11,0.27-0.29,0.55-0.54,0.84c-0.25,0.29-0.57,0.6-0.97,0.92
		s-0.89,0.67-1.47,1.06c-0.03,0.03-0.08,0.06-0.15,0.1c-0.06,0.04-0.13,0.08-0.19,0.13s-0.12,0.09-0.17,0.14
		c-0.05,0.05-0.07,0.09-0.07,0.12c0,0.13,0.02,0.28,0.07,0.44c0.04,0.16,0.13,0.3,0.24,0.43s0.28,0.24,0.48,0.33
		c0.2,0.09,0.46,0.13,0.78,0.13c0.22,0,0.46-0.03,0.7-0.08c0.24-0.06,0.48-0.14,0.72-0.24s0.48-0.22,0.71-0.37
		c0.23-0.14,0.45-0.3,0.66-0.47c0.28-0.22,0.56-0.48,0.84-0.78c0.28-0.29,0.56-0.61,0.83-0.96c0.27-0.34,0.52-0.7,0.77-1.08
		c0.24-0.38,0.46-0.77,0.66-1.16c0.05-0.11,0.12-0.18,0.18-0.22c0.07-0.04,0.12-0.06,0.17-0.06c0.06,0,0.1,0.04,0.13,0.12
		C26.56,16.8,26.58,16.91,26.58,17.05z M21.22,16.81c0-0.05-0.02-0.11-0.05-0.16c-0.03-0.05-0.07-0.09-0.12-0.13
		c-0.05-0.04-0.1-0.07-0.15-0.1c-0.05-0.03-0.1-0.04-0.13-0.04c-0.19,0-0.41,0.08-0.64,0.24s-0.46,0.39-0.68,0.67
		s-0.41,0.63-0.58,1.04c-0.17,0.4-0.28,0.84-0.34,1.33c0.07-0.04,0.19-0.13,0.35-0.26c0.16-0.13,0.34-0.27,0.53-0.43
		c0.19-0.16,0.38-0.32,0.57-0.48c0.19-0.16,0.34-0.31,0.45-0.43c0.14-0.14,0.26-0.27,0.36-0.39c0.1-0.11,0.18-0.22,0.25-0.32
		c0.06-0.1,0.11-0.19,0.14-0.28C21.2,16.99,21.22,16.9,21.22,16.81z"/>
	<path class="st0" d="M32.46,19.35c0,0.23-0.14,0.6-0.42,1.09c-0.05,0.09-0.13,0.21-0.23,0.34c-0.1,0.13-0.2,0.27-0.32,0.41
		s-0.24,0.29-0.37,0.43c-0.13,0.15-0.26,0.28-0.38,0.41c-0.19,0.19-0.4,0.37-0.62,0.55c-0.23,0.18-0.46,0.34-0.71,0.48
		c-0.25,0.14-0.51,0.26-0.77,0.35c-0.27,0.09-0.53,0.13-0.79,0.13c-0.34,0-0.66-0.06-0.96-0.19s-0.56-0.32-0.78-0.57
		c-0.22-0.26-0.39-0.58-0.52-0.97s-0.19-0.85-0.19-1.38c0-0.36,0.02-0.74,0.05-1.13c0.03-0.4,0.08-0.79,0.13-1.19
		c0.05-0.4,0.12-0.79,0.18-1.18s0.14-0.77,0.2-1.13c0.04-0.25,0.08-0.45,0.12-0.61c0.03-0.16,0.06-0.31,0.09-0.44
		c0.02-0.13,0.05-0.27,0.07-0.41c0.02-0.14,0.04-0.31,0.07-0.51c0.02-0.14,0.04-0.26,0.06-0.37c0.02-0.11,0.03-0.19,0.04-0.26
		c0.02-0.12,0.05-0.23,0.1-0.34c0.05-0.11,0.11-0.21,0.18-0.29c0.07-0.08,0.15-0.15,0.25-0.2c0.09-0.05,0.2-0.07,0.31-0.07
		c0.24,0,0.41,0.11,0.53,0.33c-0.03,0.15-0.06,0.3-0.09,0.44c-0.03,0.14-0.06,0.29-0.09,0.45c-0.12,0.63-0.23,1.13-0.31,1.52
		c-0.08,0.39-0.14,0.66-0.17,0.82c-0.06,0.31-0.12,0.65-0.19,1.01s-0.13,0.73-0.19,1.11c-0.06,0.38-0.1,0.75-0.14,1.12
		c-0.04,0.37-0.05,0.71-0.05,1.03c0,0.34,0.03,0.65,0.08,0.93c0.05,0.28,0.14,0.52,0.26,0.72c0.12,0.2,0.28,0.35,0.47,0.46
		c0.19,0.11,0.42,0.16,0.7,0.16c0.3,0,0.59-0.07,0.88-0.2c0.29-0.13,0.56-0.3,0.83-0.5s0.52-0.43,0.76-0.67s0.46-0.48,0.66-0.71
		c0.16-0.19,0.3-0.35,0.42-0.49c0.12-0.14,0.22-0.25,0.3-0.35c0.06-0.07,0.14-0.15,0.22-0.23c0.08-0.08,0.16-0.12,0.23-0.12
		C32.42,19.13,32.46,19.2,32.46,19.35z"/>
	<path class="st0" d="M41.14,18.73c0,0.18-0.06,0.34-0.19,0.48c-0.04,0.05-0.11,0.12-0.21,0.2s-0.18,0.16-0.25,0.23l-0.69,0.69
		c-0.13,0.13-0.25,0.24-0.36,0.35s-0.21,0.19-0.29,0.26c-0.14,0.12-0.32,0.26-0.52,0.43c-0.2,0.17-0.43,0.36-0.7,0.58
		c-0.52,0.43-0.99,0.78-1.43,1.05c-0.44,0.27-0.9,0.48-1.4,0.64s-1.03,0.24-1.58,0.24c-0.34,0.01-0.65-0.05-0.92-0.18
		c-0.27-0.13-0.5-0.3-0.68-0.53c-0.19-0.22-0.33-0.48-0.42-0.78c-0.1-0.3-0.14-0.61-0.14-0.95c0-0.66,0.14-1.32,0.42-1.98
		c0.28-0.66,0.65-1.31,1.12-1.95c0.25-0.34,0.56-0.66,0.92-0.97c0.35-0.31,0.67-0.46,0.96-0.46c0.15,0,0.33,0.13,0.53,0.39
		c0.1,0.13,0.19,0.27,0.28,0.41c0.09,0.15,0.17,0.3,0.25,0.47c0.15,0.32,0.22,0.56,0.22,0.7c0,0.14-0.04,0.33-0.13,0.56
		s-0.2,0.34-0.32,0.34c-0.18,0-0.33-0.12-0.45-0.36c-0.06-0.13-0.1-0.23-0.13-0.32s-0.06-0.18-0.09-0.28
		c-0.11-0.3-0.21-0.51-0.29-0.64c-0.33,0.06-0.6,0.22-0.82,0.48c-0.1,0.13-0.21,0.28-0.32,0.47c-0.11,0.18-0.23,0.39-0.35,0.61
		c-0.1,0.18-0.19,0.38-0.28,0.6c-0.08,0.22-0.16,0.45-0.22,0.69c-0.06,0.24-0.11,0.47-0.14,0.71c-0.03,0.24-0.05,0.46-0.05,0.66
		c0,0.29,0.12,0.57,0.37,0.84c0.25,0.26,0.53,0.39,0.82,0.39c0.64,0,1.24-0.11,1.81-0.33s1.12-0.52,1.65-0.89
		c0.52-0.36,1.05-0.79,1.59-1.27c0.27-0.24,0.52-0.47,0.76-0.69s0.47-0.42,0.69-0.62c0.36-0.32,0.66-0.48,0.9-0.48
		C41.11,18.53,41.14,18.6,41.14,18.73z"/>
	<path class="st0" d="M50.08,17.29c0,0.08-0.03,0.18-0.09,0.28c-0.06,0.1-0.14,0.2-0.23,0.3c-0.09,0.1-0.2,0.2-0.32,0.3
		s-0.24,0.19-0.36,0.27s-0.23,0.15-0.34,0.22s-0.19,0.11-0.26,0.14c-0.13,0.05-0.3,0.1-0.51,0.15c-0.21,0.04-0.43,0.08-0.66,0.11
		c-0.23,0.03-0.45,0.05-0.67,0.07c-0.22,0.02-0.4,0.03-0.55,0.03c-0.06,0-0.14-0.01-0.25-0.03c-0.1-0.02-0.21-0.04-0.32-0.08
		c-0.11-0.03-0.21-0.06-0.31-0.1c-0.1-0.04-0.17-0.08-0.21-0.12c0.04,0.19,0.08,0.38,0.12,0.57c0.03,0.19,0.05,0.39,0.05,0.59
		c0,0.09-0.01,0.2-0.03,0.33s-0.05,0.26-0.09,0.39c-0.04,0.13-0.08,0.26-0.12,0.38c-0.04,0.12-0.09,0.22-0.14,0.3
		c-0.13,0.22-0.26,0.42-0.4,0.6c-0.14,0.18-0.29,0.34-0.46,0.5c-0.17,0.15-0.36,0.29-0.58,0.43c-0.21,0.13-0.46,0.26-0.74,0.39
		c-0.3,0.13-0.6,0.22-0.9,0.27c-0.3,0.05-0.61,0.08-0.93,0.08c-0.2,0-0.38-0.06-0.54-0.18c-0.16-0.12-0.29-0.28-0.4-0.48
		c-0.11-0.2-0.19-0.43-0.25-0.7c-0.06-0.26-0.09-0.54-0.09-0.83c0-0.07,0.01-0.17,0.02-0.28c0.01-0.11,0.03-0.22,0.05-0.33
		s0.05-0.22,0.07-0.33c0.02-0.1,0.05-0.19,0.07-0.27c0.07-0.21,0.17-0.45,0.3-0.71c0.13-0.27,0.28-0.54,0.45-0.82
		c0.17-0.28,0.37-0.56,0.58-0.83c0.21-0.27,0.44-0.51,0.67-0.73c0.23-0.21,0.48-0.38,0.73-0.51c0.25-0.13,0.51-0.19,0.76-0.19
		c0.08,0,0.15,0.01,0.2,0.04s0.1,0.06,0.13,0.1c0.04,0.04,0.07,0.08,0.1,0.13c0.03,0.04,0.06,0.09,0.1,0.13
		c0.01,0.03,0.04,0.04,0.07,0.04c0.04,0,0.09-0.01,0.15-0.03s0.13-0.03,0.2-0.03c0.09,0,0.21,0.06,0.35,0.18
		c0.14,0.12,0.28,0.26,0.44,0.4c0.15,0.15,0.3,0.28,0.45,0.4c0.15,0.12,0.29,0.18,0.41,0.18c0.13,0,0.28,0,0.43-0.01
		c0.15,0,0.31-0.01,0.47-0.03c0.16-0.01,0.31-0.03,0.47-0.05c0.15-0.02,0.29-0.04,0.42-0.07c0.03-0.01,0.12-0.03,0.25-0.07
		c0.13-0.03,0.28-0.08,0.45-0.12c0.17-0.05,0.35-0.1,0.54-0.15c0.19-0.05,0.37-0.11,0.53-0.15c0.16-0.05,0.3-0.08,0.41-0.12
		c0.11-0.03,0.17-0.04,0.17-0.04c0.03,0,0.06,0.01,0.08,0.02C50.06,17.22,50.08,17.25,50.08,17.29z M44.27,18.48
		c-0.03-0.1-0.09-0.2-0.17-0.29s-0.19-0.18-0.3-0.25c-0.11-0.07-0.23-0.13-0.35-0.18s-0.24-0.07-0.35-0.07
		c-0.09,0-0.18,0.01-0.26,0.04s-0.17,0.07-0.25,0.12c-0.08,0.05-0.16,0.1-0.23,0.16c-0.07,0.06-0.14,0.11-0.21,0.16
		c-0.19,0.16-0.38,0.39-0.55,0.69c-0.18,0.3-0.33,0.61-0.46,0.95c-0.13,0.34-0.24,0.68-0.32,1.02c-0.08,0.34-0.12,0.63-0.12,0.88
		c0,0.11,0.02,0.21,0.06,0.32s0.09,0.19,0.16,0.27c0.07,0.08,0.15,0.14,0.25,0.19s0.2,0.07,0.31,0.07c0.3,0,0.57-0.05,0.83-0.16
		c0.25-0.11,0.48-0.25,0.69-0.44c0.21-0.19,0.39-0.41,0.55-0.67c0.16-0.26,0.29-0.54,0.4-0.84c0.11-0.3,0.19-0.62,0.25-0.95
		C44.23,19.15,44.26,18.82,44.27,18.48z"/>
	<path class="st0" d="M64.86,20.78c0,0.04-0.02,0.11-0.07,0.18c-0.05,0.08-0.1,0.16-0.17,0.24c-0.07,0.08-0.14,0.16-0.22,0.23
		c-0.08,0.07-0.16,0.13-0.22,0.17c-0.51,0.31-0.99,0.54-1.43,0.71c-0.44,0.17-0.89,0.25-1.36,0.25c-0.25,0-0.48-0.05-0.67-0.15
		c-0.2-0.1-0.37-0.25-0.52-0.44c-0.15-0.19-0.28-0.43-0.39-0.71c-0.11-0.28-0.21-0.61-0.29-0.98c-0.04-0.2-0.09-0.4-0.13-0.61
		c-0.04-0.21-0.08-0.4-0.13-0.57c-0.04-0.17-0.1-0.31-0.16-0.42s-0.13-0.17-0.22-0.17c-0.21,0-0.44,0.18-0.7,0.54s-0.59,0.9-1,1.62
		c-0.4,0.71-0.74,1.26-1.02,1.63s-0.53,0.56-0.76,0.56c-0.34,0-0.57-0.16-0.69-0.48c-0.11-0.33-0.18-0.88-0.2-1.65
		c0-0.3-0.02-0.57-0.05-0.8c-0.03-0.23-0.07-0.43-0.11-0.59c-0.04-0.16-0.1-0.3-0.16-0.41c-0.06-0.11-0.13-0.19-0.19-0.25
		c-0.25,0.15-0.5,0.35-0.73,0.6c-0.23,0.25-0.45,0.51-0.65,0.8s-0.39,0.57-0.57,0.86c-0.18,0.29-0.33,0.55-0.47,0.79
		c-0.07,0.12-0.15,0.26-0.24,0.41c-0.09,0.15-0.18,0.31-0.27,0.47s-0.18,0.3-0.27,0.44c-0.09,0.14-0.16,0.25-0.23,0.34
		c-0.14,0.21-0.32,0.31-0.52,0.31c-0.38,0-0.63-0.19-0.74-0.58c-0.03-0.1-0.05-0.19-0.07-0.27c-0.02-0.08-0.04-0.16-0.05-0.24
		c-0.01-0.08-0.02-0.17-0.03-0.26s-0.01-0.2-0.01-0.32c0-0.2,0.01-0.41,0.03-0.63c0.02-0.22,0.05-0.45,0.08-0.68
		c0.03-0.23,0.07-0.46,0.11-0.69c0.04-0.23,0.08-0.46,0.12-0.67c0.08-0.43,0.15-0.81,0.2-1.16c0.05-0.35,0.07-0.68,0.07-0.99
		c0-0.12,0.03-0.22,0.1-0.3c0.07-0.08,0.17-0.12,0.29-0.12c0.5,0,0.74,0.34,0.74,1.02c0,0.18-0.01,0.37-0.04,0.58
		c-0.03,0.21-0.06,0.43-0.1,0.65c-0.04,0.23-0.09,0.45-0.14,0.68c-0.05,0.23-0.1,0.46-0.14,0.68c-0.02,0.13-0.05,0.28-0.07,0.43
		s-0.05,0.29-0.07,0.43c-0.02,0.14-0.04,0.26-0.06,0.37c-0.02,0.11-0.02,0.18-0.02,0.23c0.06-0.06,0.15-0.16,0.24-0.28
		s0.2-0.27,0.32-0.44c0.11-0.17,0.24-0.35,0.37-0.56c0.13-0.2,0.26-0.42,0.4-0.63c0.28-0.44,0.54-0.82,0.78-1.16
		s0.47-0.62,0.67-0.86c0.42-0.47,0.87-0.71,1.35-0.71c0.12,0,0.22,0.04,0.31,0.1s0.17,0.16,0.23,0.28s0.12,0.24,0.16,0.39
		c0.04,0.14,0.08,0.29,0.11,0.44c0.05,0.25,0.1,0.53,0.15,0.84c0.05,0.31,0.09,0.6,0.14,0.86c0.05,0.27,0.1,0.49,0.15,0.67
		c0.05,0.18,0.11,0.27,0.18,0.27c0.05,0,0.12-0.04,0.2-0.12c0.08-0.08,0.16-0.19,0.24-0.31c0.08-0.13,0.17-0.27,0.25-0.43
		c0.09-0.16,0.17-0.31,0.25-0.47c0.08-0.15,0.15-0.29,0.22-0.42s0.12-0.23,0.16-0.31c0.11-0.19,0.24-0.41,0.38-0.64
		c0.14-0.23,0.3-0.45,0.46-0.65c0.17-0.2,0.35-0.37,0.54-0.5c0.19-0.13,0.4-0.2,0.61-0.2c0.22,0,0.4,0.05,0.52,0.15
		s0.23,0.25,0.31,0.45c0.08,0.2,0.15,0.45,0.22,0.75c0.06,0.3,0.14,0.66,0.24,1.06c0.15,0.66,0.32,1.14,0.5,1.47
		c0.18,0.32,0.42,0.48,0.71,0.48c0.18,0,0.37-0.01,0.56-0.04c0.19-0.03,0.39-0.07,0.6-0.12c0.21-0.06,0.43-0.13,0.66-0.23
		c0.23-0.1,0.48-0.22,0.74-0.37c0.02-0.01,0.05-0.03,0.09-0.05s0.09-0.04,0.13-0.07s0.09-0.04,0.13-0.06
		c0.04-0.01,0.07-0.02,0.08-0.02c0.02,0,0.04,0.01,0.07,0.03c0.03,0.02,0.05,0.05,0.08,0.08c0.02,0.03,0.05,0.07,0.07,0.1
		C64.85,20.72,64.86,20.75,64.86,20.78z"/>
	<path class="st0" d="M71.7,20.16c0,0.17-0.06,0.36-0.19,0.57c-0.13,0.2-0.31,0.43-0.55,0.69c-0.27,0.29-0.57,0.55-0.9,0.8
		c-0.33,0.25-0.67,0.46-1.01,0.64s-0.7,0.32-1.06,0.43c-0.36,0.1-0.7,0.16-1.04,0.16c-0.78,0-1.38-0.25-1.81-0.75
		c-0.43-0.5-0.64-1.24-0.64-2.2c0-0.31,0.03-0.62,0.08-0.94s0.14-0.64,0.24-0.95s0.24-0.62,0.4-0.91s0.35-0.57,0.56-0.82
		c0.13-0.15,0.28-0.31,0.45-0.47s0.34-0.3,0.54-0.43c0.2-0.13,0.42-0.23,0.65-0.31c0.24-0.08,0.49-0.12,0.77-0.12
		c0.2,0,0.38,0.04,0.54,0.12c0.16,0.08,0.29,0.18,0.4,0.29c0.11,0.12,0.19,0.25,0.25,0.4c0.06,0.15,0.09,0.3,0.09,0.44
		c0,0.3-0.08,0.61-0.25,0.92c-0.16,0.31-0.39,0.62-0.69,0.94s-0.66,0.63-1.07,0.95c-0.42,0.32-0.88,0.63-1.39,0.94
		c-0.07,0.04-0.14,0.08-0.21,0.13c-0.07,0.05-0.1,0.11-0.1,0.18c0,0.15,0.02,0.3,0.06,0.47s0.11,0.31,0.22,0.45s0.24,0.25,0.42,0.34
		c0.18,0.09,0.4,0.13,0.67,0.13c0.35,0,0.7-0.06,1.06-0.17c0.36-0.11,0.71-0.27,1.06-0.47c0.34-0.2,0.68-0.43,1-0.71
		s0.63-0.57,0.91-0.89c0.16-0.17,0.29-0.26,0.38-0.26c0.05,0,0.09,0.03,0.12,0.1S71.7,20.01,71.7,20.16z M68.24,16.98
		c0-0.05-0.01-0.1-0.04-0.15c-0.03-0.04-0.07-0.08-0.11-0.11c-0.04-0.03-0.09-0.05-0.13-0.07s-0.09-0.03-0.12-0.03
		c-0.22,0-0.44,0.08-0.67,0.24s-0.44,0.37-0.64,0.65c-0.2,0.28-0.37,0.61-0.52,0.99c-0.15,0.38-0.25,0.8-0.31,1.24
		c0.07-0.04,0.16-0.11,0.28-0.19c0.11-0.08,0.24-0.18,0.37-0.28c0.13-0.1,0.26-0.21,0.39-0.31c0.13-0.1,0.25-0.2,0.35-0.29
		c0.23-0.19,0.42-0.37,0.57-0.52c0.15-0.15,0.27-0.29,0.35-0.42s0.15-0.25,0.18-0.37C68.23,17.24,68.24,17.11,68.24,16.98z"/>
	<path class="st0" d="M89.63,23.37c0,0.2-0.06,0.37-0.19,0.51c-0.13,0.14-0.29,0.21-0.5,0.21c-0.09,0-0.16-0.02-0.22-0.06
		c-0.07-0.05-0.15-0.13-0.23-0.22c-0.08-0.09-0.17-0.21-0.27-0.35c-0.18-0.28-0.35-0.58-0.5-0.89s-0.27-0.58-0.37-0.82
		c-0.02-0.07-0.05-0.13-0.08-0.19s-0.05-0.12-0.08-0.18s-0.06-0.13-0.08-0.2c-0.03-0.07-0.06-0.16-0.1-0.26
		c-0.14-0.43-0.25-0.71-0.31-0.84c-0.07,0.07-0.14,0.12-0.2,0.16s-0.13,0.06-0.2,0.08c-0.07,0.02-0.15,0.03-0.22,0.03
		c-0.08,0-0.16,0-0.25,0c-0.05,0-0.11,0.01-0.19,0.03c-0.07,0.02-0.16,0.04-0.24,0.07c-0.09,0.03-0.17,0.05-0.26,0.08
		c-0.08,0.03-0.16,0.05-0.24,0.07c-0.25,0.07-0.5,0.13-0.75,0.19s-0.51,0.11-0.78,0.16c-0.27,0.05-0.55,0.1-0.84,0.15
		c-0.29,0.05-0.6,0.1-0.93,0.15c-0.15,0.02-0.29,0.12-0.42,0.29c-0.13,0.17-0.4,0.55-0.8,1.12c-0.4,0.57-0.73,0.98-1.01,1.24
		c-0.27,0.26-0.54,0.39-0.8,0.39c-0.33,0-0.6-0.06-0.82-0.19c-0.25-0.16-0.37-0.33-0.37-0.51c0-0.09,0.05-0.16,0.16-0.21
		c0.11-0.04,0.25-0.08,0.44-0.12c0.06,0,0.2-0.13,0.41-0.36c0.2-0.23,0.36-0.42,0.46-0.57c0.21-0.27,0.42-0.56,0.64-0.88
		c0.22-0.31,0.46-0.66,0.73-1.05c0.13-0.2,0.24-0.37,0.34-0.51c0.1-0.14,0.18-0.27,0.25-0.36c0.07-0.1,0.15-0.21,0.23-0.34
		c0.09-0.12,0.19-0.26,0.3-0.42c0.05-0.07,0.11-0.15,0.18-0.25s0.15-0.21,0.25-0.33c0.09-0.13,0.18-0.24,0.26-0.34
		c0.08-0.1,0.14-0.19,0.2-0.27c0.06-0.08,0.13-0.18,0.23-0.3s0.2-0.26,0.32-0.42c0.04-0.05,0.12-0.17,0.23-0.35s0.27-0.44,0.47-0.76
		c0.28-0.46,0.46-0.8,0.54-1.01c0.58-1.41,1.02-2.11,1.31-2.11c0.13,0,0.23,0.01,0.31,0.03c0.08,0.02,0.14,0.06,0.19,0.11
		c0.04,0.05,0.08,0.12,0.09,0.21s0.02,0.19,0.02,0.32c0,0.08,0,0.16,0,0.22c0,0.06,0,0.12-0.01,0.16c0,0.08-0.01,0.18-0.01,0.31
		s-0.01,0.27-0.02,0.44c0.25,0.52,0.48,1.08,0.71,1.68c0.11,0.3,0.23,0.63,0.36,0.99c0.13,0.36,0.26,0.76,0.41,1.19
		c0.14,0.43,0.27,0.79,0.38,1.09c0.11,0.3,0.2,0.55,0.27,0.74s0.15,0.41,0.25,0.65s0.21,0.52,0.35,0.83
		c0.05,0.11,0.24,0.39,0.56,0.83C89.47,22.86,89.63,23.18,89.63,23.37z M86.33,18.97c-0.09-0.27-0.19-0.57-0.29-0.88
		c-0.1-0.32-0.21-0.63-0.32-0.95s-0.23-0.62-0.34-0.91c-0.12-0.29-0.23-0.55-0.35-0.78c-0.28,0.38-0.54,0.74-0.79,1.09
		c-0.25,0.35-0.49,0.7-0.72,1.05s-0.46,0.71-0.68,1.08c-0.23,0.37-0.46,0.76-0.69,1.18c0.05,0.02,0.1,0.03,0.15,0.03
		c0.07,0,0.17-0.01,0.29-0.02c0.12-0.01,0.24-0.03,0.36-0.04c0.12-0.02,0.24-0.04,0.35-0.06c0.11-0.02,0.2-0.04,0.27-0.05
		c0.12-0.03,0.22-0.05,0.31-0.07c0.09-0.02,0.17-0.04,0.25-0.06c0.08-0.02,0.17-0.04,0.26-0.06s0.2-0.05,0.33-0.08
		c0.29-0.07,0.57-0.15,0.86-0.23S86.1,19.04,86.33,18.97z"/>
	<path class="st0" d="M103.48,17.69c0,0.06-0.01,0.13-0.04,0.2c-0.03,0.07-0.06,0.13-0.09,0.19c-0.11,0.21-0.25,0.44-0.42,0.68
		c-0.17,0.25-0.36,0.49-0.56,0.74c-0.2,0.25-0.41,0.49-0.63,0.73c-0.22,0.23-0.42,0.44-0.61,0.62c-0.16,0.15-0.35,0.33-0.56,0.51
		c-0.21,0.19-0.42,0.37-0.65,0.53c-0.22,0.16-0.45,0.3-0.68,0.41c-0.23,0.11-0.44,0.17-0.65,0.17c-0.1,0-0.23-0.04-0.38-0.1
		c-0.31-0.14-0.56-0.4-0.74-0.79c-0.09-0.19-0.16-0.38-0.22-0.57s-0.1-0.37-0.13-0.57c-0.03-0.19-0.05-0.4-0.07-0.61
		s-0.04-0.46-0.07-0.72c-0.62,1.16-1.42,2.18-2.41,3.08c-0.99,0.9-2.02,1.36-3.08,1.36c-0.29,0-0.52-0.16-0.67-0.47
		c-0.15-0.31-0.23-0.63-0.23-0.96c0-0.45,0.04-0.78,0.11-1c0.21-0.64,0.45-1.23,0.72-1.79c0.27-0.56,0.6-1.1,0.99-1.64
		c0.12-0.17,0.26-0.35,0.4-0.52c0.14-0.17,0.3-0.35,0.46-0.52c0.33-0.35,0.63-0.6,0.92-0.75c0.36-0.19,0.87-0.29,1.54-0.29
		c0.23,0,0.43,0.13,0.59,0.39c0.17,0.27,0.29,0.57,0.37,0.9c0.08,0.35,0.13,0.63,0.13,0.85c0.08-0.24,0.14-0.49,0.2-0.74
		c0.06-0.25,0.11-0.51,0.16-0.78c0.04-0.27,0.09-0.55,0.12-0.85c0.04-0.29,0.07-0.61,0.1-0.95c0.01-0.09,0.02-0.2,0.03-0.34
		c0.01-0.14,0.02-0.3,0.04-0.49c0.03-0.39,0.06-0.71,0.09-0.98c0.03-0.27,0.07-0.44,0.12-0.52c0.11-0.2,0.32-0.31,0.63-0.31
		c0.14,0,0.29,0.03,0.44,0.1c0.15,0.06,0.23,0.14,0.23,0.25c0,0.06-0.01,0.16-0.03,0.29c-0.02,0.13-0.05,0.31-0.09,0.52
		s-0.09,0.48-0.16,0.8c-0.07,0.32-0.14,0.69-0.22,1.12c-0.05,0.3-0.1,0.57-0.14,0.82c-0.04,0.25-0.08,0.47-0.12,0.68
		c-0.06,0.4-0.12,0.78-0.16,1.13C98.02,17.88,98,18.24,98,18.6c0,0.04,0,0.13,0.01,0.28c0,0.15,0.01,0.32,0.03,0.52
		s0.03,0.41,0.06,0.64c0.02,0.22,0.05,0.43,0.09,0.62c0.04,0.19,0.09,0.34,0.14,0.47s0.12,0.19,0.19,0.19c0.1,0,0.2-0.01,0.28-0.03
		c0.08-0.02,0.17-0.05,0.26-0.1c0.09-0.04,0.19-0.1,0.29-0.17c0.1-0.07,0.23-0.15,0.37-0.24c0.14-0.09,0.3-0.21,0.47-0.35
		c0.17-0.14,0.33-0.29,0.5-0.44c0.17-0.16,0.33-0.31,0.49-0.47c0.16-0.16,0.3-0.3,0.42-0.44c0.3-0.32,0.58-0.64,0.85-0.95
		c0.27-0.32,0.51-0.59,0.72-0.81c0.01-0.01,0.05-0.03,0.12-0.04c0.06-0.01,0.1-0.02,0.11-0.02c0.03,0,0.05,0.02,0.06,0.05
		s0.02,0.07,0.02,0.12c0,0.04,0.01,0.09,0,0.14C103.48,17.61,103.48,17.65,103.48,17.69z M96.22,18.88
		c-0.13-0.03-0.23-0.09-0.29-0.19c-0.07-0.1-0.1-0.21-0.1-0.33c0-0.1,0.01-0.25,0.04-0.44c0.03-0.19,0.04-0.34,0.04-0.45
		c0-0.09-0.02-0.19-0.07-0.3s-0.11-0.22-0.18-0.31c-0.07-0.1-0.16-0.18-0.25-0.25c-0.09-0.07-0.18-0.1-0.27-0.1
		c-0.26,0-0.62,0.28-1.07,0.83c-0.23,0.28-0.44,0.55-0.63,0.81c-0.19,0.26-0.37,0.52-0.52,0.77c-0.17,0.28-0.32,0.53-0.44,0.76
		c-0.12,0.23-0.23,0.43-0.31,0.61c-0.29,0.63-0.44,1.12-0.44,1.49c0,0.46,0.16,0.69,0.47,0.69c0.28,0,0.66-0.16,1.15-0.48
		c0.49-0.33,0.88-0.64,1.16-0.92c0.28-0.29,0.52-0.54,0.71-0.75s0.34-0.37,0.45-0.5C95.86,19.55,96.05,19.24,96.22,18.88z"/>
	<path class="st0" d="M118.8,18.61c0,0.17-0.09,0.38-0.26,0.65c-0.35,0.5-0.69,0.94-1.03,1.32c-0.34,0.38-0.69,0.72-1.05,1.03
		c-0.13,0.11-0.27,0.22-0.43,0.32c-0.16,0.11-0.33,0.21-0.52,0.32c-0.38,0.2-0.7,0.3-0.94,0.3c-0.32,0-0.61-0.17-0.87-0.51
		c-0.26-0.35-0.48-0.74-0.67-1.18c-0.09-0.22-0.19-0.45-0.29-0.67c-0.1-0.22-0.2-0.45-0.3-0.69c-0.2-0.47-0.37-0.7-0.51-0.7
		c-0.21,0-0.44,0.18-0.7,0.54s-0.59,0.9-1,1.62c-0.4,0.72-0.74,1.26-1.02,1.63s-0.53,0.55-0.76,0.55c-0.34,0-0.57-0.16-0.69-0.48
		c-0.11-0.33-0.18-0.88-0.2-1.64c-0.01-0.39-0.02-0.71-0.03-0.98s-0.02-0.47-0.03-0.62c-0.02-0.3-0.12-0.54-0.31-0.72
		c-0.17,0.01-0.43,0.22-0.77,0.62c-0.34,0.41-0.64,0.81-0.91,1.22c-0.26,0.4-0.51,0.81-0.75,1.21c-0.07,0.13-0.15,0.25-0.22,0.37
		s-0.14,0.24-0.22,0.37c-0.11,0.21-0.22,0.39-0.32,0.54s-0.18,0.28-0.26,0.38c-0.14,0.21-0.32,0.31-0.52,0.31
		c-0.38,0-0.63-0.19-0.74-0.58c-0.11-0.41-0.17-0.85-0.17-1.31c0-0.16,0-0.32,0.02-0.47c0.01-0.15,0.02-0.31,0.04-0.45
		c0.02-0.15,0.05-0.32,0.08-0.52c0.03-0.2,0.07-0.42,0.12-0.66c0.09-0.48,0.16-0.84,0.2-1.07c0.05-0.33,0.1-0.61,0.13-0.84
		c0.03-0.23,0.04-0.43,0.04-0.58c0-0.12,0.03-0.22,0.1-0.3c0.07-0.08,0.17-0.12,0.29-0.12c0.5,0,0.74,0.34,0.74,1.02
		c0,0.18-0.01,0.38-0.04,0.6c-0.02,0.22-0.06,0.45-0.1,0.69c-0.04,0.24-0.09,0.48-0.13,0.73s-0.09,0.48-0.14,0.7
		c-0.09,0.55-0.13,0.92-0.13,1.11c0.13-0.13,0.3-0.33,0.51-0.61c0.2-0.28,0.44-0.63,0.71-1.07c0.28-0.44,0.54-0.82,0.78-1.16
		s0.46-0.62,0.67-0.86c0.42-0.47,0.87-0.71,1.35-0.71c0.11,0,0.19,0.02,0.25,0.06c0.27,0.2,0.46,0.59,0.57,1.15
		c0.06,0.28,0.11,0.58,0.16,0.89c0.05,0.31,0.09,0.64,0.12,1c0.06,0.69,0.13,1.03,0.19,1.03c0.09,0,0.25-0.2,0.48-0.59
		c0.02-0.03,0.07-0.12,0.15-0.26c0.08-0.14,0.17-0.29,0.26-0.45c0.09-0.16,0.18-0.32,0.26-0.46c0.08-0.14,0.14-0.24,0.17-0.29
		c0.35-0.61,0.69-1.08,1.01-1.43c0.33-0.37,0.66-0.56,0.98-0.56c0.3,0,0.51,0.1,0.63,0.3c0.06,0.1,0.13,0.23,0.2,0.39
		c0.07,0.16,0.14,0.35,0.21,0.56c0.08,0.26,0.17,0.49,0.24,0.7s0.15,0.4,0.22,0.57s0.15,0.33,0.24,0.5s0.2,0.32,0.32,0.47
		c0.25,0.31,0.53,0.46,0.83,0.46c0.34,0,0.82-0.28,1.46-0.84c0.32-0.28,0.64-0.58,0.97-0.91c0.33-0.32,0.67-0.67,1.03-1.03
		c0.06-0.06,0.11-0.09,0.16-0.09C118.76,18.41,118.8,18.48,118.8,18.61z"/>
	<path class="st0" d="M125.84,19.01v0.01c0,0.11-0.05,0.25-0.15,0.43s-0.23,0.38-0.4,0.6c-0.17,0.22-0.36,0.46-0.58,0.71
		c-0.22,0.25-0.45,0.51-0.68,0.77c-0.28,0.3-0.58,0.58-0.88,0.86c-0.3,0.28-0.64,0.54-0.99,0.8c-0.69,0.52-1.32,0.77-1.86,0.77
		c-0.6,0-1.07-0.2-1.4-0.6c-0.33-0.41-0.56-0.9-0.68-1.47c-0.12-0.57-0.18-1.16-0.18-1.76c0-0.25,0.03-0.65,0.09-1.18
		c0.03-0.27,0.06-0.5,0.09-0.69c0.03-0.19,0.06-0.35,0.1-0.47c0.07-0.23,0.22-0.44,0.44-0.61c0.23-0.18,0.47-0.28,0.71-0.28
		c0.13,0,0.2,0.13,0.2,0.38c0,0.17-0.02,0.36-0.05,0.57s-0.07,0.42-0.1,0.63c-0.06,0.39-0.11,0.74-0.14,1.05
		c-0.03,0.31-0.04,0.58-0.04,0.81c0,0.51,0.07,1.01,0.21,1.52c0.14,0.52,0.39,0.78,0.75,0.78c0.37,0,0.79-0.13,1.28-0.4
		c0.24-0.14,0.49-0.29,0.73-0.46c0.24-0.17,0.49-0.36,0.73-0.57c0.25-0.21,0.49-0.42,0.71-0.63s0.45-0.43,0.67-0.65
		c0.22-0.22,0.42-0.43,0.59-0.63c0.17-0.19,0.32-0.37,0.45-0.54c0.01-0.02,0.03-0.06,0.06-0.11c0.03-0.05,0.06-0.08,0.08-0.08
		l0.02,0.01c0.04,0,0.07,0.01,0.09,0.04s0.04,0.07,0.07,0.12C125.83,18.87,125.85,18.95,125.84,19.01z M120.97,12.96
		c0,0.32-0.08,0.6-0.25,0.83c-0.16,0.23-0.4,0.34-0.72,0.34c-0.2,0-0.42-0.03-0.66-0.09c-0.24-0.06-0.36-0.16-0.36-0.29
		c0-0.24,0.08-0.48,0.23-0.7s0.33-0.4,0.55-0.54c0.17-0.1,0.29-0.15,0.33-0.15c0.28,0,0.5,0.04,0.66,0.12
		C120.89,12.55,120.97,12.71,120.97,12.96z"/>
	<path class="st0" d="M135,21.65c0,0.17-0.06,0.36-0.18,0.57c-0.12,0.21-0.29,0.4-0.53,0.58c-0.23,0.18-0.52,0.33-0.86,0.45
		c-0.34,0.12-0.74,0.18-1.18,0.18c-0.45,0-0.84-0.08-1.18-0.23c-0.34-0.16-0.63-0.4-0.87-0.73c-0.24-0.33-0.42-0.75-0.54-1.27
		c-0.12-0.51-0.18-1.12-0.18-1.83c-0.08,0.05-0.2,0.15-0.35,0.3c-0.15,0.15-0.33,0.33-0.52,0.54c-0.19,0.21-0.39,0.43-0.6,0.67
		c-0.21,0.24-0.4,0.47-0.59,0.69c-0.19,0.22-0.35,0.42-0.5,0.61c-0.15,0.19-0.25,0.33-0.32,0.44c-0.12,0.19-0.22,0.35-0.3,0.47
		c-0.07,0.13-0.14,0.23-0.21,0.3s-0.13,0.13-0.2,0.16c-0.07,0.03-0.17,0.05-0.28,0.05c-0.1,0-0.2-0.02-0.29-0.05
		c-0.09-0.03-0.17-0.07-0.23-0.13c-0.06-0.05-0.11-0.11-0.15-0.17c-0.04-0.06-0.05-0.13-0.05-0.19c0-0.09,0-0.19,0.01-0.31
		c0.01-0.12,0.02-0.24,0.04-0.36c0.02-0.12,0.04-0.24,0.06-0.36c0.02-0.12,0.04-0.23,0.05-0.32c0.05-0.26,0.1-0.57,0.16-0.92
		c0.06-0.35,0.11-0.78,0.14-1.29c0.02-0.32,0.05-0.63,0.07-0.92c0.02-0.29,0.03-0.59,0.03-0.9c0-0.15,0.02-0.29,0.05-0.43
		c0.03-0.14,0.09-0.26,0.16-0.37c0.07-0.11,0.16-0.19,0.27-0.26s0.23-0.1,0.38-0.1c0.11,0,0.2,0.01,0.27,0.04s0.12,0.07,0.16,0.12
		s0.07,0.11,0.08,0.17c0.01,0.06,0.02,0.13,0.02,0.19c0,0.08,0,0.15-0.01,0.22s-0.01,0.13-0.01,0.19c0,0.02-0.01,0.07-0.02,0.17
		c-0.02,0.1-0.04,0.22-0.06,0.37c-0.03,0.15-0.06,0.31-0.1,0.5s-0.08,0.37-0.12,0.55c-0.08,0.38-0.15,0.69-0.18,0.92
		s-0.06,0.43-0.08,0.6s-0.03,0.32-0.04,0.46c-0.01,0.14-0.02,0.32-0.05,0.52c0.11-0.15,0.26-0.33,0.46-0.55s0.4-0.45,0.62-0.68
		c0.21-0.24,0.42-0.46,0.61-0.69c0.2-0.22,0.35-0.41,0.46-0.55c0.15-0.2,0.3-0.38,0.45-0.54c0.15-0.16,0.31-0.3,0.48-0.42
		c0.16-0.12,0.34-0.21,0.52-0.28c0.18-0.07,0.38-0.1,0.59-0.1c0.14,0,0.24,0.04,0.28,0.1c0.04,0.07,0.06,0.15,0.06,0.25
		c0,0.04,0,0.08,0,0.12c0,0.04,0,0.08,0,0.12s-0.01,0.11-0.02,0.21s-0.03,0.21-0.04,0.33c-0.01,0.12-0.03,0.23-0.04,0.33
		s-0.02,0.18-0.02,0.22c0,0.43,0.03,0.83,0.1,1.19c0.06,0.36,0.17,0.67,0.31,0.93c0.14,0.26,0.33,0.46,0.57,0.61
		c0.24,0.14,0.53,0.22,0.88,0.22c0.22,0,0.42-0.01,0.59-0.04c0.17-0.03,0.33-0.07,0.49-0.14c0.16-0.06,0.31-0.15,0.48-0.25
		c0.16-0.1,0.34-0.22,0.55-0.37c0.05-0.04,0.1-0.08,0.15-0.11c0.04-0.02,0.08-0.05,0.12-0.07c0.04-0.02,0.07-0.04,0.1-0.04
		L135,21.65z"/>
</g>
</svg>
